M48
;Layer_Color=9474304
;FILE_FORMAT=2:3
INCH,LZ
;TYPE=PLATED
T1F00S00C0.028
T2F00S00C0.040
T3F00S00C0.042
T4F00S00C0.043
T5F00S00C0.047
T6F00S00C0.157
;TYPE=NON_PLATED
T7F00S00C0.050
T8F00S00C0.052
%
T01
X01102Y01102
X0126
X01417
X01496Y0126
X01339
X01181
X01102Y01417
X0126
X01575
X01732
X01811Y0126
X01654
X01575Y01102
X01732
X0189
X02047
X02205
X02362
X0252
X02677
X02835
X02992
X03071Y0126
X02992Y01417
X02677
X02362
X02205
X02047
X02283Y0126
X02441
X03228
X03386
X03543
X03701
X03858
X04016
X03937Y01417
Y01102
X0378
X03622
X03465
X03307
X0315
Y01417
X03307
X03465
X03622
X03701Y01575
X03858
X0378Y01732
X03622
X03465
X03307
X0315
X03228Y0189
X03386
X03543
X03701
X03622Y02047
X03465
X03307
X0315
X03228Y02205
X03386
X03307Y02362
X0315
X03228Y0252
X0315Y02677
X03307
X03228Y02835
X0315Y02992
X03307
X03465
X03622
X03701Y02835
X03543
X03622Y02677
X0378
X03701Y0252
X03543
X03622Y02362
X0378
X03858Y02205
X03543Y01575
X03386
X03228
X03071
X02992Y01732
X03071Y0189
X02992Y02047
X03071Y02205
X02992Y02362
X03071Y0252
X02913
X02992Y02677
X03071Y02835
X02913
X02992Y02992
X02677
X0252
X02362
Y02677
X0252
X02677
X02598Y02835
Y0252
X02677Y02362
X02756Y02205
X02598
X02441
X02362Y02362
Y02047
X0252
X02677
X02756Y0189
X02598
X02441
X02362Y01732
X0252
X02677
X02756Y01575
X02598
X02283
X02126
X01969
X01811
X01654
X01575Y01732
X01732
X0189
X02047
X02126Y0189
X01969
X01811
X01654
X01575Y02047
X01732
X01811Y02205
X01654
X01575Y02362
X01654Y0252
X01811
X01969
X02126
X02047Y02677
X01969Y02835
X01811
X01732Y02677
X01575
X0189Y02362
X02126Y02205
X02047Y02047
X01915Y0298
Y03045
Y0311
X0126Y02992
X01102
X01181Y02835
X01102Y02677
X01181Y0252
X01102Y02362
X0126
X01417
X01496Y0252
Y02205
X01417Y02047
X01496Y0189
X01417Y01732
X0126
X01102
X01181Y0189
X01102Y02047
X01181Y02205
Y01575
X01339
X01496
Y0315
X01417Y03307
Y03622
X0126
X01102
X01181Y0378
X01102Y03937
X0126
X01417
X01181Y03465
X01102Y03307
X01181Y0315
X01732Y03307
Y03622
X01811Y0378
X01732Y03937
X01575
X02047Y03622
X0215Y03585
Y0352
Y03455
Y03385
Y0366
X02598Y0315
X0315Y03307
X03386Y0315
X03543
X03701
X03858
X04016Y03465
X03937Y03622
X0378
X03595Y0361
X03575Y039
X0378Y03937
X03937
X04016Y0378
X03228
X03307Y03937
T02
X02017Y01275
X02135
X01295Y01975
Y02093
X013Y02562
Y0268
X01305Y03155
Y03273
T03
X02562Y01285
X0268
X02798
X02916
X03913Y01733
Y01851
Y01969
Y02087
X03915Y02492
Y0261
Y02728
Y02846
T04
X019Y02615
X0296Y0314
X0306
T05
X01701Y02416
X02099
Y02814
X01701
T06
X01394Y01394
X03756
X01394Y03756
X03756
T07
X01899Y01352
X02253
X01372Y01857
Y02211
X01377Y02444
Y02798
X01382Y03037
Y03391
T08
X02444Y01362
X03034
X0399Y01614
Y02205
X03992Y02374
Y02964
M30
