%TF.GenerationSoftware,Altium Limited,Altium Designer,22.9.1 (49)*%
G04 Layer_Color=2752767*
%FSLAX23Y23*%
%MOIN*%
%TF.SameCoordinates,7E49B892-F471-4493-957F-970E4ADD815D*%
%TF.FilePolarity,Positive*%
%TF.FileFunction,Drawing*%
%TF.Part,Single*%
G01*
G75*
%TA.AperFunction,NonConductor*%
%ADD59C,0.005*%
%ADD87C,0.007*%
D59*
X2079Y2396D02*
Y2436D01*
X2119D01*
Y2396D01*
X2079D01*
X2087Y2404D02*
Y2428D01*
X2111D01*
Y2404D01*
X2087D01*
X1681Y2396D02*
Y2436D01*
X1721D01*
Y2396D01*
X1681D01*
X1689Y2404D02*
Y2428D01*
X1713D01*
Y2404D01*
X1689D01*
X2079Y2794D02*
Y2834D01*
X2119D01*
Y2794D01*
X2079D01*
X2087Y2802D02*
Y2826D01*
X2111D01*
Y2802D01*
X2087D01*
X1681Y2794D02*
Y2834D01*
X1721D01*
Y2794D01*
X1681D01*
X1689Y2802D02*
Y2826D01*
X1713D01*
Y2802D01*
X1689D01*
X1880Y2595D02*
Y2635D01*
X1920D01*
Y2595D01*
X1880D01*
X3990Y1594D02*
X3970Y1634D01*
X4010D01*
X3990Y1594D01*
Y2185D02*
X3970Y2225D01*
X4010D01*
X3990Y2185D01*
X3992Y2354D02*
X3972Y2394D01*
X4012D01*
X3992Y2354D01*
Y2944D02*
X3972Y2984D01*
X4012D01*
X3992Y2944D01*
X1377Y2778D02*
X1387Y2788D01*
X1397D01*
X1387Y2798D01*
X1397Y2808D01*
X1387D01*
X1377Y2818D01*
X1367Y2808D01*
X1357D01*
X1367Y2798D01*
X1357Y2788D01*
X1367D01*
X1377Y2778D01*
Y2424D02*
X1387Y2434D01*
X1397D01*
X1387Y2444D01*
X1397Y2454D01*
X1387D01*
X1377Y2464D01*
X1367Y2454D01*
X1357D01*
X1367Y2444D01*
X1357Y2434D01*
X1367D01*
X1377Y2424D01*
X1280Y2660D02*
X1290Y2680D01*
X1280Y2700D01*
X1300Y2690D01*
X1320Y2700D01*
X1310Y2680D01*
X1320Y2660D01*
X1300Y2670D01*
X1280Y2660D01*
Y2542D02*
X1290Y2562D01*
X1280Y2582D01*
X1300Y2572D01*
X1320Y2582D01*
X1310Y2562D01*
X1320Y2542D01*
X1300Y2552D01*
X1280Y2542D01*
X1899Y1332D02*
X1909Y1342D01*
X1919D01*
X1909Y1352D01*
X1919Y1362D01*
X1909D01*
X1899Y1372D01*
X1889Y1362D01*
X1879D01*
X1889Y1352D01*
X1879Y1342D01*
X1889D01*
X1899Y1332D01*
X2253D02*
X2263Y1342D01*
X2273D01*
X2263Y1352D01*
X2273Y1362D01*
X2263D01*
X2253Y1372D01*
X2243Y1362D01*
X2233D01*
X2243Y1352D01*
X2233Y1342D01*
X2243D01*
X2253Y1332D01*
X1997Y1255D02*
X2007Y1275D01*
X1997Y1295D01*
X2017Y1285D01*
X2037Y1295D01*
X2027Y1275D01*
X2037Y1255D01*
X2017Y1265D01*
X1997Y1255D01*
X2115D02*
X2125Y1275D01*
X2115Y1295D01*
X2135Y1285D01*
X2155Y1295D01*
X2145Y1275D01*
X2155Y1255D01*
X2135Y1265D01*
X2115Y1255D01*
X1382Y3371D02*
X1392Y3381D01*
X1402D01*
X1392Y3391D01*
X1402Y3401D01*
X1392D01*
X1382Y3411D01*
X1372Y3401D01*
X1362D01*
X1372Y3391D01*
X1362Y3381D01*
X1372D01*
X1382Y3371D01*
Y3017D02*
X1392Y3027D01*
X1402D01*
X1392Y3037D01*
X1402Y3047D01*
X1392D01*
X1382Y3057D01*
X1372Y3047D01*
X1362D01*
X1372Y3037D01*
X1362Y3027D01*
X1372D01*
X1382Y3017D01*
X1285Y3253D02*
X1295Y3273D01*
X1285Y3293D01*
X1305Y3283D01*
X1325Y3293D01*
X1315Y3273D01*
X1325Y3253D01*
X1305Y3263D01*
X1285Y3253D01*
Y3135D02*
X1295Y3155D01*
X1285Y3175D01*
X1305Y3165D01*
X1325Y3175D01*
X1315Y3155D01*
X1325Y3135D01*
X1305Y3145D01*
X1285Y3135D01*
X1372Y2191D02*
X1382Y2201D01*
X1392D01*
X1382Y2211D01*
X1392Y2221D01*
X1382D01*
X1372Y2231D01*
X1362Y2221D01*
X1352D01*
X1362Y2211D01*
X1352Y2201D01*
X1362D01*
X1372Y2191D01*
Y1837D02*
X1382Y1847D01*
X1392D01*
X1382Y1857D01*
X1392Y1867D01*
X1382D01*
X1372Y1877D01*
X1362Y1867D01*
X1352D01*
X1362Y1857D01*
X1352Y1847D01*
X1362D01*
X1372Y1837D01*
X1275Y2073D02*
X1285Y2093D01*
X1275Y2113D01*
X1295Y2103D01*
X1315Y2113D01*
X1305Y2093D01*
X1315Y2073D01*
X1295Y2083D01*
X1275Y2073D01*
Y1955D02*
X1285Y1975D01*
X1275Y1995D01*
X1295Y1985D01*
X1315Y1995D01*
X1305Y1975D01*
X1315Y1955D01*
X1295Y1965D01*
X1275Y1955D01*
X2444Y1342D02*
X2424Y1382D01*
X2464D01*
X2444Y1342D01*
X3034D02*
X3014Y1382D01*
X3054D01*
X3034Y1342D01*
X3040Y3120D02*
Y3160D01*
X3080D01*
Y3120D01*
X3040D01*
X2940D02*
Y3160D01*
X2980D01*
Y3120D01*
X2940D01*
X2037Y1407D02*
Y1397D01*
X2057D01*
Y1407D01*
X2067D01*
Y1427D01*
X2057D01*
Y1437D01*
X2037D01*
Y1427D01*
X2027D01*
Y1407D01*
X2037D01*
X2195D02*
Y1397D01*
X2215D01*
Y1407D01*
X2225D01*
Y1427D01*
X2215D01*
Y1437D01*
X2195D01*
Y1427D01*
X2185D01*
Y1407D01*
X2195D01*
X2273Y1250D02*
Y1240D01*
X2293D01*
Y1250D01*
X2303D01*
Y1270D01*
X2293D01*
Y1280D01*
X2273D01*
Y1270D01*
X2263D01*
Y1250D01*
X2273D01*
X2195Y1092D02*
Y1082D01*
X2215D01*
Y1092D01*
X2225D01*
Y1112D01*
X2215D01*
Y1122D01*
X2195D01*
Y1112D01*
X2185D01*
Y1092D01*
X2195D01*
X2037D02*
Y1082D01*
X2057D01*
Y1092D01*
X2067D01*
Y1112D01*
X2057D01*
Y1122D01*
X2037D01*
Y1112D01*
X2027D01*
Y1092D01*
X2037D01*
X1880D02*
Y1082D01*
X1900D01*
Y1092D01*
X1910D01*
Y1112D01*
X1900D01*
Y1122D01*
X1880D01*
Y1112D01*
X1870D01*
Y1092D01*
X1880D01*
X1801Y1250D02*
Y1240D01*
X1821D01*
Y1250D01*
X1831D01*
Y1270D01*
X1821D01*
Y1280D01*
X1801D01*
Y1270D01*
X1791D01*
Y1250D01*
X1801D01*
X3927Y3927D02*
Y3917D01*
X3947D01*
Y3927D01*
X3957D01*
Y3947D01*
X3947D01*
Y3957D01*
X3927D01*
Y3947D01*
X3917D01*
Y3927D01*
X3927D01*
X4006Y3770D02*
Y3760D01*
X4026D01*
Y3770D01*
X4036D01*
Y3790D01*
X4026D01*
Y3800D01*
X4006D01*
Y3790D01*
X3996D01*
Y3770D01*
X4006D01*
X3927Y3612D02*
Y3602D01*
X3947D01*
Y3612D01*
X3957D01*
Y3632D01*
X3947D01*
Y3642D01*
X3927D01*
Y3632D01*
X3917D01*
Y3612D01*
X3927D01*
X4006Y3455D02*
Y3445D01*
X4026D01*
Y3455D01*
X4036D01*
Y3475D01*
X4026D01*
Y3485D01*
X4006D01*
Y3475D01*
X3996D01*
Y3455D01*
X4006D01*
X3927Y1407D02*
Y1397D01*
X3947D01*
Y1407D01*
X3957D01*
Y1427D01*
X3947D01*
Y1437D01*
X3927D01*
Y1427D01*
X3917D01*
Y1407D01*
X3927D01*
X4006Y1250D02*
Y1240D01*
X4026D01*
Y1250D01*
X4036D01*
Y1270D01*
X4026D01*
Y1280D01*
X4006D01*
Y1270D01*
X3996D01*
Y1250D01*
X4006D01*
X3927Y1092D02*
Y1082D01*
X3947D01*
Y1092D01*
X3957D01*
Y1112D01*
X3947D01*
Y1122D01*
X3927D01*
Y1112D01*
X3917D01*
Y1092D01*
X3927D01*
X3770Y3927D02*
Y3917D01*
X3790D01*
Y3927D01*
X3800D01*
Y3947D01*
X3790D01*
Y3957D01*
X3770D01*
Y3947D01*
X3760D01*
Y3927D01*
X3770D01*
Y3612D02*
Y3602D01*
X3790D01*
Y3612D01*
X3800D01*
Y3632D01*
X3790D01*
Y3642D01*
X3770D01*
Y3632D01*
X3760D01*
Y3612D01*
X3770D01*
X3848Y3140D02*
Y3130D01*
X3868D01*
Y3140D01*
X3878D01*
Y3160D01*
X3868D01*
Y3170D01*
X3848D01*
Y3160D01*
X3838D01*
Y3140D01*
X3848D01*
X3770Y2667D02*
Y2657D01*
X3790D01*
Y2667D01*
X3800D01*
Y2687D01*
X3790D01*
Y2697D01*
X3770D01*
Y2687D01*
X3760D01*
Y2667D01*
X3770D01*
Y2352D02*
Y2342D01*
X3790D01*
Y2352D01*
X3800D01*
Y2372D01*
X3790D01*
Y2382D01*
X3770D01*
Y2372D01*
X3760D01*
Y2352D01*
X3770D01*
X3848Y2195D02*
Y2185D01*
X3868D01*
Y2195D01*
X3878D01*
Y2215D01*
X3868D01*
Y2225D01*
X3848D01*
Y2215D01*
X3838D01*
Y2195D01*
X3848D01*
X3770Y1722D02*
Y1712D01*
X3790D01*
Y1722D01*
X3800D01*
Y1742D01*
X3790D01*
Y1752D01*
X3770D01*
Y1742D01*
X3760D01*
Y1722D01*
X3770D01*
X3848Y1565D02*
Y1555D01*
X3868D01*
Y1565D01*
X3878D01*
Y1585D01*
X3868D01*
Y1595D01*
X3848D01*
Y1585D01*
X3838D01*
Y1565D01*
X3848D01*
Y1250D02*
Y1240D01*
X3868D01*
Y1250D01*
X3878D01*
Y1270D01*
X3868D01*
Y1280D01*
X3848D01*
Y1270D01*
X3838D01*
Y1250D01*
X3848D01*
X3770Y1092D02*
Y1082D01*
X3790D01*
Y1092D01*
X3800D01*
Y1112D01*
X3790D01*
Y1122D01*
X3770D01*
Y1112D01*
X3760D01*
Y1092D01*
X3770D01*
X3691Y3140D02*
Y3130D01*
X3711D01*
Y3140D01*
X3721D01*
Y3160D01*
X3711D01*
Y3170D01*
X3691D01*
Y3160D01*
X3681D01*
Y3140D01*
X3691D01*
X3612Y2982D02*
Y2972D01*
X3632D01*
Y2982D01*
X3642D01*
Y3002D01*
X3632D01*
Y3012D01*
X3612D01*
Y3002D01*
X3602D01*
Y2982D01*
X3612D01*
X3691Y2825D02*
Y2815D01*
X3711D01*
Y2825D01*
X3721D01*
Y2845D01*
X3711D01*
Y2855D01*
X3691D01*
Y2845D01*
X3681D01*
Y2825D01*
X3691D01*
X3612Y2667D02*
Y2657D01*
X3632D01*
Y2667D01*
X3642D01*
Y2687D01*
X3632D01*
Y2697D01*
X3612D01*
Y2687D01*
X3602D01*
Y2667D01*
X3612D01*
X3691Y2510D02*
Y2500D01*
X3711D01*
Y2510D01*
X3721D01*
Y2530D01*
X3711D01*
Y2540D01*
X3691D01*
Y2530D01*
X3681D01*
Y2510D01*
X3691D01*
X3612Y2352D02*
Y2342D01*
X3632D01*
Y2352D01*
X3642D01*
Y2372D01*
X3632D01*
Y2382D01*
X3612D01*
Y2372D01*
X3602D01*
Y2352D01*
X3612D01*
Y2037D02*
Y2027D01*
X3632D01*
Y2037D01*
X3642D01*
Y2057D01*
X3632D01*
Y2067D01*
X3612D01*
Y2057D01*
X3602D01*
Y2037D01*
X3612D01*
X3691Y1880D02*
Y1870D01*
X3711D01*
Y1880D01*
X3721D01*
Y1900D01*
X3711D01*
Y1910D01*
X3691D01*
Y1900D01*
X3681D01*
Y1880D01*
X3691D01*
X3612Y1722D02*
Y1712D01*
X3632D01*
Y1722D01*
X3642D01*
Y1742D01*
X3632D01*
Y1752D01*
X3612D01*
Y1742D01*
X3602D01*
Y1722D01*
X3612D01*
X3691Y1565D02*
Y1555D01*
X3711D01*
Y1565D01*
X3721D01*
Y1585D01*
X3711D01*
Y1595D01*
X3691D01*
Y1585D01*
X3681D01*
Y1565D01*
X3691D01*
X3612Y1407D02*
Y1397D01*
X3632D01*
Y1407D01*
X3642D01*
Y1427D01*
X3632D01*
Y1437D01*
X3612D01*
Y1427D01*
X3602D01*
Y1407D01*
X3612D01*
X3691Y1250D02*
Y1240D01*
X3711D01*
Y1250D01*
X3721D01*
Y1270D01*
X3711D01*
Y1280D01*
X3691D01*
Y1270D01*
X3681D01*
Y1250D01*
X3691D01*
X3612Y1092D02*
Y1082D01*
X3632D01*
Y1092D01*
X3642D01*
Y1112D01*
X3632D01*
Y1122D01*
X3612D01*
Y1112D01*
X3602D01*
Y1092D01*
X3612D01*
X3533Y3140D02*
Y3130D01*
X3553D01*
Y3140D01*
X3563D01*
Y3160D01*
X3553D01*
Y3170D01*
X3533D01*
Y3160D01*
X3523D01*
Y3140D01*
X3533D01*
X3455Y2982D02*
Y2972D01*
X3475D01*
Y2982D01*
X3485D01*
Y3002D01*
X3475D01*
Y3012D01*
X3455D01*
Y3002D01*
X3445D01*
Y2982D01*
X3455D01*
X3533Y2825D02*
Y2815D01*
X3553D01*
Y2825D01*
X3563D01*
Y2845D01*
X3553D01*
Y2855D01*
X3533D01*
Y2845D01*
X3523D01*
Y2825D01*
X3533D01*
Y2510D02*
Y2500D01*
X3553D01*
Y2510D01*
X3563D01*
Y2530D01*
X3553D01*
Y2540D01*
X3533D01*
Y2530D01*
X3523D01*
Y2510D01*
X3533D01*
X3455Y2037D02*
Y2027D01*
X3475D01*
Y2037D01*
X3485D01*
Y2057D01*
X3475D01*
Y2067D01*
X3455D01*
Y2057D01*
X3445D01*
Y2037D01*
X3455D01*
X3533Y1880D02*
Y1870D01*
X3553D01*
Y1880D01*
X3563D01*
Y1900D01*
X3553D01*
Y1910D01*
X3533D01*
Y1900D01*
X3523D01*
Y1880D01*
X3533D01*
X3455Y1722D02*
Y1712D01*
X3475D01*
Y1722D01*
X3485D01*
Y1742D01*
X3475D01*
Y1752D01*
X3455D01*
Y1742D01*
X3445D01*
Y1722D01*
X3455D01*
X3533Y1565D02*
Y1555D01*
X3553D01*
Y1565D01*
X3563D01*
Y1585D01*
X3553D01*
Y1595D01*
X3533D01*
Y1585D01*
X3523D01*
Y1565D01*
X3533D01*
X3455Y1407D02*
Y1397D01*
X3475D01*
Y1407D01*
X3485D01*
Y1427D01*
X3475D01*
Y1437D01*
X3455D01*
Y1427D01*
X3445D01*
Y1407D01*
X3455D01*
X3533Y1250D02*
Y1240D01*
X3553D01*
Y1250D01*
X3563D01*
Y1270D01*
X3553D01*
Y1280D01*
X3533D01*
Y1270D01*
X3523D01*
Y1250D01*
X3533D01*
X3455Y1092D02*
Y1082D01*
X3475D01*
Y1092D01*
X3485D01*
Y1112D01*
X3475D01*
Y1122D01*
X3455D01*
Y1112D01*
X3445D01*
Y1092D01*
X3455D01*
X3297Y3927D02*
Y3917D01*
X3317D01*
Y3927D01*
X3327D01*
Y3947D01*
X3317D01*
Y3957D01*
X3297D01*
Y3947D01*
X3287D01*
Y3927D01*
X3297D01*
X3376Y3140D02*
Y3130D01*
X3396D01*
Y3140D01*
X3406D01*
Y3160D01*
X3396D01*
Y3170D01*
X3376D01*
Y3160D01*
X3366D01*
Y3140D01*
X3376D01*
X3297Y2982D02*
Y2972D01*
X3317D01*
Y2982D01*
X3327D01*
Y3002D01*
X3317D01*
Y3012D01*
X3297D01*
Y3002D01*
X3287D01*
Y2982D01*
X3297D01*
Y2667D02*
Y2657D01*
X3317D01*
Y2667D01*
X3327D01*
Y2687D01*
X3317D01*
Y2697D01*
X3297D01*
Y2687D01*
X3287D01*
Y2667D01*
X3297D01*
Y2352D02*
Y2342D01*
X3317D01*
Y2352D01*
X3327D01*
Y2372D01*
X3317D01*
Y2382D01*
X3297D01*
Y2372D01*
X3287D01*
Y2352D01*
X3297D01*
X3376Y2195D02*
Y2185D01*
X3396D01*
Y2195D01*
X3406D01*
Y2215D01*
X3396D01*
Y2225D01*
X3376D01*
Y2215D01*
X3366D01*
Y2195D01*
X3376D01*
X3297Y2037D02*
Y2027D01*
X3317D01*
Y2037D01*
X3327D01*
Y2057D01*
X3317D01*
Y2067D01*
X3297D01*
Y2057D01*
X3287D01*
Y2037D01*
X3297D01*
X3376Y1880D02*
Y1870D01*
X3396D01*
Y1880D01*
X3406D01*
Y1900D01*
X3396D01*
Y1910D01*
X3376D01*
Y1900D01*
X3366D01*
Y1880D01*
X3376D01*
X3297Y1722D02*
Y1712D01*
X3317D01*
Y1722D01*
X3327D01*
Y1742D01*
X3317D01*
Y1752D01*
X3297D01*
Y1742D01*
X3287D01*
Y1722D01*
X3297D01*
X3376Y1565D02*
Y1555D01*
X3396D01*
Y1565D01*
X3406D01*
Y1585D01*
X3396D01*
Y1595D01*
X3376D01*
Y1585D01*
X3366D01*
Y1565D01*
X3376D01*
X3297Y1407D02*
Y1397D01*
X3317D01*
Y1407D01*
X3327D01*
Y1427D01*
X3317D01*
Y1437D01*
X3297D01*
Y1427D01*
X3287D01*
Y1407D01*
X3297D01*
X3376Y1250D02*
Y1240D01*
X3396D01*
Y1250D01*
X3406D01*
Y1270D01*
X3396D01*
Y1280D01*
X3376D01*
Y1270D01*
X3366D01*
Y1250D01*
X3376D01*
X3297Y1092D02*
Y1082D01*
X3317D01*
Y1092D01*
X3327D01*
Y1112D01*
X3317D01*
Y1122D01*
X3297D01*
Y1112D01*
X3287D01*
Y1092D01*
X3297D01*
X3218Y3770D02*
Y3760D01*
X3238D01*
Y3770D01*
X3248D01*
Y3790D01*
X3238D01*
Y3800D01*
X3218D01*
Y3790D01*
X3208D01*
Y3770D01*
X3218D01*
X3140Y3297D02*
Y3287D01*
X3160D01*
Y3297D01*
X3170D01*
Y3317D01*
X3160D01*
Y3327D01*
X3140D01*
Y3317D01*
X3130D01*
Y3297D01*
X3140D01*
Y2982D02*
Y2972D01*
X3160D01*
Y2982D01*
X3170D01*
Y3002D01*
X3160D01*
Y3012D01*
X3140D01*
Y3002D01*
X3130D01*
Y2982D01*
X3140D01*
X3218Y2825D02*
Y2815D01*
X3238D01*
Y2825D01*
X3248D01*
Y2845D01*
X3238D01*
Y2855D01*
X3218D01*
Y2845D01*
X3208D01*
Y2825D01*
X3218D01*
X3140Y2667D02*
Y2657D01*
X3160D01*
Y2667D01*
X3170D01*
Y2687D01*
X3160D01*
Y2697D01*
X3140D01*
Y2687D01*
X3130D01*
Y2667D01*
X3140D01*
X3218Y2510D02*
Y2500D01*
X3238D01*
Y2510D01*
X3248D01*
Y2530D01*
X3238D01*
Y2540D01*
X3218D01*
Y2530D01*
X3208D01*
Y2510D01*
X3218D01*
X3140Y2352D02*
Y2342D01*
X3160D01*
Y2352D01*
X3170D01*
Y2372D01*
X3160D01*
Y2382D01*
X3140D01*
Y2372D01*
X3130D01*
Y2352D01*
X3140D01*
X3218Y2195D02*
Y2185D01*
X3238D01*
Y2195D01*
X3248D01*
Y2215D01*
X3238D01*
Y2225D01*
X3218D01*
Y2215D01*
X3208D01*
Y2195D01*
X3218D01*
X3140Y2037D02*
Y2027D01*
X3160D01*
Y2037D01*
X3170D01*
Y2057D01*
X3160D01*
Y2067D01*
X3140D01*
Y2057D01*
X3130D01*
Y2037D01*
X3140D01*
X3218Y1880D02*
Y1870D01*
X3238D01*
Y1880D01*
X3248D01*
Y1900D01*
X3238D01*
Y1910D01*
X3218D01*
Y1900D01*
X3208D01*
Y1880D01*
X3218D01*
X3140Y1722D02*
Y1712D01*
X3160D01*
Y1722D01*
X3170D01*
Y1742D01*
X3160D01*
Y1752D01*
X3140D01*
Y1742D01*
X3130D01*
Y1722D01*
X3140D01*
X3218Y1565D02*
Y1555D01*
X3238D01*
Y1565D01*
X3248D01*
Y1585D01*
X3238D01*
Y1595D01*
X3218D01*
Y1585D01*
X3208D01*
Y1565D01*
X3218D01*
X3140Y1407D02*
Y1397D01*
X3160D01*
Y1407D01*
X3170D01*
Y1427D01*
X3160D01*
Y1437D01*
X3140D01*
Y1427D01*
X3130D01*
Y1407D01*
X3140D01*
X3218Y1250D02*
Y1240D01*
X3238D01*
Y1250D01*
X3248D01*
Y1270D01*
X3238D01*
Y1280D01*
X3218D01*
Y1270D01*
X3208D01*
Y1250D01*
X3218D01*
X3140Y1092D02*
Y1082D01*
X3160D01*
Y1092D01*
X3170D01*
Y1112D01*
X3160D01*
Y1122D01*
X3140D01*
Y1112D01*
X3130D01*
Y1092D01*
X3140D01*
X2982Y2982D02*
Y2972D01*
X3002D01*
Y2982D01*
X3012D01*
Y3002D01*
X3002D01*
Y3012D01*
X2982D01*
Y3002D01*
X2972D01*
Y2982D01*
X2982D01*
X3061Y2825D02*
Y2815D01*
X3081D01*
Y2825D01*
X3091D01*
Y2845D01*
X3081D01*
Y2855D01*
X3061D01*
Y2845D01*
X3051D01*
Y2825D01*
X3061D01*
X2982Y2667D02*
Y2657D01*
X3002D01*
Y2667D01*
X3012D01*
Y2687D01*
X3002D01*
Y2697D01*
X2982D01*
Y2687D01*
X2972D01*
Y2667D01*
X2982D01*
X3061Y2510D02*
Y2500D01*
X3081D01*
Y2510D01*
X3091D01*
Y2530D01*
X3081D01*
Y2540D01*
X3061D01*
Y2530D01*
X3051D01*
Y2510D01*
X3061D01*
X2982Y2352D02*
Y2342D01*
X3002D01*
Y2352D01*
X3012D01*
Y2372D01*
X3002D01*
Y2382D01*
X2982D01*
Y2372D01*
X2972D01*
Y2352D01*
X2982D01*
X3061Y2195D02*
Y2185D01*
X3081D01*
Y2195D01*
X3091D01*
Y2215D01*
X3081D01*
Y2225D01*
X3061D01*
Y2215D01*
X3051D01*
Y2195D01*
X3061D01*
X2982Y2037D02*
Y2027D01*
X3002D01*
Y2037D01*
X3012D01*
Y2057D01*
X3002D01*
Y2067D01*
X2982D01*
Y2057D01*
X2972D01*
Y2037D01*
X2982D01*
X3061Y1880D02*
Y1870D01*
X3081D01*
Y1880D01*
X3091D01*
Y1900D01*
X3081D01*
Y1910D01*
X3061D01*
Y1900D01*
X3051D01*
Y1880D01*
X3061D01*
X2982Y1722D02*
Y1712D01*
X3002D01*
Y1722D01*
X3012D01*
Y1742D01*
X3002D01*
Y1752D01*
X2982D01*
Y1742D01*
X2972D01*
Y1722D01*
X2982D01*
X3061Y1565D02*
Y1555D01*
X3081D01*
Y1565D01*
X3091D01*
Y1585D01*
X3081D01*
Y1595D01*
X3061D01*
Y1585D01*
X3051D01*
Y1565D01*
X3061D01*
X2982Y1407D02*
Y1397D01*
X3002D01*
Y1407D01*
X3012D01*
Y1427D01*
X3002D01*
Y1437D01*
X2982D01*
Y1427D01*
X2972D01*
Y1407D01*
X2982D01*
X3061Y1250D02*
Y1240D01*
X3081D01*
Y1250D01*
X3091D01*
Y1270D01*
X3081D01*
Y1280D01*
X3061D01*
Y1270D01*
X3051D01*
Y1250D01*
X3061D01*
X2982Y1092D02*
Y1082D01*
X3002D01*
Y1092D01*
X3012D01*
Y1112D01*
X3002D01*
Y1122D01*
X2982D01*
Y1112D01*
X2972D01*
Y1092D01*
X2982D01*
X2903Y2825D02*
Y2815D01*
X2923D01*
Y2825D01*
X2933D01*
Y2845D01*
X2923D01*
Y2855D01*
X2903D01*
Y2845D01*
X2893D01*
Y2825D01*
X2903D01*
Y2510D02*
Y2500D01*
X2923D01*
Y2510D01*
X2933D01*
Y2530D01*
X2923D01*
Y2540D01*
X2903D01*
Y2530D01*
X2893D01*
Y2510D01*
X2903D01*
X2825Y1092D02*
Y1082D01*
X2845D01*
Y1092D01*
X2855D01*
Y1112D01*
X2845D01*
Y1122D01*
X2825D01*
Y1112D01*
X2815D01*
Y1092D01*
X2825D01*
X2667Y2982D02*
Y2972D01*
X2687D01*
Y2982D01*
X2697D01*
Y3002D01*
X2687D01*
Y3012D01*
X2667D01*
Y3002D01*
X2657D01*
Y2982D01*
X2667D01*
Y2667D02*
Y2657D01*
X2687D01*
Y2667D01*
X2697D01*
Y2687D01*
X2687D01*
Y2697D01*
X2667D01*
Y2687D01*
X2657D01*
Y2667D01*
X2667D01*
Y2352D02*
Y2342D01*
X2687D01*
Y2352D01*
X2697D01*
Y2372D01*
X2687D01*
Y2382D01*
X2667D01*
Y2372D01*
X2657D01*
Y2352D01*
X2667D01*
X2746Y2195D02*
Y2185D01*
X2766D01*
Y2195D01*
X2776D01*
Y2215D01*
X2766D01*
Y2225D01*
X2746D01*
Y2215D01*
X2736D01*
Y2195D01*
X2746D01*
X2667Y2037D02*
Y2027D01*
X2687D01*
Y2037D01*
X2697D01*
Y2057D01*
X2687D01*
Y2067D01*
X2667D01*
Y2057D01*
X2657D01*
Y2037D01*
X2667D01*
X2746Y1880D02*
Y1870D01*
X2766D01*
Y1880D01*
X2776D01*
Y1900D01*
X2766D01*
Y1910D01*
X2746D01*
Y1900D01*
X2736D01*
Y1880D01*
X2746D01*
X2667Y1722D02*
Y1712D01*
X2687D01*
Y1722D01*
X2697D01*
Y1742D01*
X2687D01*
Y1752D01*
X2667D01*
Y1742D01*
X2657D01*
Y1722D01*
X2667D01*
X2746Y1565D02*
Y1555D01*
X2766D01*
Y1565D01*
X2776D01*
Y1585D01*
X2766D01*
Y1595D01*
X2746D01*
Y1585D01*
X2736D01*
Y1565D01*
X2746D01*
X2667Y1407D02*
Y1397D01*
X2687D01*
Y1407D01*
X2697D01*
Y1427D01*
X2687D01*
Y1437D01*
X2667D01*
Y1427D01*
X2657D01*
Y1407D01*
X2667D01*
Y1092D02*
Y1082D01*
X2687D01*
Y1092D01*
X2697D01*
Y1112D01*
X2687D01*
Y1122D01*
X2667D01*
Y1112D01*
X2657D01*
Y1092D01*
X2667D01*
X2588Y3140D02*
Y3130D01*
X2608D01*
Y3140D01*
X2618D01*
Y3160D01*
X2608D01*
Y3170D01*
X2588D01*
Y3160D01*
X2578D01*
Y3140D01*
X2588D01*
X2510Y2982D02*
Y2972D01*
X2530D01*
Y2982D01*
X2540D01*
Y3002D01*
X2530D01*
Y3012D01*
X2510D01*
Y3002D01*
X2500D01*
Y2982D01*
X2510D01*
X2588Y2825D02*
Y2815D01*
X2608D01*
Y2825D01*
X2618D01*
Y2845D01*
X2608D01*
Y2855D01*
X2588D01*
Y2845D01*
X2578D01*
Y2825D01*
X2588D01*
X2510Y2667D02*
Y2657D01*
X2530D01*
Y2667D01*
X2540D01*
Y2687D01*
X2530D01*
Y2697D01*
X2510D01*
Y2687D01*
X2500D01*
Y2667D01*
X2510D01*
X2588Y2510D02*
Y2500D01*
X2608D01*
Y2510D01*
X2618D01*
Y2530D01*
X2608D01*
Y2540D01*
X2588D01*
Y2530D01*
X2578D01*
Y2510D01*
X2588D01*
Y2195D02*
Y2185D01*
X2608D01*
Y2195D01*
X2618D01*
Y2215D01*
X2608D01*
Y2225D01*
X2588D01*
Y2215D01*
X2578D01*
Y2195D01*
X2588D01*
X2510Y2037D02*
Y2027D01*
X2530D01*
Y2037D01*
X2540D01*
Y2057D01*
X2530D01*
Y2067D01*
X2510D01*
Y2057D01*
X2500D01*
Y2037D01*
X2510D01*
X2588Y1880D02*
Y1870D01*
X2608D01*
Y1880D01*
X2618D01*
Y1900D01*
X2608D01*
Y1910D01*
X2588D01*
Y1900D01*
X2578D01*
Y1880D01*
X2588D01*
X2510Y1722D02*
Y1712D01*
X2530D01*
Y1722D01*
X2540D01*
Y1742D01*
X2530D01*
Y1752D01*
X2510D01*
Y1742D01*
X2500D01*
Y1722D01*
X2510D01*
X2588Y1565D02*
Y1555D01*
X2608D01*
Y1565D01*
X2618D01*
Y1585D01*
X2608D01*
Y1595D01*
X2588D01*
Y1585D01*
X2578D01*
Y1565D01*
X2588D01*
X2510Y1092D02*
Y1082D01*
X2530D01*
Y1092D01*
X2540D01*
Y1112D01*
X2530D01*
Y1122D01*
X2510D01*
Y1112D01*
X2500D01*
Y1092D01*
X2510D01*
X2352Y2982D02*
Y2972D01*
X2372D01*
Y2982D01*
X2382D01*
Y3002D01*
X2372D01*
Y3012D01*
X2352D01*
Y3002D01*
X2342D01*
Y2982D01*
X2352D01*
Y2667D02*
Y2657D01*
X2372D01*
Y2667D01*
X2382D01*
Y2687D01*
X2372D01*
Y2697D01*
X2352D01*
Y2687D01*
X2342D01*
Y2667D01*
X2352D01*
Y2352D02*
Y2342D01*
X2372D01*
Y2352D01*
X2382D01*
Y2372D01*
X2372D01*
Y2382D01*
X2352D01*
Y2372D01*
X2342D01*
Y2352D01*
X2352D01*
X2431Y2195D02*
Y2185D01*
X2451D01*
Y2195D01*
X2461D01*
Y2215D01*
X2451D01*
Y2225D01*
X2431D01*
Y2215D01*
X2421D01*
Y2195D01*
X2431D01*
X2352Y2037D02*
Y2027D01*
X2372D01*
Y2037D01*
X2382D01*
Y2057D01*
X2372D01*
Y2067D01*
X2352D01*
Y2057D01*
X2342D01*
Y2037D01*
X2352D01*
X2431Y1880D02*
Y1870D01*
X2451D01*
Y1880D01*
X2461D01*
Y1900D01*
X2451D01*
Y1910D01*
X2431D01*
Y1900D01*
X2421D01*
Y1880D01*
X2431D01*
X2352Y1722D02*
Y1712D01*
X2372D01*
Y1722D01*
X2382D01*
Y1742D01*
X2372D01*
Y1752D01*
X2352D01*
Y1742D01*
X2342D01*
Y1722D01*
X2352D01*
Y1407D02*
Y1397D01*
X2372D01*
Y1407D01*
X2382D01*
Y1427D01*
X2372D01*
Y1437D01*
X2352D01*
Y1427D01*
X2342D01*
Y1407D01*
X2352D01*
X2431Y1250D02*
Y1240D01*
X2451D01*
Y1250D01*
X2461D01*
Y1270D01*
X2451D01*
Y1280D01*
X2431D01*
Y1270D01*
X2421D01*
Y1250D01*
X2431D01*
X2352Y1092D02*
Y1082D01*
X2372D01*
Y1092D01*
X2382D01*
Y1112D01*
X2372D01*
Y1122D01*
X2352D01*
Y1112D01*
X2342D01*
Y1092D01*
X2352D01*
X2273Y1565D02*
Y1555D01*
X2293D01*
Y1565D01*
X2303D01*
Y1585D01*
X2293D01*
Y1595D01*
X2273D01*
Y1585D01*
X2263D01*
Y1565D01*
X2273D01*
X2037Y3612D02*
Y3602D01*
X2057D01*
Y3612D01*
X2067D01*
Y3632D01*
X2057D01*
Y3642D01*
X2037D01*
Y3632D01*
X2027D01*
Y3612D01*
X2037D01*
Y2667D02*
Y2657D01*
X2057D01*
Y2667D01*
X2067D01*
Y2687D01*
X2057D01*
Y2697D01*
X2037D01*
Y2687D01*
X2027D01*
Y2667D01*
X2037D01*
X2116Y2510D02*
Y2500D01*
X2136D01*
Y2510D01*
X2146D01*
Y2530D01*
X2136D01*
Y2540D01*
X2116D01*
Y2530D01*
X2106D01*
Y2510D01*
X2116D01*
Y2195D02*
Y2185D01*
X2136D01*
Y2195D01*
X2146D01*
Y2215D01*
X2136D01*
Y2225D01*
X2116D01*
Y2215D01*
X2106D01*
Y2195D01*
X2116D01*
X2037Y2037D02*
Y2027D01*
X2057D01*
Y2037D01*
X2067D01*
Y2057D01*
X2057D01*
Y2067D01*
X2037D01*
Y2057D01*
X2027D01*
Y2037D01*
X2037D01*
X2116Y1880D02*
Y1870D01*
X2136D01*
Y1880D01*
X2146D01*
Y1900D01*
X2136D01*
Y1910D01*
X2116D01*
Y1900D01*
X2106D01*
Y1880D01*
X2116D01*
X2037Y1722D02*
Y1712D01*
X2057D01*
Y1722D01*
X2067D01*
Y1742D01*
X2057D01*
Y1752D01*
X2037D01*
Y1742D01*
X2027D01*
Y1722D01*
X2037D01*
X2116Y1565D02*
Y1555D01*
X2136D01*
Y1565D01*
X2146D01*
Y1585D01*
X2136D01*
Y1595D01*
X2116D01*
Y1585D01*
X2106D01*
Y1565D01*
X2116D01*
X1959Y2825D02*
Y2815D01*
X1979D01*
Y2825D01*
X1989D01*
Y2845D01*
X1979D01*
Y2855D01*
X1959D01*
Y2845D01*
X1949D01*
Y2825D01*
X1959D01*
Y2510D02*
Y2500D01*
X1979D01*
Y2510D01*
X1989D01*
Y2530D01*
X1979D01*
Y2540D01*
X1959D01*
Y2530D01*
X1949D01*
Y2510D01*
X1959D01*
X1880Y2352D02*
Y2342D01*
X1900D01*
Y2352D01*
X1910D01*
Y2372D01*
X1900D01*
Y2382D01*
X1880D01*
Y2372D01*
X1870D01*
Y2352D01*
X1880D01*
X1959Y1880D02*
Y1870D01*
X1979D01*
Y1880D01*
X1989D01*
Y1900D01*
X1979D01*
Y1910D01*
X1959D01*
Y1900D01*
X1949D01*
Y1880D01*
X1959D01*
X1880Y1722D02*
Y1712D01*
X1900D01*
Y1722D01*
X1910D01*
Y1742D01*
X1900D01*
Y1752D01*
X1880D01*
Y1742D01*
X1870D01*
Y1722D01*
X1880D01*
X1959Y1565D02*
Y1555D01*
X1979D01*
Y1565D01*
X1989D01*
Y1585D01*
X1979D01*
Y1595D01*
X1959D01*
Y1585D01*
X1949D01*
Y1565D01*
X1959D01*
X1722Y3927D02*
Y3917D01*
X1742D01*
Y3927D01*
X1752D01*
Y3947D01*
X1742D01*
Y3957D01*
X1722D01*
Y3947D01*
X1712D01*
Y3927D01*
X1722D01*
X1801Y3770D02*
Y3760D01*
X1821D01*
Y3770D01*
X1831D01*
Y3790D01*
X1821D01*
Y3800D01*
X1801D01*
Y3790D01*
X1791D01*
Y3770D01*
X1801D01*
X1722Y3612D02*
Y3602D01*
X1742D01*
Y3612D01*
X1752D01*
Y3632D01*
X1742D01*
Y3642D01*
X1722D01*
Y3632D01*
X1712D01*
Y3612D01*
X1722D01*
Y3297D02*
Y3287D01*
X1742D01*
Y3297D01*
X1752D01*
Y3317D01*
X1742D01*
Y3327D01*
X1722D01*
Y3317D01*
X1712D01*
Y3297D01*
X1722D01*
X1801Y2825D02*
Y2815D01*
X1821D01*
Y2825D01*
X1831D01*
Y2845D01*
X1821D01*
Y2855D01*
X1801D01*
Y2845D01*
X1791D01*
Y2825D01*
X1801D01*
X1722Y2667D02*
Y2657D01*
X1742D01*
Y2667D01*
X1752D01*
Y2687D01*
X1742D01*
Y2697D01*
X1722D01*
Y2687D01*
X1712D01*
Y2667D01*
X1722D01*
X1801Y2510D02*
Y2500D01*
X1821D01*
Y2510D01*
X1831D01*
Y2530D01*
X1821D01*
Y2540D01*
X1801D01*
Y2530D01*
X1791D01*
Y2510D01*
X1801D01*
Y2195D02*
Y2185D01*
X1821D01*
Y2195D01*
X1831D01*
Y2215D01*
X1821D01*
Y2225D01*
X1801D01*
Y2215D01*
X1791D01*
Y2195D01*
X1801D01*
X1722Y2037D02*
Y2027D01*
X1742D01*
Y2037D01*
X1752D01*
Y2057D01*
X1742D01*
Y2067D01*
X1722D01*
Y2057D01*
X1712D01*
Y2037D01*
X1722D01*
X1801Y1880D02*
Y1870D01*
X1821D01*
Y1880D01*
X1831D01*
Y1900D01*
X1821D01*
Y1910D01*
X1801D01*
Y1900D01*
X1791D01*
Y1880D01*
X1801D01*
X1722Y1722D02*
Y1712D01*
X1742D01*
Y1722D01*
X1752D01*
Y1742D01*
X1742D01*
Y1752D01*
X1722D01*
Y1742D01*
X1712D01*
Y1722D01*
X1722D01*
X1801Y1565D02*
Y1555D01*
X1821D01*
Y1565D01*
X1831D01*
Y1585D01*
X1821D01*
Y1595D01*
X1801D01*
Y1585D01*
X1791D01*
Y1565D01*
X1801D01*
X1722Y1407D02*
Y1397D01*
X1742D01*
Y1407D01*
X1752D01*
Y1427D01*
X1742D01*
Y1437D01*
X1722D01*
Y1427D01*
X1712D01*
Y1407D01*
X1722D01*
Y1092D02*
Y1082D01*
X1742D01*
Y1092D01*
X1752D01*
Y1112D01*
X1742D01*
Y1122D01*
X1722D01*
Y1112D01*
X1712D01*
Y1092D01*
X1722D01*
X1565Y3927D02*
Y3917D01*
X1585D01*
Y3927D01*
X1595D01*
Y3947D01*
X1585D01*
Y3957D01*
X1565D01*
Y3947D01*
X1555D01*
Y3927D01*
X1565D01*
Y2667D02*
Y2657D01*
X1585D01*
Y2667D01*
X1595D01*
Y2687D01*
X1585D01*
Y2697D01*
X1565D01*
Y2687D01*
X1555D01*
Y2667D01*
X1565D01*
X1644Y2510D02*
Y2500D01*
X1664D01*
Y2510D01*
X1674D01*
Y2530D01*
X1664D01*
Y2540D01*
X1644D01*
Y2530D01*
X1634D01*
Y2510D01*
X1644D01*
X1565Y2352D02*
Y2342D01*
X1585D01*
Y2352D01*
X1595D01*
Y2372D01*
X1585D01*
Y2382D01*
X1565D01*
Y2372D01*
X1555D01*
Y2352D01*
X1565D01*
X1644Y2195D02*
Y2185D01*
X1664D01*
Y2195D01*
X1674D01*
Y2215D01*
X1664D01*
Y2225D01*
X1644D01*
Y2215D01*
X1634D01*
Y2195D01*
X1644D01*
X1565Y2037D02*
Y2027D01*
X1585D01*
Y2037D01*
X1595D01*
Y2057D01*
X1585D01*
Y2067D01*
X1565D01*
Y2057D01*
X1555D01*
Y2037D01*
X1565D01*
X1644Y1880D02*
Y1870D01*
X1664D01*
Y1880D01*
X1674D01*
Y1900D01*
X1664D01*
Y1910D01*
X1644D01*
Y1900D01*
X1634D01*
Y1880D01*
X1644D01*
X1565Y1722D02*
Y1712D01*
X1585D01*
Y1722D01*
X1595D01*
Y1742D01*
X1585D01*
Y1752D01*
X1565D01*
Y1742D01*
X1555D01*
Y1722D01*
X1565D01*
X1644Y1565D02*
Y1555D01*
X1664D01*
Y1565D01*
X1674D01*
Y1585D01*
X1664D01*
Y1595D01*
X1644D01*
Y1585D01*
X1634D01*
Y1565D01*
X1644D01*
X1565Y1407D02*
Y1397D01*
X1585D01*
Y1407D01*
X1595D01*
Y1427D01*
X1585D01*
Y1437D01*
X1565D01*
Y1427D01*
X1555D01*
Y1407D01*
X1565D01*
X1644Y1250D02*
Y1240D01*
X1664D01*
Y1250D01*
X1674D01*
Y1270D01*
X1664D01*
Y1280D01*
X1644D01*
Y1270D01*
X1634D01*
Y1250D01*
X1644D01*
X1565Y1092D02*
Y1082D01*
X1585D01*
Y1092D01*
X1595D01*
Y1112D01*
X1585D01*
Y1122D01*
X1565D01*
Y1112D01*
X1555D01*
Y1092D01*
X1565D01*
X1407Y3927D02*
Y3917D01*
X1427D01*
Y3927D01*
X1437D01*
Y3947D01*
X1427D01*
Y3957D01*
X1407D01*
Y3947D01*
X1397D01*
Y3927D01*
X1407D01*
Y3612D02*
Y3602D01*
X1427D01*
Y3612D01*
X1437D01*
Y3632D01*
X1427D01*
Y3642D01*
X1407D01*
Y3632D01*
X1397D01*
Y3612D01*
X1407D01*
Y3297D02*
Y3287D01*
X1427D01*
Y3297D01*
X1437D01*
Y3317D01*
X1427D01*
Y3327D01*
X1407D01*
Y3317D01*
X1397D01*
Y3297D01*
X1407D01*
X1486Y3140D02*
Y3130D01*
X1506D01*
Y3140D01*
X1516D01*
Y3160D01*
X1506D01*
Y3170D01*
X1486D01*
Y3160D01*
X1476D01*
Y3140D01*
X1486D01*
Y2510D02*
Y2500D01*
X1506D01*
Y2510D01*
X1516D01*
Y2530D01*
X1506D01*
Y2540D01*
X1486D01*
Y2530D01*
X1476D01*
Y2510D01*
X1486D01*
X1407Y2352D02*
Y2342D01*
X1427D01*
Y2352D01*
X1437D01*
Y2372D01*
X1427D01*
Y2382D01*
X1407D01*
Y2372D01*
X1397D01*
Y2352D01*
X1407D01*
X1486Y2195D02*
Y2185D01*
X1506D01*
Y2195D01*
X1516D01*
Y2215D01*
X1506D01*
Y2225D01*
X1486D01*
Y2215D01*
X1476D01*
Y2195D01*
X1486D01*
X1407Y2037D02*
Y2027D01*
X1427D01*
Y2037D01*
X1437D01*
Y2057D01*
X1427D01*
Y2067D01*
X1407D01*
Y2057D01*
X1397D01*
Y2037D01*
X1407D01*
X1486Y1880D02*
Y1870D01*
X1506D01*
Y1880D01*
X1516D01*
Y1900D01*
X1506D01*
Y1910D01*
X1486D01*
Y1900D01*
X1476D01*
Y1880D01*
X1486D01*
X1407Y1722D02*
Y1712D01*
X1427D01*
Y1722D01*
X1437D01*
Y1742D01*
X1427D01*
Y1752D01*
X1407D01*
Y1742D01*
X1397D01*
Y1722D01*
X1407D01*
X1486Y1565D02*
Y1555D01*
X1506D01*
Y1565D01*
X1516D01*
Y1585D01*
X1506D01*
Y1595D01*
X1486D01*
Y1585D01*
X1476D01*
Y1565D01*
X1486D01*
Y1250D02*
Y1240D01*
X1506D01*
Y1250D01*
X1516D01*
Y1270D01*
X1506D01*
Y1280D01*
X1486D01*
Y1270D01*
X1476D01*
Y1250D01*
X1486D01*
X1407Y1092D02*
Y1082D01*
X1427D01*
Y1092D01*
X1437D01*
Y1112D01*
X1427D01*
Y1122D01*
X1407D01*
Y1112D01*
X1397D01*
Y1092D01*
X1407D01*
X1250Y3927D02*
Y3917D01*
X1270D01*
Y3927D01*
X1280D01*
Y3947D01*
X1270D01*
Y3957D01*
X1250D01*
Y3947D01*
X1240D01*
Y3927D01*
X1250D01*
Y3612D02*
Y3602D01*
X1270D01*
Y3612D01*
X1280D01*
Y3632D01*
X1270D01*
Y3642D01*
X1250D01*
Y3632D01*
X1240D01*
Y3612D01*
X1250D01*
Y2982D02*
Y2972D01*
X1270D01*
Y2982D01*
X1280D01*
Y3002D01*
X1270D01*
Y3012D01*
X1250D01*
Y3002D01*
X1240D01*
Y2982D01*
X1250D01*
Y2352D02*
Y2342D01*
X1270D01*
Y2352D01*
X1280D01*
Y2372D01*
X1270D01*
Y2382D01*
X1250D01*
Y2372D01*
X1240D01*
Y2352D01*
X1250D01*
Y1722D02*
Y1712D01*
X1270D01*
Y1722D01*
X1280D01*
Y1742D01*
X1270D01*
Y1752D01*
X1250D01*
Y1742D01*
X1240D01*
Y1722D01*
X1250D01*
X1329Y1565D02*
Y1555D01*
X1349D01*
Y1565D01*
X1359D01*
Y1585D01*
X1349D01*
Y1595D01*
X1329D01*
Y1585D01*
X1319D01*
Y1565D01*
X1329D01*
X1250Y1407D02*
Y1397D01*
X1270D01*
Y1407D01*
X1280D01*
Y1427D01*
X1270D01*
Y1437D01*
X1250D01*
Y1427D01*
X1240D01*
Y1407D01*
X1250D01*
X1329Y1250D02*
Y1240D01*
X1349D01*
Y1250D01*
X1359D01*
Y1270D01*
X1349D01*
Y1280D01*
X1329D01*
Y1270D01*
X1319D01*
Y1250D01*
X1329D01*
X1250Y1092D02*
Y1082D01*
X1270D01*
Y1092D01*
X1280D01*
Y1112D01*
X1270D01*
Y1122D01*
X1250D01*
Y1112D01*
X1240D01*
Y1092D01*
X1250D01*
X1092Y3927D02*
Y3917D01*
X1112D01*
Y3927D01*
X1122D01*
Y3947D01*
X1112D01*
Y3957D01*
X1092D01*
Y3947D01*
X1082D01*
Y3927D01*
X1092D01*
X1171Y3770D02*
Y3760D01*
X1191D01*
Y3770D01*
X1201D01*
Y3790D01*
X1191D01*
Y3800D01*
X1171D01*
Y3790D01*
X1161D01*
Y3770D01*
X1171D01*
X1092Y3612D02*
Y3602D01*
X1112D01*
Y3612D01*
X1122D01*
Y3632D01*
X1112D01*
Y3642D01*
X1092D01*
Y3632D01*
X1082D01*
Y3612D01*
X1092D01*
X1171Y3455D02*
Y3445D01*
X1191D01*
Y3455D01*
X1201D01*
Y3475D01*
X1191D01*
Y3485D01*
X1171D01*
Y3475D01*
X1161D01*
Y3455D01*
X1171D01*
X1092Y3297D02*
Y3287D01*
X1112D01*
Y3297D01*
X1122D01*
Y3317D01*
X1112D01*
Y3327D01*
X1092D01*
Y3317D01*
X1082D01*
Y3297D01*
X1092D01*
X1171Y3140D02*
Y3130D01*
X1191D01*
Y3140D01*
X1201D01*
Y3160D01*
X1191D01*
Y3170D01*
X1171D01*
Y3160D01*
X1161D01*
Y3140D01*
X1171D01*
X1092Y2982D02*
Y2972D01*
X1112D01*
Y2982D01*
X1122D01*
Y3002D01*
X1112D01*
Y3012D01*
X1092D01*
Y3002D01*
X1082D01*
Y2982D01*
X1092D01*
X1171Y2825D02*
Y2815D01*
X1191D01*
Y2825D01*
X1201D01*
Y2845D01*
X1191D01*
Y2855D01*
X1171D01*
Y2845D01*
X1161D01*
Y2825D01*
X1171D01*
X1092Y2667D02*
Y2657D01*
X1112D01*
Y2667D01*
X1122D01*
Y2687D01*
X1112D01*
Y2697D01*
X1092D01*
Y2687D01*
X1082D01*
Y2667D01*
X1092D01*
X1171Y2510D02*
Y2500D01*
X1191D01*
Y2510D01*
X1201D01*
Y2530D01*
X1191D01*
Y2540D01*
X1171D01*
Y2530D01*
X1161D01*
Y2510D01*
X1171D01*
X1092Y2352D02*
Y2342D01*
X1112D01*
Y2352D01*
X1122D01*
Y2372D01*
X1112D01*
Y2382D01*
X1092D01*
Y2372D01*
X1082D01*
Y2352D01*
X1092D01*
X1171Y2195D02*
Y2185D01*
X1191D01*
Y2195D01*
X1201D01*
Y2215D01*
X1191D01*
Y2225D01*
X1171D01*
Y2215D01*
X1161D01*
Y2195D01*
X1171D01*
X1092Y2037D02*
Y2027D01*
X1112D01*
Y2037D01*
X1122D01*
Y2057D01*
X1112D01*
Y2067D01*
X1092D01*
Y2057D01*
X1082D01*
Y2037D01*
X1092D01*
X1171Y1880D02*
Y1870D01*
X1191D01*
Y1880D01*
X1201D01*
Y1900D01*
X1191D01*
Y1910D01*
X1171D01*
Y1900D01*
X1161D01*
Y1880D01*
X1171D01*
X1092Y1722D02*
Y1712D01*
X1112D01*
Y1722D01*
X1122D01*
Y1742D01*
X1112D01*
Y1752D01*
X1092D01*
Y1742D01*
X1082D01*
Y1722D01*
X1092D01*
X1171Y1565D02*
Y1555D01*
X1191D01*
Y1565D01*
X1201D01*
Y1585D01*
X1191D01*
Y1595D01*
X1171D01*
Y1585D01*
X1161D01*
Y1565D01*
X1171D01*
X1092Y1407D02*
Y1397D01*
X1112D01*
Y1407D01*
X1122D01*
Y1427D01*
X1112D01*
Y1437D01*
X1092D01*
Y1427D01*
X1082D01*
Y1407D01*
X1092D01*
X1171Y1250D02*
Y1240D01*
X1191D01*
Y1250D01*
X1201D01*
Y1270D01*
X1191D01*
Y1280D01*
X1171D01*
Y1270D01*
X1161D01*
Y1250D01*
X1171D01*
X1092Y1092D02*
Y1082D01*
X1112D01*
Y1092D01*
X1122D01*
Y1112D01*
X1112D01*
Y1122D01*
X1092D01*
Y1112D01*
X1082D01*
Y1092D01*
X1092D01*
X3585Y3600D02*
Y3590D01*
X3605D01*
Y3600D01*
X3615D01*
Y3620D01*
X3605D01*
Y3630D01*
X3585D01*
Y3620D01*
X3575D01*
Y3600D01*
X3585D01*
X3565Y3890D02*
Y3880D01*
X3585D01*
Y3890D01*
X3595D01*
Y3910D01*
X3585D01*
Y3920D01*
X3565D01*
Y3910D01*
X3555D01*
Y3890D01*
X3565D01*
X2140Y3650D02*
Y3640D01*
X2160D01*
Y3650D01*
X2170D01*
Y3670D01*
X2160D01*
Y3680D01*
X2140D01*
Y3670D01*
X2130D01*
Y3650D01*
X2140D01*
Y3575D02*
Y3565D01*
X2160D01*
Y3575D01*
X2170D01*
Y3595D01*
X2160D01*
Y3605D01*
X2140D01*
Y3595D01*
X2130D01*
Y3575D01*
X2140D01*
Y3375D02*
Y3365D01*
X2160D01*
Y3375D01*
X2170D01*
Y3395D01*
X2160D01*
Y3405D01*
X2140D01*
Y3395D01*
X2130D01*
Y3375D01*
X2140D01*
Y3445D02*
Y3435D01*
X2160D01*
Y3445D01*
X2170D01*
Y3465D01*
X2160D01*
Y3475D01*
X2140D01*
Y3465D01*
X2130D01*
Y3445D01*
X2140D01*
Y3510D02*
Y3500D01*
X2160D01*
Y3510D01*
X2170D01*
Y3530D01*
X2160D01*
Y3540D01*
X2140D01*
Y3530D01*
X2130D01*
Y3510D01*
X2140D01*
X1905Y2970D02*
Y2960D01*
X1925D01*
Y2970D01*
X1935D01*
Y2990D01*
X1925D01*
Y3000D01*
X1905D01*
Y2990D01*
X1895D01*
Y2970D01*
X1905D01*
Y3035D02*
Y3025D01*
X1925D01*
Y3035D01*
X1935D01*
Y3055D01*
X1925D01*
Y3065D01*
X1905D01*
Y3055D01*
X1895D01*
Y3035D01*
X1905D01*
Y3100D02*
Y3090D01*
X1925D01*
Y3100D01*
X1935D01*
Y3120D01*
X1925D01*
Y3130D01*
X1905D01*
Y3120D01*
X1895D01*
Y3100D01*
X1905D01*
X1374Y1374D02*
X1384D01*
X1394Y1384D01*
X1404Y1374D01*
X1414D01*
Y1384D01*
X1404Y1394D01*
X1414Y1404D01*
Y1414D01*
X1404D01*
X1394Y1404D01*
X1384Y1414D01*
X1374D01*
Y1404D01*
X1384Y1394D01*
X1374Y1384D01*
Y1374D01*
X3736D02*
X3746D01*
X3756Y1384D01*
X3766Y1374D01*
X3776D01*
Y1384D01*
X3766Y1394D01*
X3776Y1404D01*
Y1414D01*
X3766D01*
X3756Y1404D01*
X3746Y1414D01*
X3736D01*
Y1404D01*
X3746Y1394D01*
X3736Y1384D01*
Y1374D01*
Y3736D02*
X3746D01*
X3756Y3746D01*
X3766Y3736D01*
X3776D01*
Y3746D01*
X3766Y3756D01*
X3776Y3766D01*
Y3776D01*
X3766D01*
X3756Y3766D01*
X3746Y3776D01*
X3736D01*
Y3766D01*
X3746Y3756D01*
X3736Y3746D01*
Y3736D01*
X1374D02*
X1384D01*
X1394Y3746D01*
X1404Y3736D01*
X1414D01*
Y3746D01*
X1404Y3756D01*
X1414Y3766D01*
Y3776D01*
X1404D01*
X1394Y3766D01*
X1384Y3776D01*
X1374D01*
Y3766D01*
X1384Y3756D01*
X1374Y3746D01*
Y3736D01*
D87*
X3933Y2087D02*
G03*
X3933Y2087I-20J0D01*
G01*
Y1969D02*
G03*
X3933Y1969I-20J0D01*
G01*
Y1851D02*
G03*
X3933Y1851I-20J0D01*
G01*
Y1733D02*
G03*
X3933Y1733I-20J0D01*
G01*
X3935Y2846D02*
G03*
X3935Y2846I-20J0D01*
G01*
Y2728D02*
G03*
X3935Y2728I-20J0D01*
G01*
Y2610D02*
G03*
X3935Y2610I-20J0D01*
G01*
Y2492D02*
G03*
X3935Y2492I-20J0D01*
G01*
X2936Y1285D02*
G03*
X2936Y1285I-20J0D01*
G01*
X2818D02*
G03*
X2818Y1285I-20J0D01*
G01*
X2700D02*
G03*
X2700Y1285I-20J0D01*
G01*
X2582D02*
G03*
X2582Y1285I-20J0D01*
G01*
%TF.MD5,88d74a6e7c840c361c2a0396966d6586*%
M02*
