%TF.GenerationSoftware,Altium Limited,Altium Designer,22.9.1 (49)*%
G04 Layer_Color=8421504*
%FSLAX23Y23*%
%MOIN*%
%TF.SameCoordinates,7E49B892-F471-4493-957F-970E4ADD815D*%
%TF.FilePolarity,Positive*%
%TF.FileFunction,Paste,Top*%
%TF.Part,Single*%
G01*
G75*
%TA.AperFunction,SMDPad,CuDef*%
%ADD10R,0.083X0.055*%
%ADD11R,0.049X0.071*%
G04:AMPARAMS|DCode=12|XSize=60mil|YSize=60mil|CornerRadius=15mil|HoleSize=0mil|Usage=FLASHONLY|Rotation=0.000|XOffset=0mil|YOffset=0mil|HoleType=Round|Shape=RoundedRectangle|*
%AMROUNDEDRECTD12*
21,1,0.060,0.030,0,0,0.0*
21,1,0.030,0.060,0,0,0.0*
1,1,0.030,0.015,-0.015*
1,1,0.030,-0.015,-0.015*
1,1,0.030,-0.015,0.015*
1,1,0.030,0.015,0.015*
%
%ADD12ROUNDEDRECTD12*%
%ADD13R,0.069X0.055*%
%ADD14R,0.067X0.041*%
%ADD15R,0.043X0.026*%
G04:AMPARAMS|DCode=16|XSize=22mil|YSize=49mil|CornerRadius=2mil|HoleSize=0mil|Usage=FLASHONLY|Rotation=90.000|XOffset=0mil|YOffset=0mil|HoleType=Round|Shape=RoundedRectangle|*
%AMROUNDEDRECTD16*
21,1,0.022,0.045,0,0,90.0*
21,1,0.018,0.049,0,0,90.0*
1,1,0.004,0.023,0.009*
1,1,0.004,0.023,-0.009*
1,1,0.004,-0.023,-0.009*
1,1,0.004,-0.023,0.009*
%
%ADD16ROUNDEDRECTD16*%
%ADD17R,0.032X0.030*%
%ADD18R,0.020X0.022*%
%ADD19R,0.055X0.069*%
%ADD20R,0.030X0.032*%
%ADD21R,0.031X0.031*%
%ADD22R,0.043X0.065*%
%ADD24R,0.059X0.035*%
%ADD25R,0.035X0.059*%
%ADD26R,0.055X0.083*%
D10*
X3121Y3796D02*
D03*
X3479D02*
D03*
X3121Y3974D02*
D03*
X3479D02*
D03*
D11*
X2010Y3450D02*
D03*
X1890D02*
D03*
X1775Y3440D02*
D03*
X1655D02*
D03*
D12*
X1522Y1975D02*
D03*
X1505Y3230D02*
D03*
X1440Y3510D02*
D03*
D13*
X2100Y3835D02*
D03*
Y3943D02*
D03*
D14*
X2015Y3357D02*
D03*
Y3245D02*
D03*
Y3063D02*
D03*
Y3175D02*
D03*
D15*
X1740Y3082D02*
D03*
Y3045D02*
D03*
Y3008D02*
D03*
X1834D02*
D03*
Y3045D02*
D03*
Y3082D02*
D03*
D16*
X1825Y3180D02*
D03*
Y3230D02*
D03*
Y3280D02*
D03*
Y3330D02*
D03*
X1618Y3180D02*
D03*
Y3230D02*
D03*
Y3280D02*
D03*
Y3330D02*
D03*
D17*
X1625Y3045D02*
D03*
Y3095D02*
D03*
X2000Y3915D02*
D03*
Y3865D02*
D03*
D18*
X1550Y3085D02*
D03*
Y3055D02*
D03*
D19*
X3277Y3700D02*
D03*
X3385D02*
D03*
D20*
X3470Y3705D02*
D03*
X3519D02*
D03*
D21*
X3590Y3455D02*
D03*
X3530D02*
D03*
X3590Y3365D02*
D03*
X3530D02*
D03*
X3590Y3275D02*
D03*
X3531D02*
D03*
D22*
X3427Y3365D02*
D03*
X3315D02*
D03*
X3427Y3275D02*
D03*
X3315D02*
D03*
X3427Y3455D02*
D03*
X3315D02*
D03*
D24*
X2954Y3973D02*
D03*
Y3923D02*
D03*
Y3873D02*
D03*
Y3823D02*
D03*
Y3773D02*
D03*
Y3723D02*
D03*
Y3673D02*
D03*
Y3623D02*
D03*
Y3573D02*
D03*
Y3523D02*
D03*
Y3473D02*
D03*
Y3423D02*
D03*
Y3373D02*
D03*
Y3323D02*
D03*
X2265D02*
D03*
Y3373D02*
D03*
Y3423D02*
D03*
Y3473D02*
D03*
Y3523D02*
D03*
Y3573D02*
D03*
Y3623D02*
D03*
Y3673D02*
D03*
Y3723D02*
D03*
Y3773D02*
D03*
Y3823D02*
D03*
Y3873D02*
D03*
Y3923D02*
D03*
Y3973D02*
D03*
D25*
X2834Y3280D02*
D03*
X2784D02*
D03*
X2734D02*
D03*
X2684D02*
D03*
X2634D02*
D03*
X2584D02*
D03*
X2534D02*
D03*
X2484D02*
D03*
X2434D02*
D03*
X2384D02*
D03*
D26*
X1829Y3611D02*
D03*
Y3969D02*
D03*
X1651Y3611D02*
D03*
Y3969D02*
D03*
%TF.MD5,d1efca38832ee851d4d8ad4462619a7e*%
M02*
