%TF.GenerationSoftware,Altium Limited,Altium Designer,22.9.1 (49)*%
G04 Layer_Physical_Order=2*
G04 Layer_Color=16711680*
%FSLAX23Y23*%
%MOIN*%
%TF.SameCoordinates,7E49B892-F471-4493-957F-970E4ADD815D*%
%TF.FilePolarity,Positive*%
%TF.FileFunction,Copper,L2,Bot,Signal*%
%TF.Part,Single*%
G01*
G75*
%TA.AperFunction,Conductor*%
%ADD27C,0.010*%
%TA.AperFunction,ComponentPad*%
%ADD28C,0.073*%
%ADD29R,0.067X0.067*%
%ADD30R,0.063X0.063*%
%ADD31C,0.063*%
%ADD32C,0.052*%
%ADD33C,0.050*%
%ADD34C,0.060*%
%ADD35R,0.060X0.060*%
%ADD36R,0.060X0.060*%
%ADD37R,0.063X0.063*%
%ADD38C,0.063*%
G04:AMPARAMS|DCode=39|XSize=63mil|YSize=63mil|CornerRadius=16mil|HoleSize=0mil|Usage=FLASHONLY|Rotation=0.000|XOffset=0mil|YOffset=0mil|HoleType=Round|Shape=RoundedRectangle|*
%AMROUNDEDRECTD39*
21,1,0.063,0.031,0,0,0.0*
21,1,0.031,0.063,0,0,0.0*
1,1,0.031,0.016,-0.016*
1,1,0.031,-0.016,-0.016*
1,1,0.031,-0.016,0.016*
1,1,0.031,0.016,0.016*
%
%ADD39ROUNDEDRECTD39*%
%TA.AperFunction,ViaPad*%
%ADD40C,0.050*%
%ADD41C,0.165*%
G36*
X4150Y1000D02*
X1000D01*
Y4150D01*
X4150D01*
Y1000D01*
D02*
G37*
%LPC*%
G36*
X3942Y3972D02*
Y3942D01*
X3972D01*
X3970Y3951D01*
X3965Y3958D01*
X3958Y3965D01*
X3951Y3970D01*
X3942Y3972D01*
D02*
G37*
G36*
X3932D02*
X3923Y3970D01*
X3916Y3965D01*
X3909Y3958D01*
X3904Y3951D01*
X3902Y3942D01*
X3932D01*
Y3972D01*
D02*
G37*
G36*
X3785D02*
Y3942D01*
X3814D01*
X3812Y3951D01*
X3808Y3958D01*
X3801Y3965D01*
X3793Y3970D01*
X3785Y3972D01*
D02*
G37*
G36*
X3775D02*
X3766Y3970D01*
X3758Y3965D01*
X3752Y3958D01*
X3747Y3951D01*
X3745Y3942D01*
X3775D01*
Y3972D01*
D02*
G37*
G36*
X3312D02*
Y3942D01*
X3342D01*
X3340Y3951D01*
X3335Y3958D01*
X3329Y3965D01*
X3321Y3970D01*
X3312Y3972D01*
D02*
G37*
G36*
X3302D02*
X3294Y3970D01*
X3286Y3965D01*
X3279Y3958D01*
X3274Y3951D01*
X3272Y3942D01*
X3302D01*
Y3972D01*
D02*
G37*
G36*
X1737D02*
Y3942D01*
X1767D01*
X1765Y3951D01*
X1760Y3958D01*
X1754Y3965D01*
X1746Y3970D01*
X1737Y3972D01*
D02*
G37*
G36*
X1727D02*
X1719Y3970D01*
X1711Y3965D01*
X1704Y3958D01*
X1700Y3951D01*
X1697Y3942D01*
X1727D01*
Y3972D01*
D02*
G37*
G36*
X1580D02*
Y3942D01*
X1610D01*
X1607Y3951D01*
X1603Y3958D01*
X1596Y3965D01*
X1588Y3970D01*
X1580Y3972D01*
D02*
G37*
G36*
X1570D02*
X1561Y3970D01*
X1553Y3965D01*
X1547Y3958D01*
X1542Y3951D01*
X1540Y3942D01*
X1570D01*
Y3972D01*
D02*
G37*
G36*
X1422D02*
Y3942D01*
X1452D01*
X1450Y3951D01*
X1445Y3958D01*
X1439Y3965D01*
X1431Y3970D01*
X1422Y3972D01*
D02*
G37*
G36*
X1412D02*
X1404Y3970D01*
X1396Y3965D01*
X1389Y3958D01*
X1385Y3951D01*
X1382Y3942D01*
X1412D01*
Y3972D01*
D02*
G37*
G36*
X1265D02*
Y3942D01*
X1295D01*
X1292Y3951D01*
X1288Y3958D01*
X1281Y3965D01*
X1273Y3970D01*
X1265Y3972D01*
D02*
G37*
G36*
X1255D02*
X1246Y3970D01*
X1238Y3965D01*
X1232Y3958D01*
X1227Y3951D01*
X1225Y3942D01*
X1255D01*
Y3972D01*
D02*
G37*
G36*
X1107D02*
Y3942D01*
X1137D01*
X1135Y3951D01*
X1130Y3958D01*
X1124Y3965D01*
X1116Y3970D01*
X1107Y3972D01*
D02*
G37*
G36*
X1097D02*
X1089Y3970D01*
X1081Y3965D01*
X1074Y3958D01*
X1070Y3951D01*
X1067Y3942D01*
X1097D01*
Y3972D01*
D02*
G37*
G36*
X3972Y3932D02*
X3942D01*
Y3902D01*
X3951Y3904D01*
X3958Y3909D01*
X3965Y3916D01*
X3970Y3923D01*
X3972Y3932D01*
D02*
G37*
G36*
X3932D02*
X3902D01*
X3904Y3923D01*
X3909Y3916D01*
X3916Y3909D01*
X3923Y3904D01*
X3932Y3902D01*
Y3932D01*
D02*
G37*
G36*
X3814D02*
X3785D01*
Y3902D01*
X3793Y3904D01*
X3801Y3909D01*
X3808Y3916D01*
X3812Y3923D01*
X3814Y3932D01*
D02*
G37*
G36*
X3775D02*
X3745D01*
X3747Y3923D01*
X3752Y3916D01*
X3758Y3909D01*
X3766Y3904D01*
X3775Y3902D01*
Y3932D01*
D02*
G37*
G36*
X3342D02*
X3312D01*
Y3902D01*
X3321Y3904D01*
X3329Y3909D01*
X3335Y3916D01*
X3340Y3923D01*
X3342Y3932D01*
D02*
G37*
G36*
X3302D02*
X3272D01*
X3274Y3923D01*
X3279Y3916D01*
X3286Y3909D01*
X3294Y3904D01*
X3302Y3902D01*
Y3932D01*
D02*
G37*
G36*
X1767D02*
X1737D01*
Y3902D01*
X1746Y3904D01*
X1754Y3909D01*
X1760Y3916D01*
X1765Y3923D01*
X1767Y3932D01*
D02*
G37*
G36*
X1727D02*
X1697D01*
X1700Y3923D01*
X1704Y3916D01*
X1711Y3909D01*
X1719Y3904D01*
X1727Y3902D01*
Y3932D01*
D02*
G37*
G36*
X1610D02*
X1580D01*
Y3902D01*
X1588Y3904D01*
X1596Y3909D01*
X1603Y3916D01*
X1607Y3923D01*
X1610Y3932D01*
D02*
G37*
G36*
X1570D02*
X1540D01*
X1542Y3923D01*
X1547Y3916D01*
X1553Y3909D01*
X1561Y3904D01*
X1570Y3902D01*
Y3932D01*
D02*
G37*
G36*
X1452D02*
X1422D01*
Y3902D01*
X1431Y3904D01*
X1439Y3909D01*
X1445Y3916D01*
X1450Y3923D01*
X1452Y3932D01*
D02*
G37*
G36*
X1412D02*
X1382D01*
X1385Y3923D01*
X1389Y3916D01*
X1396Y3909D01*
X1404Y3904D01*
X1412Y3902D01*
Y3932D01*
D02*
G37*
G36*
X1295D02*
X1265D01*
Y3902D01*
X1273Y3904D01*
X1281Y3909D01*
X1288Y3916D01*
X1292Y3923D01*
X1295Y3932D01*
D02*
G37*
G36*
X1255D02*
X1225D01*
X1227Y3923D01*
X1232Y3916D01*
X1238Y3909D01*
X1246Y3904D01*
X1255Y3902D01*
Y3932D01*
D02*
G37*
G36*
X1137D02*
X1107D01*
Y3902D01*
X1116Y3904D01*
X1124Y3909D01*
X1130Y3916D01*
X1135Y3923D01*
X1137Y3932D01*
D02*
G37*
G36*
X1097D02*
X1067D01*
X1070Y3923D01*
X1074Y3916D01*
X1081Y3909D01*
X1089Y3904D01*
X1097Y3902D01*
Y3932D01*
D02*
G37*
G36*
X4021Y3814D02*
Y3785D01*
X4051D01*
X4048Y3793D01*
X4044Y3801D01*
X4037Y3808D01*
X4029Y3812D01*
X4021Y3814D01*
D02*
G37*
G36*
X4011D02*
X4002Y3812D01*
X3994Y3808D01*
X3988Y3801D01*
X3983Y3793D01*
X3981Y3785D01*
X4011D01*
Y3814D01*
D02*
G37*
G36*
X3233D02*
Y3785D01*
X3263D01*
X3261Y3793D01*
X3256Y3801D01*
X3250Y3808D01*
X3242Y3812D01*
X3233Y3814D01*
D02*
G37*
G36*
X3223D02*
X3215Y3812D01*
X3207Y3808D01*
X3200Y3801D01*
X3196Y3793D01*
X3193Y3785D01*
X3223D01*
Y3814D01*
D02*
G37*
G36*
X1816D02*
Y3785D01*
X1846D01*
X1844Y3793D01*
X1839Y3801D01*
X1833Y3808D01*
X1825Y3812D01*
X1816Y3814D01*
D02*
G37*
G36*
X1806D02*
X1798Y3812D01*
X1790Y3808D01*
X1783Y3801D01*
X1778Y3793D01*
X1776Y3785D01*
X1806D01*
Y3814D01*
D02*
G37*
G36*
X1186D02*
Y3785D01*
X1216D01*
X1214Y3793D01*
X1209Y3801D01*
X1203Y3808D01*
X1195Y3812D01*
X1186Y3814D01*
D02*
G37*
G36*
X1176D02*
X1168Y3812D01*
X1160Y3808D01*
X1153Y3801D01*
X1148Y3793D01*
X1146Y3785D01*
X1176D01*
Y3814D01*
D02*
G37*
G36*
X3765Y3849D02*
X3761D01*
Y3761D01*
X3849D01*
Y3765D01*
X3845Y3783D01*
X3838Y3800D01*
X3828Y3815D01*
X3815Y3828D01*
X3800Y3838D01*
X3783Y3845D01*
X3765Y3849D01*
D02*
G37*
G36*
X3751D02*
X3747D01*
X3729Y3845D01*
X3712Y3838D01*
X3697Y3828D01*
X3684Y3815D01*
X3674Y3800D01*
X3667Y3783D01*
X3664Y3765D01*
Y3761D01*
X3751D01*
Y3849D01*
D02*
G37*
G36*
X1403D02*
X1399D01*
Y3761D01*
X1486D01*
Y3765D01*
X1483Y3783D01*
X1476Y3800D01*
X1466Y3815D01*
X1453Y3828D01*
X1438Y3838D01*
X1421Y3845D01*
X1403Y3849D01*
D02*
G37*
G36*
X1389D02*
X1385D01*
X1367Y3845D01*
X1350Y3838D01*
X1335Y3828D01*
X1322Y3815D01*
X1312Y3800D01*
X1305Y3783D01*
X1301Y3765D01*
Y3761D01*
X1389D01*
Y3849D01*
D02*
G37*
G36*
X4051Y3775D02*
X4021D01*
Y3745D01*
X4029Y3747D01*
X4037Y3752D01*
X4044Y3758D01*
X4048Y3766D01*
X4051Y3775D01*
D02*
G37*
G36*
X4011D02*
X3981D01*
X3983Y3766D01*
X3988Y3758D01*
X3994Y3752D01*
X4002Y3747D01*
X4011Y3745D01*
Y3775D01*
D02*
G37*
G36*
X3263D02*
X3233D01*
Y3745D01*
X3242Y3747D01*
X3250Y3752D01*
X3256Y3758D01*
X3261Y3766D01*
X3263Y3775D01*
D02*
G37*
G36*
X3223D02*
X3193D01*
X3196Y3766D01*
X3200Y3758D01*
X3207Y3752D01*
X3215Y3747D01*
X3223Y3745D01*
Y3775D01*
D02*
G37*
G36*
X1846D02*
X1816D01*
Y3745D01*
X1825Y3747D01*
X1833Y3752D01*
X1839Y3758D01*
X1844Y3766D01*
X1846Y3775D01*
D02*
G37*
G36*
X1806D02*
X1776D01*
X1778Y3766D01*
X1783Y3758D01*
X1790Y3752D01*
X1798Y3747D01*
X1806Y3745D01*
Y3775D01*
D02*
G37*
G36*
X1216D02*
X1186D01*
Y3745D01*
X1195Y3747D01*
X1203Y3752D01*
X1209Y3758D01*
X1214Y3766D01*
X1216Y3775D01*
D02*
G37*
G36*
X1176D02*
X1146D01*
X1148Y3766D01*
X1153Y3758D01*
X1160Y3752D01*
X1168Y3747D01*
X1176Y3745D01*
Y3775D01*
D02*
G37*
G36*
X3849Y3751D02*
X3761D01*
Y3664D01*
X3765D01*
X3783Y3667D01*
X3800Y3674D01*
X3815Y3684D01*
X3828Y3697D01*
X3838Y3712D01*
X3845Y3729D01*
X3849Y3747D01*
Y3751D01*
D02*
G37*
G36*
X3751D02*
X3664D01*
Y3747D01*
X3667Y3729D01*
X3674Y3712D01*
X3684Y3697D01*
X3697Y3684D01*
X3712Y3674D01*
X3729Y3667D01*
X3747Y3664D01*
X3751D01*
Y3751D01*
D02*
G37*
G36*
X1486D02*
X1399D01*
Y3664D01*
X1403D01*
X1421Y3667D01*
X1438Y3674D01*
X1453Y3684D01*
X1466Y3697D01*
X1476Y3712D01*
X1483Y3729D01*
X1486Y3747D01*
Y3751D01*
D02*
G37*
G36*
X1389D02*
X1301D01*
Y3747D01*
X1305Y3729D01*
X1312Y3712D01*
X1322Y3697D01*
X1335Y3684D01*
X1350Y3674D01*
X1367Y3667D01*
X1385Y3664D01*
X1389D01*
Y3751D01*
D02*
G37*
G36*
X3942Y3657D02*
Y3627D01*
X3972D01*
X3970Y3636D01*
X3965Y3644D01*
X3958Y3650D01*
X3951Y3655D01*
X3942Y3657D01*
D02*
G37*
G36*
X3932D02*
X3923Y3655D01*
X3916Y3650D01*
X3909Y3644D01*
X3904Y3636D01*
X3902Y3627D01*
X3932D01*
Y3657D01*
D02*
G37*
G36*
X3785D02*
Y3627D01*
X3814D01*
X3812Y3636D01*
X3808Y3644D01*
X3801Y3650D01*
X3793Y3655D01*
X3785Y3657D01*
D02*
G37*
G36*
X3775D02*
X3766Y3655D01*
X3758Y3650D01*
X3752Y3644D01*
X3747Y3636D01*
X3745Y3627D01*
X3775D01*
Y3657D01*
D02*
G37*
G36*
X2042D02*
X2034Y3655D01*
X2026Y3650D01*
X2019Y3644D01*
X2015Y3636D01*
X2012Y3627D01*
X2042D01*
Y3657D01*
D02*
G37*
G36*
X1737D02*
Y3627D01*
X1767D01*
X1765Y3636D01*
X1760Y3644D01*
X1754Y3650D01*
X1746Y3655D01*
X1737Y3657D01*
D02*
G37*
G36*
X1727D02*
X1719Y3655D01*
X1711Y3650D01*
X1704Y3644D01*
X1700Y3636D01*
X1697Y3627D01*
X1727D01*
Y3657D01*
D02*
G37*
G36*
X1422D02*
Y3627D01*
X1452D01*
X1450Y3636D01*
X1445Y3644D01*
X1439Y3650D01*
X1431Y3655D01*
X1422Y3657D01*
D02*
G37*
G36*
X1412D02*
X1404Y3655D01*
X1396Y3650D01*
X1389Y3644D01*
X1385Y3636D01*
X1382Y3627D01*
X1412D01*
Y3657D01*
D02*
G37*
G36*
X1265D02*
Y3627D01*
X1295D01*
X1292Y3636D01*
X1288Y3644D01*
X1281Y3650D01*
X1273Y3655D01*
X1265Y3657D01*
D02*
G37*
G36*
X1255D02*
X1246Y3655D01*
X1238Y3650D01*
X1232Y3644D01*
X1227Y3636D01*
X1225Y3627D01*
X1255D01*
Y3657D01*
D02*
G37*
G36*
X1107D02*
Y3627D01*
X1137D01*
X1135Y3636D01*
X1130Y3644D01*
X1124Y3650D01*
X1116Y3655D01*
X1107Y3657D01*
D02*
G37*
G36*
X1097D02*
X1089Y3655D01*
X1081Y3650D01*
X1074Y3644D01*
X1070Y3636D01*
X1067Y3627D01*
X1097D01*
Y3657D01*
D02*
G37*
G36*
X2155Y3695D02*
X2145D01*
X2136Y3693D01*
X2129Y3688D01*
X2122Y3681D01*
X2117Y3674D01*
X2115Y3665D01*
Y3655D01*
X2117Y3648D01*
X2087Y3619D01*
X2082Y3621D01*
Y3627D01*
X2080Y3636D01*
X2075Y3644D01*
X2069Y3650D01*
X2061Y3655D01*
X2052Y3657D01*
Y3622D01*
X2047D01*
Y3617D01*
X2012D01*
X2015Y3609D01*
X2019Y3601D01*
X2026Y3594D01*
X2034Y3589D01*
X2043Y3587D01*
X2048D01*
X2050Y3582D01*
X1772Y3304D01*
X1767Y3306D01*
Y3312D01*
X1765Y3321D01*
X1760Y3329D01*
X1754Y3335D01*
X1746Y3340D01*
X1737Y3342D01*
Y3307D01*
X1732D01*
Y3302D01*
X1697D01*
X1700Y3294D01*
X1704Y3286D01*
X1711Y3279D01*
X1719Y3274D01*
X1728Y3272D01*
X1733D01*
X1735Y3267D01*
X1289Y2821D01*
X1286Y2816D01*
X1285Y2810D01*
Y2717D01*
X1285Y2717D01*
X1275Y2712D01*
X1268Y2705D01*
X1263Y2695D01*
X1260Y2685D01*
Y2675D01*
X1263Y2665D01*
X1268Y2655D01*
X1275Y2648D01*
X1285Y2643D01*
X1295Y2640D01*
X1305D01*
X1315Y2643D01*
X1325Y2648D01*
X1332Y2655D01*
X1337Y2665D01*
X1340Y2675D01*
Y2685D01*
X1337Y2695D01*
X1332Y2705D01*
X1325Y2712D01*
X1315Y2717D01*
X1315Y2717D01*
Y2804D01*
X2114Y3602D01*
X2118Y3599D01*
X2117Y3599D01*
X2115Y3590D01*
Y3580D01*
X2117Y3573D01*
X1722Y3179D01*
X1719Y3174D01*
X1718Y3168D01*
Y3056D01*
X1434Y2772D01*
X1431Y2767D01*
X1430Y2761D01*
Y2626D01*
X1381Y2577D01*
X1340D01*
Y2585D01*
X1340Y2587D01*
X1340Y2588D01*
Y2602D01*
X1326D01*
X1325Y2602D01*
X1323Y2602D01*
X1260D01*
Y2522D01*
X1340D01*
Y2547D01*
X1387D01*
X1393Y2548D01*
X1398Y2551D01*
X1456Y2609D01*
X1459Y2614D01*
X1460Y2620D01*
Y2755D01*
X1744Y3039D01*
X1747Y3044D01*
X1748Y3050D01*
Y3162D01*
X2110Y3523D01*
X2115Y3521D01*
Y3515D01*
X2117Y3508D01*
X2021Y3413D01*
X2018Y3408D01*
X2017Y3402D01*
Y3233D01*
X1927Y3143D01*
X1920Y3145D01*
X1910D01*
X1901Y3143D01*
X1894Y3138D01*
X1887Y3131D01*
X1882Y3124D01*
X1880Y3115D01*
Y3105D01*
X1882Y3096D01*
X1887Y3089D01*
X1894Y3082D01*
X1897Y3080D01*
Y3075D01*
X1894Y3073D01*
X1887Y3066D01*
X1882Y3059D01*
X1880Y3050D01*
Y3040D01*
X1882Y3031D01*
X1887Y3024D01*
X1894Y3017D01*
X1897Y3015D01*
Y3010D01*
X1894Y3008D01*
X1887Y3001D01*
X1882Y2994D01*
X1880Y2985D01*
Y2975D01*
X1882Y2966D01*
X1887Y2959D01*
X1894Y2952D01*
X1901Y2947D01*
X1910Y2945D01*
X1920D01*
X1929Y2947D01*
X1936Y2952D01*
X1943Y2959D01*
X1948Y2966D01*
X1950Y2975D01*
Y2985D01*
X1948Y2992D01*
X2161Y3204D01*
X2164Y3209D01*
X2165Y3215D01*
Y3353D01*
X2171Y3357D01*
X2178Y3364D01*
X2183Y3371D01*
X2185Y3380D01*
Y3390D01*
X2183Y3399D01*
X2178Y3406D01*
X2171Y3413D01*
X2164Y3417D01*
X2164Y3420D01*
X2164Y3423D01*
X2171Y3427D01*
X2178Y3434D01*
X2183Y3441D01*
X2185Y3450D01*
Y3460D01*
X2183Y3469D01*
X2178Y3476D01*
X2171Y3483D01*
X2168Y3485D01*
Y3490D01*
X2171Y3492D01*
X2178Y3499D01*
X2183Y3506D01*
X2185Y3515D01*
Y3525D01*
X2183Y3534D01*
X2178Y3541D01*
X2171Y3548D01*
X2168Y3550D01*
Y3555D01*
X2171Y3557D01*
X2178Y3564D01*
X2183Y3571D01*
X2185Y3580D01*
Y3590D01*
X2183Y3599D01*
X2178Y3606D01*
X2171Y3613D01*
X2164Y3618D01*
X2155Y3620D01*
X2145D01*
X2136Y3618D01*
X2136Y3617D01*
X2133Y3621D01*
X2138Y3627D01*
X2145Y3625D01*
X2155D01*
X2164Y3627D01*
X2171Y3632D01*
X2178Y3639D01*
X2183Y3646D01*
X2185Y3655D01*
Y3665D01*
X2183Y3674D01*
X2178Y3681D01*
X2171Y3688D01*
X2164Y3693D01*
X2155Y3695D01*
D02*
G37*
G36*
X3972Y3617D02*
X3942D01*
Y3587D01*
X3951Y3589D01*
X3958Y3594D01*
X3965Y3601D01*
X3970Y3609D01*
X3972Y3617D01*
D02*
G37*
G36*
X3932D02*
X3902D01*
X3904Y3609D01*
X3909Y3601D01*
X3916Y3594D01*
X3923Y3589D01*
X3932Y3587D01*
Y3617D01*
D02*
G37*
G36*
X3814D02*
X3785D01*
Y3587D01*
X3793Y3589D01*
X3801Y3594D01*
X3808Y3601D01*
X3812Y3609D01*
X3814Y3617D01*
D02*
G37*
G36*
X3775D02*
X3745D01*
X3747Y3609D01*
X3752Y3601D01*
X3758Y3594D01*
X3766Y3589D01*
X3775Y3587D01*
Y3617D01*
D02*
G37*
G36*
X1767D02*
X1737D01*
Y3587D01*
X1746Y3589D01*
X1754Y3594D01*
X1760Y3601D01*
X1765Y3609D01*
X1767Y3617D01*
D02*
G37*
G36*
X1727D02*
X1697D01*
X1700Y3609D01*
X1704Y3601D01*
X1711Y3594D01*
X1719Y3589D01*
X1727Y3587D01*
Y3617D01*
D02*
G37*
G36*
X1452D02*
X1422D01*
Y3587D01*
X1431Y3589D01*
X1439Y3594D01*
X1445Y3601D01*
X1450Y3609D01*
X1452Y3617D01*
D02*
G37*
G36*
X1412D02*
X1382D01*
X1385Y3609D01*
X1389Y3601D01*
X1396Y3594D01*
X1404Y3589D01*
X1412Y3587D01*
Y3617D01*
D02*
G37*
G36*
X1295D02*
X1265D01*
Y3587D01*
X1273Y3589D01*
X1281Y3594D01*
X1288Y3601D01*
X1292Y3609D01*
X1295Y3617D01*
D02*
G37*
G36*
X1255D02*
X1225D01*
X1227Y3609D01*
X1232Y3601D01*
X1238Y3594D01*
X1246Y3589D01*
X1255Y3587D01*
Y3617D01*
D02*
G37*
G36*
X1137D02*
X1107D01*
Y3587D01*
X1116Y3589D01*
X1124Y3594D01*
X1130Y3601D01*
X1135Y3609D01*
X1137Y3617D01*
D02*
G37*
G36*
X1097D02*
X1067D01*
X1070Y3609D01*
X1074Y3601D01*
X1081Y3594D01*
X1089Y3589D01*
X1097Y3587D01*
Y3617D01*
D02*
G37*
G36*
X3580Y3935D02*
X3570D01*
X3561Y3933D01*
X3554Y3928D01*
X3547Y3921D01*
X3542Y3914D01*
X3540Y3905D01*
Y3895D01*
X3542Y3886D01*
X3547Y3879D01*
X3554Y3872D01*
X3560Y3868D01*
Y3641D01*
X3561Y3635D01*
X3564Y3630D01*
X3565Y3629D01*
X3562Y3624D01*
X3560Y3615D01*
Y3605D01*
X3562Y3596D01*
X3567Y3589D01*
X3574Y3582D01*
X3581Y3577D01*
X3590Y3575D01*
X3600D01*
X3609Y3577D01*
X3616Y3582D01*
X3623Y3589D01*
X3628Y3596D01*
X3630Y3605D01*
Y3615D01*
X3628Y3624D01*
X3623Y3631D01*
X3616Y3638D01*
X3609Y3643D01*
X3600Y3645D01*
X3592D01*
X3590Y3647D01*
Y3868D01*
X3596Y3872D01*
X3603Y3879D01*
X3608Y3886D01*
X3610Y3895D01*
Y3905D01*
X3608Y3914D01*
X3603Y3921D01*
X3596Y3928D01*
X3589Y3933D01*
X3580Y3935D01*
D02*
G37*
G36*
X4021Y3499D02*
Y3470D01*
X4051D01*
X4048Y3478D01*
X4044Y3486D01*
X4037Y3493D01*
X4029Y3497D01*
X4021Y3499D01*
D02*
G37*
G36*
X4011D02*
X4002Y3497D01*
X3994Y3493D01*
X3988Y3486D01*
X3983Y3478D01*
X3981Y3470D01*
X4011D01*
Y3499D01*
D02*
G37*
G36*
X1186D02*
Y3470D01*
X1216D01*
X1214Y3478D01*
X1209Y3486D01*
X1203Y3493D01*
X1195Y3497D01*
X1186Y3499D01*
D02*
G37*
G36*
X1176D02*
X1168Y3497D01*
X1160Y3493D01*
X1153Y3486D01*
X1148Y3478D01*
X1146Y3470D01*
X1176D01*
Y3499D01*
D02*
G37*
G36*
X4051Y3460D02*
X4021D01*
Y3430D01*
X4029Y3432D01*
X4037Y3437D01*
X4044Y3443D01*
X4048Y3451D01*
X4051Y3460D01*
D02*
G37*
G36*
X4011D02*
X3981D01*
X3983Y3451D01*
X3988Y3443D01*
X3994Y3437D01*
X4002Y3432D01*
X4011Y3430D01*
Y3460D01*
D02*
G37*
G36*
X1216D02*
X1186D01*
Y3430D01*
X1195Y3432D01*
X1203Y3437D01*
X1209Y3443D01*
X1214Y3451D01*
X1216Y3460D01*
D02*
G37*
G36*
X1176D02*
X1146D01*
X1148Y3451D01*
X1153Y3443D01*
X1160Y3437D01*
X1168Y3432D01*
X1176Y3430D01*
Y3460D01*
D02*
G37*
G36*
X1387Y3426D02*
X1378D01*
X1369Y3424D01*
X1361Y3419D01*
X1354Y3413D01*
X1350Y3405D01*
X1347Y3396D01*
Y3387D01*
X1350Y3378D01*
X1354Y3370D01*
X1361Y3363D01*
X1369Y3359D01*
X1378Y3356D01*
X1387D01*
X1396Y3359D01*
X1404Y3363D01*
X1410Y3370D01*
X1415Y3378D01*
X1417Y3387D01*
Y3396D01*
X1415Y3405D01*
X1410Y3413D01*
X1404Y3419D01*
X1396Y3424D01*
X1387Y3426D01*
D02*
G37*
G36*
X3155Y3342D02*
Y3312D01*
X3185D01*
X3182Y3321D01*
X3178Y3329D01*
X3171Y3335D01*
X3163Y3340D01*
X3155Y3342D01*
D02*
G37*
G36*
X3145D02*
X3136Y3340D01*
X3128Y3335D01*
X3122Y3329D01*
X3117Y3321D01*
X3115Y3312D01*
X3145D01*
Y3342D01*
D02*
G37*
G36*
X1727D02*
X1719Y3340D01*
X1711Y3335D01*
X1704Y3329D01*
X1700Y3321D01*
X1697Y3312D01*
X1727D01*
Y3342D01*
D02*
G37*
G36*
X1422D02*
Y3312D01*
X1452D01*
X1450Y3321D01*
X1445Y3329D01*
X1439Y3335D01*
X1431Y3340D01*
X1422Y3342D01*
D02*
G37*
G36*
X1412D02*
X1404Y3340D01*
X1396Y3335D01*
X1389Y3329D01*
X1385Y3321D01*
X1382Y3312D01*
X1412D01*
Y3342D01*
D02*
G37*
G36*
X1107D02*
Y3312D01*
X1137D01*
X1135Y3321D01*
X1130Y3329D01*
X1124Y3335D01*
X1116Y3340D01*
X1107Y3342D01*
D02*
G37*
G36*
X1097D02*
X1089Y3340D01*
X1081Y3335D01*
X1074Y3329D01*
X1070Y3321D01*
X1067Y3312D01*
X1097D01*
Y3342D01*
D02*
G37*
G36*
X3185Y3302D02*
X3155D01*
Y3272D01*
X3163Y3274D01*
X3171Y3279D01*
X3178Y3286D01*
X3182Y3294D01*
X3185Y3302D01*
D02*
G37*
G36*
X3145D02*
X3115D01*
X3117Y3294D01*
X3122Y3286D01*
X3128Y3279D01*
X3136Y3274D01*
X3145Y3272D01*
Y3302D01*
D02*
G37*
G36*
X1452D02*
X1422D01*
Y3272D01*
X1431Y3274D01*
X1439Y3279D01*
X1445Y3286D01*
X1450Y3294D01*
X1452Y3302D01*
D02*
G37*
G36*
X1412D02*
X1382D01*
X1385Y3294D01*
X1389Y3286D01*
X1396Y3279D01*
X1404Y3274D01*
X1412Y3272D01*
Y3302D01*
D02*
G37*
G36*
X1137D02*
X1107D01*
Y3272D01*
X1116Y3274D01*
X1124Y3279D01*
X1130Y3286D01*
X1135Y3294D01*
X1137Y3302D01*
D02*
G37*
G36*
X1097D02*
X1067D01*
X1070Y3294D01*
X1074Y3286D01*
X1081Y3279D01*
X1089Y3274D01*
X1097Y3272D01*
Y3302D01*
D02*
G37*
G36*
X1310Y3313D02*
X1300D01*
X1290Y3310D01*
X1280Y3305D01*
X1273Y3298D01*
X1268Y3289D01*
X1265Y3278D01*
Y3268D01*
X1268Y3258D01*
X1273Y3249D01*
X1280Y3241D01*
X1290Y3236D01*
X1300Y3233D01*
X1310D01*
X1320Y3236D01*
X1330Y3241D01*
X1337Y3249D01*
X1342Y3258D01*
X1345Y3268D01*
Y3278D01*
X1342Y3289D01*
X1337Y3298D01*
X1330Y3305D01*
X1320Y3310D01*
X1310Y3313D01*
D02*
G37*
G36*
X3863Y3185D02*
Y3155D01*
X3893D01*
X3891Y3163D01*
X3886Y3171D01*
X3880Y3178D01*
X3872Y3182D01*
X3863Y3185D01*
D02*
G37*
G36*
X3853D02*
X3845Y3182D01*
X3837Y3178D01*
X3830Y3171D01*
X3826Y3163D01*
X3823Y3155D01*
X3853D01*
Y3185D01*
D02*
G37*
G36*
X3706D02*
Y3155D01*
X3736D01*
X3733Y3163D01*
X3729Y3171D01*
X3722Y3178D01*
X3714Y3182D01*
X3706Y3185D01*
D02*
G37*
G36*
X3696D02*
X3687Y3182D01*
X3679Y3178D01*
X3673Y3171D01*
X3668Y3163D01*
X3666Y3155D01*
X3696D01*
Y3185D01*
D02*
G37*
G36*
X3548D02*
Y3155D01*
X3578D01*
X3576Y3163D01*
X3571Y3171D01*
X3565Y3178D01*
X3557Y3182D01*
X3548Y3185D01*
D02*
G37*
G36*
X3538D02*
X3530Y3182D01*
X3522Y3178D01*
X3515Y3171D01*
X3511Y3163D01*
X3508Y3155D01*
X3538D01*
Y3185D01*
D02*
G37*
G36*
X3391D02*
Y3155D01*
X3421D01*
X3418Y3163D01*
X3414Y3171D01*
X3407Y3178D01*
X3399Y3182D01*
X3391Y3185D01*
D02*
G37*
G36*
X3381D02*
X3372Y3182D01*
X3364Y3178D01*
X3358Y3171D01*
X3353Y3163D01*
X3351Y3155D01*
X3381D01*
Y3185D01*
D02*
G37*
G36*
X2603D02*
Y3155D01*
X2633D01*
X2631Y3163D01*
X2626Y3171D01*
X2620Y3178D01*
X2612Y3182D01*
X2603Y3185D01*
D02*
G37*
G36*
X2593D02*
X2585Y3182D01*
X2577Y3178D01*
X2570Y3171D01*
X2566Y3163D01*
X2564Y3155D01*
X2593D01*
Y3185D01*
D02*
G37*
G36*
X1501D02*
Y3155D01*
X1531D01*
X1529Y3163D01*
X1524Y3171D01*
X1518Y3178D01*
X1510Y3182D01*
X1501Y3185D01*
D02*
G37*
G36*
X1491D02*
X1483Y3182D01*
X1475Y3178D01*
X1468Y3171D01*
X1463Y3163D01*
X1461Y3155D01*
X1491D01*
Y3185D01*
D02*
G37*
G36*
X1186D02*
Y3155D01*
X1216D01*
X1214Y3163D01*
X1209Y3171D01*
X1203Y3178D01*
X1195Y3182D01*
X1186Y3185D01*
D02*
G37*
G36*
X1176D02*
X1168Y3182D01*
X1160Y3178D01*
X1153Y3171D01*
X1148Y3163D01*
X1146Y3155D01*
X1176D01*
Y3185D01*
D02*
G37*
G36*
X3065Y3181D02*
X3065D01*
Y3145D01*
X3101D01*
Y3145D01*
X3099Y3156D01*
X3093Y3165D01*
X3085Y3173D01*
X3076Y3179D01*
X3065Y3181D01*
D02*
G37*
G36*
X3055D02*
X3055D01*
X3044Y3179D01*
X3035Y3173D01*
X3027Y3165D01*
X3021Y3156D01*
X3019Y3145D01*
Y3145D01*
X3055D01*
Y3181D01*
D02*
G37*
G36*
X1345Y3195D02*
X1265D01*
Y3115D01*
X1345D01*
Y3195D01*
D02*
G37*
G36*
X3893Y3145D02*
X3863D01*
Y3115D01*
X3872Y3117D01*
X3880Y3122D01*
X3886Y3128D01*
X3891Y3136D01*
X3893Y3145D01*
D02*
G37*
G36*
X3853D02*
X3823D01*
X3826Y3136D01*
X3830Y3128D01*
X3837Y3122D01*
X3845Y3117D01*
X3853Y3115D01*
Y3145D01*
D02*
G37*
G36*
X3736D02*
X3706D01*
Y3115D01*
X3714Y3117D01*
X3722Y3122D01*
X3729Y3128D01*
X3733Y3136D01*
X3736Y3145D01*
D02*
G37*
G36*
X3696D02*
X3666D01*
X3668Y3136D01*
X3673Y3128D01*
X3679Y3122D01*
X3687Y3117D01*
X3696Y3115D01*
Y3145D01*
D02*
G37*
G36*
X3578D02*
X3548D01*
Y3115D01*
X3557Y3117D01*
X3565Y3122D01*
X3571Y3128D01*
X3576Y3136D01*
X3578Y3145D01*
D02*
G37*
G36*
X3538D02*
X3508D01*
X3511Y3136D01*
X3515Y3128D01*
X3522Y3122D01*
X3530Y3117D01*
X3538Y3115D01*
Y3145D01*
D02*
G37*
G36*
X3421D02*
X3391D01*
Y3115D01*
X3399Y3117D01*
X3407Y3122D01*
X3414Y3128D01*
X3418Y3136D01*
X3421Y3145D01*
D02*
G37*
G36*
X3381D02*
X3351D01*
X3353Y3136D01*
X3358Y3128D01*
X3364Y3122D01*
X3372Y3117D01*
X3381Y3115D01*
Y3145D01*
D02*
G37*
G36*
X2633D02*
X2603D01*
Y3115D01*
X2612Y3117D01*
X2620Y3122D01*
X2626Y3128D01*
X2631Y3136D01*
X2633Y3145D01*
D02*
G37*
G36*
X2593D02*
X2564D01*
X2566Y3136D01*
X2570Y3128D01*
X2577Y3122D01*
X2585Y3117D01*
X2593Y3115D01*
Y3145D01*
D02*
G37*
G36*
X1531D02*
X1501D01*
Y3115D01*
X1510Y3117D01*
X1518Y3122D01*
X1524Y3128D01*
X1529Y3136D01*
X1531Y3145D01*
D02*
G37*
G36*
X1491D02*
X1461D01*
X1463Y3136D01*
X1468Y3128D01*
X1475Y3122D01*
X1483Y3117D01*
X1491Y3115D01*
Y3145D01*
D02*
G37*
G36*
X1216D02*
X1186D01*
Y3115D01*
X1195Y3117D01*
X1203Y3122D01*
X1209Y3128D01*
X1214Y3136D01*
X1216Y3145D01*
D02*
G37*
G36*
X1176D02*
X1146D01*
X1148Y3136D01*
X1153Y3128D01*
X1160Y3122D01*
X1168Y3117D01*
X1176Y3115D01*
Y3145D01*
D02*
G37*
G36*
X3101Y3135D02*
X3065D01*
Y3099D01*
X3065D01*
X3076Y3101D01*
X3085Y3107D01*
X3093Y3115D01*
X3099Y3124D01*
X3101Y3135D01*
Y3135D01*
D02*
G37*
G36*
X3055D02*
X3019D01*
Y3135D01*
X3021Y3124D01*
X3027Y3115D01*
X3035Y3107D01*
X3044Y3101D01*
X3055Y3099D01*
X3055D01*
Y3135D01*
D02*
G37*
G36*
X2976Y3182D02*
X2944D01*
X2938Y3181D01*
X2931Y3178D01*
X2926Y3174D01*
X2922Y3169D01*
X2919Y3162D01*
X2918Y3156D01*
Y3124D01*
X2919Y3118D01*
X2922Y3111D01*
X2926Y3106D01*
X2931Y3102D01*
X2938Y3099D01*
X2944Y3098D01*
X2976D01*
X2982Y3099D01*
X2989Y3102D01*
X2994Y3106D01*
X2998Y3111D01*
X3001Y3118D01*
X3002Y3124D01*
Y3156D01*
X3001Y3162D01*
X2998Y3169D01*
X2994Y3174D01*
X2989Y3178D01*
X2982Y3181D01*
X2976Y3182D01*
D02*
G37*
G36*
X1387Y3072D02*
X1378D01*
X1369Y3070D01*
X1361Y3065D01*
X1354Y3058D01*
X1350Y3050D01*
X1347Y3041D01*
Y3032D01*
X1350Y3023D01*
X1354Y3015D01*
X1361Y3009D01*
X1369Y3004D01*
X1378Y3002D01*
X1387D01*
X1396Y3004D01*
X1404Y3009D01*
X1410Y3015D01*
X1415Y3023D01*
X1417Y3032D01*
Y3041D01*
X1415Y3050D01*
X1410Y3058D01*
X1404Y3065D01*
X1396Y3070D01*
X1387Y3072D01*
D02*
G37*
G36*
X3627Y3027D02*
Y2997D01*
X3657D01*
X3655Y3006D01*
X3650Y3014D01*
X3644Y3020D01*
X3636Y3025D01*
X3627Y3027D01*
D02*
G37*
G36*
X3617D02*
X3609Y3025D01*
X3601Y3020D01*
X3594Y3014D01*
X3589Y3006D01*
X3587Y2997D01*
X3617D01*
Y3027D01*
D02*
G37*
G36*
X3470D02*
Y2997D01*
X3499D01*
X3497Y3006D01*
X3493Y3014D01*
X3486Y3020D01*
X3478Y3025D01*
X3470Y3027D01*
D02*
G37*
G36*
X3460D02*
X3451Y3025D01*
X3443Y3020D01*
X3437Y3014D01*
X3432Y3006D01*
X3430Y2997D01*
X3460D01*
Y3027D01*
D02*
G37*
G36*
X3312D02*
Y2997D01*
X3342D01*
X3340Y3006D01*
X3335Y3014D01*
X3329Y3020D01*
X3321Y3025D01*
X3312Y3027D01*
D02*
G37*
G36*
X3302D02*
X3294Y3025D01*
X3286Y3020D01*
X3279Y3014D01*
X3274Y3006D01*
X3272Y2997D01*
X3302D01*
Y3027D01*
D02*
G37*
G36*
X3155D02*
Y2997D01*
X3185D01*
X3182Y3006D01*
X3178Y3014D01*
X3171Y3020D01*
X3163Y3025D01*
X3155Y3027D01*
D02*
G37*
G36*
X3145D02*
X3136Y3025D01*
X3128Y3020D01*
X3122Y3014D01*
X3117Y3006D01*
X3115Y2997D01*
X3145D01*
Y3027D01*
D02*
G37*
G36*
X2997D02*
Y2997D01*
X3027D01*
X3025Y3006D01*
X3020Y3014D01*
X3014Y3020D01*
X3006Y3025D01*
X2997Y3027D01*
D02*
G37*
G36*
X2987D02*
X2979Y3025D01*
X2971Y3020D01*
X2964Y3014D01*
X2960Y3006D01*
X2957Y2997D01*
X2987D01*
Y3027D01*
D02*
G37*
G36*
X2682D02*
Y2997D01*
X2712D01*
X2710Y3006D01*
X2705Y3014D01*
X2699Y3020D01*
X2691Y3025D01*
X2682Y3027D01*
D02*
G37*
G36*
X2672D02*
X2664Y3025D01*
X2656Y3020D01*
X2649Y3014D01*
X2645Y3006D01*
X2642Y2997D01*
X2672D01*
Y3027D01*
D02*
G37*
G36*
X2525D02*
Y2997D01*
X2555D01*
X2552Y3006D01*
X2548Y3014D01*
X2541Y3020D01*
X2533Y3025D01*
X2525Y3027D01*
D02*
G37*
G36*
X2515D02*
X2506Y3025D01*
X2498Y3020D01*
X2492Y3014D01*
X2487Y3006D01*
X2485Y2997D01*
X2515D01*
Y3027D01*
D02*
G37*
G36*
X2367D02*
Y2997D01*
X2397D01*
X2395Y3006D01*
X2390Y3014D01*
X2384Y3020D01*
X2376Y3025D01*
X2367Y3027D01*
D02*
G37*
G36*
X2357D02*
X2349Y3025D01*
X2341Y3020D01*
X2334Y3014D01*
X2330Y3006D01*
X2327Y2997D01*
X2357D01*
Y3027D01*
D02*
G37*
G36*
X1265D02*
Y2997D01*
X1295D01*
X1292Y3006D01*
X1288Y3014D01*
X1281Y3020D01*
X1273Y3025D01*
X1265Y3027D01*
D02*
G37*
G36*
X1255D02*
X1246Y3025D01*
X1238Y3020D01*
X1232Y3014D01*
X1227Y3006D01*
X1225Y2997D01*
X1255D01*
Y3027D01*
D02*
G37*
G36*
X1107D02*
Y2997D01*
X1137D01*
X1135Y3006D01*
X1130Y3014D01*
X1124Y3020D01*
X1116Y3025D01*
X1107Y3027D01*
D02*
G37*
G36*
X1097D02*
X1089Y3025D01*
X1081Y3020D01*
X1074Y3014D01*
X1070Y3006D01*
X1067Y2997D01*
X1097D01*
Y3027D01*
D02*
G37*
G36*
X3657Y2987D02*
X3627D01*
Y2957D01*
X3636Y2960D01*
X3644Y2964D01*
X3650Y2971D01*
X3655Y2979D01*
X3657Y2987D01*
D02*
G37*
G36*
X3617D02*
X3587D01*
X3589Y2979D01*
X3594Y2971D01*
X3601Y2964D01*
X3609Y2960D01*
X3617Y2957D01*
Y2987D01*
D02*
G37*
G36*
X3499D02*
X3470D01*
Y2957D01*
X3478Y2960D01*
X3486Y2964D01*
X3493Y2971D01*
X3497Y2979D01*
X3499Y2987D01*
D02*
G37*
G36*
X3460D02*
X3430D01*
X3432Y2979D01*
X3437Y2971D01*
X3443Y2964D01*
X3451Y2960D01*
X3460Y2957D01*
Y2987D01*
D02*
G37*
G36*
X3342D02*
X3312D01*
Y2957D01*
X3321Y2960D01*
X3329Y2964D01*
X3335Y2971D01*
X3340Y2979D01*
X3342Y2987D01*
D02*
G37*
G36*
X3302D02*
X3272D01*
X3274Y2979D01*
X3279Y2971D01*
X3286Y2964D01*
X3294Y2960D01*
X3302Y2957D01*
Y2987D01*
D02*
G37*
G36*
X3185D02*
X3155D01*
Y2957D01*
X3163Y2960D01*
X3171Y2964D01*
X3178Y2971D01*
X3182Y2979D01*
X3185Y2987D01*
D02*
G37*
G36*
X3145D02*
X3115D01*
X3117Y2979D01*
X3122Y2971D01*
X3128Y2964D01*
X3136Y2960D01*
X3145Y2957D01*
Y2987D01*
D02*
G37*
G36*
X3027D02*
X2997D01*
Y2957D01*
X3006Y2960D01*
X3014Y2964D01*
X3020Y2971D01*
X3025Y2979D01*
X3027Y2987D01*
D02*
G37*
G36*
X2987D02*
X2957D01*
X2960Y2979D01*
X2964Y2971D01*
X2971Y2964D01*
X2979Y2960D01*
X2987Y2957D01*
Y2987D01*
D02*
G37*
G36*
X2712D02*
X2682D01*
Y2957D01*
X2691Y2960D01*
X2699Y2964D01*
X2705Y2971D01*
X2710Y2979D01*
X2712Y2987D01*
D02*
G37*
G36*
X2672D02*
X2642D01*
X2645Y2979D01*
X2649Y2971D01*
X2656Y2964D01*
X2664Y2960D01*
X2672Y2957D01*
Y2987D01*
D02*
G37*
G36*
X2555D02*
X2525D01*
Y2957D01*
X2533Y2960D01*
X2541Y2964D01*
X2548Y2971D01*
X2552Y2979D01*
X2555Y2987D01*
D02*
G37*
G36*
X2515D02*
X2485D01*
X2487Y2979D01*
X2492Y2971D01*
X2498Y2964D01*
X2506Y2960D01*
X2515Y2957D01*
Y2987D01*
D02*
G37*
G36*
X2397D02*
X2367D01*
Y2957D01*
X2376Y2960D01*
X2384Y2964D01*
X2390Y2971D01*
X2395Y2979D01*
X2397Y2987D01*
D02*
G37*
G36*
X2357D02*
X2327D01*
X2330Y2979D01*
X2334Y2971D01*
X2341Y2964D01*
X2349Y2960D01*
X2357Y2957D01*
Y2987D01*
D02*
G37*
G36*
X1295D02*
X1265D01*
Y2957D01*
X1273Y2960D01*
X1281Y2964D01*
X1288Y2971D01*
X1292Y2979D01*
X1295Y2987D01*
D02*
G37*
G36*
X1255D02*
X1225D01*
X1227Y2979D01*
X1232Y2971D01*
X1238Y2964D01*
X1246Y2960D01*
X1255Y2957D01*
Y2987D01*
D02*
G37*
G36*
X1137D02*
X1107D01*
Y2957D01*
X1116Y2960D01*
X1124Y2964D01*
X1130Y2971D01*
X1135Y2979D01*
X1137Y2987D01*
D02*
G37*
G36*
X1097D02*
X1067D01*
X1070Y2979D01*
X1074Y2971D01*
X1081Y2964D01*
X1089Y2960D01*
X1097Y2957D01*
Y2987D01*
D02*
G37*
G36*
X3997Y3000D02*
X3987D01*
X3978Y2998D01*
X3970Y2993D01*
X3963Y2986D01*
X3959Y2978D01*
X3956Y2969D01*
Y2960D01*
X3959Y2950D01*
X3963Y2942D01*
X3970Y2936D01*
X3978Y2931D01*
X3987Y2928D01*
X3997D01*
X4006Y2931D01*
X4014Y2936D01*
X4021Y2942D01*
X4026Y2950D01*
X4028Y2960D01*
Y2969D01*
X4026Y2978D01*
X4021Y2986D01*
X4014Y2993D01*
X4006Y2998D01*
X3997Y3000D01*
D02*
G37*
G36*
X3957Y2888D02*
X3920D01*
Y2851D01*
X3957D01*
Y2888D01*
D02*
G37*
G36*
X3910D02*
X3873D01*
Y2851D01*
X3910D01*
Y2888D01*
D02*
G37*
G36*
X3706Y2870D02*
Y2840D01*
X3736D01*
X3733Y2848D01*
X3729Y2856D01*
X3722Y2863D01*
X3714Y2867D01*
X3706Y2870D01*
D02*
G37*
G36*
X3696D02*
X3687Y2867D01*
X3679Y2863D01*
X3673Y2856D01*
X3668Y2848D01*
X3666Y2840D01*
X3696D01*
Y2870D01*
D02*
G37*
G36*
X3548D02*
Y2840D01*
X3578D01*
X3576Y2848D01*
X3571Y2856D01*
X3565Y2863D01*
X3557Y2867D01*
X3548Y2870D01*
D02*
G37*
G36*
X3538D02*
X3530Y2867D01*
X3522Y2863D01*
X3515Y2856D01*
X3511Y2848D01*
X3508Y2840D01*
X3538D01*
Y2870D01*
D02*
G37*
G36*
X3233D02*
Y2840D01*
X3263D01*
X3261Y2848D01*
X3256Y2856D01*
X3250Y2863D01*
X3242Y2867D01*
X3233Y2870D01*
D02*
G37*
G36*
X3223D02*
X3215Y2867D01*
X3207Y2863D01*
X3200Y2856D01*
X3196Y2848D01*
X3193Y2840D01*
X3223D01*
Y2870D01*
D02*
G37*
G36*
X3076D02*
Y2840D01*
X3106D01*
X3103Y2848D01*
X3099Y2856D01*
X3092Y2863D01*
X3084Y2867D01*
X3076Y2870D01*
D02*
G37*
G36*
X3066D02*
X3057Y2867D01*
X3049Y2863D01*
X3043Y2856D01*
X3038Y2848D01*
X3036Y2840D01*
X3066D01*
Y2870D01*
D02*
G37*
G36*
X2918D02*
Y2840D01*
X2948D01*
X2946Y2848D01*
X2941Y2856D01*
X2935Y2863D01*
X2927Y2867D01*
X2918Y2870D01*
D02*
G37*
G36*
X2908D02*
X2900Y2867D01*
X2892Y2863D01*
X2885Y2856D01*
X2881Y2848D01*
X2878Y2840D01*
X2908D01*
Y2870D01*
D02*
G37*
G36*
X2603D02*
Y2840D01*
X2633D01*
X2631Y2848D01*
X2626Y2856D01*
X2620Y2863D01*
X2612Y2867D01*
X2603Y2870D01*
D02*
G37*
G36*
X2593D02*
X2585Y2867D01*
X2577Y2863D01*
X2570Y2856D01*
X2566Y2848D01*
X2564Y2840D01*
X2593D01*
Y2870D01*
D02*
G37*
G36*
X1974D02*
Y2840D01*
X2003D01*
X2001Y2848D01*
X1997Y2856D01*
X1990Y2863D01*
X1982Y2867D01*
X1974Y2870D01*
D02*
G37*
G36*
X1964D02*
X1955Y2867D01*
X1947Y2863D01*
X1940Y2856D01*
X1936Y2848D01*
X1934Y2840D01*
X1964D01*
Y2870D01*
D02*
G37*
G36*
X1816D02*
Y2840D01*
X1846D01*
X1844Y2848D01*
X1839Y2856D01*
X1833Y2863D01*
X1825Y2867D01*
X1816Y2870D01*
D02*
G37*
G36*
X1806D02*
X1798Y2867D01*
X1790Y2863D01*
X1783Y2856D01*
X1778Y2848D01*
X1776Y2840D01*
X1806D01*
Y2870D01*
D02*
G37*
G36*
X1186D02*
Y2840D01*
X1216D01*
X1214Y2848D01*
X1209Y2856D01*
X1203Y2863D01*
X1195Y2867D01*
X1186Y2870D01*
D02*
G37*
G36*
X1176D02*
X1168Y2867D01*
X1160Y2863D01*
X1153Y2856D01*
X1148Y2848D01*
X1146Y2840D01*
X1176D01*
Y2870D01*
D02*
G37*
G36*
X2105Y2860D02*
X2104D01*
Y2819D01*
X2145D01*
Y2820D01*
X2142Y2832D01*
X2136Y2842D01*
X2127Y2851D01*
X2117Y2857D01*
X2105Y2860D01*
D02*
G37*
G36*
X2094D02*
X2093D01*
X2081Y2857D01*
X2070Y2851D01*
X2062Y2842D01*
X2056Y2832D01*
X2052Y2820D01*
Y2819D01*
X2094D01*
Y2860D01*
D02*
G37*
G36*
X1707D02*
X1706D01*
Y2819D01*
X1748D01*
Y2820D01*
X1744Y2832D01*
X1738Y2842D01*
X1730Y2851D01*
X1719Y2857D01*
X1707Y2860D01*
D02*
G37*
G36*
X1696D02*
X1695D01*
X1683Y2857D01*
X1673Y2851D01*
X1664Y2842D01*
X1658Y2832D01*
X1655Y2820D01*
Y2819D01*
X1696D01*
Y2860D01*
D02*
G37*
G36*
X3957Y2841D02*
X3920D01*
Y2805D01*
X3957D01*
Y2841D01*
D02*
G37*
G36*
X3910D02*
X3873D01*
Y2805D01*
X3910D01*
Y2841D01*
D02*
G37*
G36*
X3736Y2830D02*
X3706D01*
Y2800D01*
X3714Y2802D01*
X3722Y2807D01*
X3729Y2813D01*
X3733Y2821D01*
X3736Y2830D01*
D02*
G37*
G36*
X3696D02*
X3666D01*
X3668Y2821D01*
X3673Y2813D01*
X3679Y2807D01*
X3687Y2802D01*
X3696Y2800D01*
Y2830D01*
D02*
G37*
G36*
X3578D02*
X3548D01*
Y2800D01*
X3557Y2802D01*
X3565Y2807D01*
X3571Y2813D01*
X3576Y2821D01*
X3578Y2830D01*
D02*
G37*
G36*
X3538D02*
X3508D01*
X3511Y2821D01*
X3515Y2813D01*
X3522Y2807D01*
X3530Y2802D01*
X3538Y2800D01*
Y2830D01*
D02*
G37*
G36*
X3263D02*
X3233D01*
Y2800D01*
X3242Y2802D01*
X3250Y2807D01*
X3256Y2813D01*
X3261Y2821D01*
X3263Y2830D01*
D02*
G37*
G36*
X3223D02*
X3193D01*
X3196Y2821D01*
X3200Y2813D01*
X3207Y2807D01*
X3215Y2802D01*
X3223Y2800D01*
Y2830D01*
D02*
G37*
G36*
X3106D02*
X3076D01*
Y2800D01*
X3084Y2802D01*
X3092Y2807D01*
X3099Y2813D01*
X3103Y2821D01*
X3106Y2830D01*
D02*
G37*
G36*
X3066D02*
X3036D01*
X3038Y2821D01*
X3043Y2813D01*
X3049Y2807D01*
X3057Y2802D01*
X3066Y2800D01*
Y2830D01*
D02*
G37*
G36*
X2948D02*
X2918D01*
Y2800D01*
X2927Y2802D01*
X2935Y2807D01*
X2941Y2813D01*
X2946Y2821D01*
X2948Y2830D01*
D02*
G37*
G36*
X2908D02*
X2878D01*
X2881Y2821D01*
X2885Y2813D01*
X2892Y2807D01*
X2900Y2802D01*
X2908Y2800D01*
Y2830D01*
D02*
G37*
G36*
X2633D02*
X2603D01*
Y2800D01*
X2612Y2802D01*
X2620Y2807D01*
X2626Y2813D01*
X2631Y2821D01*
X2633Y2830D01*
D02*
G37*
G36*
X2593D02*
X2564D01*
X2566Y2821D01*
X2570Y2813D01*
X2577Y2807D01*
X2585Y2802D01*
X2593Y2800D01*
Y2830D01*
D02*
G37*
G36*
X2003D02*
X1974D01*
Y2800D01*
X1982Y2802D01*
X1990Y2807D01*
X1997Y2813D01*
X2001Y2821D01*
X2003Y2830D01*
D02*
G37*
G36*
X1964D02*
X1934D01*
X1936Y2821D01*
X1940Y2813D01*
X1947Y2807D01*
X1955Y2802D01*
X1964Y2800D01*
Y2830D01*
D02*
G37*
G36*
X1846D02*
X1816D01*
Y2800D01*
X1825Y2802D01*
X1833Y2807D01*
X1839Y2813D01*
X1844Y2821D01*
X1846Y2830D01*
D02*
G37*
G36*
X1806D02*
X1776D01*
X1778Y2821D01*
X1783Y2813D01*
X1790Y2807D01*
X1798Y2802D01*
X1806Y2800D01*
Y2830D01*
D02*
G37*
G36*
X1216D02*
X1186D01*
Y2800D01*
X1195Y2802D01*
X1203Y2807D01*
X1209Y2813D01*
X1214Y2821D01*
X1216Y2830D01*
D02*
G37*
G36*
X1176D02*
X1146D01*
X1148Y2821D01*
X1153Y2813D01*
X1160Y2807D01*
X1168Y2802D01*
X1176Y2800D01*
Y2830D01*
D02*
G37*
G36*
X2145Y2809D02*
X2104D01*
Y2767D01*
X2105D01*
X2117Y2771D01*
X2127Y2777D01*
X2136Y2785D01*
X2142Y2796D01*
X2145Y2808D01*
Y2809D01*
D02*
G37*
G36*
X2094D02*
X2052D01*
Y2808D01*
X2056Y2796D01*
X2062Y2785D01*
X2070Y2777D01*
X2081Y2771D01*
X2093Y2767D01*
X2094D01*
Y2809D01*
D02*
G37*
G36*
X1748D02*
X1706D01*
Y2767D01*
X1707D01*
X1719Y2771D01*
X1730Y2777D01*
X1738Y2785D01*
X1744Y2796D01*
X1748Y2808D01*
Y2809D01*
D02*
G37*
G36*
X1696D02*
X1655D01*
Y2808D01*
X1658Y2796D01*
X1664Y2785D01*
X1673Y2777D01*
X1683Y2771D01*
X1695Y2767D01*
X1696D01*
Y2809D01*
D02*
G37*
G36*
X1382Y2833D02*
X1373D01*
X1364Y2831D01*
X1356Y2826D01*
X1349Y2820D01*
X1345Y2812D01*
X1342Y2803D01*
Y2794D01*
X1345Y2785D01*
X1349Y2777D01*
X1356Y2770D01*
X1364Y2765D01*
X1373Y2763D01*
X1382D01*
X1391Y2765D01*
X1399Y2770D01*
X1405Y2777D01*
X1410Y2785D01*
X1412Y2794D01*
Y2803D01*
X1410Y2812D01*
X1405Y2820D01*
X1399Y2826D01*
X1391Y2831D01*
X1382Y2833D01*
D02*
G37*
G36*
X3920Y2770D02*
X3910D01*
X3899Y2767D01*
X3889Y2761D01*
X3882Y2754D01*
X3876Y2744D01*
X3873Y2734D01*
Y2723D01*
X3876Y2712D01*
X3882Y2703D01*
X3889Y2695D01*
X3899Y2689D01*
X3910Y2687D01*
X3920D01*
X3931Y2689D01*
X3941Y2695D01*
X3948Y2703D01*
X3954Y2712D01*
X3957Y2723D01*
Y2734D01*
X3954Y2744D01*
X3948Y2754D01*
X3941Y2761D01*
X3931Y2767D01*
X3920Y2770D01*
D02*
G37*
G36*
X3785Y2712D02*
Y2682D01*
X3814D01*
X3812Y2691D01*
X3808Y2699D01*
X3801Y2705D01*
X3793Y2710D01*
X3785Y2712D01*
D02*
G37*
G36*
X3775D02*
X3766Y2710D01*
X3758Y2705D01*
X3752Y2699D01*
X3747Y2691D01*
X3745Y2682D01*
X3775D01*
Y2712D01*
D02*
G37*
G36*
X3627D02*
Y2682D01*
X3657D01*
X3655Y2691D01*
X3650Y2699D01*
X3644Y2705D01*
X3636Y2710D01*
X3627Y2712D01*
D02*
G37*
G36*
X3617D02*
X3609Y2710D01*
X3601Y2705D01*
X3594Y2699D01*
X3589Y2691D01*
X3587Y2682D01*
X3617D01*
Y2712D01*
D02*
G37*
G36*
X3312D02*
Y2682D01*
X3342D01*
X3340Y2691D01*
X3335Y2699D01*
X3329Y2705D01*
X3321Y2710D01*
X3312Y2712D01*
D02*
G37*
G36*
X3302D02*
X3294Y2710D01*
X3286Y2705D01*
X3279Y2699D01*
X3274Y2691D01*
X3272Y2682D01*
X3302D01*
Y2712D01*
D02*
G37*
G36*
X3155D02*
Y2682D01*
X3185D01*
X3182Y2691D01*
X3178Y2699D01*
X3171Y2705D01*
X3163Y2710D01*
X3155Y2712D01*
D02*
G37*
G36*
X3145D02*
X3136Y2710D01*
X3128Y2705D01*
X3122Y2699D01*
X3117Y2691D01*
X3115Y2682D01*
X3145D01*
Y2712D01*
D02*
G37*
G36*
X2997D02*
Y2682D01*
X3027D01*
X3025Y2691D01*
X3020Y2699D01*
X3014Y2705D01*
X3006Y2710D01*
X2997Y2712D01*
D02*
G37*
G36*
X2987D02*
X2979Y2710D01*
X2971Y2705D01*
X2964Y2699D01*
X2960Y2691D01*
X2957Y2682D01*
X2987D01*
Y2712D01*
D02*
G37*
G36*
X2682D02*
Y2682D01*
X2712D01*
X2710Y2691D01*
X2705Y2699D01*
X2699Y2705D01*
X2691Y2710D01*
X2682Y2712D01*
D02*
G37*
G36*
X2672D02*
X2664Y2710D01*
X2656Y2705D01*
X2649Y2699D01*
X2645Y2691D01*
X2642Y2682D01*
X2672D01*
Y2712D01*
D02*
G37*
G36*
X2525D02*
Y2682D01*
X2555D01*
X2552Y2691D01*
X2548Y2699D01*
X2541Y2705D01*
X2533Y2710D01*
X2525Y2712D01*
D02*
G37*
G36*
X2515D02*
X2506Y2710D01*
X2498Y2705D01*
X2492Y2699D01*
X2487Y2691D01*
X2485Y2682D01*
X2515D01*
Y2712D01*
D02*
G37*
G36*
X2367D02*
Y2682D01*
X2397D01*
X2395Y2691D01*
X2390Y2699D01*
X2384Y2705D01*
X2376Y2710D01*
X2367Y2712D01*
D02*
G37*
G36*
X2357D02*
X2349Y2710D01*
X2341Y2705D01*
X2334Y2699D01*
X2330Y2691D01*
X2327Y2682D01*
X2357D01*
Y2712D01*
D02*
G37*
G36*
X2052D02*
Y2682D01*
X2082D01*
X2080Y2691D01*
X2075Y2699D01*
X2069Y2705D01*
X2061Y2710D01*
X2052Y2712D01*
D02*
G37*
G36*
X2042D02*
X2034Y2710D01*
X2026Y2705D01*
X2019Y2699D01*
X2015Y2691D01*
X2012Y2682D01*
X2042D01*
Y2712D01*
D02*
G37*
G36*
X1737D02*
Y2682D01*
X1767D01*
X1765Y2691D01*
X1760Y2699D01*
X1754Y2705D01*
X1746Y2710D01*
X1737Y2712D01*
D02*
G37*
G36*
X1727D02*
X1719Y2710D01*
X1711Y2705D01*
X1704Y2699D01*
X1700Y2691D01*
X1697Y2682D01*
X1727D01*
Y2712D01*
D02*
G37*
G36*
X1580D02*
Y2682D01*
X1610D01*
X1607Y2691D01*
X1603Y2699D01*
X1596Y2705D01*
X1588Y2710D01*
X1580Y2712D01*
D02*
G37*
G36*
X1570D02*
X1561Y2710D01*
X1553Y2705D01*
X1547Y2699D01*
X1542Y2691D01*
X1540Y2682D01*
X1570D01*
Y2712D01*
D02*
G37*
G36*
X1107D02*
Y2682D01*
X1137D01*
X1135Y2691D01*
X1130Y2699D01*
X1124Y2705D01*
X1116Y2710D01*
X1107Y2712D01*
D02*
G37*
G36*
X1097D02*
X1089Y2710D01*
X1081Y2705D01*
X1074Y2699D01*
X1070Y2691D01*
X1067Y2682D01*
X1097D01*
Y2712D01*
D02*
G37*
G36*
X3814Y2672D02*
X3785D01*
Y2642D01*
X3793Y2645D01*
X3801Y2649D01*
X3808Y2656D01*
X3812Y2664D01*
X3814Y2672D01*
D02*
G37*
G36*
X3775D02*
X3745D01*
X3747Y2664D01*
X3752Y2656D01*
X3758Y2649D01*
X3766Y2645D01*
X3775Y2642D01*
Y2672D01*
D02*
G37*
G36*
X3657D02*
X3627D01*
Y2642D01*
X3636Y2645D01*
X3644Y2649D01*
X3650Y2656D01*
X3655Y2664D01*
X3657Y2672D01*
D02*
G37*
G36*
X3617D02*
X3587D01*
X3589Y2664D01*
X3594Y2656D01*
X3601Y2649D01*
X3609Y2645D01*
X3617Y2642D01*
Y2672D01*
D02*
G37*
G36*
X3342D02*
X3312D01*
Y2642D01*
X3321Y2645D01*
X3329Y2649D01*
X3335Y2656D01*
X3340Y2664D01*
X3342Y2672D01*
D02*
G37*
G36*
X3302D02*
X3272D01*
X3274Y2664D01*
X3279Y2656D01*
X3286Y2649D01*
X3294Y2645D01*
X3302Y2642D01*
Y2672D01*
D02*
G37*
G36*
X3185D02*
X3155D01*
Y2642D01*
X3163Y2645D01*
X3171Y2649D01*
X3178Y2656D01*
X3182Y2664D01*
X3185Y2672D01*
D02*
G37*
G36*
X3145D02*
X3115D01*
X3117Y2664D01*
X3122Y2656D01*
X3128Y2649D01*
X3136Y2645D01*
X3145Y2642D01*
Y2672D01*
D02*
G37*
G36*
X3027D02*
X2997D01*
Y2642D01*
X3006Y2645D01*
X3014Y2649D01*
X3020Y2656D01*
X3025Y2664D01*
X3027Y2672D01*
D02*
G37*
G36*
X2987D02*
X2957D01*
X2960Y2664D01*
X2964Y2656D01*
X2971Y2649D01*
X2979Y2645D01*
X2987Y2642D01*
Y2672D01*
D02*
G37*
G36*
X2712D02*
X2682D01*
Y2642D01*
X2691Y2645D01*
X2699Y2649D01*
X2705Y2656D01*
X2710Y2664D01*
X2712Y2672D01*
D02*
G37*
G36*
X2672D02*
X2642D01*
X2645Y2664D01*
X2649Y2656D01*
X2656Y2649D01*
X2664Y2645D01*
X2672Y2642D01*
Y2672D01*
D02*
G37*
G36*
X2555D02*
X2525D01*
Y2642D01*
X2533Y2645D01*
X2541Y2649D01*
X2548Y2656D01*
X2552Y2664D01*
X2555Y2672D01*
D02*
G37*
G36*
X2515D02*
X2485D01*
X2487Y2664D01*
X2492Y2656D01*
X2498Y2649D01*
X2506Y2645D01*
X2515Y2642D01*
Y2672D01*
D02*
G37*
G36*
X2397D02*
X2367D01*
Y2642D01*
X2376Y2645D01*
X2384Y2649D01*
X2390Y2656D01*
X2395Y2664D01*
X2397Y2672D01*
D02*
G37*
G36*
X2357D02*
X2327D01*
X2330Y2664D01*
X2334Y2656D01*
X2341Y2649D01*
X2349Y2645D01*
X2357Y2642D01*
Y2672D01*
D02*
G37*
G36*
X2082D02*
X2052D01*
Y2642D01*
X2061Y2645D01*
X2069Y2649D01*
X2075Y2656D01*
X2080Y2664D01*
X2082Y2672D01*
D02*
G37*
G36*
X2042D02*
X2012D01*
X2015Y2664D01*
X2019Y2656D01*
X2026Y2649D01*
X2034Y2645D01*
X2042Y2642D01*
Y2672D01*
D02*
G37*
G36*
X1767D02*
X1737D01*
Y2642D01*
X1746Y2645D01*
X1754Y2649D01*
X1760Y2656D01*
X1765Y2664D01*
X1767Y2672D01*
D02*
G37*
G36*
X1727D02*
X1697D01*
X1700Y2664D01*
X1704Y2656D01*
X1711Y2649D01*
X1719Y2645D01*
X1727Y2642D01*
Y2672D01*
D02*
G37*
G36*
X1610D02*
X1580D01*
Y2642D01*
X1588Y2645D01*
X1596Y2649D01*
X1603Y2656D01*
X1607Y2664D01*
X1610Y2672D01*
D02*
G37*
G36*
X1570D02*
X1540D01*
X1542Y2664D01*
X1547Y2656D01*
X1553Y2649D01*
X1561Y2645D01*
X1570Y2642D01*
Y2672D01*
D02*
G37*
G36*
X1137D02*
X1107D01*
Y2642D01*
X1116Y2645D01*
X1124Y2649D01*
X1130Y2656D01*
X1135Y2664D01*
X1137Y2672D01*
D02*
G37*
G36*
X1097D02*
X1067D01*
X1070Y2664D01*
X1074Y2656D01*
X1081Y2649D01*
X1089Y2645D01*
X1097Y2642D01*
Y2672D01*
D02*
G37*
G36*
X1943Y2658D02*
X1857D01*
Y2572D01*
X1943D01*
Y2658D01*
D02*
G37*
G36*
X3920Y2652D02*
X3910D01*
X3899Y2649D01*
X3889Y2643D01*
X3882Y2636D01*
X3876Y2626D01*
X3873Y2615D01*
Y2605D01*
X3876Y2594D01*
X3882Y2584D01*
X3889Y2577D01*
X3899Y2571D01*
X3910Y2568D01*
X3920D01*
X3931Y2571D01*
X3941Y2577D01*
X3948Y2584D01*
X3954Y2594D01*
X3957Y2605D01*
Y2615D01*
X3954Y2626D01*
X3948Y2636D01*
X3941Y2643D01*
X3931Y2649D01*
X3920Y2652D01*
D02*
G37*
G36*
X3706Y2555D02*
Y2525D01*
X3736D01*
X3733Y2533D01*
X3729Y2541D01*
X3722Y2548D01*
X3714Y2552D01*
X3706Y2555D01*
D02*
G37*
G36*
X3696D02*
X3687Y2552D01*
X3679Y2548D01*
X3673Y2541D01*
X3668Y2533D01*
X3666Y2525D01*
X3696D01*
Y2555D01*
D02*
G37*
G36*
X3548D02*
Y2525D01*
X3578D01*
X3576Y2533D01*
X3571Y2541D01*
X3565Y2548D01*
X3557Y2552D01*
X3548Y2555D01*
D02*
G37*
G36*
X3538D02*
X3530Y2552D01*
X3522Y2548D01*
X3515Y2541D01*
X3511Y2533D01*
X3508Y2525D01*
X3538D01*
Y2555D01*
D02*
G37*
G36*
X3233D02*
Y2525D01*
X3263D01*
X3261Y2533D01*
X3256Y2541D01*
X3250Y2548D01*
X3242Y2552D01*
X3233Y2555D01*
D02*
G37*
G36*
X3223D02*
X3215Y2552D01*
X3207Y2548D01*
X3200Y2541D01*
X3196Y2533D01*
X3193Y2525D01*
X3223D01*
Y2555D01*
D02*
G37*
G36*
X3076D02*
Y2525D01*
X3106D01*
X3103Y2533D01*
X3099Y2541D01*
X3092Y2548D01*
X3084Y2552D01*
X3076Y2555D01*
D02*
G37*
G36*
X3066D02*
X3057Y2552D01*
X3049Y2548D01*
X3043Y2541D01*
X3038Y2533D01*
X3036Y2525D01*
X3066D01*
Y2555D01*
D02*
G37*
G36*
X2918D02*
Y2525D01*
X2948D01*
X2946Y2533D01*
X2941Y2541D01*
X2935Y2548D01*
X2927Y2552D01*
X2918Y2555D01*
D02*
G37*
G36*
X2908D02*
X2900Y2552D01*
X2892Y2548D01*
X2885Y2541D01*
X2881Y2533D01*
X2878Y2525D01*
X2908D01*
Y2555D01*
D02*
G37*
G36*
X2603D02*
Y2525D01*
X2633D01*
X2631Y2533D01*
X2626Y2541D01*
X2620Y2548D01*
X2612Y2552D01*
X2603Y2555D01*
D02*
G37*
G36*
X2593D02*
X2585Y2552D01*
X2577Y2548D01*
X2570Y2541D01*
X2566Y2533D01*
X2564Y2525D01*
X2593D01*
Y2555D01*
D02*
G37*
G36*
X2131D02*
Y2525D01*
X2161D01*
X2159Y2533D01*
X2154Y2541D01*
X2147Y2548D01*
X2139Y2552D01*
X2131Y2555D01*
D02*
G37*
G36*
X2121D02*
X2112Y2552D01*
X2104Y2548D01*
X2098Y2541D01*
X2093Y2533D01*
X2091Y2525D01*
X2121D01*
Y2555D01*
D02*
G37*
G36*
X1974D02*
Y2525D01*
X2003D01*
X2001Y2533D01*
X1997Y2541D01*
X1990Y2548D01*
X1982Y2552D01*
X1974Y2555D01*
D02*
G37*
G36*
X1964D02*
X1955Y2552D01*
X1947Y2548D01*
X1940Y2541D01*
X1936Y2533D01*
X1934Y2525D01*
X1964D01*
Y2555D01*
D02*
G37*
G36*
X1816D02*
Y2525D01*
X1846D01*
X1844Y2533D01*
X1839Y2541D01*
X1833Y2548D01*
X1825Y2552D01*
X1816Y2555D01*
D02*
G37*
G36*
X1806D02*
X1798Y2552D01*
X1790Y2548D01*
X1783Y2541D01*
X1778Y2533D01*
X1776Y2525D01*
X1806D01*
Y2555D01*
D02*
G37*
G36*
X1659D02*
Y2525D01*
X1688D01*
X1686Y2533D01*
X1682Y2541D01*
X1675Y2548D01*
X1667Y2552D01*
X1659Y2555D01*
D02*
G37*
G36*
X1649D02*
X1640Y2552D01*
X1632Y2548D01*
X1626Y2541D01*
X1621Y2533D01*
X1619Y2525D01*
X1649D01*
Y2555D01*
D02*
G37*
G36*
X1501D02*
Y2525D01*
X1531D01*
X1529Y2533D01*
X1524Y2541D01*
X1518Y2548D01*
X1510Y2552D01*
X1501Y2555D01*
D02*
G37*
G36*
X1491D02*
X1483Y2552D01*
X1475Y2548D01*
X1468Y2541D01*
X1463Y2533D01*
X1461Y2525D01*
X1491D01*
Y2555D01*
D02*
G37*
G36*
X1186D02*
Y2525D01*
X1216D01*
X1214Y2533D01*
X1209Y2541D01*
X1203Y2548D01*
X1195Y2552D01*
X1186Y2555D01*
D02*
G37*
G36*
X1176D02*
X1168Y2552D01*
X1160Y2548D01*
X1153Y2541D01*
X1148Y2533D01*
X1146Y2525D01*
X1176D01*
Y2555D01*
D02*
G37*
G36*
X3736Y2515D02*
X3706D01*
Y2485D01*
X3714Y2487D01*
X3722Y2492D01*
X3729Y2498D01*
X3733Y2506D01*
X3736Y2515D01*
D02*
G37*
G36*
X3696D02*
X3666D01*
X3668Y2506D01*
X3673Y2498D01*
X3679Y2492D01*
X3687Y2487D01*
X3696Y2485D01*
Y2515D01*
D02*
G37*
G36*
X3578D02*
X3548D01*
Y2485D01*
X3557Y2487D01*
X3565Y2492D01*
X3571Y2498D01*
X3576Y2506D01*
X3578Y2515D01*
D02*
G37*
G36*
X3538D02*
X3508D01*
X3511Y2506D01*
X3515Y2498D01*
X3522Y2492D01*
X3530Y2487D01*
X3538Y2485D01*
Y2515D01*
D02*
G37*
G36*
X3263D02*
X3233D01*
Y2485D01*
X3242Y2487D01*
X3250Y2492D01*
X3256Y2498D01*
X3261Y2506D01*
X3263Y2515D01*
D02*
G37*
G36*
X3223D02*
X3193D01*
X3196Y2506D01*
X3200Y2498D01*
X3207Y2492D01*
X3215Y2487D01*
X3223Y2485D01*
Y2515D01*
D02*
G37*
G36*
X3106D02*
X3076D01*
Y2485D01*
X3084Y2487D01*
X3092Y2492D01*
X3099Y2498D01*
X3103Y2506D01*
X3106Y2515D01*
D02*
G37*
G36*
X3066D02*
X3036D01*
X3038Y2506D01*
X3043Y2498D01*
X3049Y2492D01*
X3057Y2487D01*
X3066Y2485D01*
Y2515D01*
D02*
G37*
G36*
X2948D02*
X2918D01*
Y2485D01*
X2927Y2487D01*
X2935Y2492D01*
X2941Y2498D01*
X2946Y2506D01*
X2948Y2515D01*
D02*
G37*
G36*
X2908D02*
X2878D01*
X2881Y2506D01*
X2885Y2498D01*
X2892Y2492D01*
X2900Y2487D01*
X2908Y2485D01*
Y2515D01*
D02*
G37*
G36*
X2633D02*
X2603D01*
Y2485D01*
X2612Y2487D01*
X2620Y2492D01*
X2626Y2498D01*
X2631Y2506D01*
X2633Y2515D01*
D02*
G37*
G36*
X2593D02*
X2564D01*
X2566Y2506D01*
X2570Y2498D01*
X2577Y2492D01*
X2585Y2487D01*
X2593Y2485D01*
Y2515D01*
D02*
G37*
G36*
X2161D02*
X2131D01*
Y2485D01*
X2139Y2487D01*
X2147Y2492D01*
X2154Y2498D01*
X2159Y2506D01*
X2161Y2515D01*
D02*
G37*
G36*
X2121D02*
X2091D01*
X2093Y2506D01*
X2098Y2498D01*
X2104Y2492D01*
X2112Y2487D01*
X2121Y2485D01*
Y2515D01*
D02*
G37*
G36*
X2003D02*
X1974D01*
Y2485D01*
X1982Y2487D01*
X1990Y2492D01*
X1997Y2498D01*
X2001Y2506D01*
X2003Y2515D01*
D02*
G37*
G36*
X1964D02*
X1934D01*
X1936Y2506D01*
X1940Y2498D01*
X1947Y2492D01*
X1955Y2487D01*
X1964Y2485D01*
Y2515D01*
D02*
G37*
G36*
X1846D02*
X1816D01*
Y2485D01*
X1825Y2487D01*
X1833Y2492D01*
X1839Y2498D01*
X1844Y2506D01*
X1846Y2515D01*
D02*
G37*
G36*
X1806D02*
X1776D01*
X1778Y2506D01*
X1783Y2498D01*
X1790Y2492D01*
X1798Y2487D01*
X1806Y2485D01*
Y2515D01*
D02*
G37*
G36*
X1688D02*
X1659D01*
Y2485D01*
X1667Y2487D01*
X1675Y2492D01*
X1682Y2498D01*
X1686Y2506D01*
X1688Y2515D01*
D02*
G37*
G36*
X1649D02*
X1619D01*
X1621Y2506D01*
X1626Y2498D01*
X1632Y2492D01*
X1640Y2487D01*
X1649Y2485D01*
Y2515D01*
D02*
G37*
G36*
X1531D02*
X1501D01*
Y2485D01*
X1510Y2487D01*
X1518Y2492D01*
X1524Y2498D01*
X1529Y2506D01*
X1531Y2515D01*
D02*
G37*
G36*
X1491D02*
X1461D01*
X1463Y2506D01*
X1468Y2498D01*
X1475Y2492D01*
X1483Y2487D01*
X1491Y2485D01*
Y2515D01*
D02*
G37*
G36*
X1216D02*
X1186D01*
Y2485D01*
X1195Y2487D01*
X1203Y2492D01*
X1209Y2498D01*
X1214Y2506D01*
X1216Y2515D01*
D02*
G37*
G36*
X1176D02*
X1146D01*
X1148Y2506D01*
X1153Y2498D01*
X1160Y2492D01*
X1168Y2487D01*
X1176Y2485D01*
Y2515D01*
D02*
G37*
G36*
X3920Y2533D02*
X3910D01*
X3899Y2531D01*
X3889Y2525D01*
X3882Y2517D01*
X3876Y2508D01*
X3873Y2497D01*
Y2486D01*
X3876Y2476D01*
X3882Y2466D01*
X3889Y2459D01*
X3899Y2453D01*
X3910Y2450D01*
X3920D01*
X3931Y2453D01*
X3941Y2459D01*
X3948Y2466D01*
X3954Y2476D01*
X3957Y2486D01*
Y2497D01*
X3954Y2508D01*
X3948Y2517D01*
X3941Y2525D01*
X3931Y2531D01*
X3920Y2533D01*
D02*
G37*
G36*
X2105Y2463D02*
X2104D01*
Y2421D01*
X2145D01*
Y2422D01*
X2142Y2434D01*
X2136Y2445D01*
X2127Y2453D01*
X2117Y2459D01*
X2105Y2463D01*
D02*
G37*
G36*
X2094D02*
X2093D01*
X2081Y2459D01*
X2070Y2453D01*
X2062Y2445D01*
X2056Y2434D01*
X2052Y2422D01*
Y2421D01*
X2094D01*
Y2463D01*
D02*
G37*
G36*
X1707D02*
X1706D01*
Y2421D01*
X1748D01*
Y2422D01*
X1744Y2434D01*
X1738Y2445D01*
X1730Y2453D01*
X1719Y2459D01*
X1707Y2463D01*
D02*
G37*
G36*
X1696D02*
X1695D01*
X1683Y2459D01*
X1673Y2453D01*
X1664Y2445D01*
X1658Y2434D01*
X1655Y2422D01*
Y2421D01*
X1696D01*
Y2463D01*
D02*
G37*
G36*
X1382Y2479D02*
X1373D01*
X1364Y2476D01*
X1356Y2472D01*
X1349Y2465D01*
X1345Y2457D01*
X1342Y2448D01*
Y2439D01*
X1345Y2430D01*
X1349Y2422D01*
X1356Y2416D01*
X1364Y2411D01*
X1373Y2409D01*
X1382D01*
X1391Y2411D01*
X1399Y2416D01*
X1405Y2422D01*
X1410Y2430D01*
X1412Y2439D01*
Y2448D01*
X1410Y2457D01*
X1405Y2465D01*
X1399Y2472D01*
X1391Y2476D01*
X1382Y2479D01*
D02*
G37*
G36*
X2145Y2411D02*
X2104D01*
Y2370D01*
X2105D01*
X2117Y2373D01*
X2127Y2379D01*
X2136Y2388D01*
X2142Y2398D01*
X2145Y2410D01*
Y2411D01*
D02*
G37*
G36*
X2094D02*
X2052D01*
Y2410D01*
X2056Y2398D01*
X2062Y2388D01*
X2070Y2379D01*
X2081Y2373D01*
X2093Y2370D01*
X2094D01*
Y2411D01*
D02*
G37*
G36*
X1748D02*
X1706D01*
Y2370D01*
X1707D01*
X1719Y2373D01*
X1730Y2379D01*
X1738Y2388D01*
X1744Y2398D01*
X1748Y2410D01*
Y2411D01*
D02*
G37*
G36*
X1696D02*
X1655D01*
Y2410D01*
X1658Y2398D01*
X1664Y2388D01*
X1673Y2379D01*
X1683Y2373D01*
X1695Y2370D01*
X1696D01*
Y2411D01*
D02*
G37*
G36*
X3785Y2397D02*
Y2367D01*
X3814D01*
X3812Y2376D01*
X3808Y2384D01*
X3801Y2390D01*
X3793Y2395D01*
X3785Y2397D01*
D02*
G37*
G36*
X3775D02*
X3766Y2395D01*
X3758Y2390D01*
X3752Y2384D01*
X3747Y2376D01*
X3745Y2367D01*
X3775D01*
Y2397D01*
D02*
G37*
G36*
X3627D02*
Y2367D01*
X3657D01*
X3655Y2376D01*
X3650Y2384D01*
X3644Y2390D01*
X3636Y2395D01*
X3627Y2397D01*
D02*
G37*
G36*
X3617D02*
X3609Y2395D01*
X3601Y2390D01*
X3594Y2384D01*
X3589Y2376D01*
X3587Y2367D01*
X3617D01*
Y2397D01*
D02*
G37*
G36*
X3312D02*
Y2367D01*
X3342D01*
X3340Y2376D01*
X3335Y2384D01*
X3329Y2390D01*
X3321Y2395D01*
X3312Y2397D01*
D02*
G37*
G36*
X3302D02*
X3294Y2395D01*
X3286Y2390D01*
X3279Y2384D01*
X3274Y2376D01*
X3272Y2367D01*
X3302D01*
Y2397D01*
D02*
G37*
G36*
X3155D02*
Y2367D01*
X3185D01*
X3182Y2376D01*
X3178Y2384D01*
X3171Y2390D01*
X3163Y2395D01*
X3155Y2397D01*
D02*
G37*
G36*
X3145D02*
X3136Y2395D01*
X3128Y2390D01*
X3122Y2384D01*
X3117Y2376D01*
X3115Y2367D01*
X3145D01*
Y2397D01*
D02*
G37*
G36*
X2997D02*
Y2367D01*
X3027D01*
X3025Y2376D01*
X3020Y2384D01*
X3014Y2390D01*
X3006Y2395D01*
X2997Y2397D01*
D02*
G37*
G36*
X2987D02*
X2979Y2395D01*
X2971Y2390D01*
X2964Y2384D01*
X2960Y2376D01*
X2957Y2367D01*
X2987D01*
Y2397D01*
D02*
G37*
G36*
X2682D02*
Y2367D01*
X2712D01*
X2710Y2376D01*
X2705Y2384D01*
X2699Y2390D01*
X2691Y2395D01*
X2682Y2397D01*
D02*
G37*
G36*
X2672D02*
X2664Y2395D01*
X2656Y2390D01*
X2649Y2384D01*
X2645Y2376D01*
X2642Y2367D01*
X2672D01*
Y2397D01*
D02*
G37*
G36*
X2367D02*
Y2367D01*
X2397D01*
X2395Y2376D01*
X2390Y2384D01*
X2384Y2390D01*
X2376Y2395D01*
X2367Y2397D01*
D02*
G37*
G36*
X2357D02*
X2349Y2395D01*
X2341Y2390D01*
X2334Y2384D01*
X2330Y2376D01*
X2327Y2367D01*
X2357D01*
Y2397D01*
D02*
G37*
G36*
X1895D02*
Y2367D01*
X1925D01*
X1922Y2376D01*
X1918Y2384D01*
X1911Y2390D01*
X1903Y2395D01*
X1895Y2397D01*
D02*
G37*
G36*
X1885D02*
X1876Y2395D01*
X1868Y2390D01*
X1862Y2384D01*
X1857Y2376D01*
X1855Y2367D01*
X1885D01*
Y2397D01*
D02*
G37*
G36*
X1580D02*
Y2367D01*
X1610D01*
X1607Y2376D01*
X1603Y2384D01*
X1596Y2390D01*
X1588Y2395D01*
X1580Y2397D01*
D02*
G37*
G36*
X1570D02*
X1561Y2395D01*
X1553Y2390D01*
X1547Y2384D01*
X1542Y2376D01*
X1540Y2367D01*
X1570D01*
Y2397D01*
D02*
G37*
G36*
X1422D02*
Y2367D01*
X1452D01*
X1450Y2376D01*
X1445Y2384D01*
X1439Y2390D01*
X1431Y2395D01*
X1422Y2397D01*
D02*
G37*
G36*
X1412D02*
X1404Y2395D01*
X1396Y2390D01*
X1389Y2384D01*
X1385Y2376D01*
X1382Y2367D01*
X1412D01*
Y2397D01*
D02*
G37*
G36*
X1265D02*
Y2367D01*
X1295D01*
X1292Y2376D01*
X1288Y2384D01*
X1281Y2390D01*
X1273Y2395D01*
X1265Y2397D01*
D02*
G37*
G36*
X1255D02*
X1246Y2395D01*
X1238Y2390D01*
X1232Y2384D01*
X1227Y2376D01*
X1225Y2367D01*
X1255D01*
Y2397D01*
D02*
G37*
G36*
X1107D02*
Y2367D01*
X1137D01*
X1135Y2376D01*
X1130Y2384D01*
X1124Y2390D01*
X1116Y2395D01*
X1107Y2397D01*
D02*
G37*
G36*
X1097D02*
X1089Y2395D01*
X1081Y2390D01*
X1074Y2384D01*
X1070Y2376D01*
X1067Y2367D01*
X1097D01*
Y2397D01*
D02*
G37*
G36*
X3997Y2410D02*
X3987D01*
X3978Y2407D01*
X3970Y2403D01*
X3963Y2396D01*
X3959Y2388D01*
X3956Y2379D01*
Y2369D01*
X3959Y2360D01*
X3963Y2352D01*
X3970Y2345D01*
X3978Y2340D01*
X3987Y2338D01*
X3997D01*
X4006Y2340D01*
X4014Y2345D01*
X4021Y2352D01*
X4026Y2360D01*
X4028Y2369D01*
Y2379D01*
X4026Y2388D01*
X4021Y2396D01*
X4014Y2403D01*
X4006Y2407D01*
X3997Y2410D01*
D02*
G37*
G36*
X3814Y2357D02*
X3785D01*
Y2327D01*
X3793Y2330D01*
X3801Y2334D01*
X3808Y2341D01*
X3812Y2349D01*
X3814Y2357D01*
D02*
G37*
G36*
X3775D02*
X3745D01*
X3747Y2349D01*
X3752Y2341D01*
X3758Y2334D01*
X3766Y2330D01*
X3775Y2327D01*
Y2357D01*
D02*
G37*
G36*
X3657D02*
X3627D01*
Y2327D01*
X3636Y2330D01*
X3644Y2334D01*
X3650Y2341D01*
X3655Y2349D01*
X3657Y2357D01*
D02*
G37*
G36*
X3617D02*
X3587D01*
X3589Y2349D01*
X3594Y2341D01*
X3601Y2334D01*
X3609Y2330D01*
X3617Y2327D01*
Y2357D01*
D02*
G37*
G36*
X3342D02*
X3312D01*
Y2327D01*
X3321Y2330D01*
X3329Y2334D01*
X3335Y2341D01*
X3340Y2349D01*
X3342Y2357D01*
D02*
G37*
G36*
X3302D02*
X3272D01*
X3274Y2349D01*
X3279Y2341D01*
X3286Y2334D01*
X3294Y2330D01*
X3302Y2327D01*
Y2357D01*
D02*
G37*
G36*
X3185D02*
X3155D01*
Y2327D01*
X3163Y2330D01*
X3171Y2334D01*
X3178Y2341D01*
X3182Y2349D01*
X3185Y2357D01*
D02*
G37*
G36*
X3145D02*
X3115D01*
X3117Y2349D01*
X3122Y2341D01*
X3128Y2334D01*
X3136Y2330D01*
X3145Y2327D01*
Y2357D01*
D02*
G37*
G36*
X3027D02*
X2997D01*
Y2327D01*
X3006Y2330D01*
X3014Y2334D01*
X3020Y2341D01*
X3025Y2349D01*
X3027Y2357D01*
D02*
G37*
G36*
X2987D02*
X2957D01*
X2960Y2349D01*
X2964Y2341D01*
X2971Y2334D01*
X2979Y2330D01*
X2987Y2327D01*
Y2357D01*
D02*
G37*
G36*
X2712D02*
X2682D01*
Y2327D01*
X2691Y2330D01*
X2699Y2334D01*
X2705Y2341D01*
X2710Y2349D01*
X2712Y2357D01*
D02*
G37*
G36*
X2672D02*
X2642D01*
X2645Y2349D01*
X2649Y2341D01*
X2656Y2334D01*
X2664Y2330D01*
X2672Y2327D01*
Y2357D01*
D02*
G37*
G36*
X2397D02*
X2367D01*
Y2327D01*
X2376Y2330D01*
X2384Y2334D01*
X2390Y2341D01*
X2395Y2349D01*
X2397Y2357D01*
D02*
G37*
G36*
X2357D02*
X2327D01*
X2330Y2349D01*
X2334Y2341D01*
X2341Y2334D01*
X2349Y2330D01*
X2357Y2327D01*
Y2357D01*
D02*
G37*
G36*
X1925D02*
X1895D01*
Y2327D01*
X1903Y2330D01*
X1911Y2334D01*
X1918Y2341D01*
X1922Y2349D01*
X1925Y2357D01*
D02*
G37*
G36*
X1885D02*
X1855D01*
X1857Y2349D01*
X1862Y2341D01*
X1868Y2334D01*
X1876Y2330D01*
X1885Y2327D01*
Y2357D01*
D02*
G37*
G36*
X1610D02*
X1580D01*
Y2327D01*
X1588Y2330D01*
X1596Y2334D01*
X1603Y2341D01*
X1607Y2349D01*
X1610Y2357D01*
D02*
G37*
G36*
X1570D02*
X1540D01*
X1542Y2349D01*
X1547Y2341D01*
X1553Y2334D01*
X1561Y2330D01*
X1570Y2327D01*
Y2357D01*
D02*
G37*
G36*
X1452D02*
X1422D01*
Y2327D01*
X1431Y2330D01*
X1439Y2334D01*
X1445Y2341D01*
X1450Y2349D01*
X1452Y2357D01*
D02*
G37*
G36*
X1412D02*
X1382D01*
X1385Y2349D01*
X1389Y2341D01*
X1396Y2334D01*
X1404Y2330D01*
X1412Y2327D01*
Y2357D01*
D02*
G37*
G36*
X1295D02*
X1265D01*
Y2327D01*
X1273Y2330D01*
X1281Y2334D01*
X1288Y2341D01*
X1292Y2349D01*
X1295Y2357D01*
D02*
G37*
G36*
X1255D02*
X1225D01*
X1227Y2349D01*
X1232Y2341D01*
X1238Y2334D01*
X1246Y2330D01*
X1255Y2327D01*
Y2357D01*
D02*
G37*
G36*
X1137D02*
X1107D01*
Y2327D01*
X1116Y2330D01*
X1124Y2334D01*
X1130Y2341D01*
X1135Y2349D01*
X1137Y2357D01*
D02*
G37*
G36*
X1097D02*
X1067D01*
X1070Y2349D01*
X1074Y2341D01*
X1081Y2334D01*
X1089Y2330D01*
X1097Y2327D01*
Y2357D01*
D02*
G37*
G36*
X3863Y2240D02*
Y2210D01*
X3893D01*
X3891Y2218D01*
X3886Y2226D01*
X3880Y2233D01*
X3872Y2237D01*
X3863Y2240D01*
D02*
G37*
G36*
X3853D02*
X3845Y2237D01*
X3837Y2233D01*
X3830Y2226D01*
X3826Y2218D01*
X3823Y2210D01*
X3853D01*
Y2240D01*
D02*
G37*
G36*
X3391D02*
Y2210D01*
X3421D01*
X3418Y2218D01*
X3414Y2226D01*
X3407Y2233D01*
X3399Y2237D01*
X3391Y2240D01*
D02*
G37*
G36*
X3381D02*
X3372Y2237D01*
X3364Y2233D01*
X3358Y2226D01*
X3353Y2218D01*
X3351Y2210D01*
X3381D01*
Y2240D01*
D02*
G37*
G36*
X3233D02*
Y2210D01*
X3263D01*
X3261Y2218D01*
X3256Y2226D01*
X3250Y2233D01*
X3242Y2237D01*
X3233Y2240D01*
D02*
G37*
G36*
X3223D02*
X3215Y2237D01*
X3207Y2233D01*
X3200Y2226D01*
X3196Y2218D01*
X3193Y2210D01*
X3223D01*
Y2240D01*
D02*
G37*
G36*
X3076D02*
Y2210D01*
X3106D01*
X3103Y2218D01*
X3099Y2226D01*
X3092Y2233D01*
X3084Y2237D01*
X3076Y2240D01*
D02*
G37*
G36*
X3066D02*
X3057Y2237D01*
X3049Y2233D01*
X3043Y2226D01*
X3038Y2218D01*
X3036Y2210D01*
X3066D01*
Y2240D01*
D02*
G37*
G36*
X2761D02*
Y2210D01*
X2791D01*
X2789Y2218D01*
X2784Y2226D01*
X2777Y2233D01*
X2769Y2237D01*
X2761Y2240D01*
D02*
G37*
G36*
X2751D02*
X2742Y2237D01*
X2734Y2233D01*
X2728Y2226D01*
X2723Y2218D01*
X2721Y2210D01*
X2751D01*
Y2240D01*
D02*
G37*
G36*
X2603D02*
Y2210D01*
X2633D01*
X2631Y2218D01*
X2626Y2226D01*
X2620Y2233D01*
X2612Y2237D01*
X2603Y2240D01*
D02*
G37*
G36*
X2593D02*
X2585Y2237D01*
X2577Y2233D01*
X2570Y2226D01*
X2566Y2218D01*
X2564Y2210D01*
X2593D01*
Y2240D01*
D02*
G37*
G36*
X2446D02*
Y2210D01*
X2476D01*
X2474Y2218D01*
X2469Y2226D01*
X2462Y2233D01*
X2454Y2237D01*
X2446Y2240D01*
D02*
G37*
G36*
X2436D02*
X2427Y2237D01*
X2419Y2233D01*
X2413Y2226D01*
X2408Y2218D01*
X2406Y2210D01*
X2436D01*
Y2240D01*
D02*
G37*
G36*
X2131D02*
Y2210D01*
X2161D01*
X2159Y2218D01*
X2154Y2226D01*
X2147Y2233D01*
X2139Y2237D01*
X2131Y2240D01*
D02*
G37*
G36*
X2121D02*
X2112Y2237D01*
X2104Y2233D01*
X2098Y2226D01*
X2093Y2218D01*
X2091Y2210D01*
X2121D01*
Y2240D01*
D02*
G37*
G36*
X1816D02*
Y2210D01*
X1846D01*
X1844Y2218D01*
X1839Y2226D01*
X1833Y2233D01*
X1825Y2237D01*
X1816Y2240D01*
D02*
G37*
G36*
X1806D02*
X1798Y2237D01*
X1790Y2233D01*
X1783Y2226D01*
X1778Y2218D01*
X1776Y2210D01*
X1806D01*
Y2240D01*
D02*
G37*
G36*
X1659D02*
Y2210D01*
X1688D01*
X1686Y2218D01*
X1682Y2226D01*
X1675Y2233D01*
X1667Y2237D01*
X1659Y2240D01*
D02*
G37*
G36*
X1649D02*
X1640Y2237D01*
X1632Y2233D01*
X1626Y2226D01*
X1621Y2218D01*
X1619Y2210D01*
X1649D01*
Y2240D01*
D02*
G37*
G36*
X1501D02*
Y2210D01*
X1531D01*
X1529Y2218D01*
X1524Y2226D01*
X1518Y2233D01*
X1510Y2237D01*
X1501Y2240D01*
D02*
G37*
G36*
X1491D02*
X1483Y2237D01*
X1475Y2233D01*
X1468Y2226D01*
X1463Y2218D01*
X1461Y2210D01*
X1491D01*
Y2240D01*
D02*
G37*
G36*
X1186D02*
Y2210D01*
X1216D01*
X1214Y2218D01*
X1209Y2226D01*
X1203Y2233D01*
X1195Y2237D01*
X1186Y2240D01*
D02*
G37*
G36*
X1176D02*
X1168Y2237D01*
X1160Y2233D01*
X1153Y2226D01*
X1148Y2218D01*
X1146Y2210D01*
X1176D01*
Y2240D01*
D02*
G37*
G36*
X1377Y2246D02*
X1368D01*
X1359Y2244D01*
X1351Y2239D01*
X1344Y2233D01*
X1340Y2225D01*
X1337Y2216D01*
Y2207D01*
X1340Y2198D01*
X1344Y2190D01*
X1351Y2183D01*
X1359Y2179D01*
X1368Y2176D01*
X1377D01*
X1386Y2179D01*
X1394Y2183D01*
X1400Y2190D01*
X1405Y2198D01*
X1407Y2207D01*
Y2216D01*
X1405Y2225D01*
X1400Y2233D01*
X1394Y2239D01*
X1386Y2244D01*
X1377Y2246D01*
D02*
G37*
G36*
X3893Y2200D02*
X3863D01*
Y2170D01*
X3872Y2172D01*
X3880Y2177D01*
X3886Y2183D01*
X3891Y2191D01*
X3893Y2200D01*
D02*
G37*
G36*
X3853D02*
X3823D01*
X3826Y2191D01*
X3830Y2183D01*
X3837Y2177D01*
X3845Y2172D01*
X3853Y2170D01*
Y2200D01*
D02*
G37*
G36*
X3421D02*
X3391D01*
Y2170D01*
X3399Y2172D01*
X3407Y2177D01*
X3414Y2183D01*
X3418Y2191D01*
X3421Y2200D01*
D02*
G37*
G36*
X3381D02*
X3351D01*
X3353Y2191D01*
X3358Y2183D01*
X3364Y2177D01*
X3372Y2172D01*
X3381Y2170D01*
Y2200D01*
D02*
G37*
G36*
X3263D02*
X3233D01*
Y2170D01*
X3242Y2172D01*
X3250Y2177D01*
X3256Y2183D01*
X3261Y2191D01*
X3263Y2200D01*
D02*
G37*
G36*
X3223D02*
X3193D01*
X3196Y2191D01*
X3200Y2183D01*
X3207Y2177D01*
X3215Y2172D01*
X3223Y2170D01*
Y2200D01*
D02*
G37*
G36*
X3106D02*
X3076D01*
Y2170D01*
X3084Y2172D01*
X3092Y2177D01*
X3099Y2183D01*
X3103Y2191D01*
X3106Y2200D01*
D02*
G37*
G36*
X3066D02*
X3036D01*
X3038Y2191D01*
X3043Y2183D01*
X3049Y2177D01*
X3057Y2172D01*
X3066Y2170D01*
Y2200D01*
D02*
G37*
G36*
X2791D02*
X2761D01*
Y2170D01*
X2769Y2172D01*
X2777Y2177D01*
X2784Y2183D01*
X2789Y2191D01*
X2791Y2200D01*
D02*
G37*
G36*
X2751D02*
X2721D01*
X2723Y2191D01*
X2728Y2183D01*
X2734Y2177D01*
X2742Y2172D01*
X2751Y2170D01*
Y2200D01*
D02*
G37*
G36*
X2633D02*
X2603D01*
Y2170D01*
X2612Y2172D01*
X2620Y2177D01*
X2626Y2183D01*
X2631Y2191D01*
X2633Y2200D01*
D02*
G37*
G36*
X2593D02*
X2564D01*
X2566Y2191D01*
X2570Y2183D01*
X2577Y2177D01*
X2585Y2172D01*
X2593Y2170D01*
Y2200D01*
D02*
G37*
G36*
X2476D02*
X2446D01*
Y2170D01*
X2454Y2172D01*
X2462Y2177D01*
X2469Y2183D01*
X2474Y2191D01*
X2476Y2200D01*
D02*
G37*
G36*
X2436D02*
X2406D01*
X2408Y2191D01*
X2413Y2183D01*
X2419Y2177D01*
X2427Y2172D01*
X2436Y2170D01*
Y2200D01*
D02*
G37*
G36*
X2161D02*
X2131D01*
Y2170D01*
X2139Y2172D01*
X2147Y2177D01*
X2154Y2183D01*
X2159Y2191D01*
X2161Y2200D01*
D02*
G37*
G36*
X2121D02*
X2091D01*
X2093Y2191D01*
X2098Y2183D01*
X2104Y2177D01*
X2112Y2172D01*
X2121Y2170D01*
Y2200D01*
D02*
G37*
G36*
X1846D02*
X1816D01*
Y2170D01*
X1825Y2172D01*
X1833Y2177D01*
X1839Y2183D01*
X1844Y2191D01*
X1846Y2200D01*
D02*
G37*
G36*
X1806D02*
X1776D01*
X1778Y2191D01*
X1783Y2183D01*
X1790Y2177D01*
X1798Y2172D01*
X1806Y2170D01*
Y2200D01*
D02*
G37*
G36*
X1688D02*
X1659D01*
Y2170D01*
X1667Y2172D01*
X1675Y2177D01*
X1682Y2183D01*
X1686Y2191D01*
X1688Y2200D01*
D02*
G37*
G36*
X1649D02*
X1619D01*
X1621Y2191D01*
X1626Y2183D01*
X1632Y2177D01*
X1640Y2172D01*
X1649Y2170D01*
Y2200D01*
D02*
G37*
G36*
X1531D02*
X1501D01*
Y2170D01*
X1510Y2172D01*
X1518Y2177D01*
X1524Y2183D01*
X1529Y2191D01*
X1531Y2200D01*
D02*
G37*
G36*
X1491D02*
X1461D01*
X1463Y2191D01*
X1468Y2183D01*
X1475Y2177D01*
X1483Y2172D01*
X1491Y2170D01*
Y2200D01*
D02*
G37*
G36*
X1216D02*
X1186D01*
Y2170D01*
X1195Y2172D01*
X1203Y2177D01*
X1209Y2183D01*
X1214Y2191D01*
X1216Y2200D01*
D02*
G37*
G36*
X1176D02*
X1146D01*
X1148Y2191D01*
X1153Y2183D01*
X1160Y2177D01*
X1168Y2172D01*
X1176Y2170D01*
Y2200D01*
D02*
G37*
G36*
X3995Y2241D02*
X3985D01*
X3976Y2239D01*
X3968Y2234D01*
X3961Y2227D01*
X3956Y2219D01*
X3954Y2210D01*
Y2200D01*
X3956Y2191D01*
X3961Y2183D01*
X3968Y2176D01*
X3976Y2171D01*
X3985Y2169D01*
X3995D01*
X4004Y2171D01*
X4012Y2176D01*
X4019Y2183D01*
X4024Y2191D01*
X4026Y2200D01*
Y2210D01*
X4024Y2219D01*
X4019Y2227D01*
X4012Y2234D01*
X4004Y2239D01*
X3995Y2241D01*
D02*
G37*
G36*
X1300Y2133D02*
X1300D01*
Y2098D01*
X1335D01*
Y2098D01*
X1332Y2109D01*
X1327Y2118D01*
X1320Y2125D01*
X1310Y2130D01*
X1300Y2133D01*
D02*
G37*
G36*
X1290D02*
X1290D01*
X1280Y2130D01*
X1270Y2125D01*
X1263Y2118D01*
X1258Y2109D01*
X1255Y2098D01*
Y2098D01*
X1290D01*
Y2133D01*
D02*
G37*
G36*
X3954Y2128D02*
X3918D01*
Y2092D01*
X3954D01*
Y2128D01*
D02*
G37*
G36*
X3908D02*
X3871D01*
Y2092D01*
X3908D01*
Y2128D01*
D02*
G37*
G36*
X1335Y2088D02*
X1300D01*
Y2053D01*
X1300D01*
X1310Y2056D01*
X1320Y2061D01*
X1327Y2069D01*
X1332Y2078D01*
X1335Y2088D01*
Y2088D01*
D02*
G37*
G36*
X1290D02*
X1255D01*
Y2088D01*
X1258Y2078D01*
X1263Y2069D01*
X1270Y2061D01*
X1280Y2056D01*
X1290Y2053D01*
X1290D01*
Y2088D01*
D02*
G37*
G36*
X3627Y2082D02*
Y2052D01*
X3657D01*
X3655Y2061D01*
X3650Y2069D01*
X3644Y2075D01*
X3636Y2080D01*
X3627Y2082D01*
D02*
G37*
G36*
X3617D02*
X3609Y2080D01*
X3601Y2075D01*
X3594Y2069D01*
X3589Y2061D01*
X3587Y2052D01*
X3617D01*
Y2082D01*
D02*
G37*
G36*
X3470D02*
Y2052D01*
X3499D01*
X3497Y2061D01*
X3493Y2069D01*
X3486Y2075D01*
X3478Y2080D01*
X3470Y2082D01*
D02*
G37*
G36*
X3460D02*
X3451Y2080D01*
X3443Y2075D01*
X3437Y2069D01*
X3432Y2061D01*
X3430Y2052D01*
X3460D01*
Y2082D01*
D02*
G37*
G36*
X3312D02*
Y2052D01*
X3342D01*
X3340Y2061D01*
X3335Y2069D01*
X3329Y2075D01*
X3321Y2080D01*
X3312Y2082D01*
D02*
G37*
G36*
X3302D02*
X3294Y2080D01*
X3286Y2075D01*
X3279Y2069D01*
X3274Y2061D01*
X3272Y2052D01*
X3302D01*
Y2082D01*
D02*
G37*
G36*
X3155D02*
Y2052D01*
X3185D01*
X3182Y2061D01*
X3178Y2069D01*
X3171Y2075D01*
X3163Y2080D01*
X3155Y2082D01*
D02*
G37*
G36*
X3145D02*
X3136Y2080D01*
X3128Y2075D01*
X3122Y2069D01*
X3117Y2061D01*
X3115Y2052D01*
X3145D01*
Y2082D01*
D02*
G37*
G36*
X2997D02*
Y2052D01*
X3027D01*
X3025Y2061D01*
X3020Y2069D01*
X3014Y2075D01*
X3006Y2080D01*
X2997Y2082D01*
D02*
G37*
G36*
X2987D02*
X2979Y2080D01*
X2971Y2075D01*
X2964Y2069D01*
X2960Y2061D01*
X2957Y2052D01*
X2987D01*
Y2082D01*
D02*
G37*
G36*
X2682D02*
Y2052D01*
X2712D01*
X2710Y2061D01*
X2705Y2069D01*
X2699Y2075D01*
X2691Y2080D01*
X2682Y2082D01*
D02*
G37*
G36*
X2672D02*
X2664Y2080D01*
X2656Y2075D01*
X2649Y2069D01*
X2645Y2061D01*
X2642Y2052D01*
X2672D01*
Y2082D01*
D02*
G37*
G36*
X2525D02*
Y2052D01*
X2555D01*
X2552Y2061D01*
X2548Y2069D01*
X2541Y2075D01*
X2533Y2080D01*
X2525Y2082D01*
D02*
G37*
G36*
X2515D02*
X2506Y2080D01*
X2498Y2075D01*
X2492Y2069D01*
X2487Y2061D01*
X2485Y2052D01*
X2515D01*
Y2082D01*
D02*
G37*
G36*
X2367D02*
Y2052D01*
X2397D01*
X2395Y2061D01*
X2390Y2069D01*
X2384Y2075D01*
X2376Y2080D01*
X2367Y2082D01*
D02*
G37*
G36*
X2357D02*
X2349Y2080D01*
X2341Y2075D01*
X2334Y2069D01*
X2330Y2061D01*
X2327Y2052D01*
X2357D01*
Y2082D01*
D02*
G37*
G36*
X2052D02*
Y2052D01*
X2082D01*
X2080Y2061D01*
X2075Y2069D01*
X2069Y2075D01*
X2061Y2080D01*
X2052Y2082D01*
D02*
G37*
G36*
X2042D02*
X2034Y2080D01*
X2026Y2075D01*
X2019Y2069D01*
X2015Y2061D01*
X2012Y2052D01*
X2042D01*
Y2082D01*
D02*
G37*
G36*
X1737D02*
Y2052D01*
X1767D01*
X1765Y2061D01*
X1760Y2069D01*
X1754Y2075D01*
X1746Y2080D01*
X1737Y2082D01*
D02*
G37*
G36*
X1727D02*
X1719Y2080D01*
X1711Y2075D01*
X1704Y2069D01*
X1700Y2061D01*
X1697Y2052D01*
X1727D01*
Y2082D01*
D02*
G37*
G36*
X1580D02*
Y2052D01*
X1610D01*
X1607Y2061D01*
X1603Y2069D01*
X1596Y2075D01*
X1588Y2080D01*
X1580Y2082D01*
D02*
G37*
G36*
X1570D02*
X1561Y2080D01*
X1553Y2075D01*
X1547Y2069D01*
X1542Y2061D01*
X1540Y2052D01*
X1570D01*
Y2082D01*
D02*
G37*
G36*
X1422D02*
Y2052D01*
X1452D01*
X1450Y2061D01*
X1445Y2069D01*
X1439Y2075D01*
X1431Y2080D01*
X1422Y2082D01*
D02*
G37*
G36*
X1412D02*
X1404Y2080D01*
X1396Y2075D01*
X1389Y2069D01*
X1385Y2061D01*
X1382Y2052D01*
X1412D01*
Y2082D01*
D02*
G37*
G36*
X1107D02*
Y2052D01*
X1137D01*
X1135Y2061D01*
X1130Y2069D01*
X1124Y2075D01*
X1116Y2080D01*
X1107Y2082D01*
D02*
G37*
G36*
X1097D02*
X1089Y2080D01*
X1081Y2075D01*
X1074Y2069D01*
X1070Y2061D01*
X1067Y2052D01*
X1097D01*
Y2082D01*
D02*
G37*
G36*
X3954Y2082D02*
X3918D01*
Y2045D01*
X3954D01*
Y2082D01*
D02*
G37*
G36*
X3908D02*
X3871D01*
Y2045D01*
X3908D01*
Y2082D01*
D02*
G37*
G36*
X3657Y2042D02*
X3627D01*
Y2012D01*
X3636Y2015D01*
X3644Y2019D01*
X3650Y2026D01*
X3655Y2034D01*
X3657Y2042D01*
D02*
G37*
G36*
X3617D02*
X3587D01*
X3589Y2034D01*
X3594Y2026D01*
X3601Y2019D01*
X3609Y2015D01*
X3617Y2012D01*
Y2042D01*
D02*
G37*
G36*
X3499D02*
X3470D01*
Y2012D01*
X3478Y2015D01*
X3486Y2019D01*
X3493Y2026D01*
X3497Y2034D01*
X3499Y2042D01*
D02*
G37*
G36*
X3460D02*
X3430D01*
X3432Y2034D01*
X3437Y2026D01*
X3443Y2019D01*
X3451Y2015D01*
X3460Y2012D01*
Y2042D01*
D02*
G37*
G36*
X3342D02*
X3312D01*
Y2012D01*
X3321Y2015D01*
X3329Y2019D01*
X3335Y2026D01*
X3340Y2034D01*
X3342Y2042D01*
D02*
G37*
G36*
X3302D02*
X3272D01*
X3274Y2034D01*
X3279Y2026D01*
X3286Y2019D01*
X3294Y2015D01*
X3302Y2012D01*
Y2042D01*
D02*
G37*
G36*
X3185D02*
X3155D01*
Y2012D01*
X3163Y2015D01*
X3171Y2019D01*
X3178Y2026D01*
X3182Y2034D01*
X3185Y2042D01*
D02*
G37*
G36*
X3145D02*
X3115D01*
X3117Y2034D01*
X3122Y2026D01*
X3128Y2019D01*
X3136Y2015D01*
X3145Y2012D01*
Y2042D01*
D02*
G37*
G36*
X3027D02*
X2997D01*
Y2012D01*
X3006Y2015D01*
X3014Y2019D01*
X3020Y2026D01*
X3025Y2034D01*
X3027Y2042D01*
D02*
G37*
G36*
X2987D02*
X2957D01*
X2960Y2034D01*
X2964Y2026D01*
X2971Y2019D01*
X2979Y2015D01*
X2987Y2012D01*
Y2042D01*
D02*
G37*
G36*
X2712D02*
X2682D01*
Y2012D01*
X2691Y2015D01*
X2699Y2019D01*
X2705Y2026D01*
X2710Y2034D01*
X2712Y2042D01*
D02*
G37*
G36*
X2672D02*
X2642D01*
X2645Y2034D01*
X2649Y2026D01*
X2656Y2019D01*
X2664Y2015D01*
X2672Y2012D01*
Y2042D01*
D02*
G37*
G36*
X2555D02*
X2525D01*
Y2012D01*
X2533Y2015D01*
X2541Y2019D01*
X2548Y2026D01*
X2552Y2034D01*
X2555Y2042D01*
D02*
G37*
G36*
X2515D02*
X2485D01*
X2487Y2034D01*
X2492Y2026D01*
X2498Y2019D01*
X2506Y2015D01*
X2515Y2012D01*
Y2042D01*
D02*
G37*
G36*
X2397D02*
X2367D01*
Y2012D01*
X2376Y2015D01*
X2384Y2019D01*
X2390Y2026D01*
X2395Y2034D01*
X2397Y2042D01*
D02*
G37*
G36*
X2357D02*
X2327D01*
X2330Y2034D01*
X2334Y2026D01*
X2341Y2019D01*
X2349Y2015D01*
X2357Y2012D01*
Y2042D01*
D02*
G37*
G36*
X2082D02*
X2052D01*
Y2012D01*
X2061Y2015D01*
X2069Y2019D01*
X2075Y2026D01*
X2080Y2034D01*
X2082Y2042D01*
D02*
G37*
G36*
X2042D02*
X2012D01*
X2015Y2034D01*
X2019Y2026D01*
X2026Y2019D01*
X2034Y2015D01*
X2042Y2012D01*
Y2042D01*
D02*
G37*
G36*
X1767D02*
X1737D01*
Y2012D01*
X1746Y2015D01*
X1754Y2019D01*
X1760Y2026D01*
X1765Y2034D01*
X1767Y2042D01*
D02*
G37*
G36*
X1727D02*
X1697D01*
X1700Y2034D01*
X1704Y2026D01*
X1711Y2019D01*
X1719Y2015D01*
X1727Y2012D01*
Y2042D01*
D02*
G37*
G36*
X1610D02*
X1580D01*
Y2012D01*
X1588Y2015D01*
X1596Y2019D01*
X1603Y2026D01*
X1607Y2034D01*
X1610Y2042D01*
D02*
G37*
G36*
X1570D02*
X1540D01*
X1542Y2034D01*
X1547Y2026D01*
X1553Y2019D01*
X1561Y2015D01*
X1570Y2012D01*
Y2042D01*
D02*
G37*
G36*
X1452D02*
X1422D01*
Y2012D01*
X1431Y2015D01*
X1439Y2019D01*
X1445Y2026D01*
X1450Y2034D01*
X1452Y2042D01*
D02*
G37*
G36*
X1412D02*
X1382D01*
X1385Y2034D01*
X1389Y2026D01*
X1396Y2019D01*
X1404Y2015D01*
X1412Y2012D01*
Y2042D01*
D02*
G37*
G36*
X1137D02*
X1107D01*
Y2012D01*
X1116Y2015D01*
X1124Y2019D01*
X1130Y2026D01*
X1135Y2034D01*
X1137Y2042D01*
D02*
G37*
G36*
X1097D02*
X1067D01*
X1070Y2034D01*
X1074Y2026D01*
X1081Y2019D01*
X1089Y2015D01*
X1097Y2012D01*
Y2042D01*
D02*
G37*
G36*
X1335Y2015D02*
X1255D01*
Y1935D01*
X1335D01*
Y2015D01*
D02*
G37*
G36*
X3918Y2010D02*
X3907D01*
X3897Y2008D01*
X3887Y2002D01*
X3880Y1994D01*
X3874Y1985D01*
X3871Y1974D01*
Y1963D01*
X3874Y1953D01*
X3880Y1943D01*
X3887Y1935D01*
X3897Y1930D01*
X3907Y1927D01*
X3918D01*
X3929Y1930D01*
X3938Y1935D01*
X3946Y1943D01*
X3952Y1953D01*
X3954Y1963D01*
Y1974D01*
X3952Y1985D01*
X3946Y1994D01*
X3938Y2002D01*
X3929Y2008D01*
X3918Y2010D01*
D02*
G37*
G36*
X3706Y1925D02*
Y1895D01*
X3736D01*
X3733Y1903D01*
X3729Y1911D01*
X3722Y1918D01*
X3714Y1922D01*
X3706Y1925D01*
D02*
G37*
G36*
X3696D02*
X3687Y1922D01*
X3679Y1918D01*
X3673Y1911D01*
X3668Y1903D01*
X3666Y1895D01*
X3696D01*
Y1925D01*
D02*
G37*
G36*
X3548D02*
Y1895D01*
X3578D01*
X3576Y1903D01*
X3571Y1911D01*
X3565Y1918D01*
X3557Y1922D01*
X3548Y1925D01*
D02*
G37*
G36*
X3538D02*
X3530Y1922D01*
X3522Y1918D01*
X3515Y1911D01*
X3511Y1903D01*
X3508Y1895D01*
X3538D01*
Y1925D01*
D02*
G37*
G36*
X3391D02*
Y1895D01*
X3421D01*
X3418Y1903D01*
X3414Y1911D01*
X3407Y1918D01*
X3399Y1922D01*
X3391Y1925D01*
D02*
G37*
G36*
X3381D02*
X3372Y1922D01*
X3364Y1918D01*
X3358Y1911D01*
X3353Y1903D01*
X3351Y1895D01*
X3381D01*
Y1925D01*
D02*
G37*
G36*
X3233D02*
Y1895D01*
X3263D01*
X3261Y1903D01*
X3256Y1911D01*
X3250Y1918D01*
X3242Y1922D01*
X3233Y1925D01*
D02*
G37*
G36*
X3223D02*
X3215Y1922D01*
X3207Y1918D01*
X3200Y1911D01*
X3196Y1903D01*
X3193Y1895D01*
X3223D01*
Y1925D01*
D02*
G37*
G36*
X3076D02*
Y1895D01*
X3106D01*
X3103Y1903D01*
X3099Y1911D01*
X3092Y1918D01*
X3084Y1922D01*
X3076Y1925D01*
D02*
G37*
G36*
X3066D02*
X3057Y1922D01*
X3049Y1918D01*
X3043Y1911D01*
X3038Y1903D01*
X3036Y1895D01*
X3066D01*
Y1925D01*
D02*
G37*
G36*
X2761D02*
Y1895D01*
X2791D01*
X2789Y1903D01*
X2784Y1911D01*
X2777Y1918D01*
X2769Y1922D01*
X2761Y1925D01*
D02*
G37*
G36*
X2751D02*
X2742Y1922D01*
X2734Y1918D01*
X2728Y1911D01*
X2723Y1903D01*
X2721Y1895D01*
X2751D01*
Y1925D01*
D02*
G37*
G36*
X2603D02*
Y1895D01*
X2633D01*
X2631Y1903D01*
X2626Y1911D01*
X2620Y1918D01*
X2612Y1922D01*
X2603Y1925D01*
D02*
G37*
G36*
X2593D02*
X2585Y1922D01*
X2577Y1918D01*
X2570Y1911D01*
X2566Y1903D01*
X2564Y1895D01*
X2593D01*
Y1925D01*
D02*
G37*
G36*
X2446D02*
Y1895D01*
X2476D01*
X2474Y1903D01*
X2469Y1911D01*
X2462Y1918D01*
X2454Y1922D01*
X2446Y1925D01*
D02*
G37*
G36*
X2436D02*
X2427Y1922D01*
X2419Y1918D01*
X2413Y1911D01*
X2408Y1903D01*
X2406Y1895D01*
X2436D01*
Y1925D01*
D02*
G37*
G36*
X2131D02*
Y1895D01*
X2161D01*
X2159Y1903D01*
X2154Y1911D01*
X2147Y1918D01*
X2139Y1922D01*
X2131Y1925D01*
D02*
G37*
G36*
X2121D02*
X2112Y1922D01*
X2104Y1918D01*
X2098Y1911D01*
X2093Y1903D01*
X2091Y1895D01*
X2121D01*
Y1925D01*
D02*
G37*
G36*
X1974D02*
Y1895D01*
X2003D01*
X2001Y1903D01*
X1997Y1911D01*
X1990Y1918D01*
X1982Y1922D01*
X1974Y1925D01*
D02*
G37*
G36*
X1964D02*
X1955Y1922D01*
X1947Y1918D01*
X1940Y1911D01*
X1936Y1903D01*
X1934Y1895D01*
X1964D01*
Y1925D01*
D02*
G37*
G36*
X1816D02*
Y1895D01*
X1846D01*
X1844Y1903D01*
X1839Y1911D01*
X1833Y1918D01*
X1825Y1922D01*
X1816Y1925D01*
D02*
G37*
G36*
X1806D02*
X1798Y1922D01*
X1790Y1918D01*
X1783Y1911D01*
X1778Y1903D01*
X1776Y1895D01*
X1806D01*
Y1925D01*
D02*
G37*
G36*
X1659D02*
Y1895D01*
X1688D01*
X1686Y1903D01*
X1682Y1911D01*
X1675Y1918D01*
X1667Y1922D01*
X1659Y1925D01*
D02*
G37*
G36*
X1649D02*
X1640Y1922D01*
X1632Y1918D01*
X1626Y1911D01*
X1621Y1903D01*
X1619Y1895D01*
X1649D01*
Y1925D01*
D02*
G37*
G36*
X1501D02*
Y1895D01*
X1531D01*
X1529Y1903D01*
X1524Y1911D01*
X1518Y1918D01*
X1510Y1922D01*
X1501Y1925D01*
D02*
G37*
G36*
X1491D02*
X1483Y1922D01*
X1475Y1918D01*
X1468Y1911D01*
X1463Y1903D01*
X1461Y1895D01*
X1491D01*
Y1925D01*
D02*
G37*
G36*
X1186D02*
Y1895D01*
X1216D01*
X1214Y1903D01*
X1209Y1911D01*
X1203Y1918D01*
X1195Y1922D01*
X1186Y1925D01*
D02*
G37*
G36*
X1176D02*
X1168Y1922D01*
X1160Y1918D01*
X1153Y1911D01*
X1148Y1903D01*
X1146Y1895D01*
X1176D01*
Y1925D01*
D02*
G37*
G36*
X3736Y1885D02*
X3706D01*
Y1855D01*
X3714Y1857D01*
X3722Y1862D01*
X3729Y1868D01*
X3733Y1876D01*
X3736Y1885D01*
D02*
G37*
G36*
X3696D02*
X3666D01*
X3668Y1876D01*
X3673Y1868D01*
X3679Y1862D01*
X3687Y1857D01*
X3696Y1855D01*
Y1885D01*
D02*
G37*
G36*
X3578D02*
X3548D01*
Y1855D01*
X3557Y1857D01*
X3565Y1862D01*
X3571Y1868D01*
X3576Y1876D01*
X3578Y1885D01*
D02*
G37*
G36*
X3538D02*
X3508D01*
X3511Y1876D01*
X3515Y1868D01*
X3522Y1862D01*
X3530Y1857D01*
X3538Y1855D01*
Y1885D01*
D02*
G37*
G36*
X3421D02*
X3391D01*
Y1855D01*
X3399Y1857D01*
X3407Y1862D01*
X3414Y1868D01*
X3418Y1876D01*
X3421Y1885D01*
D02*
G37*
G36*
X3381D02*
X3351D01*
X3353Y1876D01*
X3358Y1868D01*
X3364Y1862D01*
X3372Y1857D01*
X3381Y1855D01*
Y1885D01*
D02*
G37*
G36*
X3263D02*
X3233D01*
Y1855D01*
X3242Y1857D01*
X3250Y1862D01*
X3256Y1868D01*
X3261Y1876D01*
X3263Y1885D01*
D02*
G37*
G36*
X3223D02*
X3193D01*
X3196Y1876D01*
X3200Y1868D01*
X3207Y1862D01*
X3215Y1857D01*
X3223Y1855D01*
Y1885D01*
D02*
G37*
G36*
X3106D02*
X3076D01*
Y1855D01*
X3084Y1857D01*
X3092Y1862D01*
X3099Y1868D01*
X3103Y1876D01*
X3106Y1885D01*
D02*
G37*
G36*
X3066D02*
X3036D01*
X3038Y1876D01*
X3043Y1868D01*
X3049Y1862D01*
X3057Y1857D01*
X3066Y1855D01*
Y1885D01*
D02*
G37*
G36*
X2791D02*
X2761D01*
Y1855D01*
X2769Y1857D01*
X2777Y1862D01*
X2784Y1868D01*
X2789Y1876D01*
X2791Y1885D01*
D02*
G37*
G36*
X2751D02*
X2721D01*
X2723Y1876D01*
X2728Y1868D01*
X2734Y1862D01*
X2742Y1857D01*
X2751Y1855D01*
Y1885D01*
D02*
G37*
G36*
X2633D02*
X2603D01*
Y1855D01*
X2612Y1857D01*
X2620Y1862D01*
X2626Y1868D01*
X2631Y1876D01*
X2633Y1885D01*
D02*
G37*
G36*
X2593D02*
X2564D01*
X2566Y1876D01*
X2570Y1868D01*
X2577Y1862D01*
X2585Y1857D01*
X2593Y1855D01*
Y1885D01*
D02*
G37*
G36*
X2476D02*
X2446D01*
Y1855D01*
X2454Y1857D01*
X2462Y1862D01*
X2469Y1868D01*
X2474Y1876D01*
X2476Y1885D01*
D02*
G37*
G36*
X2436D02*
X2406D01*
X2408Y1876D01*
X2413Y1868D01*
X2419Y1862D01*
X2427Y1857D01*
X2436Y1855D01*
Y1885D01*
D02*
G37*
G36*
X2161D02*
X2131D01*
Y1855D01*
X2139Y1857D01*
X2147Y1862D01*
X2154Y1868D01*
X2159Y1876D01*
X2161Y1885D01*
D02*
G37*
G36*
X2121D02*
X2091D01*
X2093Y1876D01*
X2098Y1868D01*
X2104Y1862D01*
X2112Y1857D01*
X2121Y1855D01*
Y1885D01*
D02*
G37*
G36*
X2003D02*
X1974D01*
Y1855D01*
X1982Y1857D01*
X1990Y1862D01*
X1997Y1868D01*
X2001Y1876D01*
X2003Y1885D01*
D02*
G37*
G36*
X1964D02*
X1934D01*
X1936Y1876D01*
X1940Y1868D01*
X1947Y1862D01*
X1955Y1857D01*
X1964Y1855D01*
Y1885D01*
D02*
G37*
G36*
X1846D02*
X1816D01*
Y1855D01*
X1825Y1857D01*
X1833Y1862D01*
X1839Y1868D01*
X1844Y1876D01*
X1846Y1885D01*
D02*
G37*
G36*
X1806D02*
X1776D01*
X1778Y1876D01*
X1783Y1868D01*
X1790Y1862D01*
X1798Y1857D01*
X1806Y1855D01*
Y1885D01*
D02*
G37*
G36*
X1688D02*
X1659D01*
Y1855D01*
X1667Y1857D01*
X1675Y1862D01*
X1682Y1868D01*
X1686Y1876D01*
X1688Y1885D01*
D02*
G37*
G36*
X1649D02*
X1619D01*
X1621Y1876D01*
X1626Y1868D01*
X1632Y1862D01*
X1640Y1857D01*
X1649Y1855D01*
Y1885D01*
D02*
G37*
G36*
X1531D02*
X1501D01*
Y1855D01*
X1510Y1857D01*
X1518Y1862D01*
X1524Y1868D01*
X1529Y1876D01*
X1531Y1885D01*
D02*
G37*
G36*
X1491D02*
X1461D01*
X1463Y1876D01*
X1468Y1868D01*
X1475Y1862D01*
X1483Y1857D01*
X1491Y1855D01*
Y1885D01*
D02*
G37*
G36*
X1216D02*
X1186D01*
Y1855D01*
X1195Y1857D01*
X1203Y1862D01*
X1209Y1868D01*
X1214Y1876D01*
X1216Y1885D01*
D02*
G37*
G36*
X1176D02*
X1146D01*
X1148Y1876D01*
X1153Y1868D01*
X1160Y1862D01*
X1168Y1857D01*
X1176Y1855D01*
Y1885D01*
D02*
G37*
G36*
X1377Y1892D02*
X1368D01*
X1359Y1890D01*
X1351Y1885D01*
X1344Y1878D01*
X1340Y1870D01*
X1337Y1861D01*
Y1852D01*
X1340Y1843D01*
X1344Y1835D01*
X1351Y1829D01*
X1359Y1824D01*
X1368Y1822D01*
X1377D01*
X1386Y1824D01*
X1394Y1829D01*
X1400Y1835D01*
X1405Y1843D01*
X1407Y1852D01*
Y1861D01*
X1405Y1870D01*
X1400Y1878D01*
X1394Y1885D01*
X1386Y1890D01*
X1377Y1892D01*
D02*
G37*
G36*
X3918Y1892D02*
X3907D01*
X3897Y1889D01*
X3887Y1884D01*
X3880Y1876D01*
X3874Y1867D01*
X3871Y1856D01*
Y1845D01*
X3874Y1835D01*
X3880Y1825D01*
X3887Y1817D01*
X3897Y1812D01*
X3907Y1809D01*
X3918D01*
X3929Y1812D01*
X3938Y1817D01*
X3946Y1825D01*
X3952Y1835D01*
X3954Y1845D01*
Y1856D01*
X3952Y1867D01*
X3946Y1876D01*
X3938Y1884D01*
X3929Y1889D01*
X3918Y1892D01*
D02*
G37*
G36*
X3785Y1767D02*
Y1737D01*
X3814D01*
X3812Y1746D01*
X3808Y1754D01*
X3801Y1760D01*
X3793Y1765D01*
X3785Y1767D01*
D02*
G37*
G36*
X3775D02*
X3766Y1765D01*
X3758Y1760D01*
X3752Y1754D01*
X3747Y1746D01*
X3745Y1737D01*
X3775D01*
Y1767D01*
D02*
G37*
G36*
X3627D02*
Y1737D01*
X3657D01*
X3655Y1746D01*
X3650Y1754D01*
X3644Y1760D01*
X3636Y1765D01*
X3627Y1767D01*
D02*
G37*
G36*
X3617D02*
X3609Y1765D01*
X3601Y1760D01*
X3594Y1754D01*
X3589Y1746D01*
X3587Y1737D01*
X3617D01*
Y1767D01*
D02*
G37*
G36*
X3470D02*
Y1737D01*
X3499D01*
X3497Y1746D01*
X3493Y1754D01*
X3486Y1760D01*
X3478Y1765D01*
X3470Y1767D01*
D02*
G37*
G36*
X3460D02*
X3451Y1765D01*
X3443Y1760D01*
X3437Y1754D01*
X3432Y1746D01*
X3430Y1737D01*
X3460D01*
Y1767D01*
D02*
G37*
G36*
X3312D02*
Y1737D01*
X3342D01*
X3340Y1746D01*
X3335Y1754D01*
X3329Y1760D01*
X3321Y1765D01*
X3312Y1767D01*
D02*
G37*
G36*
X3302D02*
X3294Y1765D01*
X3286Y1760D01*
X3279Y1754D01*
X3274Y1746D01*
X3272Y1737D01*
X3302D01*
Y1767D01*
D02*
G37*
G36*
X3155D02*
Y1737D01*
X3185D01*
X3182Y1746D01*
X3178Y1754D01*
X3171Y1760D01*
X3163Y1765D01*
X3155Y1767D01*
D02*
G37*
G36*
X3145D02*
X3136Y1765D01*
X3128Y1760D01*
X3122Y1754D01*
X3117Y1746D01*
X3115Y1737D01*
X3145D01*
Y1767D01*
D02*
G37*
G36*
X2997D02*
Y1737D01*
X3027D01*
X3025Y1746D01*
X3020Y1754D01*
X3014Y1760D01*
X3006Y1765D01*
X2997Y1767D01*
D02*
G37*
G36*
X2987D02*
X2979Y1765D01*
X2971Y1760D01*
X2964Y1754D01*
X2960Y1746D01*
X2957Y1737D01*
X2987D01*
Y1767D01*
D02*
G37*
G36*
X2682D02*
Y1737D01*
X2712D01*
X2710Y1746D01*
X2705Y1754D01*
X2699Y1760D01*
X2691Y1765D01*
X2682Y1767D01*
D02*
G37*
G36*
X2672D02*
X2664Y1765D01*
X2656Y1760D01*
X2649Y1754D01*
X2645Y1746D01*
X2642Y1737D01*
X2672D01*
Y1767D01*
D02*
G37*
G36*
X2525D02*
Y1737D01*
X2555D01*
X2552Y1746D01*
X2548Y1754D01*
X2541Y1760D01*
X2533Y1765D01*
X2525Y1767D01*
D02*
G37*
G36*
X2515D02*
X2506Y1765D01*
X2498Y1760D01*
X2492Y1754D01*
X2487Y1746D01*
X2485Y1737D01*
X2515D01*
Y1767D01*
D02*
G37*
G36*
X2367D02*
Y1737D01*
X2397D01*
X2395Y1746D01*
X2390Y1754D01*
X2384Y1760D01*
X2376Y1765D01*
X2367Y1767D01*
D02*
G37*
G36*
X2357D02*
X2349Y1765D01*
X2341Y1760D01*
X2334Y1754D01*
X2330Y1746D01*
X2327Y1737D01*
X2357D01*
Y1767D01*
D02*
G37*
G36*
X2052D02*
Y1737D01*
X2082D01*
X2080Y1746D01*
X2075Y1754D01*
X2069Y1760D01*
X2061Y1765D01*
X2052Y1767D01*
D02*
G37*
G36*
X2042D02*
X2034Y1765D01*
X2026Y1760D01*
X2019Y1754D01*
X2015Y1746D01*
X2012Y1737D01*
X2042D01*
Y1767D01*
D02*
G37*
G36*
X1895D02*
Y1737D01*
X1925D01*
X1922Y1746D01*
X1918Y1754D01*
X1911Y1760D01*
X1903Y1765D01*
X1895Y1767D01*
D02*
G37*
G36*
X1885D02*
X1876Y1765D01*
X1868Y1760D01*
X1862Y1754D01*
X1857Y1746D01*
X1855Y1737D01*
X1885D01*
Y1767D01*
D02*
G37*
G36*
X1737D02*
Y1737D01*
X1767D01*
X1765Y1746D01*
X1760Y1754D01*
X1754Y1760D01*
X1746Y1765D01*
X1737Y1767D01*
D02*
G37*
G36*
X1727D02*
X1719Y1765D01*
X1711Y1760D01*
X1704Y1754D01*
X1700Y1746D01*
X1697Y1737D01*
X1727D01*
Y1767D01*
D02*
G37*
G36*
X1580D02*
Y1737D01*
X1610D01*
X1607Y1746D01*
X1603Y1754D01*
X1596Y1760D01*
X1588Y1765D01*
X1580Y1767D01*
D02*
G37*
G36*
X1570D02*
X1561Y1765D01*
X1553Y1760D01*
X1547Y1754D01*
X1542Y1746D01*
X1540Y1737D01*
X1570D01*
Y1767D01*
D02*
G37*
G36*
X1422D02*
Y1737D01*
X1452D01*
X1450Y1746D01*
X1445Y1754D01*
X1439Y1760D01*
X1431Y1765D01*
X1422Y1767D01*
D02*
G37*
G36*
X1412D02*
X1404Y1765D01*
X1396Y1760D01*
X1389Y1754D01*
X1385Y1746D01*
X1382Y1737D01*
X1412D01*
Y1767D01*
D02*
G37*
G36*
X1265D02*
Y1737D01*
X1295D01*
X1292Y1746D01*
X1288Y1754D01*
X1281Y1760D01*
X1273Y1765D01*
X1265Y1767D01*
D02*
G37*
G36*
X1255D02*
X1246Y1765D01*
X1238Y1760D01*
X1232Y1754D01*
X1227Y1746D01*
X1225Y1737D01*
X1255D01*
Y1767D01*
D02*
G37*
G36*
X1107D02*
Y1737D01*
X1137D01*
X1135Y1746D01*
X1130Y1754D01*
X1124Y1760D01*
X1116Y1765D01*
X1107Y1767D01*
D02*
G37*
G36*
X1097D02*
X1089Y1765D01*
X1081Y1760D01*
X1074Y1754D01*
X1070Y1746D01*
X1067Y1737D01*
X1097D01*
Y1767D01*
D02*
G37*
G36*
X3814Y1727D02*
X3785D01*
Y1697D01*
X3793Y1700D01*
X3801Y1704D01*
X3808Y1711D01*
X3812Y1719D01*
X3814Y1727D01*
D02*
G37*
G36*
X3775D02*
X3745D01*
X3747Y1719D01*
X3752Y1711D01*
X3758Y1704D01*
X3766Y1700D01*
X3775Y1697D01*
Y1727D01*
D02*
G37*
G36*
X3657D02*
X3627D01*
Y1697D01*
X3636Y1700D01*
X3644Y1704D01*
X3650Y1711D01*
X3655Y1719D01*
X3657Y1727D01*
D02*
G37*
G36*
X3617D02*
X3587D01*
X3589Y1719D01*
X3594Y1711D01*
X3601Y1704D01*
X3609Y1700D01*
X3617Y1697D01*
Y1727D01*
D02*
G37*
G36*
X3499D02*
X3470D01*
Y1697D01*
X3478Y1700D01*
X3486Y1704D01*
X3493Y1711D01*
X3497Y1719D01*
X3499Y1727D01*
D02*
G37*
G36*
X3460D02*
X3430D01*
X3432Y1719D01*
X3437Y1711D01*
X3443Y1704D01*
X3451Y1700D01*
X3460Y1697D01*
Y1727D01*
D02*
G37*
G36*
X3342D02*
X3312D01*
Y1697D01*
X3321Y1700D01*
X3329Y1704D01*
X3335Y1711D01*
X3340Y1719D01*
X3342Y1727D01*
D02*
G37*
G36*
X3302D02*
X3272D01*
X3274Y1719D01*
X3279Y1711D01*
X3286Y1704D01*
X3294Y1700D01*
X3302Y1697D01*
Y1727D01*
D02*
G37*
G36*
X3185D02*
X3155D01*
Y1697D01*
X3163Y1700D01*
X3171Y1704D01*
X3178Y1711D01*
X3182Y1719D01*
X3185Y1727D01*
D02*
G37*
G36*
X3145D02*
X3115D01*
X3117Y1719D01*
X3122Y1711D01*
X3128Y1704D01*
X3136Y1700D01*
X3145Y1697D01*
Y1727D01*
D02*
G37*
G36*
X3027D02*
X2997D01*
Y1697D01*
X3006Y1700D01*
X3014Y1704D01*
X3020Y1711D01*
X3025Y1719D01*
X3027Y1727D01*
D02*
G37*
G36*
X2987D02*
X2957D01*
X2960Y1719D01*
X2964Y1711D01*
X2971Y1704D01*
X2979Y1700D01*
X2987Y1697D01*
Y1727D01*
D02*
G37*
G36*
X2712D02*
X2682D01*
Y1697D01*
X2691Y1700D01*
X2699Y1704D01*
X2705Y1711D01*
X2710Y1719D01*
X2712Y1727D01*
D02*
G37*
G36*
X2672D02*
X2642D01*
X2645Y1719D01*
X2649Y1711D01*
X2656Y1704D01*
X2664Y1700D01*
X2672Y1697D01*
Y1727D01*
D02*
G37*
G36*
X2555D02*
X2525D01*
Y1697D01*
X2533Y1700D01*
X2541Y1704D01*
X2548Y1711D01*
X2552Y1719D01*
X2555Y1727D01*
D02*
G37*
G36*
X2515D02*
X2485D01*
X2487Y1719D01*
X2492Y1711D01*
X2498Y1704D01*
X2506Y1700D01*
X2515Y1697D01*
Y1727D01*
D02*
G37*
G36*
X2397D02*
X2367D01*
Y1697D01*
X2376Y1700D01*
X2384Y1704D01*
X2390Y1711D01*
X2395Y1719D01*
X2397Y1727D01*
D02*
G37*
G36*
X2357D02*
X2327D01*
X2330Y1719D01*
X2334Y1711D01*
X2341Y1704D01*
X2349Y1700D01*
X2357Y1697D01*
Y1727D01*
D02*
G37*
G36*
X2082D02*
X2052D01*
Y1697D01*
X2061Y1700D01*
X2069Y1704D01*
X2075Y1711D01*
X2080Y1719D01*
X2082Y1727D01*
D02*
G37*
G36*
X2042D02*
X2012D01*
X2015Y1719D01*
X2019Y1711D01*
X2026Y1704D01*
X2034Y1700D01*
X2042Y1697D01*
Y1727D01*
D02*
G37*
G36*
X1925D02*
X1895D01*
Y1697D01*
X1903Y1700D01*
X1911Y1704D01*
X1918Y1711D01*
X1922Y1719D01*
X1925Y1727D01*
D02*
G37*
G36*
X1885D02*
X1855D01*
X1857Y1719D01*
X1862Y1711D01*
X1868Y1704D01*
X1876Y1700D01*
X1885Y1697D01*
Y1727D01*
D02*
G37*
G36*
X1767D02*
X1737D01*
Y1697D01*
X1746Y1700D01*
X1754Y1704D01*
X1760Y1711D01*
X1765Y1719D01*
X1767Y1727D01*
D02*
G37*
G36*
X1727D02*
X1697D01*
X1700Y1719D01*
X1704Y1711D01*
X1711Y1704D01*
X1719Y1700D01*
X1727Y1697D01*
Y1727D01*
D02*
G37*
G36*
X1610D02*
X1580D01*
Y1697D01*
X1588Y1700D01*
X1596Y1704D01*
X1603Y1711D01*
X1607Y1719D01*
X1610Y1727D01*
D02*
G37*
G36*
X1570D02*
X1540D01*
X1542Y1719D01*
X1547Y1711D01*
X1553Y1704D01*
X1561Y1700D01*
X1570Y1697D01*
Y1727D01*
D02*
G37*
G36*
X1452D02*
X1422D01*
Y1697D01*
X1431Y1700D01*
X1439Y1704D01*
X1445Y1711D01*
X1450Y1719D01*
X1452Y1727D01*
D02*
G37*
G36*
X1412D02*
X1382D01*
X1385Y1719D01*
X1389Y1711D01*
X1396Y1704D01*
X1404Y1700D01*
X1412Y1697D01*
Y1727D01*
D02*
G37*
G36*
X1295D02*
X1265D01*
Y1697D01*
X1273Y1700D01*
X1281Y1704D01*
X1288Y1711D01*
X1292Y1719D01*
X1295Y1727D01*
D02*
G37*
G36*
X1255D02*
X1225D01*
X1227Y1719D01*
X1232Y1711D01*
X1238Y1704D01*
X1246Y1700D01*
X1255Y1697D01*
Y1727D01*
D02*
G37*
G36*
X1137D02*
X1107D01*
Y1697D01*
X1116Y1700D01*
X1124Y1704D01*
X1130Y1711D01*
X1135Y1719D01*
X1137Y1727D01*
D02*
G37*
G36*
X1097D02*
X1067D01*
X1070Y1719D01*
X1074Y1711D01*
X1081Y1704D01*
X1089Y1700D01*
X1097Y1697D01*
Y1727D01*
D02*
G37*
G36*
X3918Y1774D02*
X3907D01*
X3897Y1771D01*
X3887Y1766D01*
X3880Y1758D01*
X3874Y1749D01*
X3871Y1738D01*
Y1727D01*
X3874Y1717D01*
X3880Y1707D01*
X3887Y1699D01*
X3897Y1694D01*
X3907Y1691D01*
X3918D01*
X3929Y1694D01*
X3938Y1699D01*
X3946Y1707D01*
X3952Y1717D01*
X3954Y1727D01*
Y1738D01*
X3952Y1749D01*
X3946Y1758D01*
X3938Y1766D01*
X3929Y1771D01*
X3918Y1774D01*
D02*
G37*
G36*
X3863Y1610D02*
Y1580D01*
X3893D01*
X3891Y1588D01*
X3886Y1596D01*
X3880Y1603D01*
X3872Y1607D01*
X3863Y1610D01*
D02*
G37*
G36*
X3853D02*
X3845Y1607D01*
X3837Y1603D01*
X3830Y1596D01*
X3826Y1588D01*
X3823Y1580D01*
X3853D01*
Y1610D01*
D02*
G37*
G36*
X3706D02*
Y1580D01*
X3736D01*
X3733Y1588D01*
X3729Y1596D01*
X3722Y1603D01*
X3714Y1607D01*
X3706Y1610D01*
D02*
G37*
G36*
X3696D02*
X3687Y1607D01*
X3679Y1603D01*
X3673Y1596D01*
X3668Y1588D01*
X3666Y1580D01*
X3696D01*
Y1610D01*
D02*
G37*
G36*
X3548D02*
Y1580D01*
X3578D01*
X3576Y1588D01*
X3571Y1596D01*
X3565Y1603D01*
X3557Y1607D01*
X3548Y1610D01*
D02*
G37*
G36*
X3538D02*
X3530Y1607D01*
X3522Y1603D01*
X3515Y1596D01*
X3511Y1588D01*
X3508Y1580D01*
X3538D01*
Y1610D01*
D02*
G37*
G36*
X3391D02*
Y1580D01*
X3421D01*
X3418Y1588D01*
X3414Y1596D01*
X3407Y1603D01*
X3399Y1607D01*
X3391Y1610D01*
D02*
G37*
G36*
X3381D02*
X3372Y1607D01*
X3364Y1603D01*
X3358Y1596D01*
X3353Y1588D01*
X3351Y1580D01*
X3381D01*
Y1610D01*
D02*
G37*
G36*
X3233D02*
Y1580D01*
X3263D01*
X3261Y1588D01*
X3256Y1596D01*
X3250Y1603D01*
X3242Y1607D01*
X3233Y1610D01*
D02*
G37*
G36*
X3223D02*
X3215Y1607D01*
X3207Y1603D01*
X3200Y1596D01*
X3196Y1588D01*
X3193Y1580D01*
X3223D01*
Y1610D01*
D02*
G37*
G36*
X3076D02*
Y1580D01*
X3106D01*
X3103Y1588D01*
X3099Y1596D01*
X3092Y1603D01*
X3084Y1607D01*
X3076Y1610D01*
D02*
G37*
G36*
X3066D02*
X3057Y1607D01*
X3049Y1603D01*
X3043Y1596D01*
X3038Y1588D01*
X3036Y1580D01*
X3066D01*
Y1610D01*
D02*
G37*
G36*
X2761D02*
Y1580D01*
X2791D01*
X2789Y1588D01*
X2784Y1596D01*
X2777Y1603D01*
X2769Y1607D01*
X2761Y1610D01*
D02*
G37*
G36*
X2751D02*
X2742Y1607D01*
X2734Y1603D01*
X2728Y1596D01*
X2723Y1588D01*
X2721Y1580D01*
X2751D01*
Y1610D01*
D02*
G37*
G36*
X2603D02*
Y1580D01*
X2633D01*
X2631Y1588D01*
X2626Y1596D01*
X2620Y1603D01*
X2612Y1607D01*
X2603Y1610D01*
D02*
G37*
G36*
X2593D02*
X2585Y1607D01*
X2577Y1603D01*
X2570Y1596D01*
X2566Y1588D01*
X2564Y1580D01*
X2593D01*
Y1610D01*
D02*
G37*
G36*
X2288D02*
Y1580D01*
X2318D01*
X2316Y1588D01*
X2311Y1596D01*
X2305Y1603D01*
X2297Y1607D01*
X2288Y1610D01*
D02*
G37*
G36*
X2278D02*
X2270Y1607D01*
X2262Y1603D01*
X2255Y1596D01*
X2251Y1588D01*
X2249Y1580D01*
X2278D01*
Y1610D01*
D02*
G37*
G36*
X2131D02*
Y1580D01*
X2161D01*
X2159Y1588D01*
X2154Y1596D01*
X2147Y1603D01*
X2139Y1607D01*
X2131Y1610D01*
D02*
G37*
G36*
X2121D02*
X2112Y1607D01*
X2104Y1603D01*
X2098Y1596D01*
X2093Y1588D01*
X2091Y1580D01*
X2121D01*
Y1610D01*
D02*
G37*
G36*
X1974D02*
Y1580D01*
X2003D01*
X2001Y1588D01*
X1997Y1596D01*
X1990Y1603D01*
X1982Y1607D01*
X1974Y1610D01*
D02*
G37*
G36*
X1964D02*
X1955Y1607D01*
X1947Y1603D01*
X1940Y1596D01*
X1936Y1588D01*
X1934Y1580D01*
X1964D01*
Y1610D01*
D02*
G37*
G36*
X1816D02*
Y1580D01*
X1846D01*
X1844Y1588D01*
X1839Y1596D01*
X1833Y1603D01*
X1825Y1607D01*
X1816Y1610D01*
D02*
G37*
G36*
X1806D02*
X1798Y1607D01*
X1790Y1603D01*
X1783Y1596D01*
X1778Y1588D01*
X1776Y1580D01*
X1806D01*
Y1610D01*
D02*
G37*
G36*
X1659D02*
Y1580D01*
X1688D01*
X1686Y1588D01*
X1682Y1596D01*
X1675Y1603D01*
X1667Y1607D01*
X1659Y1610D01*
D02*
G37*
G36*
X1649D02*
X1640Y1607D01*
X1632Y1603D01*
X1626Y1596D01*
X1621Y1588D01*
X1619Y1580D01*
X1649D01*
Y1610D01*
D02*
G37*
G36*
X1501D02*
Y1580D01*
X1531D01*
X1529Y1588D01*
X1524Y1596D01*
X1518Y1603D01*
X1510Y1607D01*
X1501Y1610D01*
D02*
G37*
G36*
X1491D02*
X1483Y1607D01*
X1475Y1603D01*
X1468Y1596D01*
X1463Y1588D01*
X1461Y1580D01*
X1491D01*
Y1610D01*
D02*
G37*
G36*
X1344D02*
Y1580D01*
X1373D01*
X1371Y1588D01*
X1367Y1596D01*
X1360Y1603D01*
X1352Y1607D01*
X1344Y1610D01*
D02*
G37*
G36*
X1334D02*
X1325Y1607D01*
X1317Y1603D01*
X1311Y1596D01*
X1306Y1588D01*
X1304Y1580D01*
X1334D01*
Y1610D01*
D02*
G37*
G36*
X1186D02*
Y1580D01*
X1216D01*
X1214Y1588D01*
X1209Y1596D01*
X1203Y1603D01*
X1195Y1607D01*
X1186Y1610D01*
D02*
G37*
G36*
X1176D02*
X1168Y1607D01*
X1160Y1603D01*
X1153Y1596D01*
X1148Y1588D01*
X1146Y1580D01*
X1176D01*
Y1610D01*
D02*
G37*
G36*
X3995Y1650D02*
X3985D01*
X3976Y1648D01*
X3968Y1643D01*
X3961Y1637D01*
X3956Y1628D01*
X3954Y1619D01*
Y1610D01*
X3956Y1601D01*
X3961Y1592D01*
X3968Y1586D01*
X3976Y1581D01*
X3985Y1578D01*
X3995D01*
X4004Y1581D01*
X4012Y1586D01*
X4019Y1592D01*
X4024Y1601D01*
X4026Y1610D01*
Y1619D01*
X4024Y1628D01*
X4019Y1637D01*
X4012Y1643D01*
X4004Y1648D01*
X3995Y1650D01*
D02*
G37*
G36*
X3893Y1570D02*
X3863D01*
Y1540D01*
X3872Y1542D01*
X3880Y1547D01*
X3886Y1553D01*
X3891Y1561D01*
X3893Y1570D01*
D02*
G37*
G36*
X3853D02*
X3823D01*
X3826Y1561D01*
X3830Y1553D01*
X3837Y1547D01*
X3845Y1542D01*
X3853Y1540D01*
Y1570D01*
D02*
G37*
G36*
X3736D02*
X3706D01*
Y1540D01*
X3714Y1542D01*
X3722Y1547D01*
X3729Y1553D01*
X3733Y1561D01*
X3736Y1570D01*
D02*
G37*
G36*
X3696D02*
X3666D01*
X3668Y1561D01*
X3673Y1553D01*
X3679Y1547D01*
X3687Y1542D01*
X3696Y1540D01*
Y1570D01*
D02*
G37*
G36*
X3578D02*
X3548D01*
Y1540D01*
X3557Y1542D01*
X3565Y1547D01*
X3571Y1553D01*
X3576Y1561D01*
X3578Y1570D01*
D02*
G37*
G36*
X3538D02*
X3508D01*
X3511Y1561D01*
X3515Y1553D01*
X3522Y1547D01*
X3530Y1542D01*
X3538Y1540D01*
Y1570D01*
D02*
G37*
G36*
X3421D02*
X3391D01*
Y1540D01*
X3399Y1542D01*
X3407Y1547D01*
X3414Y1553D01*
X3418Y1561D01*
X3421Y1570D01*
D02*
G37*
G36*
X3381D02*
X3351D01*
X3353Y1561D01*
X3358Y1553D01*
X3364Y1547D01*
X3372Y1542D01*
X3381Y1540D01*
Y1570D01*
D02*
G37*
G36*
X3263D02*
X3233D01*
Y1540D01*
X3242Y1542D01*
X3250Y1547D01*
X3256Y1553D01*
X3261Y1561D01*
X3263Y1570D01*
D02*
G37*
G36*
X3223D02*
X3193D01*
X3196Y1561D01*
X3200Y1553D01*
X3207Y1547D01*
X3215Y1542D01*
X3223Y1540D01*
Y1570D01*
D02*
G37*
G36*
X3106D02*
X3076D01*
Y1540D01*
X3084Y1542D01*
X3092Y1547D01*
X3099Y1553D01*
X3103Y1561D01*
X3106Y1570D01*
D02*
G37*
G36*
X3066D02*
X3036D01*
X3038Y1561D01*
X3043Y1553D01*
X3049Y1547D01*
X3057Y1542D01*
X3066Y1540D01*
Y1570D01*
D02*
G37*
G36*
X2791D02*
X2761D01*
Y1540D01*
X2769Y1542D01*
X2777Y1547D01*
X2784Y1553D01*
X2789Y1561D01*
X2791Y1570D01*
D02*
G37*
G36*
X2751D02*
X2721D01*
X2723Y1561D01*
X2728Y1553D01*
X2734Y1547D01*
X2742Y1542D01*
X2751Y1540D01*
Y1570D01*
D02*
G37*
G36*
X2633D02*
X2603D01*
Y1540D01*
X2612Y1542D01*
X2620Y1547D01*
X2626Y1553D01*
X2631Y1561D01*
X2633Y1570D01*
D02*
G37*
G36*
X2593D02*
X2564D01*
X2566Y1561D01*
X2570Y1553D01*
X2577Y1547D01*
X2585Y1542D01*
X2593Y1540D01*
Y1570D01*
D02*
G37*
G36*
X2318D02*
X2288D01*
Y1540D01*
X2297Y1542D01*
X2305Y1547D01*
X2311Y1553D01*
X2316Y1561D01*
X2318Y1570D01*
D02*
G37*
G36*
X2278D02*
X2249D01*
X2251Y1561D01*
X2255Y1553D01*
X2262Y1547D01*
X2270Y1542D01*
X2278Y1540D01*
Y1570D01*
D02*
G37*
G36*
X2161D02*
X2131D01*
Y1540D01*
X2139Y1542D01*
X2147Y1547D01*
X2154Y1553D01*
X2159Y1561D01*
X2161Y1570D01*
D02*
G37*
G36*
X2121D02*
X2091D01*
X2093Y1561D01*
X2098Y1553D01*
X2104Y1547D01*
X2112Y1542D01*
X2121Y1540D01*
Y1570D01*
D02*
G37*
G36*
X2003D02*
X1974D01*
Y1540D01*
X1982Y1542D01*
X1990Y1547D01*
X1997Y1553D01*
X2001Y1561D01*
X2003Y1570D01*
D02*
G37*
G36*
X1964D02*
X1934D01*
X1936Y1561D01*
X1940Y1553D01*
X1947Y1547D01*
X1955Y1542D01*
X1964Y1540D01*
Y1570D01*
D02*
G37*
G36*
X1846D02*
X1816D01*
Y1540D01*
X1825Y1542D01*
X1833Y1547D01*
X1839Y1553D01*
X1844Y1561D01*
X1846Y1570D01*
D02*
G37*
G36*
X1806D02*
X1776D01*
X1778Y1561D01*
X1783Y1553D01*
X1790Y1547D01*
X1798Y1542D01*
X1806Y1540D01*
Y1570D01*
D02*
G37*
G36*
X1688D02*
X1659D01*
Y1540D01*
X1667Y1542D01*
X1675Y1547D01*
X1682Y1553D01*
X1686Y1561D01*
X1688Y1570D01*
D02*
G37*
G36*
X1649D02*
X1619D01*
X1621Y1561D01*
X1626Y1553D01*
X1632Y1547D01*
X1640Y1542D01*
X1649Y1540D01*
Y1570D01*
D02*
G37*
G36*
X1531D02*
X1501D01*
Y1540D01*
X1510Y1542D01*
X1518Y1547D01*
X1524Y1553D01*
X1529Y1561D01*
X1531Y1570D01*
D02*
G37*
G36*
X1491D02*
X1461D01*
X1463Y1561D01*
X1468Y1553D01*
X1475Y1547D01*
X1483Y1542D01*
X1491Y1540D01*
Y1570D01*
D02*
G37*
G36*
X1373D02*
X1344D01*
Y1540D01*
X1352Y1542D01*
X1360Y1547D01*
X1367Y1553D01*
X1371Y1561D01*
X1373Y1570D01*
D02*
G37*
G36*
X1334D02*
X1304D01*
X1306Y1561D01*
X1311Y1553D01*
X1317Y1547D01*
X1325Y1542D01*
X1334Y1540D01*
Y1570D01*
D02*
G37*
G36*
X1216D02*
X1186D01*
Y1540D01*
X1195Y1542D01*
X1203Y1547D01*
X1209Y1553D01*
X1214Y1561D01*
X1216Y1570D01*
D02*
G37*
G36*
X1176D02*
X1146D01*
X1148Y1561D01*
X1153Y1553D01*
X1160Y1547D01*
X1168Y1542D01*
X1176Y1540D01*
Y1570D01*
D02*
G37*
G36*
X3942Y1452D02*
Y1422D01*
X3972D01*
X3970Y1431D01*
X3965Y1439D01*
X3958Y1445D01*
X3951Y1450D01*
X3942Y1452D01*
D02*
G37*
G36*
X3932D02*
X3923Y1450D01*
X3916Y1445D01*
X3909Y1439D01*
X3904Y1431D01*
X3902Y1422D01*
X3932D01*
Y1452D01*
D02*
G37*
G36*
X3627D02*
Y1422D01*
X3657D01*
X3655Y1431D01*
X3650Y1439D01*
X3644Y1445D01*
X3636Y1450D01*
X3627Y1452D01*
D02*
G37*
G36*
X3617D02*
X3609Y1450D01*
X3601Y1445D01*
X3594Y1439D01*
X3589Y1431D01*
X3587Y1422D01*
X3617D01*
Y1452D01*
D02*
G37*
G36*
X3470D02*
Y1422D01*
X3499D01*
X3497Y1431D01*
X3493Y1439D01*
X3486Y1445D01*
X3478Y1450D01*
X3470Y1452D01*
D02*
G37*
G36*
X3460D02*
X3451Y1450D01*
X3443Y1445D01*
X3437Y1439D01*
X3432Y1431D01*
X3430Y1422D01*
X3460D01*
Y1452D01*
D02*
G37*
G36*
X3312D02*
Y1422D01*
X3342D01*
X3340Y1431D01*
X3335Y1439D01*
X3329Y1445D01*
X3321Y1450D01*
X3312Y1452D01*
D02*
G37*
G36*
X3302D02*
X3294Y1450D01*
X3286Y1445D01*
X3279Y1439D01*
X3274Y1431D01*
X3272Y1422D01*
X3302D01*
Y1452D01*
D02*
G37*
G36*
X3155D02*
Y1422D01*
X3185D01*
X3182Y1431D01*
X3178Y1439D01*
X3171Y1445D01*
X3163Y1450D01*
X3155Y1452D01*
D02*
G37*
G36*
X3145D02*
X3136Y1450D01*
X3128Y1445D01*
X3122Y1439D01*
X3117Y1431D01*
X3115Y1422D01*
X3145D01*
Y1452D01*
D02*
G37*
G36*
X2997D02*
Y1422D01*
X3027D01*
X3025Y1431D01*
X3020Y1439D01*
X3014Y1445D01*
X3006Y1450D01*
X2997Y1452D01*
D02*
G37*
G36*
X2987D02*
X2979Y1450D01*
X2971Y1445D01*
X2964Y1439D01*
X2960Y1431D01*
X2957Y1422D01*
X2987D01*
Y1452D01*
D02*
G37*
G36*
X2682D02*
Y1422D01*
X2712D01*
X2710Y1431D01*
X2705Y1439D01*
X2699Y1445D01*
X2691Y1450D01*
X2682Y1452D01*
D02*
G37*
G36*
X2672D02*
X2664Y1450D01*
X2656Y1445D01*
X2649Y1439D01*
X2645Y1431D01*
X2642Y1422D01*
X2672D01*
Y1452D01*
D02*
G37*
G36*
X2367D02*
Y1422D01*
X2397D01*
X2395Y1431D01*
X2390Y1439D01*
X2384Y1445D01*
X2376Y1450D01*
X2367Y1452D01*
D02*
G37*
G36*
X2357D02*
X2349Y1450D01*
X2341Y1445D01*
X2334Y1439D01*
X2330Y1431D01*
X2327Y1422D01*
X2357D01*
Y1452D01*
D02*
G37*
G36*
X2210D02*
Y1422D01*
X2240D01*
X2237Y1431D01*
X2233Y1439D01*
X2226Y1445D01*
X2218Y1450D01*
X2210Y1452D01*
D02*
G37*
G36*
X2200D02*
X2191Y1450D01*
X2183Y1445D01*
X2177Y1439D01*
X2172Y1431D01*
X2170Y1422D01*
X2200D01*
Y1452D01*
D02*
G37*
G36*
X2052D02*
Y1422D01*
X2082D01*
X2080Y1431D01*
X2075Y1439D01*
X2069Y1445D01*
X2061Y1450D01*
X2052Y1452D01*
D02*
G37*
G36*
X2042D02*
X2034Y1450D01*
X2026Y1445D01*
X2019Y1439D01*
X2015Y1431D01*
X2012Y1422D01*
X2042D01*
Y1452D01*
D02*
G37*
G36*
X1737D02*
Y1422D01*
X1767D01*
X1765Y1431D01*
X1760Y1439D01*
X1754Y1445D01*
X1746Y1450D01*
X1737Y1452D01*
D02*
G37*
G36*
X1727D02*
X1719Y1450D01*
X1711Y1445D01*
X1704Y1439D01*
X1700Y1431D01*
X1697Y1422D01*
X1727D01*
Y1452D01*
D02*
G37*
G36*
X1580D02*
Y1422D01*
X1610D01*
X1607Y1431D01*
X1603Y1439D01*
X1596Y1445D01*
X1588Y1450D01*
X1580Y1452D01*
D02*
G37*
G36*
X1570D02*
X1561Y1450D01*
X1553Y1445D01*
X1547Y1439D01*
X1542Y1431D01*
X1540Y1422D01*
X1570D01*
Y1452D01*
D02*
G37*
G36*
X1265D02*
Y1422D01*
X1295D01*
X1292Y1431D01*
X1288Y1439D01*
X1281Y1445D01*
X1273Y1450D01*
X1265Y1452D01*
D02*
G37*
G36*
X1255D02*
X1246Y1450D01*
X1238Y1445D01*
X1232Y1439D01*
X1227Y1431D01*
X1225Y1422D01*
X1255D01*
Y1452D01*
D02*
G37*
G36*
X1107D02*
Y1422D01*
X1137D01*
X1135Y1431D01*
X1130Y1439D01*
X1124Y1445D01*
X1116Y1450D01*
X1107Y1452D01*
D02*
G37*
G36*
X1097D02*
X1089Y1450D01*
X1081Y1445D01*
X1074Y1439D01*
X1070Y1431D01*
X1067Y1422D01*
X1097D01*
Y1452D01*
D02*
G37*
G36*
X3765Y1486D02*
X3761D01*
Y1399D01*
X3849D01*
Y1403D01*
X3845Y1421D01*
X3838Y1438D01*
X3828Y1453D01*
X3815Y1466D01*
X3800Y1476D01*
X3783Y1483D01*
X3765Y1486D01*
D02*
G37*
G36*
X3751D02*
X3747D01*
X3729Y1483D01*
X3712Y1476D01*
X3697Y1466D01*
X3684Y1453D01*
X3674Y1438D01*
X3667Y1421D01*
X3664Y1403D01*
Y1399D01*
X3751D01*
Y1486D01*
D02*
G37*
G36*
X1403D02*
X1399D01*
Y1399D01*
X1486D01*
Y1403D01*
X1483Y1421D01*
X1476Y1438D01*
X1466Y1453D01*
X1453Y1466D01*
X1438Y1476D01*
X1421Y1483D01*
X1403Y1486D01*
D02*
G37*
G36*
X1389D02*
X1385D01*
X1367Y1483D01*
X1350Y1476D01*
X1335Y1466D01*
X1322Y1453D01*
X1312Y1438D01*
X1305Y1421D01*
X1301Y1403D01*
Y1399D01*
X1389D01*
Y1486D01*
D02*
G37*
G36*
X3972Y1412D02*
X3942D01*
Y1382D01*
X3951Y1385D01*
X3958Y1389D01*
X3965Y1396D01*
X3970Y1404D01*
X3972Y1412D01*
D02*
G37*
G36*
X3932D02*
X3902D01*
X3904Y1404D01*
X3909Y1396D01*
X3916Y1389D01*
X3923Y1385D01*
X3932Y1382D01*
Y1412D01*
D02*
G37*
G36*
X3657D02*
X3627D01*
Y1382D01*
X3636Y1385D01*
X3644Y1389D01*
X3650Y1396D01*
X3655Y1404D01*
X3657Y1412D01*
D02*
G37*
G36*
X3617D02*
X3587D01*
X3589Y1404D01*
X3594Y1396D01*
X3601Y1389D01*
X3609Y1385D01*
X3617Y1382D01*
Y1412D01*
D02*
G37*
G36*
X3499D02*
X3470D01*
Y1382D01*
X3478Y1385D01*
X3486Y1389D01*
X3493Y1396D01*
X3497Y1404D01*
X3499Y1412D01*
D02*
G37*
G36*
X3460D02*
X3430D01*
X3432Y1404D01*
X3437Y1396D01*
X3443Y1389D01*
X3451Y1385D01*
X3460Y1382D01*
Y1412D01*
D02*
G37*
G36*
X3342D02*
X3312D01*
Y1382D01*
X3321Y1385D01*
X3329Y1389D01*
X3335Y1396D01*
X3340Y1404D01*
X3342Y1412D01*
D02*
G37*
G36*
X3302D02*
X3272D01*
X3274Y1404D01*
X3279Y1396D01*
X3286Y1389D01*
X3294Y1385D01*
X3302Y1382D01*
Y1412D01*
D02*
G37*
G36*
X3185D02*
X3155D01*
Y1382D01*
X3163Y1385D01*
X3171Y1389D01*
X3178Y1396D01*
X3182Y1404D01*
X3185Y1412D01*
D02*
G37*
G36*
X3145D02*
X3115D01*
X3117Y1404D01*
X3122Y1396D01*
X3128Y1389D01*
X3136Y1385D01*
X3145Y1382D01*
Y1412D01*
D02*
G37*
G36*
X2987D02*
X2957D01*
X2960Y1404D01*
X2964Y1396D01*
X2971Y1389D01*
X2979Y1385D01*
X2987Y1382D01*
Y1412D01*
D02*
G37*
G36*
X2712D02*
X2682D01*
Y1382D01*
X2691Y1385D01*
X2699Y1389D01*
X2705Y1396D01*
X2710Y1404D01*
X2712Y1412D01*
D02*
G37*
G36*
X2672D02*
X2642D01*
X2645Y1404D01*
X2649Y1396D01*
X2656Y1389D01*
X2664Y1385D01*
X2672Y1382D01*
Y1412D01*
D02*
G37*
G36*
X2397D02*
X2367D01*
Y1382D01*
X2376Y1385D01*
X2384Y1389D01*
X2390Y1396D01*
X2395Y1404D01*
X2397Y1412D01*
D02*
G37*
G36*
X2357D02*
X2327D01*
X2330Y1404D01*
X2334Y1396D01*
X2341Y1389D01*
X2349Y1385D01*
X2357Y1382D01*
Y1412D01*
D02*
G37*
G36*
X2240D02*
X2210D01*
Y1382D01*
X2218Y1385D01*
X2226Y1389D01*
X2233Y1396D01*
X2237Y1404D01*
X2240Y1412D01*
D02*
G37*
G36*
X2200D02*
X2170D01*
X2172Y1404D01*
X2177Y1396D01*
X2183Y1389D01*
X2191Y1385D01*
X2200Y1382D01*
Y1412D01*
D02*
G37*
G36*
X2082D02*
X2052D01*
Y1382D01*
X2061Y1385D01*
X2069Y1389D01*
X2075Y1396D01*
X2080Y1404D01*
X2082Y1412D01*
D02*
G37*
G36*
X2042D02*
X2012D01*
X2015Y1404D01*
X2019Y1396D01*
X2026Y1389D01*
X2034Y1385D01*
X2042Y1382D01*
Y1412D01*
D02*
G37*
G36*
X1767D02*
X1737D01*
Y1382D01*
X1746Y1385D01*
X1754Y1389D01*
X1760Y1396D01*
X1765Y1404D01*
X1767Y1412D01*
D02*
G37*
G36*
X1727D02*
X1697D01*
X1700Y1404D01*
X1704Y1396D01*
X1711Y1389D01*
X1719Y1385D01*
X1727Y1382D01*
Y1412D01*
D02*
G37*
G36*
X1610D02*
X1580D01*
Y1382D01*
X1588Y1385D01*
X1596Y1389D01*
X1603Y1396D01*
X1607Y1404D01*
X1610Y1412D01*
D02*
G37*
G36*
X1570D02*
X1540D01*
X1542Y1404D01*
X1547Y1396D01*
X1553Y1389D01*
X1561Y1385D01*
X1570Y1382D01*
Y1412D01*
D02*
G37*
G36*
X1295D02*
X1265D01*
Y1382D01*
X1273Y1385D01*
X1281Y1389D01*
X1288Y1396D01*
X1292Y1404D01*
X1295Y1412D01*
D02*
G37*
G36*
X1255D02*
X1225D01*
X1227Y1404D01*
X1232Y1396D01*
X1238Y1389D01*
X1246Y1385D01*
X1255Y1382D01*
Y1412D01*
D02*
G37*
G36*
X1137D02*
X1107D01*
Y1382D01*
X1116Y1385D01*
X1124Y1389D01*
X1130Y1396D01*
X1135Y1404D01*
X1137Y1412D01*
D02*
G37*
G36*
X1097D02*
X1067D01*
X1070Y1404D01*
X1074Y1396D01*
X1081Y1389D01*
X1089Y1385D01*
X1097Y1382D01*
Y1412D01*
D02*
G37*
G36*
X3027D02*
X2997D01*
Y1382D01*
X2999Y1383D01*
X3002Y1379D01*
X3001Y1376D01*
X2998Y1367D01*
Y1357D01*
X3001Y1348D01*
X3006Y1340D01*
X3012Y1333D01*
X3020Y1329D01*
X3030Y1326D01*
X3039D01*
X3048Y1329D01*
X3056Y1333D01*
X3063Y1340D01*
X3068Y1348D01*
X3070Y1357D01*
Y1367D01*
X3068Y1376D01*
X3063Y1384D01*
X3056Y1391D01*
X3048Y1396D01*
X3039Y1398D01*
X3030D01*
X3027Y1397D01*
X3024Y1402D01*
X3025Y1404D01*
X3027Y1412D01*
D02*
G37*
G36*
X2449Y1398D02*
X2439D01*
X2430Y1396D01*
X2422Y1391D01*
X2415Y1384D01*
X2410Y1376D01*
X2408Y1367D01*
Y1357D01*
X2410Y1348D01*
X2415Y1340D01*
X2422Y1333D01*
X2430Y1329D01*
X2439Y1326D01*
X2449D01*
X2458Y1329D01*
X2466Y1333D01*
X2473Y1340D01*
X2477Y1348D01*
X2480Y1357D01*
Y1367D01*
X2477Y1376D01*
X2473Y1384D01*
X2466Y1391D01*
X2458Y1396D01*
X2449Y1398D01*
D02*
G37*
G36*
X2258Y1387D02*
X2249D01*
X2240Y1385D01*
X2232Y1380D01*
X2225Y1374D01*
X2220Y1366D01*
X2218Y1357D01*
Y1348D01*
X2220Y1339D01*
X2225Y1331D01*
X2232Y1324D01*
X2240Y1320D01*
X2249Y1317D01*
X2258D01*
X2267Y1320D01*
X2275Y1324D01*
X2281Y1331D01*
X2286Y1339D01*
X2288Y1348D01*
Y1357D01*
X2286Y1366D01*
X2281Y1374D01*
X2275Y1380D01*
X2267Y1385D01*
X2258Y1387D01*
D02*
G37*
G36*
X1903D02*
X1894D01*
X1885Y1385D01*
X1877Y1380D01*
X1871Y1374D01*
X1866Y1366D01*
X1864Y1357D01*
Y1348D01*
X1866Y1339D01*
X1871Y1331D01*
X1877Y1324D01*
X1885Y1320D01*
X1894Y1317D01*
X1903D01*
X1912Y1320D01*
X1920Y1324D01*
X1927Y1331D01*
X1931Y1339D01*
X1934Y1348D01*
Y1357D01*
X1931Y1366D01*
X1927Y1374D01*
X1920Y1380D01*
X1912Y1385D01*
X1903Y1387D01*
D02*
G37*
G36*
X3849Y1389D02*
X3761D01*
Y1301D01*
X3765D01*
X3783Y1305D01*
X3800Y1312D01*
X3815Y1322D01*
X3828Y1335D01*
X3838Y1350D01*
X3845Y1367D01*
X3849Y1385D01*
Y1389D01*
D02*
G37*
G36*
X3751D02*
X3664D01*
Y1385D01*
X3667Y1367D01*
X3674Y1350D01*
X3684Y1335D01*
X3697Y1322D01*
X3712Y1312D01*
X3729Y1305D01*
X3747Y1301D01*
X3751D01*
Y1389D01*
D02*
G37*
G36*
X1486D02*
X1399D01*
Y1301D01*
X1403D01*
X1421Y1305D01*
X1438Y1312D01*
X1453Y1322D01*
X1466Y1335D01*
X1476Y1350D01*
X1483Y1367D01*
X1486Y1385D01*
Y1389D01*
D02*
G37*
G36*
X1389D02*
X1301D01*
Y1385D01*
X1305Y1367D01*
X1312Y1350D01*
X1322Y1335D01*
X1335Y1322D01*
X1350Y1312D01*
X1367Y1305D01*
X1385Y1301D01*
X1389D01*
Y1389D01*
D02*
G37*
G36*
X2175Y1315D02*
X2140D01*
Y1280D01*
X2175D01*
Y1315D01*
D02*
G37*
G36*
X2130D02*
X2095D01*
Y1280D01*
X2130D01*
Y1315D01*
D02*
G37*
G36*
X2022D02*
X2022D01*
Y1280D01*
X2057D01*
Y1280D01*
X2054Y1290D01*
X2049Y1300D01*
X2041Y1307D01*
X2032Y1312D01*
X2022Y1315D01*
D02*
G37*
G36*
X2012D02*
X2012D01*
X2001Y1312D01*
X1992Y1307D01*
X1985Y1300D01*
X1980Y1290D01*
X1977Y1280D01*
Y1280D01*
X2012D01*
Y1315D01*
D02*
G37*
G36*
X4021Y1295D02*
Y1265D01*
X4051D01*
X4048Y1273D01*
X4044Y1281D01*
X4037Y1288D01*
X4029Y1292D01*
X4021Y1295D01*
D02*
G37*
G36*
X4011D02*
X4002Y1292D01*
X3994Y1288D01*
X3988Y1281D01*
X3983Y1273D01*
X3981Y1265D01*
X4011D01*
Y1295D01*
D02*
G37*
G36*
X3863D02*
Y1265D01*
X3893D01*
X3891Y1273D01*
X3886Y1281D01*
X3880Y1288D01*
X3872Y1292D01*
X3863Y1295D01*
D02*
G37*
G36*
X3853D02*
X3845Y1292D01*
X3837Y1288D01*
X3830Y1281D01*
X3826Y1273D01*
X3823Y1265D01*
X3853D01*
Y1295D01*
D02*
G37*
G36*
X3706D02*
Y1265D01*
X3736D01*
X3733Y1273D01*
X3729Y1281D01*
X3722Y1288D01*
X3714Y1292D01*
X3706Y1295D01*
D02*
G37*
G36*
X3696D02*
X3687Y1292D01*
X3679Y1288D01*
X3673Y1281D01*
X3668Y1273D01*
X3666Y1265D01*
X3696D01*
Y1295D01*
D02*
G37*
G36*
X3548D02*
Y1265D01*
X3578D01*
X3576Y1273D01*
X3571Y1281D01*
X3565Y1288D01*
X3557Y1292D01*
X3548Y1295D01*
D02*
G37*
G36*
X3538D02*
X3530Y1292D01*
X3522Y1288D01*
X3515Y1281D01*
X3511Y1273D01*
X3508Y1265D01*
X3538D01*
Y1295D01*
D02*
G37*
G36*
X3391D02*
Y1265D01*
X3421D01*
X3418Y1273D01*
X3414Y1281D01*
X3407Y1288D01*
X3399Y1292D01*
X3391Y1295D01*
D02*
G37*
G36*
X3381D02*
X3372Y1292D01*
X3364Y1288D01*
X3358Y1281D01*
X3353Y1273D01*
X3351Y1265D01*
X3381D01*
Y1295D01*
D02*
G37*
G36*
X3233D02*
Y1265D01*
X3263D01*
X3261Y1273D01*
X3256Y1281D01*
X3250Y1288D01*
X3242Y1292D01*
X3233Y1295D01*
D02*
G37*
G36*
X3223D02*
X3215Y1292D01*
X3207Y1288D01*
X3200Y1281D01*
X3196Y1273D01*
X3193Y1265D01*
X3223D01*
Y1295D01*
D02*
G37*
G36*
X3076D02*
Y1265D01*
X3106D01*
X3103Y1273D01*
X3099Y1281D01*
X3092Y1288D01*
X3084Y1292D01*
X3076Y1295D01*
D02*
G37*
G36*
X3066D02*
X3057Y1292D01*
X3049Y1288D01*
X3043Y1281D01*
X3038Y1273D01*
X3036Y1265D01*
X3066D01*
Y1295D01*
D02*
G37*
G36*
X2446D02*
Y1265D01*
X2476D01*
X2474Y1273D01*
X2469Y1281D01*
X2462Y1288D01*
X2454Y1292D01*
X2446Y1295D01*
D02*
G37*
G36*
X2436D02*
X2427Y1292D01*
X2419Y1288D01*
X2413Y1281D01*
X2408Y1273D01*
X2406Y1265D01*
X2436D01*
Y1295D01*
D02*
G37*
G36*
X2288D02*
Y1265D01*
X2318D01*
X2316Y1273D01*
X2311Y1281D01*
X2305Y1288D01*
X2297Y1292D01*
X2288Y1295D01*
D02*
G37*
G36*
X2278D02*
X2270Y1292D01*
X2262Y1288D01*
X2255Y1281D01*
X2251Y1273D01*
X2249Y1265D01*
X2278D01*
Y1295D01*
D02*
G37*
G36*
X1816D02*
Y1265D01*
X1846D01*
X1844Y1273D01*
X1839Y1281D01*
X1833Y1288D01*
X1825Y1292D01*
X1816Y1295D01*
D02*
G37*
G36*
X1806D02*
X1798Y1292D01*
X1790Y1288D01*
X1783Y1281D01*
X1778Y1273D01*
X1776Y1265D01*
X1806D01*
Y1295D01*
D02*
G37*
G36*
X1659D02*
Y1265D01*
X1688D01*
X1686Y1273D01*
X1682Y1281D01*
X1675Y1288D01*
X1667Y1292D01*
X1659Y1295D01*
D02*
G37*
G36*
X1649D02*
X1640Y1292D01*
X1632Y1288D01*
X1626Y1281D01*
X1621Y1273D01*
X1619Y1265D01*
X1649D01*
Y1295D01*
D02*
G37*
G36*
X1501D02*
Y1265D01*
X1531D01*
X1529Y1273D01*
X1524Y1281D01*
X1518Y1288D01*
X1510Y1292D01*
X1501Y1295D01*
D02*
G37*
G36*
X1491D02*
X1483Y1292D01*
X1475Y1288D01*
X1468Y1281D01*
X1463Y1273D01*
X1461Y1265D01*
X1491D01*
Y1295D01*
D02*
G37*
G36*
X1344D02*
Y1265D01*
X1373D01*
X1371Y1273D01*
X1367Y1281D01*
X1360Y1288D01*
X1352Y1292D01*
X1344Y1295D01*
D02*
G37*
G36*
X1334D02*
X1325Y1292D01*
X1317Y1288D01*
X1311Y1281D01*
X1306Y1273D01*
X1304Y1265D01*
X1334D01*
Y1295D01*
D02*
G37*
G36*
X1186D02*
Y1265D01*
X1216D01*
X1214Y1273D01*
X1209Y1281D01*
X1203Y1288D01*
X1195Y1292D01*
X1186Y1295D01*
D02*
G37*
G36*
X1176D02*
X1168Y1292D01*
X1160Y1288D01*
X1153Y1281D01*
X1148Y1273D01*
X1146Y1265D01*
X1176D01*
Y1295D01*
D02*
G37*
G36*
X2922Y1327D02*
X2911D01*
X2900Y1324D01*
X2891Y1318D01*
X2883Y1311D01*
X2877Y1301D01*
X2875Y1290D01*
Y1280D01*
X2877Y1269D01*
X2883Y1259D01*
X2891Y1252D01*
X2900Y1246D01*
X2911Y1243D01*
X2922D01*
X2932Y1246D01*
X2942Y1252D01*
X2950Y1259D01*
X2955Y1269D01*
X2958Y1280D01*
Y1290D01*
X2955Y1301D01*
X2950Y1311D01*
X2942Y1318D01*
X2932Y1324D01*
X2922Y1327D01*
D02*
G37*
G36*
X2804D02*
X2793D01*
X2782Y1324D01*
X2773Y1318D01*
X2765Y1311D01*
X2759Y1301D01*
X2757Y1290D01*
Y1280D01*
X2759Y1269D01*
X2765Y1259D01*
X2773Y1252D01*
X2782Y1246D01*
X2793Y1243D01*
X2804D01*
X2814Y1246D01*
X2824Y1252D01*
X2831Y1259D01*
X2837Y1269D01*
X2840Y1280D01*
Y1290D01*
X2837Y1301D01*
X2831Y1311D01*
X2824Y1318D01*
X2814Y1324D01*
X2804Y1327D01*
D02*
G37*
G36*
X2685D02*
X2675D01*
X2664Y1324D01*
X2654Y1318D01*
X2647Y1311D01*
X2641Y1301D01*
X2638Y1290D01*
Y1280D01*
X2641Y1269D01*
X2647Y1259D01*
X2654Y1252D01*
X2664Y1246D01*
X2675Y1243D01*
X2685D01*
X2696Y1246D01*
X2706Y1252D01*
X2713Y1259D01*
X2719Y1269D01*
X2722Y1280D01*
Y1290D01*
X2719Y1301D01*
X2713Y1311D01*
X2706Y1318D01*
X2696Y1324D01*
X2685Y1327D01*
D02*
G37*
G36*
X2603D02*
X2520D01*
Y1243D01*
X2603D01*
Y1327D01*
D02*
G37*
G36*
X2175Y1270D02*
X2140D01*
Y1235D01*
X2175D01*
Y1270D01*
D02*
G37*
G36*
X2130D02*
X2095D01*
Y1235D01*
X2130D01*
Y1270D01*
D02*
G37*
G36*
X2057D02*
X2022D01*
Y1235D01*
X2022D01*
X2032Y1238D01*
X2041Y1243D01*
X2049Y1250D01*
X2054Y1260D01*
X2057Y1270D01*
Y1270D01*
D02*
G37*
G36*
X2012D02*
X1977D01*
Y1270D01*
X1980Y1260D01*
X1985Y1250D01*
X1992Y1243D01*
X2001Y1238D01*
X2012Y1235D01*
X2012D01*
Y1270D01*
D02*
G37*
G36*
X4051Y1255D02*
X4021D01*
Y1225D01*
X4029Y1227D01*
X4037Y1232D01*
X4044Y1238D01*
X4048Y1246D01*
X4051Y1255D01*
D02*
G37*
G36*
X4011D02*
X3981D01*
X3983Y1246D01*
X3988Y1238D01*
X3994Y1232D01*
X4002Y1227D01*
X4011Y1225D01*
Y1255D01*
D02*
G37*
G36*
X3893D02*
X3863D01*
Y1225D01*
X3872Y1227D01*
X3880Y1232D01*
X3886Y1238D01*
X3891Y1246D01*
X3893Y1255D01*
D02*
G37*
G36*
X3853D02*
X3823D01*
X3826Y1246D01*
X3830Y1238D01*
X3837Y1232D01*
X3845Y1227D01*
X3853Y1225D01*
Y1255D01*
D02*
G37*
G36*
X3736D02*
X3706D01*
Y1225D01*
X3714Y1227D01*
X3722Y1232D01*
X3729Y1238D01*
X3733Y1246D01*
X3736Y1255D01*
D02*
G37*
G36*
X3696D02*
X3666D01*
X3668Y1246D01*
X3673Y1238D01*
X3679Y1232D01*
X3687Y1227D01*
X3696Y1225D01*
Y1255D01*
D02*
G37*
G36*
X3578D02*
X3548D01*
Y1225D01*
X3557Y1227D01*
X3565Y1232D01*
X3571Y1238D01*
X3576Y1246D01*
X3578Y1255D01*
D02*
G37*
G36*
X3538D02*
X3508D01*
X3511Y1246D01*
X3515Y1238D01*
X3522Y1232D01*
X3530Y1227D01*
X3538Y1225D01*
Y1255D01*
D02*
G37*
G36*
X3421D02*
X3391D01*
Y1225D01*
X3399Y1227D01*
X3407Y1232D01*
X3414Y1238D01*
X3418Y1246D01*
X3421Y1255D01*
D02*
G37*
G36*
X3381D02*
X3351D01*
X3353Y1246D01*
X3358Y1238D01*
X3364Y1232D01*
X3372Y1227D01*
X3381Y1225D01*
Y1255D01*
D02*
G37*
G36*
X3263D02*
X3233D01*
Y1225D01*
X3242Y1227D01*
X3250Y1232D01*
X3256Y1238D01*
X3261Y1246D01*
X3263Y1255D01*
D02*
G37*
G36*
X3223D02*
X3193D01*
X3196Y1246D01*
X3200Y1238D01*
X3207Y1232D01*
X3215Y1227D01*
X3223Y1225D01*
Y1255D01*
D02*
G37*
G36*
X3106D02*
X3076D01*
Y1225D01*
X3084Y1227D01*
X3092Y1232D01*
X3099Y1238D01*
X3103Y1246D01*
X3106Y1255D01*
D02*
G37*
G36*
X3066D02*
X3036D01*
X3038Y1246D01*
X3043Y1238D01*
X3049Y1232D01*
X3057Y1227D01*
X3066Y1225D01*
Y1255D01*
D02*
G37*
G36*
X2476D02*
X2446D01*
Y1225D01*
X2454Y1227D01*
X2462Y1232D01*
X2469Y1238D01*
X2474Y1246D01*
X2476Y1255D01*
D02*
G37*
G36*
X2436D02*
X2406D01*
X2408Y1246D01*
X2413Y1238D01*
X2419Y1232D01*
X2427Y1227D01*
X2436Y1225D01*
Y1255D01*
D02*
G37*
G36*
X2318D02*
X2288D01*
Y1225D01*
X2297Y1227D01*
X2305Y1232D01*
X2311Y1238D01*
X2316Y1246D01*
X2318Y1255D01*
D02*
G37*
G36*
X2278D02*
X2249D01*
X2251Y1246D01*
X2255Y1238D01*
X2262Y1232D01*
X2270Y1227D01*
X2278Y1225D01*
Y1255D01*
D02*
G37*
G36*
X1846D02*
X1816D01*
Y1225D01*
X1825Y1227D01*
X1833Y1232D01*
X1839Y1238D01*
X1844Y1246D01*
X1846Y1255D01*
D02*
G37*
G36*
X1806D02*
X1776D01*
X1778Y1246D01*
X1783Y1238D01*
X1790Y1232D01*
X1798Y1227D01*
X1806Y1225D01*
Y1255D01*
D02*
G37*
G36*
X1688D02*
X1659D01*
Y1225D01*
X1667Y1227D01*
X1675Y1232D01*
X1682Y1238D01*
X1686Y1246D01*
X1688Y1255D01*
D02*
G37*
G36*
X1649D02*
X1619D01*
X1621Y1246D01*
X1626Y1238D01*
X1632Y1232D01*
X1640Y1227D01*
X1649Y1225D01*
Y1255D01*
D02*
G37*
G36*
X1531D02*
X1501D01*
Y1225D01*
X1510Y1227D01*
X1518Y1232D01*
X1524Y1238D01*
X1529Y1246D01*
X1531Y1255D01*
D02*
G37*
G36*
X1491D02*
X1461D01*
X1463Y1246D01*
X1468Y1238D01*
X1475Y1232D01*
X1483Y1227D01*
X1491Y1225D01*
Y1255D01*
D02*
G37*
G36*
X1373D02*
X1344D01*
Y1225D01*
X1352Y1227D01*
X1360Y1232D01*
X1367Y1238D01*
X1371Y1246D01*
X1373Y1255D01*
D02*
G37*
G36*
X1334D02*
X1304D01*
X1306Y1246D01*
X1311Y1238D01*
X1317Y1232D01*
X1325Y1227D01*
X1334Y1225D01*
Y1255D01*
D02*
G37*
G36*
X1216D02*
X1186D01*
Y1225D01*
X1195Y1227D01*
X1203Y1232D01*
X1209Y1238D01*
X1214Y1246D01*
X1216Y1255D01*
D02*
G37*
G36*
X1176D02*
X1146D01*
X1148Y1246D01*
X1153Y1238D01*
X1160Y1232D01*
X1168Y1227D01*
X1176Y1225D01*
Y1255D01*
D02*
G37*
G36*
X3942Y1137D02*
Y1107D01*
X3972D01*
X3970Y1116D01*
X3965Y1124D01*
X3958Y1130D01*
X3951Y1135D01*
X3942Y1137D01*
D02*
G37*
G36*
X3932D02*
X3923Y1135D01*
X3916Y1130D01*
X3909Y1124D01*
X3904Y1116D01*
X3902Y1107D01*
X3932D01*
Y1137D01*
D02*
G37*
G36*
X3785D02*
Y1107D01*
X3814D01*
X3812Y1116D01*
X3808Y1124D01*
X3801Y1130D01*
X3793Y1135D01*
X3785Y1137D01*
D02*
G37*
G36*
X3775D02*
X3766Y1135D01*
X3758Y1130D01*
X3752Y1124D01*
X3747Y1116D01*
X3745Y1107D01*
X3775D01*
Y1137D01*
D02*
G37*
G36*
X3627D02*
Y1107D01*
X3657D01*
X3655Y1116D01*
X3650Y1124D01*
X3644Y1130D01*
X3636Y1135D01*
X3627Y1137D01*
D02*
G37*
G36*
X3617D02*
X3609Y1135D01*
X3601Y1130D01*
X3594Y1124D01*
X3589Y1116D01*
X3587Y1107D01*
X3617D01*
Y1137D01*
D02*
G37*
G36*
X3470D02*
Y1107D01*
X3499D01*
X3497Y1116D01*
X3493Y1124D01*
X3486Y1130D01*
X3478Y1135D01*
X3470Y1137D01*
D02*
G37*
G36*
X3460D02*
X3451Y1135D01*
X3443Y1130D01*
X3437Y1124D01*
X3432Y1116D01*
X3430Y1107D01*
X3460D01*
Y1137D01*
D02*
G37*
G36*
X3312D02*
Y1107D01*
X3342D01*
X3340Y1116D01*
X3335Y1124D01*
X3329Y1130D01*
X3321Y1135D01*
X3312Y1137D01*
D02*
G37*
G36*
X3302D02*
X3294Y1135D01*
X3286Y1130D01*
X3279Y1124D01*
X3274Y1116D01*
X3272Y1107D01*
X3302D01*
Y1137D01*
D02*
G37*
G36*
X3155D02*
Y1107D01*
X3185D01*
X3182Y1116D01*
X3178Y1124D01*
X3171Y1130D01*
X3163Y1135D01*
X3155Y1137D01*
D02*
G37*
G36*
X3145D02*
X3136Y1135D01*
X3128Y1130D01*
X3122Y1124D01*
X3117Y1116D01*
X3115Y1107D01*
X3145D01*
Y1137D01*
D02*
G37*
G36*
X2997D02*
Y1107D01*
X3027D01*
X3025Y1116D01*
X3020Y1124D01*
X3014Y1130D01*
X3006Y1135D01*
X2997Y1137D01*
D02*
G37*
G36*
X2987D02*
X2979Y1135D01*
X2971Y1130D01*
X2964Y1124D01*
X2960Y1116D01*
X2957Y1107D01*
X2987D01*
Y1137D01*
D02*
G37*
G36*
X2840D02*
Y1107D01*
X2870D01*
X2867Y1116D01*
X2863Y1124D01*
X2856Y1130D01*
X2848Y1135D01*
X2840Y1137D01*
D02*
G37*
G36*
X2830D02*
X2821Y1135D01*
X2813Y1130D01*
X2807Y1124D01*
X2802Y1116D01*
X2800Y1107D01*
X2830D01*
Y1137D01*
D02*
G37*
G36*
X2682D02*
Y1107D01*
X2712D01*
X2710Y1116D01*
X2705Y1124D01*
X2699Y1130D01*
X2691Y1135D01*
X2682Y1137D01*
D02*
G37*
G36*
X2672D02*
X2664Y1135D01*
X2656Y1130D01*
X2649Y1124D01*
X2645Y1116D01*
X2642Y1107D01*
X2672D01*
Y1137D01*
D02*
G37*
G36*
X2525D02*
Y1107D01*
X2555D01*
X2552Y1116D01*
X2548Y1124D01*
X2541Y1130D01*
X2533Y1135D01*
X2525Y1137D01*
D02*
G37*
G36*
X2515D02*
X2506Y1135D01*
X2498Y1130D01*
X2492Y1124D01*
X2487Y1116D01*
X2485Y1107D01*
X2515D01*
Y1137D01*
D02*
G37*
G36*
X2367D02*
Y1107D01*
X2397D01*
X2395Y1116D01*
X2390Y1124D01*
X2384Y1130D01*
X2376Y1135D01*
X2367Y1137D01*
D02*
G37*
G36*
X2357D02*
X2349Y1135D01*
X2341Y1130D01*
X2334Y1124D01*
X2330Y1116D01*
X2327Y1107D01*
X2357D01*
Y1137D01*
D02*
G37*
G36*
X2210D02*
Y1107D01*
X2240D01*
X2237Y1116D01*
X2233Y1124D01*
X2226Y1130D01*
X2218Y1135D01*
X2210Y1137D01*
D02*
G37*
G36*
X2200D02*
X2191Y1135D01*
X2183Y1130D01*
X2177Y1124D01*
X2172Y1116D01*
X2170Y1107D01*
X2200D01*
Y1137D01*
D02*
G37*
G36*
X2052D02*
Y1107D01*
X2082D01*
X2080Y1116D01*
X2075Y1124D01*
X2069Y1130D01*
X2061Y1135D01*
X2052Y1137D01*
D02*
G37*
G36*
X2042D02*
X2034Y1135D01*
X2026Y1130D01*
X2019Y1124D01*
X2015Y1116D01*
X2012Y1107D01*
X2042D01*
Y1137D01*
D02*
G37*
G36*
X1895D02*
Y1107D01*
X1925D01*
X1922Y1116D01*
X1918Y1124D01*
X1911Y1130D01*
X1903Y1135D01*
X1895Y1137D01*
D02*
G37*
G36*
X1885D02*
X1876Y1135D01*
X1868Y1130D01*
X1862Y1124D01*
X1857Y1116D01*
X1855Y1107D01*
X1885D01*
Y1137D01*
D02*
G37*
G36*
X1737D02*
Y1107D01*
X1767D01*
X1765Y1116D01*
X1760Y1124D01*
X1754Y1130D01*
X1746Y1135D01*
X1737Y1137D01*
D02*
G37*
G36*
X1727D02*
X1719Y1135D01*
X1711Y1130D01*
X1704Y1124D01*
X1700Y1116D01*
X1697Y1107D01*
X1727D01*
Y1137D01*
D02*
G37*
G36*
X1580D02*
Y1107D01*
X1610D01*
X1607Y1116D01*
X1603Y1124D01*
X1596Y1130D01*
X1588Y1135D01*
X1580Y1137D01*
D02*
G37*
G36*
X1570D02*
X1561Y1135D01*
X1553Y1130D01*
X1547Y1124D01*
X1542Y1116D01*
X1540Y1107D01*
X1570D01*
Y1137D01*
D02*
G37*
G36*
X1422D02*
Y1107D01*
X1452D01*
X1450Y1116D01*
X1445Y1124D01*
X1439Y1130D01*
X1431Y1135D01*
X1422Y1137D01*
D02*
G37*
G36*
X1412D02*
X1404Y1135D01*
X1396Y1130D01*
X1389Y1124D01*
X1385Y1116D01*
X1382Y1107D01*
X1412D01*
Y1137D01*
D02*
G37*
G36*
X1265D02*
Y1107D01*
X1295D01*
X1292Y1116D01*
X1288Y1124D01*
X1281Y1130D01*
X1273Y1135D01*
X1265Y1137D01*
D02*
G37*
G36*
X1255D02*
X1246Y1135D01*
X1238Y1130D01*
X1232Y1124D01*
X1227Y1116D01*
X1225Y1107D01*
X1255D01*
Y1137D01*
D02*
G37*
G36*
X1107D02*
Y1107D01*
X1137D01*
X1135Y1116D01*
X1130Y1124D01*
X1124Y1130D01*
X1116Y1135D01*
X1107Y1137D01*
D02*
G37*
G36*
X1097D02*
X1089Y1135D01*
X1081Y1130D01*
X1074Y1124D01*
X1070Y1116D01*
X1067Y1107D01*
X1097D01*
Y1137D01*
D02*
G37*
G36*
X3972Y1097D02*
X3942D01*
Y1067D01*
X3951Y1070D01*
X3958Y1074D01*
X3965Y1081D01*
X3970Y1089D01*
X3972Y1097D01*
D02*
G37*
G36*
X3932D02*
X3902D01*
X3904Y1089D01*
X3909Y1081D01*
X3916Y1074D01*
X3923Y1070D01*
X3932Y1067D01*
Y1097D01*
D02*
G37*
G36*
X3814D02*
X3785D01*
Y1067D01*
X3793Y1070D01*
X3801Y1074D01*
X3808Y1081D01*
X3812Y1089D01*
X3814Y1097D01*
D02*
G37*
G36*
X3775D02*
X3745D01*
X3747Y1089D01*
X3752Y1081D01*
X3758Y1074D01*
X3766Y1070D01*
X3775Y1067D01*
Y1097D01*
D02*
G37*
G36*
X3657D02*
X3627D01*
Y1067D01*
X3636Y1070D01*
X3644Y1074D01*
X3650Y1081D01*
X3655Y1089D01*
X3657Y1097D01*
D02*
G37*
G36*
X3617D02*
X3587D01*
X3589Y1089D01*
X3594Y1081D01*
X3601Y1074D01*
X3609Y1070D01*
X3617Y1067D01*
Y1097D01*
D02*
G37*
G36*
X3499D02*
X3470D01*
Y1067D01*
X3478Y1070D01*
X3486Y1074D01*
X3493Y1081D01*
X3497Y1089D01*
X3499Y1097D01*
D02*
G37*
G36*
X3460D02*
X3430D01*
X3432Y1089D01*
X3437Y1081D01*
X3443Y1074D01*
X3451Y1070D01*
X3460Y1067D01*
Y1097D01*
D02*
G37*
G36*
X3342D02*
X3312D01*
Y1067D01*
X3321Y1070D01*
X3329Y1074D01*
X3335Y1081D01*
X3340Y1089D01*
X3342Y1097D01*
D02*
G37*
G36*
X3302D02*
X3272D01*
X3274Y1089D01*
X3279Y1081D01*
X3286Y1074D01*
X3294Y1070D01*
X3302Y1067D01*
Y1097D01*
D02*
G37*
G36*
X3185D02*
X3155D01*
Y1067D01*
X3163Y1070D01*
X3171Y1074D01*
X3178Y1081D01*
X3182Y1089D01*
X3185Y1097D01*
D02*
G37*
G36*
X3145D02*
X3115D01*
X3117Y1089D01*
X3122Y1081D01*
X3128Y1074D01*
X3136Y1070D01*
X3145Y1067D01*
Y1097D01*
D02*
G37*
G36*
X3027D02*
X2997D01*
Y1067D01*
X3006Y1070D01*
X3014Y1074D01*
X3020Y1081D01*
X3025Y1089D01*
X3027Y1097D01*
D02*
G37*
G36*
X2987D02*
X2957D01*
X2960Y1089D01*
X2964Y1081D01*
X2971Y1074D01*
X2979Y1070D01*
X2987Y1067D01*
Y1097D01*
D02*
G37*
G36*
X2870D02*
X2840D01*
Y1067D01*
X2848Y1070D01*
X2856Y1074D01*
X2863Y1081D01*
X2867Y1089D01*
X2870Y1097D01*
D02*
G37*
G36*
X2830D02*
X2800D01*
X2802Y1089D01*
X2807Y1081D01*
X2813Y1074D01*
X2821Y1070D01*
X2830Y1067D01*
Y1097D01*
D02*
G37*
G36*
X2712D02*
X2682D01*
Y1067D01*
X2691Y1070D01*
X2699Y1074D01*
X2705Y1081D01*
X2710Y1089D01*
X2712Y1097D01*
D02*
G37*
G36*
X2672D02*
X2642D01*
X2645Y1089D01*
X2649Y1081D01*
X2656Y1074D01*
X2664Y1070D01*
X2672Y1067D01*
Y1097D01*
D02*
G37*
G36*
X2555D02*
X2525D01*
Y1067D01*
X2533Y1070D01*
X2541Y1074D01*
X2548Y1081D01*
X2552Y1089D01*
X2555Y1097D01*
D02*
G37*
G36*
X2515D02*
X2485D01*
X2487Y1089D01*
X2492Y1081D01*
X2498Y1074D01*
X2506Y1070D01*
X2515Y1067D01*
Y1097D01*
D02*
G37*
G36*
X2397D02*
X2367D01*
Y1067D01*
X2376Y1070D01*
X2384Y1074D01*
X2390Y1081D01*
X2395Y1089D01*
X2397Y1097D01*
D02*
G37*
G36*
X2357D02*
X2327D01*
X2330Y1089D01*
X2334Y1081D01*
X2341Y1074D01*
X2349Y1070D01*
X2357Y1067D01*
Y1097D01*
D02*
G37*
G36*
X2240D02*
X2210D01*
Y1067D01*
X2218Y1070D01*
X2226Y1074D01*
X2233Y1081D01*
X2237Y1089D01*
X2240Y1097D01*
D02*
G37*
G36*
X2200D02*
X2170D01*
X2172Y1089D01*
X2177Y1081D01*
X2183Y1074D01*
X2191Y1070D01*
X2200Y1067D01*
Y1097D01*
D02*
G37*
G36*
X2082D02*
X2052D01*
Y1067D01*
X2061Y1070D01*
X2069Y1074D01*
X2075Y1081D01*
X2080Y1089D01*
X2082Y1097D01*
D02*
G37*
G36*
X2042D02*
X2012D01*
X2015Y1089D01*
X2019Y1081D01*
X2026Y1074D01*
X2034Y1070D01*
X2042Y1067D01*
Y1097D01*
D02*
G37*
G36*
X1925D02*
X1895D01*
Y1067D01*
X1903Y1070D01*
X1911Y1074D01*
X1918Y1081D01*
X1922Y1089D01*
X1925Y1097D01*
D02*
G37*
G36*
X1885D02*
X1855D01*
X1857Y1089D01*
X1862Y1081D01*
X1868Y1074D01*
X1876Y1070D01*
X1885Y1067D01*
Y1097D01*
D02*
G37*
G36*
X1767D02*
X1737D01*
Y1067D01*
X1746Y1070D01*
X1754Y1074D01*
X1760Y1081D01*
X1765Y1089D01*
X1767Y1097D01*
D02*
G37*
G36*
X1727D02*
X1697D01*
X1700Y1089D01*
X1704Y1081D01*
X1711Y1074D01*
X1719Y1070D01*
X1727Y1067D01*
Y1097D01*
D02*
G37*
G36*
X1610D02*
X1580D01*
Y1067D01*
X1588Y1070D01*
X1596Y1074D01*
X1603Y1081D01*
X1607Y1089D01*
X1610Y1097D01*
D02*
G37*
G36*
X1570D02*
X1540D01*
X1542Y1089D01*
X1547Y1081D01*
X1553Y1074D01*
X1561Y1070D01*
X1570Y1067D01*
Y1097D01*
D02*
G37*
G36*
X1452D02*
X1422D01*
Y1067D01*
X1431Y1070D01*
X1439Y1074D01*
X1445Y1081D01*
X1450Y1089D01*
X1452Y1097D01*
D02*
G37*
G36*
X1412D02*
X1382D01*
X1385Y1089D01*
X1389Y1081D01*
X1396Y1074D01*
X1404Y1070D01*
X1412Y1067D01*
Y1097D01*
D02*
G37*
G36*
X1295D02*
X1265D01*
Y1067D01*
X1273Y1070D01*
X1281Y1074D01*
X1288Y1081D01*
X1292Y1089D01*
X1295Y1097D01*
D02*
G37*
G36*
X1255D02*
X1225D01*
X1227Y1089D01*
X1232Y1081D01*
X1238Y1074D01*
X1246Y1070D01*
X1255Y1067D01*
Y1097D01*
D02*
G37*
G36*
X1137D02*
X1107D01*
Y1067D01*
X1116Y1070D01*
X1124Y1074D01*
X1130Y1081D01*
X1135Y1089D01*
X1137Y1097D01*
D02*
G37*
G36*
X1097D02*
X1067D01*
X1070Y1089D01*
X1074Y1081D01*
X1081Y1074D01*
X1089Y1070D01*
X1097Y1067D01*
Y1097D01*
D02*
G37*
%LPD*%
G36*
X2150Y3430D02*
X2146Y3430D01*
X2140Y3429D01*
X2137Y3429D01*
X2135Y3428D01*
X2133Y3428D01*
X2131Y3427D01*
X2129Y3426D01*
X2127Y3425D01*
X2126Y3424D01*
X2119Y3431D01*
X2120Y3432D01*
X2121Y3434D01*
X2122Y3436D01*
X2123Y3438D01*
X2123Y3440D01*
X2124Y3442D01*
X2124Y3445D01*
X2125Y3448D01*
X2125Y3455D01*
X2150Y3430D01*
D02*
G37*
G36*
X2116Y3392D02*
X2115Y3390D01*
Y3380D01*
X2117Y3371D01*
X2122Y3364D01*
X2129Y3357D01*
X2135Y3353D01*
Y3221D01*
X1955Y3042D01*
X1950Y3044D01*
Y3050D01*
X1948Y3057D01*
X2063Y3171D01*
X2066Y3176D01*
X2067Y3182D01*
Y3351D01*
X2111Y3395D01*
X2116Y3392D01*
D02*
G37*
G36*
X1330Y2571D02*
X1330Y2570D01*
X1331Y2569D01*
X1331Y2569D01*
X1332Y2568D01*
X1333Y2568D01*
X1335Y2567D01*
X1336Y2567D01*
X1338Y2567D01*
X1340Y2567D01*
Y2557D01*
X1338Y2557D01*
X1336Y2557D01*
X1335Y2556D01*
X1333Y2556D01*
X1332Y2556D01*
X1331Y2555D01*
X1331Y2554D01*
X1330Y2554D01*
X1330Y2553D01*
X1330Y2552D01*
Y2572D01*
X1330Y2571D01*
D02*
G37*
D27*
X1300Y2562D02*
X1387D01*
X1445Y2620D02*
Y2761D01*
X1387Y2562D02*
X1445Y2620D01*
Y2761D02*
X1733Y3050D01*
X3575Y3641D02*
X3595Y3621D01*
X3575Y3641D02*
Y3900D01*
X3595Y3610D02*
Y3621D01*
X1733Y3168D02*
X2150Y3585D01*
X1733Y3050D02*
Y3168D01*
X1300Y2562D02*
X1325Y2587D01*
X1300Y2810D02*
X2150Y3660D01*
X1300Y2680D02*
Y2810D01*
X2150Y3215D02*
Y3385D01*
X1915Y2980D02*
X2150Y3215D01*
X2052Y3182D02*
Y3357D01*
X2150Y3455D01*
X1915Y3045D02*
X2052Y3182D01*
X2032Y3227D02*
Y3402D01*
X2150Y3520D01*
X1915Y3110D02*
X2032Y3227D01*
D28*
X2099Y2416D02*
D03*
X1701D02*
D03*
X2099Y2814D02*
D03*
X1701D02*
D03*
D29*
X1900Y2615D02*
D03*
D30*
X3913Y2087D02*
D03*
X3915Y2846D02*
D03*
D31*
X3913Y1969D02*
D03*
Y1851D02*
D03*
Y1733D02*
D03*
X3915Y2728D02*
D03*
Y2610D02*
D03*
Y2492D02*
D03*
X2916Y1285D02*
D03*
X2798D02*
D03*
X2680D02*
D03*
D32*
X3990Y1614D02*
D03*
Y2205D02*
D03*
X3992Y2374D02*
D03*
Y2964D02*
D03*
X2444Y1362D02*
D03*
X3034D02*
D03*
D33*
X1377Y2798D02*
D03*
Y2444D02*
D03*
X1899Y1352D02*
D03*
X2253D02*
D03*
X1382Y3391D02*
D03*
Y3037D02*
D03*
X1372Y2211D02*
D03*
Y1857D02*
D03*
D34*
X1300Y2680D02*
D03*
X2017Y1275D02*
D03*
X1305Y3273D02*
D03*
X1295Y2093D02*
D03*
D35*
X1300Y2562D02*
D03*
X1305Y3155D02*
D03*
X1295Y1975D02*
D03*
D36*
X2135Y1275D02*
D03*
D37*
X2562Y1285D02*
D03*
D38*
X3060Y3140D02*
D03*
D39*
X2960D02*
D03*
D40*
X2047Y1417D02*
D03*
X2205D02*
D03*
X2283Y1260D02*
D03*
X2205Y1102D02*
D03*
X2047D02*
D03*
X1890D02*
D03*
X1811Y1260D02*
D03*
X3937Y3937D02*
D03*
X4016Y3780D02*
D03*
X3937Y3622D02*
D03*
X4016Y3465D02*
D03*
X3937Y1417D02*
D03*
X4016Y1260D02*
D03*
X3937Y1102D02*
D03*
X3780Y3937D02*
D03*
Y3622D02*
D03*
X3858Y3150D02*
D03*
X3780Y2677D02*
D03*
Y2362D02*
D03*
X3858Y2205D02*
D03*
X3780Y1732D02*
D03*
X3858Y1575D02*
D03*
Y1260D02*
D03*
X3780Y1102D02*
D03*
X3701Y3150D02*
D03*
X3622Y2992D02*
D03*
X3701Y2835D02*
D03*
X3622Y2677D02*
D03*
X3701Y2520D02*
D03*
X3622Y2362D02*
D03*
Y2047D02*
D03*
X3701Y1890D02*
D03*
X3622Y1732D02*
D03*
X3701Y1575D02*
D03*
X3622Y1417D02*
D03*
X3701Y1260D02*
D03*
X3622Y1102D02*
D03*
X3543Y3150D02*
D03*
X3465Y2992D02*
D03*
X3543Y2835D02*
D03*
Y2520D02*
D03*
X3465Y2047D02*
D03*
X3543Y1890D02*
D03*
X3465Y1732D02*
D03*
X3543Y1575D02*
D03*
X3465Y1417D02*
D03*
X3543Y1260D02*
D03*
X3465Y1102D02*
D03*
X3307Y3937D02*
D03*
X3386Y3150D02*
D03*
X3307Y2992D02*
D03*
Y2677D02*
D03*
Y2362D02*
D03*
X3386Y2205D02*
D03*
X3307Y2047D02*
D03*
X3386Y1890D02*
D03*
X3307Y1732D02*
D03*
X3386Y1575D02*
D03*
X3307Y1417D02*
D03*
X3386Y1260D02*
D03*
X3307Y1102D02*
D03*
X3228Y3780D02*
D03*
X3150Y3307D02*
D03*
Y2992D02*
D03*
X3228Y2835D02*
D03*
X3150Y2677D02*
D03*
X3228Y2520D02*
D03*
X3150Y2362D02*
D03*
X3228Y2205D02*
D03*
X3150Y2047D02*
D03*
X3228Y1890D02*
D03*
X3150Y1732D02*
D03*
X3228Y1575D02*
D03*
X3150Y1417D02*
D03*
X3228Y1260D02*
D03*
X3150Y1102D02*
D03*
X2992Y2992D02*
D03*
X3071Y2835D02*
D03*
X2992Y2677D02*
D03*
X3071Y2520D02*
D03*
X2992Y2362D02*
D03*
X3071Y2205D02*
D03*
X2992Y2047D02*
D03*
X3071Y1890D02*
D03*
X2992Y1732D02*
D03*
X3071Y1575D02*
D03*
X2992Y1417D02*
D03*
X3071Y1260D02*
D03*
X2992Y1102D02*
D03*
X2913Y2835D02*
D03*
Y2520D02*
D03*
X2835Y1102D02*
D03*
X2677Y2992D02*
D03*
Y2677D02*
D03*
Y2362D02*
D03*
X2756Y2205D02*
D03*
X2677Y2047D02*
D03*
X2756Y1890D02*
D03*
X2677Y1732D02*
D03*
X2756Y1575D02*
D03*
X2677Y1417D02*
D03*
Y1102D02*
D03*
X2598Y3150D02*
D03*
X2520Y2992D02*
D03*
X2598Y2835D02*
D03*
X2520Y2677D02*
D03*
X2598Y2520D02*
D03*
Y2205D02*
D03*
X2520Y2047D02*
D03*
X2598Y1890D02*
D03*
X2520Y1732D02*
D03*
X2598Y1575D02*
D03*
X2520Y1102D02*
D03*
X2362Y2992D02*
D03*
Y2677D02*
D03*
Y2362D02*
D03*
X2441Y2205D02*
D03*
X2362Y2047D02*
D03*
X2441Y1890D02*
D03*
X2362Y1732D02*
D03*
Y1417D02*
D03*
X2441Y1260D02*
D03*
X2362Y1102D02*
D03*
X2283Y1575D02*
D03*
X2047Y3622D02*
D03*
Y2677D02*
D03*
X2126Y2520D02*
D03*
Y2205D02*
D03*
X2047Y2047D02*
D03*
X2126Y1890D02*
D03*
X2047Y1732D02*
D03*
X2126Y1575D02*
D03*
X1969Y2835D02*
D03*
Y2520D02*
D03*
X1890Y2362D02*
D03*
X1969Y1890D02*
D03*
X1890Y1732D02*
D03*
X1969Y1575D02*
D03*
X1732Y3937D02*
D03*
X1811Y3780D02*
D03*
X1732Y3622D02*
D03*
Y3307D02*
D03*
X1811Y2835D02*
D03*
X1732Y2677D02*
D03*
X1811Y2520D02*
D03*
Y2205D02*
D03*
X1732Y2047D02*
D03*
X1811Y1890D02*
D03*
X1732Y1732D02*
D03*
X1811Y1575D02*
D03*
X1732Y1417D02*
D03*
Y1102D02*
D03*
X1575Y3937D02*
D03*
Y2677D02*
D03*
X1654Y2520D02*
D03*
X1575Y2362D02*
D03*
X1654Y2205D02*
D03*
X1575Y2047D02*
D03*
X1654Y1890D02*
D03*
X1575Y1732D02*
D03*
X1654Y1575D02*
D03*
X1575Y1417D02*
D03*
X1654Y1260D02*
D03*
X1575Y1102D02*
D03*
X1417Y3937D02*
D03*
Y3622D02*
D03*
Y3307D02*
D03*
X1496Y3150D02*
D03*
Y2520D02*
D03*
X1417Y2362D02*
D03*
X1496Y2205D02*
D03*
X1417Y2047D02*
D03*
X1496Y1890D02*
D03*
X1417Y1732D02*
D03*
X1496Y1575D02*
D03*
Y1260D02*
D03*
X1417Y1102D02*
D03*
X1260Y3937D02*
D03*
Y3622D02*
D03*
Y2992D02*
D03*
Y2362D02*
D03*
Y1732D02*
D03*
X1339Y1575D02*
D03*
X1260Y1417D02*
D03*
X1339Y1260D02*
D03*
X1260Y1102D02*
D03*
X1102Y3937D02*
D03*
X1181Y3780D02*
D03*
X1102Y3622D02*
D03*
X1181Y3465D02*
D03*
X1102Y3307D02*
D03*
X1181Y3150D02*
D03*
X1102Y2992D02*
D03*
X1181Y2835D02*
D03*
X1102Y2677D02*
D03*
X1181Y2520D02*
D03*
X1102Y2362D02*
D03*
X1181Y2205D02*
D03*
X1102Y2047D02*
D03*
X1181Y1890D02*
D03*
X1102Y1732D02*
D03*
X1181Y1575D02*
D03*
X1102Y1417D02*
D03*
X1181Y1260D02*
D03*
X1102Y1102D02*
D03*
X3595Y3610D02*
D03*
X3575Y3900D02*
D03*
X2150Y3660D02*
D03*
Y3585D02*
D03*
Y3385D02*
D03*
Y3455D02*
D03*
Y3520D02*
D03*
X1915Y2980D02*
D03*
Y3045D02*
D03*
Y3110D02*
D03*
D41*
X1394Y1394D02*
D03*
X3756D02*
D03*
Y3756D02*
D03*
X1394D02*
D03*
%TF.MD5,7b08be544501bc4e5aa3995d773dd051*%
M02*
