%TF.GenerationSoftware,Altium Limited,Altium Designer,22.9.1 (49)*%
G04 Layer_Physical_Order=1*
G04 Layer_Color=255*
%FSLAX23Y23*%
%MOIN*%
%TF.SameCoordinates,7E49B892-F471-4493-957F-970E4ADD815D*%
%TF.FilePolarity,Positive*%
%TF.FileFunction,Copper,L1,Top,Signal*%
%TF.Part,Single*%
G01*
G75*
%TA.AperFunction,SMDPad,CuDef*%
%ADD10R,0.083X0.055*%
%ADD11R,0.049X0.071*%
G04:AMPARAMS|DCode=12|XSize=60mil|YSize=60mil|CornerRadius=15mil|HoleSize=0mil|Usage=FLASHONLY|Rotation=0.000|XOffset=0mil|YOffset=0mil|HoleType=Round|Shape=RoundedRectangle|*
%AMROUNDEDRECTD12*
21,1,0.060,0.030,0,0,0.0*
21,1,0.030,0.060,0,0,0.0*
1,1,0.030,0.015,-0.015*
1,1,0.030,-0.015,-0.015*
1,1,0.030,-0.015,0.015*
1,1,0.030,0.015,0.015*
%
%ADD12ROUNDEDRECTD12*%
%ADD13R,0.069X0.055*%
%ADD14R,0.067X0.041*%
%ADD15R,0.043X0.026*%
G04:AMPARAMS|DCode=16|XSize=22mil|YSize=49mil|CornerRadius=2mil|HoleSize=0mil|Usage=FLASHONLY|Rotation=90.000|XOffset=0mil|YOffset=0mil|HoleType=Round|Shape=RoundedRectangle|*
%AMROUNDEDRECTD16*
21,1,0.022,0.045,0,0,90.0*
21,1,0.018,0.049,0,0,90.0*
1,1,0.004,0.023,0.009*
1,1,0.004,0.023,-0.009*
1,1,0.004,-0.023,-0.009*
1,1,0.004,-0.023,0.009*
%
%ADD16ROUNDEDRECTD16*%
%ADD17R,0.032X0.030*%
%ADD18R,0.020X0.022*%
%ADD19R,0.055X0.069*%
%ADD20R,0.030X0.032*%
%ADD21R,0.031X0.031*%
%ADD22R,0.043X0.065*%
%TA.AperFunction,BGAPad,SMDef*%
%ADD23R,0.035X0.035*%
%TA.AperFunction,SMDPad,CuDef*%
%ADD24R,0.059X0.035*%
%ADD25R,0.035X0.059*%
%ADD26R,0.055X0.083*%
%TA.AperFunction,Conductor*%
%ADD27C,0.010*%
%TA.AperFunction,ComponentPad*%
%ADD28C,0.073*%
%ADD29R,0.067X0.067*%
%ADD30R,0.063X0.063*%
%ADD31C,0.063*%
%ADD32C,0.052*%
%ADD33C,0.050*%
%ADD34C,0.060*%
%ADD35R,0.060X0.060*%
%ADD36R,0.060X0.060*%
%ADD37R,0.063X0.063*%
%ADD38C,0.063*%
G04:AMPARAMS|DCode=39|XSize=63mil|YSize=63mil|CornerRadius=16mil|HoleSize=0mil|Usage=FLASHONLY|Rotation=0.000|XOffset=0mil|YOffset=0mil|HoleType=Round|Shape=RoundedRectangle|*
%AMROUNDEDRECTD39*
21,1,0.063,0.031,0,0,0.0*
21,1,0.031,0.063,0,0,0.0*
1,1,0.031,0.016,-0.016*
1,1,0.031,-0.016,-0.016*
1,1,0.031,-0.016,0.016*
1,1,0.031,0.016,0.016*
%
%ADD39ROUNDEDRECTD39*%
%TA.AperFunction,ViaPad*%
%ADD40C,0.050*%
%ADD41C,0.165*%
G36*
X4150Y1000D02*
X1000D01*
Y4150D01*
X4150D01*
Y1000D01*
D02*
G37*
%LPC*%
G36*
X3168Y4031D02*
X2240D01*
X2234Y4030D01*
X2229Y4027D01*
X2160Y3959D01*
X2145D01*
Y3981D01*
X2055D01*
Y3959D01*
X2028D01*
X2028Y3959D01*
X2022Y3960D01*
X1951D01*
X1945Y3959D01*
X1940Y3955D01*
X1912Y3928D01*
X1866D01*
Y4020D01*
X1791D01*
Y3918D01*
X1820D01*
X1822Y3913D01*
X1459Y3551D01*
X1459Y3550D01*
X1458Y3550D01*
X1455Y3550D01*
X1425D01*
X1415Y3549D01*
X1407Y3543D01*
X1401Y3535D01*
X1400Y3525D01*
Y3495D01*
X1400Y3492D01*
X1399Y3491D01*
X1249Y3341D01*
X1246Y3336D01*
X1245Y3330D01*
Y3246D01*
X1246Y3240D01*
X1249Y3235D01*
X1265Y3219D01*
Y3180D01*
X1265Y3178D01*
Y3115D01*
X1345D01*
Y3195D01*
X1295D01*
Y3226D01*
X1295Y3229D01*
X1299Y3234D01*
X1300Y3233D01*
X1310D01*
X1320Y3236D01*
X1321Y3236D01*
X1337Y3219D01*
X1342Y3216D01*
X1348Y3215D01*
X1465D01*
X1466Y3205D01*
X1472Y3197D01*
X1480Y3191D01*
X1490Y3190D01*
X1491D01*
X1491Y3185D01*
X1483Y3182D01*
X1475Y3178D01*
X1468Y3171D01*
X1463Y3163D01*
X1461Y3155D01*
X1531D01*
X1529Y3163D01*
X1524Y3171D01*
X1518Y3178D01*
X1510Y3182D01*
X1501Y3185D01*
X1501Y3190D01*
X1520D01*
X1530Y3191D01*
X1538Y3197D01*
X1544Y3205D01*
X1545Y3215D01*
X1586D01*
X1587Y3213D01*
X1591Y3210D01*
X1596Y3209D01*
X1632D01*
X1634Y3205D01*
X1633Y3201D01*
X1596D01*
X1591Y3200D01*
X1587Y3197D01*
X1584Y3194D01*
X1583Y3189D01*
Y3183D01*
X1531Y3130D01*
X1527Y3133D01*
X1529Y3136D01*
X1531Y3145D01*
X1501D01*
Y3115D01*
X1510Y3117D01*
X1513Y3119D01*
X1516Y3115D01*
X1514Y3113D01*
X1511Y3108D01*
X1509Y3102D01*
Y3038D01*
X1511Y3032D01*
X1514Y3027D01*
X1544Y2997D01*
X1549Y2993D01*
X1555Y2992D01*
X1708D01*
Y2985D01*
X1772D01*
Y3022D01*
Y3040D01*
X1740D01*
X1708D01*
Y3030D01*
Y3023D01*
X1651D01*
Y3040D01*
X1625D01*
Y3050D01*
X1651D01*
Y3067D01*
X1708D01*
Y3060D01*
Y3050D01*
X1740D01*
X1772D01*
Y3060D01*
Y3105D01*
X1755D01*
Y3122D01*
X1754Y3128D01*
X1751Y3133D01*
X1653Y3231D01*
Y3239D01*
X1652Y3244D01*
X1650Y3247D01*
X1646Y3250D01*
X1641Y3251D01*
X1596D01*
X1591Y3250D01*
X1587Y3247D01*
X1586Y3245D01*
X1545D01*
X1544Y3255D01*
X1538Y3263D01*
X1530Y3269D01*
X1520Y3270D01*
X1490D01*
X1480Y3269D01*
X1472Y3263D01*
X1466Y3255D01*
X1465Y3245D01*
X1354D01*
X1342Y3258D01*
X1342Y3258D01*
X1345Y3268D01*
Y3278D01*
X1342Y3289D01*
X1337Y3298D01*
X1330Y3305D01*
X1320Y3310D01*
X1310Y3313D01*
X1300D01*
X1290Y3310D01*
X1280Y3305D01*
X1280Y3305D01*
X1275Y3306D01*
Y3324D01*
X1343Y3391D01*
X1347Y3389D01*
Y3387D01*
X1350Y3378D01*
X1354Y3370D01*
X1361Y3363D01*
X1369Y3359D01*
X1378Y3356D01*
X1387D01*
X1396Y3359D01*
X1404Y3363D01*
X1410Y3370D01*
X1415Y3378D01*
X1417Y3387D01*
Y3396D01*
X1415Y3405D01*
X1410Y3413D01*
X1404Y3419D01*
X1396Y3424D01*
X1387Y3426D01*
X1384D01*
X1382Y3431D01*
X1421Y3469D01*
X1421Y3470D01*
X1422Y3470D01*
X1425Y3470D01*
X1455D01*
X1465Y3471D01*
X1473Y3477D01*
X1479Y3485D01*
X1480Y3495D01*
Y3525D01*
X1480Y3528D01*
X1481Y3529D01*
X1609Y3657D01*
X1614Y3655D01*
Y3616D01*
X1646D01*
Y3662D01*
X1621D01*
X1619Y3667D01*
X1849Y3898D01*
X1919D01*
X1925Y3899D01*
X1930Y3902D01*
X1957Y3929D01*
X1974D01*
Y3920D01*
X2000D01*
X2026D01*
Y3928D01*
X2055D01*
Y3906D01*
X2145D01*
Y3928D01*
X2175D01*
X2178Y3925D01*
X2183Y3921D01*
X2189Y3920D01*
X2225D01*
Y3896D01*
Y3876D01*
X2198D01*
X2192Y3875D01*
X2187Y3871D01*
X2166Y3850D01*
X2145D01*
Y3873D01*
X2077D01*
X2074Y3876D01*
X2069Y3879D01*
X2063Y3881D01*
X2026D01*
Y3890D01*
Y3910D01*
X2000D01*
X1974D01*
Y3890D01*
Y3840D01*
X1985D01*
Y3802D01*
X1845Y3662D01*
X1791D01*
Y3560D01*
X1866D01*
Y3641D01*
X2011Y3785D01*
X2014Y3790D01*
X2015Y3796D01*
Y3840D01*
X2026D01*
Y3850D01*
X2055D01*
Y3797D01*
X2145D01*
Y3820D01*
X2172D01*
X2178Y3821D01*
X2183Y3824D01*
X2204Y3845D01*
X2225D01*
Y3796D01*
Y3746D01*
Y3696D01*
Y3651D01*
X2188D01*
X2185Y3655D01*
X2185Y3655D01*
Y3665D01*
X2183Y3674D01*
X2178Y3681D01*
X2171Y3688D01*
X2164Y3693D01*
X2155Y3695D01*
X2145D01*
X2136Y3693D01*
X2129Y3688D01*
X2122Y3681D01*
X2117Y3674D01*
X2115Y3665D01*
Y3655D01*
X2117Y3646D01*
X2122Y3639D01*
X2129Y3632D01*
X2136Y3627D01*
X2145Y3625D01*
X2155D01*
X2164Y3627D01*
X2167Y3629D01*
X2171Y3625D01*
X2176Y3621D01*
X2182Y3620D01*
X2225D01*
Y3600D01*
X2182D01*
X2178Y3606D01*
X2171Y3613D01*
X2164Y3618D01*
X2155Y3620D01*
X2145D01*
X2136Y3618D01*
X2129Y3613D01*
X2122Y3606D01*
X2117Y3599D01*
X2115Y3590D01*
Y3580D01*
X2117Y3571D01*
X2122Y3564D01*
X2129Y3557D01*
X2132Y3555D01*
Y3550D01*
X2129Y3548D01*
X2122Y3541D01*
X2117Y3534D01*
X2115Y3525D01*
Y3515D01*
X2117Y3506D01*
X2122Y3499D01*
X2129Y3492D01*
X2132Y3490D01*
Y3485D01*
X2129Y3483D01*
X2122Y3476D01*
X2117Y3469D01*
X2115Y3460D01*
Y3450D01*
X2117Y3441D01*
X2122Y3434D01*
X2129Y3427D01*
X2136Y3423D01*
X2136Y3420D01*
X2136Y3417D01*
X2129Y3413D01*
X2122Y3406D01*
X2117Y3399D01*
X2115Y3390D01*
Y3380D01*
X2117Y3371D01*
X2122Y3364D01*
X2129Y3357D01*
X2136Y3352D01*
X2145Y3350D01*
X2155D01*
X2164Y3352D01*
X2171Y3357D01*
X2178Y3364D01*
X2183Y3371D01*
X2185Y3380D01*
Y3390D01*
X2185Y3391D01*
X2188Y3395D01*
X2225D01*
Y3373D01*
X2223Y3371D01*
X2209Y3358D01*
X2206Y3353D01*
X2205Y3347D01*
Y1717D01*
X2206Y1711D01*
X2209Y1706D01*
X2547Y1368D01*
Y1327D01*
X2520D01*
Y1243D01*
X2603D01*
Y1327D01*
X2577D01*
Y1360D01*
X2582Y1362D01*
X2642Y1302D01*
X2641Y1301D01*
X2638Y1290D01*
Y1280D01*
X2641Y1269D01*
X2647Y1259D01*
X2654Y1252D01*
X2664Y1246D01*
X2675Y1243D01*
X2685D01*
X2696Y1246D01*
X2706Y1252D01*
X2713Y1259D01*
X2719Y1269D01*
X2722Y1280D01*
Y1290D01*
X2719Y1301D01*
X2713Y1311D01*
X2706Y1318D01*
X2696Y1324D01*
X2685Y1327D01*
X2675D01*
X2664Y1324D01*
X2663Y1323D01*
X2280Y1707D01*
Y3296D01*
X2304D01*
Y3346D01*
Y3396D01*
Y3446D01*
Y3496D01*
Y3546D01*
Y3596D01*
Y3646D01*
Y3696D01*
Y3746D01*
Y3796D01*
Y3846D01*
Y3896D01*
Y3946D01*
Y3968D01*
X2265D01*
Y3978D01*
X2304D01*
Y4001D01*
X2309Y4001D01*
X2909D01*
X2914Y4001D01*
Y3978D01*
X2954D01*
X2993D01*
Y4001D01*
X2998Y4001D01*
X3070D01*
Y3958D01*
X3050Y3938D01*
X2993D01*
Y3968D01*
X2954D01*
X2914D01*
Y3946D01*
Y3896D01*
Y3846D01*
Y3796D01*
Y3746D01*
Y3696D01*
Y3646D01*
Y3596D01*
Y3546D01*
Y3496D01*
Y3446D01*
Y3396D01*
Y3346D01*
Y3296D01*
X2945D01*
Y3182D01*
X2944D01*
X2938Y3181D01*
X2931Y3178D01*
X2926Y3174D01*
X2922Y3169D01*
X2919Y3162D01*
X2918Y3156D01*
Y3124D01*
X2919Y3118D01*
X2922Y3111D01*
X2926Y3106D01*
X2931Y3102D01*
X2938Y3099D01*
X2944Y3098D01*
X2976D01*
X2982Y3099D01*
X2989Y3102D01*
X2994Y3106D01*
X2998Y3111D01*
X3001Y3118D01*
X3002Y3124D01*
Y3156D01*
X3001Y3162D01*
X2998Y3169D01*
X2994Y3174D01*
X2989Y3178D01*
X2982Y3181D01*
X2976Y3182D01*
X2975D01*
Y3296D01*
X2993D01*
Y3339D01*
X2998Y3341D01*
X3307Y3032D01*
X3305Y3027D01*
X3302D01*
X3294Y3025D01*
X3286Y3020D01*
X3279Y3014D01*
X3274Y3006D01*
X3272Y2997D01*
X3307D01*
Y2992D01*
X3312D01*
Y2957D01*
X3321Y2960D01*
X3329Y2964D01*
X3335Y2971D01*
X3340Y2979D01*
X3342Y2988D01*
Y2990D01*
X3347Y2992D01*
X3400Y2939D01*
Y2348D01*
X3401Y2342D01*
X3404Y2337D01*
X3874Y1867D01*
X3874Y1867D01*
X3871Y1856D01*
Y1845D01*
X3874Y1835D01*
X3880Y1825D01*
X3887Y1817D01*
X3897Y1812D01*
X3907Y1809D01*
X3918D01*
X3929Y1812D01*
X3938Y1817D01*
X3946Y1825D01*
X3952Y1835D01*
X3954Y1845D01*
Y1856D01*
X3952Y1867D01*
X3946Y1876D01*
X3938Y1884D01*
X3929Y1889D01*
X3918Y1892D01*
X3907D01*
X3897Y1889D01*
X3896Y1889D01*
X3431Y2355D01*
Y2423D01*
X3434Y2424D01*
X3436Y2424D01*
X3874Y1986D01*
X3874Y1985D01*
X3871Y1974D01*
Y1963D01*
X3874Y1953D01*
X3880Y1943D01*
X3887Y1935D01*
X3897Y1930D01*
X3907Y1927D01*
X3918D01*
X3929Y1930D01*
X3938Y1935D01*
X3946Y1943D01*
X3952Y1953D01*
X3954Y1963D01*
Y1974D01*
X3952Y1985D01*
X3946Y1994D01*
X3938Y2002D01*
X3929Y2008D01*
X3918Y2010D01*
X3907D01*
X3897Y2008D01*
X3896Y2007D01*
X3461Y2442D01*
Y2949D01*
X3461Y2952D01*
X3464Y2957D01*
X3464Y2957D01*
X3469D01*
X3478Y2960D01*
X3486Y2964D01*
X3493Y2971D01*
X3497Y2979D01*
X3499Y2987D01*
X3465D01*
Y2992D01*
X3460D01*
Y3027D01*
X3451Y3025D01*
X3443Y3020D01*
X3437Y3014D01*
X3432Y3006D01*
X3430Y2997D01*
Y2994D01*
X3425Y2992D01*
X3149Y3267D01*
X3151Y3272D01*
X3154D01*
X3163Y3274D01*
X3171Y3279D01*
X3178Y3286D01*
X3182Y3294D01*
X3185Y3302D01*
X3150D01*
Y3307D01*
X3145D01*
Y3342D01*
X3136Y3340D01*
X3128Y3335D01*
X3122Y3329D01*
X3117Y3321D01*
X3115Y3312D01*
Y3309D01*
X3110Y3307D01*
X3000Y3416D01*
X2995Y3420D01*
X2993Y3420D01*
Y3446D01*
Y3496D01*
Y3532D01*
X2998Y3534D01*
X3268Y3264D01*
X3272Y3261D01*
X3278Y3260D01*
X3283D01*
Y3233D01*
X3347D01*
Y3317D01*
X3283D01*
Y3298D01*
X3279Y3296D01*
X3004Y3571D01*
X2999Y3575D01*
X2993Y3576D01*
Y3595D01*
X3009D01*
X3250Y3354D01*
X3255Y3351D01*
X3261Y3350D01*
X3283D01*
Y3323D01*
X3347D01*
Y3407D01*
X3283D01*
Y3380D01*
X3267D01*
X3026Y3621D01*
X3021Y3625D01*
X3015Y3626D01*
X2993D01*
Y3646D01*
Y3695D01*
X3004D01*
X3255Y3444D01*
X3260Y3441D01*
X3266Y3440D01*
X3283D01*
Y3413D01*
X3347D01*
Y3497D01*
X3283D01*
Y3470D01*
X3272D01*
X3021Y3721D01*
X3016Y3725D01*
X3010Y3726D01*
X2993D01*
Y3745D01*
X3032D01*
X3158Y3619D01*
X3163Y3616D01*
X3169Y3615D01*
X3321D01*
X3434Y3502D01*
X3432Y3497D01*
X3396D01*
Y3413D01*
X3459D01*
Y3440D01*
X3505D01*
Y3429D01*
X3556D01*
Y3470D01*
X3564D01*
Y3460D01*
X3590D01*
Y3455D01*
X3595D01*
Y3429D01*
X3615D01*
Y3454D01*
X3620Y3456D01*
X3743Y3333D01*
Y2767D01*
X3744Y2761D01*
X3747Y2756D01*
X3787Y2717D01*
X3785Y2713D01*
Y2682D01*
X3815D01*
X3819Y2684D01*
X3877Y2627D01*
X3876Y2626D01*
X3873Y2615D01*
Y2605D01*
X3876Y2594D01*
X3882Y2584D01*
X3889Y2577D01*
X3899Y2571D01*
X3910Y2568D01*
X3920D01*
X3931Y2571D01*
X3941Y2577D01*
X3948Y2584D01*
X3954Y2594D01*
X3957Y2605D01*
Y2615D01*
X3954Y2626D01*
X3948Y2636D01*
X3941Y2643D01*
X3931Y2649D01*
X3920Y2652D01*
X3910D01*
X3899Y2649D01*
X3898Y2648D01*
X3773Y2773D01*
Y2841D01*
X3778Y2843D01*
X3877Y2745D01*
X3876Y2744D01*
X3873Y2734D01*
Y2723D01*
X3876Y2712D01*
X3882Y2703D01*
X3889Y2695D01*
X3899Y2689D01*
X3910Y2687D01*
X3920D01*
X3931Y2689D01*
X3941Y2695D01*
X3948Y2703D01*
X3954Y2712D01*
X3957Y2723D01*
Y2734D01*
X3954Y2744D01*
X3948Y2754D01*
X3941Y2761D01*
X3931Y2767D01*
X3920Y2770D01*
X3910D01*
X3899Y2767D01*
X3898Y2766D01*
X3793Y2871D01*
Y3347D01*
X3792Y3353D01*
X3789Y3358D01*
X3631Y3517D01*
X3626Y3520D01*
X3620Y3521D01*
X3557D01*
X3488Y3590D01*
X3490Y3595D01*
X3563D01*
X3567Y3589D01*
X3574Y3582D01*
X3581Y3577D01*
X3590Y3575D01*
X3600D01*
X3609Y3577D01*
X3616Y3582D01*
X3623Y3589D01*
X3628Y3596D01*
X3630Y3605D01*
Y3615D01*
X3628Y3624D01*
X3623Y3631D01*
X3616Y3638D01*
X3609Y3643D01*
X3600Y3645D01*
X3599D01*
X3598Y3647D01*
X3544Y3701D01*
Y3717D01*
X3549Y3719D01*
X4018Y3250D01*
Y2996D01*
X4013Y2994D01*
X4006Y2998D01*
X3997Y3000D01*
X3987D01*
X3978Y2998D01*
X3970Y2993D01*
X3963Y2986D01*
X3959Y2978D01*
X3956Y2969D01*
Y2960D01*
X3959Y2950D01*
X3963Y2942D01*
X3970Y2936D01*
X3978Y2931D01*
X3987Y2928D01*
X3997D01*
X4006Y2931D01*
X4013Y2935D01*
X4018Y2933D01*
Y2616D01*
X3932Y2530D01*
X3931Y2531D01*
X3920Y2533D01*
X3910D01*
X3899Y2531D01*
X3889Y2525D01*
X3882Y2517D01*
X3876Y2508D01*
X3873Y2497D01*
Y2486D01*
X3876Y2476D01*
X3882Y2466D01*
X3889Y2459D01*
X3899Y2453D01*
X3910Y2450D01*
X3920D01*
X3931Y2453D01*
X3941Y2459D01*
X3948Y2466D01*
X3954Y2476D01*
X3957Y2486D01*
Y2497D01*
X3954Y2508D01*
X3953Y2509D01*
X4013Y2568D01*
X4018Y2567D01*
Y2405D01*
X4013Y2403D01*
X4006Y2407D01*
X3997Y2410D01*
X3987D01*
X3978Y2407D01*
X3970Y2403D01*
X3963Y2396D01*
X3959Y2388D01*
X3956Y2379D01*
Y2369D01*
X3959Y2360D01*
X3963Y2352D01*
X3970Y2345D01*
X3978Y2340D01*
X3987Y2338D01*
X3997D01*
X4006Y2340D01*
X4013Y2344D01*
X4018Y2342D01*
Y2235D01*
X4013Y2233D01*
X4012Y2234D01*
X4004Y2239D01*
X3995Y2241D01*
X3985D01*
X3976Y2239D01*
X3968Y2234D01*
X3961Y2227D01*
X3956Y2219D01*
X3954Y2210D01*
Y2200D01*
X3956Y2191D01*
X3961Y2183D01*
X3968Y2176D01*
X3976Y2171D01*
X3985Y2169D01*
X3995D01*
X4004Y2171D01*
X4012Y2176D01*
X4013Y2177D01*
X4018Y2175D01*
Y1859D01*
X3930Y1771D01*
X3929Y1771D01*
X3918Y1774D01*
X3907D01*
X3897Y1771D01*
X3887Y1766D01*
X3880Y1758D01*
X3874Y1749D01*
X3871Y1738D01*
Y1727D01*
X3874Y1717D01*
X3880Y1707D01*
X3887Y1699D01*
X3897Y1694D01*
X3907Y1691D01*
X3918D01*
X3929Y1694D01*
X3938Y1699D01*
X3946Y1707D01*
X3952Y1717D01*
X3954Y1727D01*
Y1738D01*
X3952Y1749D01*
X3951Y1749D01*
X4044Y1842D01*
X4047Y1847D01*
X4048Y1853D01*
Y2610D01*
Y3256D01*
X4047Y3262D01*
X4044Y3267D01*
X3530Y3780D01*
Y3834D01*
X3428D01*
Y3812D01*
X3394D01*
X3309Y3897D01*
X3311Y3902D01*
X3312D01*
X3321Y3904D01*
X3329Y3909D01*
X3335Y3916D01*
X3340Y3923D01*
X3342Y3932D01*
X3307D01*
Y3937D01*
X3302D01*
Y3972D01*
X3294Y3970D01*
X3286Y3965D01*
X3279Y3958D01*
X3274Y3951D01*
X3272Y3942D01*
Y3941D01*
X3267Y3939D01*
X3179Y4027D01*
X3174Y4030D01*
X3168Y4031D01*
D02*
G37*
G36*
X1689Y4020D02*
X1614D01*
Y3946D01*
X1609Y3945D01*
X1607Y3951D01*
X1603Y3958D01*
X1596Y3965D01*
X1588Y3970D01*
X1580Y3972D01*
Y3937D01*
Y3902D01*
X1588Y3904D01*
X1596Y3909D01*
X1603Y3916D01*
X1607Y3923D01*
X1609Y3929D01*
X1614Y3928D01*
Y3918D01*
X1689D01*
Y4020D01*
D02*
G37*
G36*
X3942Y3972D02*
Y3942D01*
X3972D01*
X3970Y3951D01*
X3965Y3958D01*
X3958Y3965D01*
X3951Y3970D01*
X3942Y3972D01*
D02*
G37*
G36*
X3932D02*
X3923Y3970D01*
X3916Y3965D01*
X3909Y3958D01*
X3904Y3951D01*
X3902Y3942D01*
X3932D01*
Y3972D01*
D02*
G37*
G36*
X3785D02*
Y3942D01*
X3814D01*
X3812Y3951D01*
X3808Y3958D01*
X3801Y3965D01*
X3793Y3970D01*
X3785Y3972D01*
D02*
G37*
G36*
X3775D02*
X3766Y3970D01*
X3758Y3965D01*
X3752Y3958D01*
X3747Y3951D01*
X3745Y3942D01*
X3775D01*
Y3972D01*
D02*
G37*
G36*
X3312D02*
Y3942D01*
X3342D01*
X3340Y3951D01*
X3335Y3958D01*
X3329Y3965D01*
X3321Y3970D01*
X3312Y3972D01*
D02*
G37*
G36*
X1737D02*
Y3942D01*
X1767D01*
X1765Y3951D01*
X1760Y3958D01*
X1754Y3965D01*
X1746Y3970D01*
X1737Y3972D01*
D02*
G37*
G36*
X1727D02*
X1719Y3970D01*
X1711Y3965D01*
X1704Y3958D01*
X1700Y3951D01*
X1697Y3942D01*
X1727D01*
Y3972D01*
D02*
G37*
G36*
X1570D02*
X1561Y3970D01*
X1553Y3965D01*
X1547Y3958D01*
X1542Y3951D01*
X1540Y3942D01*
X1570D01*
Y3972D01*
D02*
G37*
G36*
X1422D02*
Y3942D01*
X1452D01*
X1450Y3951D01*
X1445Y3958D01*
X1439Y3965D01*
X1431Y3970D01*
X1422Y3972D01*
D02*
G37*
G36*
X1412D02*
X1404Y3970D01*
X1396Y3965D01*
X1389Y3958D01*
X1385Y3951D01*
X1382Y3942D01*
X1412D01*
Y3972D01*
D02*
G37*
G36*
X1265D02*
Y3942D01*
X1295D01*
X1292Y3951D01*
X1288Y3958D01*
X1281Y3965D01*
X1273Y3970D01*
X1265Y3972D01*
D02*
G37*
G36*
X1255D02*
X1246Y3970D01*
X1238Y3965D01*
X1232Y3958D01*
X1227Y3951D01*
X1225Y3942D01*
X1255D01*
Y3972D01*
D02*
G37*
G36*
X1107D02*
Y3942D01*
X1137D01*
X1135Y3951D01*
X1130Y3958D01*
X1124Y3965D01*
X1116Y3970D01*
X1107Y3972D01*
D02*
G37*
G36*
X1097D02*
X1089Y3970D01*
X1081Y3965D01*
X1074Y3958D01*
X1070Y3951D01*
X1067Y3942D01*
X1097D01*
Y3972D01*
D02*
G37*
G36*
X3972Y3932D02*
X3942D01*
Y3902D01*
X3951Y3904D01*
X3958Y3909D01*
X3965Y3916D01*
X3970Y3923D01*
X3972Y3932D01*
D02*
G37*
G36*
X3932D02*
X3902D01*
X3904Y3923D01*
X3909Y3916D01*
X3916Y3909D01*
X3923Y3904D01*
X3932Y3902D01*
Y3932D01*
D02*
G37*
G36*
X3814D02*
X3785D01*
Y3902D01*
X3793Y3904D01*
X3801Y3909D01*
X3808Y3916D01*
X3812Y3923D01*
X3814Y3932D01*
D02*
G37*
G36*
X3775D02*
X3745D01*
X3747Y3923D01*
X3752Y3916D01*
X3758Y3909D01*
X3766Y3904D01*
X3775Y3902D01*
Y3932D01*
D02*
G37*
G36*
X1767D02*
X1737D01*
Y3902D01*
X1746Y3904D01*
X1754Y3909D01*
X1760Y3916D01*
X1765Y3923D01*
X1767Y3932D01*
D02*
G37*
G36*
X1727D02*
X1697D01*
X1700Y3923D01*
X1704Y3916D01*
X1711Y3909D01*
X1719Y3904D01*
X1727Y3902D01*
Y3932D01*
D02*
G37*
G36*
X1570D02*
X1540D01*
X1542Y3923D01*
X1547Y3916D01*
X1553Y3909D01*
X1561Y3904D01*
X1570Y3902D01*
Y3932D01*
D02*
G37*
G36*
X1452D02*
X1422D01*
Y3902D01*
X1431Y3904D01*
X1439Y3909D01*
X1445Y3916D01*
X1450Y3923D01*
X1452Y3932D01*
D02*
G37*
G36*
X1412D02*
X1382D01*
X1385Y3923D01*
X1389Y3916D01*
X1396Y3909D01*
X1404Y3904D01*
X1412Y3902D01*
Y3932D01*
D02*
G37*
G36*
X1295D02*
X1265D01*
Y3902D01*
X1273Y3904D01*
X1281Y3909D01*
X1288Y3916D01*
X1292Y3923D01*
X1295Y3932D01*
D02*
G37*
G36*
X1255D02*
X1225D01*
X1227Y3923D01*
X1232Y3916D01*
X1238Y3909D01*
X1246Y3904D01*
X1255Y3902D01*
Y3932D01*
D02*
G37*
G36*
X1137D02*
X1107D01*
Y3902D01*
X1116Y3904D01*
X1124Y3909D01*
X1130Y3916D01*
X1135Y3923D01*
X1137Y3932D01*
D02*
G37*
G36*
X1097D02*
X1067D01*
X1070Y3923D01*
X1074Y3916D01*
X1081Y3909D01*
X1089Y3904D01*
X1097Y3902D01*
Y3932D01*
D02*
G37*
G36*
X3530Y4011D02*
X3428D01*
Y3936D01*
X3509D01*
X3540Y3905D01*
X3540Y3905D01*
Y3895D01*
X3542Y3886D01*
X3547Y3879D01*
X3554Y3872D01*
X3561Y3867D01*
X3570Y3865D01*
X3580D01*
X3589Y3867D01*
X3596Y3872D01*
X3603Y3879D01*
X3608Y3886D01*
X3610Y3895D01*
Y3905D01*
X3608Y3914D01*
X3603Y3921D01*
X3596Y3928D01*
X3589Y3933D01*
X3580Y3935D01*
X3570D01*
X3561Y3933D01*
X3558Y3930D01*
X3530Y3958D01*
Y4011D01*
D02*
G37*
G36*
X4021Y3814D02*
Y3785D01*
X4051D01*
X4048Y3793D01*
X4044Y3801D01*
X4037Y3808D01*
X4029Y3812D01*
X4021Y3814D01*
D02*
G37*
G36*
X4011D02*
X4002Y3812D01*
X3994Y3808D01*
X3988Y3801D01*
X3983Y3793D01*
X3981Y3785D01*
X4011D01*
Y3814D01*
D02*
G37*
G36*
X1816D02*
Y3785D01*
X1846D01*
X1844Y3793D01*
X1839Y3801D01*
X1833Y3808D01*
X1825Y3812D01*
X1816Y3814D01*
D02*
G37*
G36*
X1806D02*
X1798Y3812D01*
X1790Y3808D01*
X1783Y3801D01*
X1778Y3793D01*
X1776Y3785D01*
X1806D01*
Y3814D01*
D02*
G37*
G36*
X1186D02*
Y3785D01*
X1216D01*
X1214Y3793D01*
X1209Y3801D01*
X1203Y3808D01*
X1195Y3812D01*
X1186Y3814D01*
D02*
G37*
G36*
X1176D02*
X1168Y3812D01*
X1160Y3808D01*
X1153Y3801D01*
X1148Y3793D01*
X1146Y3785D01*
X1176D01*
Y3814D01*
D02*
G37*
G36*
X3765Y3849D02*
X3761D01*
Y3761D01*
X3849D01*
Y3765D01*
X3845Y3783D01*
X3838Y3800D01*
X3828Y3815D01*
X3815Y3828D01*
X3800Y3838D01*
X3783Y3845D01*
X3765Y3849D01*
D02*
G37*
G36*
X3751D02*
X3747D01*
X3729Y3845D01*
X3712Y3838D01*
X3697Y3828D01*
X3684Y3815D01*
X3674Y3800D01*
X3667Y3783D01*
X3664Y3765D01*
Y3761D01*
X3751D01*
Y3849D01*
D02*
G37*
G36*
X1403D02*
X1399D01*
Y3761D01*
X1486D01*
Y3765D01*
X1483Y3783D01*
X1476Y3800D01*
X1466Y3815D01*
X1453Y3828D01*
X1438Y3838D01*
X1421Y3845D01*
X1403Y3849D01*
D02*
G37*
G36*
X1389D02*
X1385D01*
X1367Y3845D01*
X1350Y3838D01*
X1335Y3828D01*
X1322Y3815D01*
X1312Y3800D01*
X1305Y3783D01*
X1301Y3765D01*
Y3761D01*
X1389D01*
Y3849D01*
D02*
G37*
G36*
X2610Y3773D02*
Y3750D01*
X2632D01*
Y3773D01*
X2610D01*
D02*
G37*
G36*
X2490D02*
X2467D01*
Y3750D01*
X2490D01*
Y3773D01*
D02*
G37*
G36*
X4051Y3775D02*
X4021D01*
Y3745D01*
X4029Y3747D01*
X4037Y3752D01*
X4044Y3758D01*
X4048Y3766D01*
X4051Y3775D01*
D02*
G37*
G36*
X4011D02*
X3981D01*
X3983Y3766D01*
X3988Y3758D01*
X3994Y3752D01*
X4002Y3747D01*
X4011Y3745D01*
Y3775D01*
D02*
G37*
G36*
X1846D02*
X1816D01*
Y3745D01*
X1825Y3747D01*
X1833Y3752D01*
X1839Y3758D01*
X1844Y3766D01*
X1846Y3775D01*
D02*
G37*
G36*
X1806D02*
X1776D01*
X1778Y3766D01*
X1783Y3758D01*
X1790Y3752D01*
X1798Y3747D01*
X1806Y3745D01*
Y3775D01*
D02*
G37*
G36*
X1216D02*
X1186D01*
Y3745D01*
X1195Y3747D01*
X1203Y3752D01*
X1209Y3758D01*
X1214Y3766D01*
X1216Y3775D01*
D02*
G37*
G36*
X1176D02*
X1146D01*
X1148Y3766D01*
X1153Y3758D01*
X1160Y3752D01*
X1168Y3747D01*
X1176Y3745D01*
Y3775D01*
D02*
G37*
G36*
X3849Y3751D02*
X3761D01*
Y3664D01*
X3765D01*
X3783Y3667D01*
X3800Y3674D01*
X3815Y3684D01*
X3828Y3697D01*
X3838Y3712D01*
X3845Y3729D01*
X3849Y3747D01*
Y3751D01*
D02*
G37*
G36*
X3751D02*
X3664D01*
Y3747D01*
X3667Y3729D01*
X3674Y3712D01*
X3684Y3697D01*
X3697Y3684D01*
X3712Y3674D01*
X3729Y3667D01*
X3747Y3664D01*
X3751D01*
Y3751D01*
D02*
G37*
G36*
X1486D02*
X1399D01*
Y3664D01*
X1403D01*
X1421Y3667D01*
X1438Y3674D01*
X1453Y3684D01*
X1466Y3697D01*
X1476Y3712D01*
X1483Y3729D01*
X1486Y3747D01*
Y3751D01*
D02*
G37*
G36*
X1389D02*
X1301D01*
Y3747D01*
X1305Y3729D01*
X1312Y3712D01*
X1322Y3697D01*
X1335Y3684D01*
X1350Y3674D01*
X1367Y3667D01*
X1385Y3664D01*
X1389D01*
Y3751D01*
D02*
G37*
G36*
X3942Y3657D02*
Y3627D01*
X3972D01*
X3970Y3636D01*
X3965Y3644D01*
X3958Y3650D01*
X3951Y3655D01*
X3942Y3657D01*
D02*
G37*
G36*
X3932D02*
X3923Y3655D01*
X3916Y3650D01*
X3909Y3644D01*
X3904Y3636D01*
X3902Y3627D01*
X3932D01*
Y3657D01*
D02*
G37*
G36*
X3785D02*
Y3627D01*
X3814D01*
X3812Y3636D01*
X3808Y3644D01*
X3801Y3650D01*
X3793Y3655D01*
X3785Y3657D01*
D02*
G37*
G36*
X3775D02*
X3766Y3655D01*
X3758Y3650D01*
X3752Y3644D01*
X3747Y3636D01*
X3745Y3627D01*
X3775D01*
Y3657D01*
D02*
G37*
G36*
X2052D02*
Y3627D01*
X2082D01*
X2080Y3636D01*
X2075Y3644D01*
X2069Y3650D01*
X2061Y3655D01*
X2052Y3657D01*
D02*
G37*
G36*
X2042D02*
X2034Y3655D01*
X2026Y3650D01*
X2019Y3644D01*
X2015Y3636D01*
X2012Y3627D01*
X2042D01*
Y3657D01*
D02*
G37*
G36*
X1737D02*
Y3627D01*
X1767D01*
X1765Y3636D01*
X1760Y3644D01*
X1754Y3650D01*
X1746Y3655D01*
X1737Y3657D01*
D02*
G37*
G36*
X1727D02*
X1719Y3655D01*
X1711Y3650D01*
X1704Y3644D01*
X1700Y3636D01*
X1697Y3627D01*
X1727D01*
Y3657D01*
D02*
G37*
G36*
X1422D02*
Y3627D01*
X1452D01*
X1450Y3636D01*
X1445Y3644D01*
X1439Y3650D01*
X1431Y3655D01*
X1422Y3657D01*
D02*
G37*
G36*
X1412D02*
X1404Y3655D01*
X1396Y3650D01*
X1389Y3644D01*
X1385Y3636D01*
X1382Y3627D01*
X1412D01*
Y3657D01*
D02*
G37*
G36*
X1265D02*
Y3627D01*
X1295D01*
X1292Y3636D01*
X1288Y3644D01*
X1281Y3650D01*
X1273Y3655D01*
X1265Y3657D01*
D02*
G37*
G36*
X1255D02*
X1246Y3655D01*
X1238Y3650D01*
X1232Y3644D01*
X1227Y3636D01*
X1225Y3627D01*
X1255D01*
Y3657D01*
D02*
G37*
G36*
X1107D02*
Y3627D01*
X1137D01*
X1135Y3636D01*
X1130Y3644D01*
X1124Y3650D01*
X1116Y3655D01*
X1107Y3657D01*
D02*
G37*
G36*
X1097D02*
X1089Y3655D01*
X1081Y3650D01*
X1074Y3644D01*
X1070Y3636D01*
X1067Y3627D01*
X1097D01*
Y3657D01*
D02*
G37*
G36*
X1689Y3662D02*
X1656D01*
Y3616D01*
X1689D01*
Y3662D01*
D02*
G37*
G36*
X2632Y3630D02*
X2610D01*
Y3608D01*
X2632D01*
Y3630D01*
D02*
G37*
G36*
X2490D02*
X2467D01*
Y3608D01*
X2490D01*
Y3630D01*
D02*
G37*
G36*
X2522Y3773D02*
X2517Y3773D01*
X2500D01*
Y3745D01*
X2495D01*
Y3740D01*
X2467D01*
Y3723D01*
X2467Y3718D01*
X2467Y3713D01*
Y3695D01*
X2495D01*
Y3685D01*
X2467D01*
Y3668D01*
X2467Y3663D01*
X2467Y3658D01*
Y3640D01*
X2495D01*
Y3635D01*
X2500D01*
Y3608D01*
X2517D01*
X2522Y3608D01*
X2527Y3608D01*
X2545D01*
Y3635D01*
X2555D01*
Y3608D01*
X2572D01*
X2577Y3608D01*
X2582Y3608D01*
X2600D01*
Y3635D01*
X2605D01*
Y3640D01*
X2632D01*
Y3658D01*
X2632Y3662D01*
X2632Y3668D01*
Y3685D01*
X2605D01*
Y3695D01*
X2632D01*
Y3713D01*
X2632Y3718D01*
X2632Y3723D01*
Y3740D01*
X2605D01*
Y3745D01*
X2600D01*
Y3773D01*
X2582D01*
X2578Y3773D01*
X2572Y3773D01*
X2555D01*
Y3745D01*
X2545D01*
Y3773D01*
X2522D01*
D02*
G37*
G36*
X3972Y3617D02*
X3942D01*
Y3587D01*
X3951Y3589D01*
X3958Y3594D01*
X3965Y3601D01*
X3970Y3609D01*
X3972Y3617D01*
D02*
G37*
G36*
X3932D02*
X3902D01*
X3904Y3609D01*
X3909Y3601D01*
X3916Y3594D01*
X3923Y3589D01*
X3932Y3587D01*
Y3617D01*
D02*
G37*
G36*
X3814D02*
X3785D01*
Y3587D01*
X3793Y3589D01*
X3801Y3594D01*
X3808Y3601D01*
X3812Y3609D01*
X3814Y3617D01*
D02*
G37*
G36*
X3775D02*
X3745D01*
X3747Y3609D01*
X3752Y3601D01*
X3758Y3594D01*
X3766Y3589D01*
X3775Y3587D01*
Y3617D01*
D02*
G37*
G36*
X2082D02*
X2052D01*
Y3587D01*
X2061Y3589D01*
X2069Y3594D01*
X2075Y3601D01*
X2080Y3609D01*
X2082Y3617D01*
D02*
G37*
G36*
X2042D02*
X2012D01*
X2015Y3609D01*
X2019Y3601D01*
X2026Y3594D01*
X2034Y3589D01*
X2042Y3587D01*
Y3617D01*
D02*
G37*
G36*
X1767D02*
X1737D01*
Y3587D01*
X1746Y3589D01*
X1754Y3594D01*
X1760Y3601D01*
X1765Y3609D01*
X1767Y3617D01*
D02*
G37*
G36*
X1727D02*
X1697D01*
X1700Y3609D01*
X1704Y3601D01*
X1711Y3594D01*
X1719Y3589D01*
X1727Y3587D01*
Y3617D01*
D02*
G37*
G36*
X1452D02*
X1422D01*
Y3587D01*
X1431Y3589D01*
X1439Y3594D01*
X1445Y3601D01*
X1450Y3609D01*
X1452Y3617D01*
D02*
G37*
G36*
X1412D02*
X1382D01*
X1385Y3609D01*
X1389Y3601D01*
X1396Y3594D01*
X1404Y3589D01*
X1412Y3587D01*
Y3617D01*
D02*
G37*
G36*
X1295D02*
X1265D01*
Y3587D01*
X1273Y3589D01*
X1281Y3594D01*
X1288Y3601D01*
X1292Y3609D01*
X1295Y3617D01*
D02*
G37*
G36*
X1255D02*
X1225D01*
X1227Y3609D01*
X1232Y3601D01*
X1238Y3594D01*
X1246Y3589D01*
X1255Y3587D01*
Y3617D01*
D02*
G37*
G36*
X1137D02*
X1107D01*
Y3587D01*
X1116Y3589D01*
X1124Y3594D01*
X1130Y3601D01*
X1135Y3609D01*
X1137Y3617D01*
D02*
G37*
G36*
X1097D02*
X1067D01*
X1070Y3609D01*
X1074Y3601D01*
X1081Y3594D01*
X1089Y3589D01*
X1097Y3587D01*
Y3617D01*
D02*
G37*
G36*
X1689Y3606D02*
X1656D01*
Y3560D01*
X1689D01*
Y3606D01*
D02*
G37*
G36*
X1646D02*
X1614D01*
Y3560D01*
X1646D01*
Y3606D01*
D02*
G37*
G36*
X4021Y3499D02*
Y3470D01*
X4051D01*
X4048Y3478D01*
X4044Y3486D01*
X4037Y3493D01*
X4029Y3497D01*
X4021Y3499D01*
D02*
G37*
G36*
X4011D02*
X4002Y3497D01*
X3994Y3493D01*
X3988Y3486D01*
X3983Y3478D01*
X3981Y3470D01*
X4011D01*
Y3499D01*
D02*
G37*
G36*
X1186D02*
Y3470D01*
X1216D01*
X1214Y3478D01*
X1209Y3486D01*
X1203Y3493D01*
X1195Y3497D01*
X1186Y3499D01*
D02*
G37*
G36*
X1176D02*
X1168Y3497D01*
X1160Y3493D01*
X1153Y3486D01*
X1148Y3478D01*
X1146Y3470D01*
X1176D01*
Y3499D01*
D02*
G37*
G36*
X1925Y3495D02*
X1895D01*
Y3455D01*
X1925D01*
Y3495D01*
D02*
G37*
G36*
X1885D02*
X1855D01*
Y3455D01*
X1885D01*
Y3495D01*
D02*
G37*
G36*
X1810Y3485D02*
X1780D01*
Y3445D01*
X1810D01*
Y3485D01*
D02*
G37*
G36*
X1770D02*
X1740D01*
Y3445D01*
X1770D01*
Y3485D01*
D02*
G37*
G36*
X4051Y3460D02*
X4021D01*
Y3430D01*
X4029Y3432D01*
X4037Y3437D01*
X4044Y3443D01*
X4048Y3451D01*
X4051Y3460D01*
D02*
G37*
G36*
X4011D02*
X3981D01*
X3983Y3451D01*
X3988Y3443D01*
X3994Y3437D01*
X4002Y3432D01*
X4011Y3430D01*
Y3460D01*
D02*
G37*
G36*
X1216D02*
X1186D01*
Y3430D01*
X1195Y3432D01*
X1203Y3437D01*
X1209Y3443D01*
X1214Y3451D01*
X1216Y3460D01*
D02*
G37*
G36*
X1176D02*
X1146D01*
X1148Y3451D01*
X1153Y3443D01*
X1160Y3437D01*
X1168Y3432D01*
X1176Y3430D01*
Y3460D01*
D02*
G37*
G36*
X3585Y3450D02*
X3564D01*
Y3429D01*
X3585D01*
Y3450D01*
D02*
G37*
G36*
X1925Y3445D02*
X1895D01*
Y3405D01*
X1925D01*
Y3445D01*
D02*
G37*
G36*
X1885D02*
X1855D01*
Y3405D01*
X1885D01*
Y3445D01*
D02*
G37*
G36*
X1810Y3435D02*
X1780D01*
Y3395D01*
X1810D01*
Y3435D01*
D02*
G37*
G36*
X1770D02*
X1740D01*
Y3395D01*
X1770D01*
Y3435D01*
D02*
G37*
G36*
X3615Y3391D02*
X3595D01*
Y3370D01*
X3615D01*
Y3391D01*
D02*
G37*
G36*
X3585D02*
X3564D01*
Y3370D01*
X3585D01*
Y3391D01*
D02*
G37*
G36*
X2045Y3495D02*
X1975D01*
Y3405D01*
X2000D01*
Y3388D01*
X1972D01*
Y3348D01*
X1969Y3345D01*
X1858D01*
X1856Y3347D01*
X1852Y3350D01*
X1848Y3351D01*
X1802D01*
X1798Y3350D01*
X1794Y3347D01*
X1791Y3344D01*
X1790Y3339D01*
Y3321D01*
X1791Y3316D01*
X1794Y3313D01*
X1798Y3310D01*
X1802Y3309D01*
X1848D01*
X1852Y3310D01*
X1856Y3313D01*
X1858Y3315D01*
X1975D01*
X1981Y3316D01*
X1986Y3319D01*
X1993Y3327D01*
X2058D01*
Y3388D01*
X2030D01*
Y3405D01*
X2045D01*
Y3495D01*
D02*
G37*
G36*
X3615Y3360D02*
X3595D01*
Y3339D01*
X3615D01*
Y3360D01*
D02*
G37*
G36*
X3585D02*
X3564D01*
Y3339D01*
X3585D01*
Y3360D01*
D02*
G37*
G36*
X3459Y3407D02*
X3396D01*
Y3323D01*
X3459D01*
Y3350D01*
X3505D01*
Y3339D01*
X3556D01*
Y3391D01*
X3505D01*
Y3380D01*
X3459D01*
Y3407D01*
D02*
G37*
G36*
X3155Y3342D02*
Y3312D01*
X3185D01*
X3182Y3321D01*
X3178Y3329D01*
X3171Y3335D01*
X3163Y3340D01*
X3155Y3342D01*
D02*
G37*
G36*
X1737D02*
Y3312D01*
X1767D01*
X1765Y3321D01*
X1760Y3329D01*
X1754Y3335D01*
X1746Y3340D01*
X1737Y3342D01*
D02*
G37*
G36*
X1727D02*
X1719Y3340D01*
X1711Y3335D01*
X1704Y3329D01*
X1700Y3321D01*
X1697Y3312D01*
X1727D01*
Y3342D01*
D02*
G37*
G36*
X1422D02*
Y3312D01*
X1452D01*
X1450Y3321D01*
X1445Y3329D01*
X1439Y3335D01*
X1431Y3340D01*
X1422Y3342D01*
D02*
G37*
G36*
X1412D02*
X1404Y3340D01*
X1396Y3335D01*
X1389Y3329D01*
X1385Y3321D01*
X1382Y3312D01*
X1412D01*
Y3342D01*
D02*
G37*
G36*
X1107D02*
Y3312D01*
X1137D01*
X1135Y3321D01*
X1130Y3329D01*
X1124Y3335D01*
X1116Y3340D01*
X1107Y3342D01*
D02*
G37*
G36*
X1097D02*
X1089Y3340D01*
X1081Y3335D01*
X1074Y3329D01*
X1070Y3321D01*
X1067Y3312D01*
X1097D01*
Y3342D01*
D02*
G37*
G36*
X2379Y3319D02*
X2357D01*
Y3285D01*
X2379D01*
Y3319D01*
D02*
G37*
G36*
X3616Y3301D02*
X3595D01*
Y3280D01*
X3616D01*
Y3301D01*
D02*
G37*
G36*
X3585D02*
X3564D01*
Y3280D01*
X3585D01*
Y3301D01*
D02*
G37*
G36*
X1767Y3302D02*
X1737D01*
Y3272D01*
X1746Y3274D01*
X1754Y3279D01*
X1760Y3286D01*
X1765Y3294D01*
X1767Y3302D01*
D02*
G37*
G36*
X1690Y3485D02*
X1620D01*
Y3395D01*
X1640D01*
Y3359D01*
X1632Y3351D01*
X1596D01*
X1591Y3350D01*
X1587Y3347D01*
X1584Y3344D01*
X1583Y3339D01*
Y3321D01*
X1584Y3316D01*
X1587Y3313D01*
X1591Y3310D01*
X1596Y3309D01*
X1632D01*
X1634Y3305D01*
X1633Y3301D01*
X1596D01*
X1591Y3300D01*
X1587Y3297D01*
X1584Y3294D01*
X1583Y3289D01*
Y3271D01*
X1584Y3266D01*
X1587Y3263D01*
X1591Y3260D01*
X1596Y3259D01*
X1641D01*
X1646Y3260D01*
X1650Y3263D01*
X1652Y3266D01*
X1653Y3271D01*
Y3281D01*
X1658Y3283D01*
X1701Y3239D01*
Y3233D01*
X1702Y3227D01*
X1706Y3222D01*
X1785Y3143D01*
X1789Y3140D01*
X1795Y3139D01*
X1887D01*
X1889Y3134D01*
X1887Y3131D01*
X1882Y3124D01*
X1880Y3115D01*
Y3105D01*
X1881Y3102D01*
X1877Y3098D01*
X1866D01*
Y3105D01*
X1803D01*
Y3060D01*
Y3022D01*
Y2985D01*
X1866D01*
Y2992D01*
X1877D01*
X1881Y2988D01*
X1880Y2985D01*
Y2975D01*
X1882Y2966D01*
X1887Y2959D01*
X1894Y2952D01*
X1901Y2947D01*
X1910Y2945D01*
X1920D01*
X1929Y2947D01*
X1936Y2952D01*
X1943Y2959D01*
X1948Y2966D01*
X1950Y2975D01*
Y2985D01*
X1948Y2994D01*
X1943Y3001D01*
X1936Y3008D01*
X1933Y3010D01*
Y3015D01*
X1936Y3017D01*
X1943Y3024D01*
X1948Y3031D01*
X1950Y3040D01*
Y3050D01*
X1948Y3059D01*
X1943Y3066D01*
X1936Y3073D01*
X1933Y3075D01*
Y3080D01*
X1936Y3082D01*
X1943Y3089D01*
X1948Y3096D01*
X1949Y3103D01*
X1955Y3105D01*
X1971Y3089D01*
Y3078D01*
X1972Y3077D01*
Y3032D01*
X2000D01*
Y2860D01*
X1995Y2858D01*
X1990Y2863D01*
X1982Y2867D01*
X1974Y2870D01*
Y2835D01*
Y2800D01*
X1982Y2802D01*
X1990Y2807D01*
X1995Y2811D01*
X2000Y2809D01*
Y2766D01*
X1918Y2684D01*
X1914Y2679D01*
X1913Y2673D01*
Y2658D01*
X1857D01*
Y2572D01*
X1943D01*
Y2642D01*
X1944Y2643D01*
Y2667D01*
X2026Y2749D01*
X2029Y2754D01*
X2030Y2760D01*
Y3032D01*
X2058D01*
Y3067D01*
X2063Y3068D01*
X2165Y2967D01*
Y2530D01*
X2160Y2529D01*
X2159Y2533D01*
X2154Y2541D01*
X2147Y2548D01*
X2139Y2552D01*
X2131Y2555D01*
Y2520D01*
Y2485D01*
X2139Y2487D01*
X2147Y2492D01*
X2154Y2498D01*
X2159Y2506D01*
X2160Y2510D01*
X2165Y2510D01*
Y2376D01*
X1779Y1990D01*
X1562D01*
X1560Y2000D01*
X1555Y2008D01*
X1547Y2014D01*
X1537Y2015D01*
X1507D01*
X1497Y2014D01*
X1489Y2008D01*
X1483Y2000D01*
X1481Y1990D01*
X1335D01*
Y2015D01*
X1255D01*
Y1935D01*
X1335D01*
Y1960D01*
X1481D01*
X1483Y1950D01*
X1489Y1942D01*
X1497Y1936D01*
X1507Y1935D01*
X1537D01*
X1547Y1936D01*
X1555Y1942D01*
X1560Y1950D01*
X1562Y1960D01*
X1785D01*
X1791Y1961D01*
X1796Y1964D01*
X2191Y2359D01*
X2194Y2364D01*
X2195Y2370D01*
Y2973D01*
X2194Y2979D01*
X2191Y2984D01*
X2035Y3140D01*
X2037Y3144D01*
X2058D01*
Y3206D01*
X2030D01*
Y3214D01*
X2058D01*
Y3276D01*
X1972D01*
Y3214D01*
X2000D01*
Y3206D01*
X1972D01*
Y3144D01*
X2000D01*
Y3138D01*
X2001Y3132D01*
X2004Y3127D01*
X2033Y3098D01*
X2032Y3093D01*
X2002D01*
Y3095D01*
X2001Y3101D01*
X1997Y3106D01*
X1938Y3165D01*
X1933Y3168D01*
X1927Y3169D01*
X1861D01*
X1860Y3171D01*
Y3189D01*
X1859Y3194D01*
X1856Y3197D01*
X1852Y3200D01*
X1848Y3201D01*
X1802D01*
X1798Y3200D01*
X1794Y3197D01*
X1791Y3194D01*
X1790Y3189D01*
Y3187D01*
X1786Y3186D01*
X1732Y3239D01*
Y3245D01*
X1731Y3251D01*
X1727Y3256D01*
X1710Y3274D01*
X1713Y3278D01*
X1719Y3274D01*
X1727Y3272D01*
Y3302D01*
X1697D01*
X1700Y3294D01*
X1703Y3288D01*
X1699Y3285D01*
X1654Y3330D01*
X1666Y3342D01*
X1669Y3347D01*
X1670Y3353D01*
Y3395D01*
X1690D01*
Y3485D01*
D02*
G37*
G36*
X1452Y3302D02*
X1422D01*
Y3272D01*
X1431Y3274D01*
X1439Y3279D01*
X1445Y3286D01*
X1450Y3294D01*
X1452Y3302D01*
D02*
G37*
G36*
X1412D02*
X1382D01*
X1385Y3294D01*
X1389Y3286D01*
X1396Y3279D01*
X1404Y3274D01*
X1412Y3272D01*
Y3302D01*
D02*
G37*
G36*
X1137D02*
X1107D01*
Y3272D01*
X1116Y3274D01*
X1124Y3279D01*
X1130Y3286D01*
X1135Y3294D01*
X1137Y3302D01*
D02*
G37*
G36*
X1097D02*
X1067D01*
X1070Y3294D01*
X1074Y3286D01*
X1081Y3279D01*
X1089Y3274D01*
X1097Y3272D01*
Y3302D01*
D02*
G37*
G36*
X1848Y3301D02*
X1802D01*
X1798Y3300D01*
X1794Y3297D01*
X1791Y3294D01*
X1790Y3289D01*
Y3271D01*
X1791Y3266D01*
X1794Y3263D01*
X1798Y3260D01*
X1802Y3259D01*
X1848D01*
X1852Y3260D01*
X1856Y3263D01*
X1859Y3266D01*
X1860Y3271D01*
Y3289D01*
X1859Y3294D01*
X1856Y3297D01*
X1852Y3300D01*
X1848Y3301D01*
D02*
G37*
G36*
X3616Y3270D02*
X3595D01*
Y3249D01*
X3616D01*
Y3270D01*
D02*
G37*
G36*
X3585D02*
X3564D01*
Y3249D01*
X3585D01*
Y3270D01*
D02*
G37*
G36*
X3459Y3317D02*
X3396D01*
Y3233D01*
X3459D01*
Y3260D01*
X3505D01*
Y3249D01*
X3557D01*
Y3301D01*
X3505D01*
Y3290D01*
X3459D01*
Y3317D01*
D02*
G37*
G36*
X2379Y3275D02*
X2357D01*
Y3240D01*
X2379D01*
Y3275D01*
D02*
G37*
G36*
X1848Y3251D02*
X1830D01*
Y3235D01*
X1860D01*
Y3239D01*
X1859Y3244D01*
X1856Y3247D01*
X1852Y3250D01*
X1848Y3251D01*
D02*
G37*
G36*
X1820D02*
X1802D01*
X1798Y3250D01*
X1794Y3247D01*
X1791Y3244D01*
X1790Y3239D01*
Y3235D01*
X1820D01*
Y3251D01*
D02*
G37*
G36*
X1860Y3225D02*
X1830D01*
Y3209D01*
X1848D01*
X1852Y3210D01*
X1856Y3213D01*
X1859Y3216D01*
X1860Y3221D01*
Y3225D01*
D02*
G37*
G36*
X1820D02*
X1790D01*
Y3221D01*
X1791Y3216D01*
X1794Y3213D01*
X1798Y3210D01*
X1802Y3209D01*
X1820D01*
Y3225D01*
D02*
G37*
G36*
X3863Y3185D02*
Y3155D01*
X3893D01*
X3891Y3163D01*
X3886Y3171D01*
X3880Y3178D01*
X3872Y3182D01*
X3863Y3185D01*
D02*
G37*
G36*
X3853D02*
X3845Y3182D01*
X3837Y3178D01*
X3830Y3171D01*
X3826Y3163D01*
X3823Y3155D01*
X3853D01*
Y3185D01*
D02*
G37*
G36*
X3706D02*
Y3155D01*
X3736D01*
X3733Y3163D01*
X3729Y3171D01*
X3722Y3178D01*
X3714Y3182D01*
X3706Y3185D01*
D02*
G37*
G36*
X3696D02*
X3687Y3182D01*
X3679Y3178D01*
X3673Y3171D01*
X3668Y3163D01*
X3666Y3155D01*
X3696D01*
Y3185D01*
D02*
G37*
G36*
X3548D02*
Y3155D01*
X3578D01*
X3576Y3163D01*
X3571Y3171D01*
X3565Y3178D01*
X3557Y3182D01*
X3548Y3185D01*
D02*
G37*
G36*
X3538D02*
X3530Y3182D01*
X3522Y3178D01*
X3515Y3171D01*
X3511Y3163D01*
X3508Y3155D01*
X3538D01*
Y3185D01*
D02*
G37*
G36*
X3391D02*
Y3155D01*
X3421D01*
X3418Y3163D01*
X3414Y3171D01*
X3407Y3178D01*
X3399Y3182D01*
X3391Y3185D01*
D02*
G37*
G36*
X3381D02*
X3372Y3182D01*
X3364Y3178D01*
X3358Y3171D01*
X3353Y3163D01*
X3351Y3155D01*
X3381D01*
Y3185D01*
D02*
G37*
G36*
X2603D02*
Y3155D01*
X2633D01*
X2631Y3163D01*
X2626Y3171D01*
X2620Y3178D01*
X2612Y3182D01*
X2603Y3185D01*
D02*
G37*
G36*
X2593D02*
X2585Y3182D01*
X2577Y3178D01*
X2570Y3171D01*
X2566Y3163D01*
X2564Y3155D01*
X2593D01*
Y3185D01*
D02*
G37*
G36*
X1186D02*
Y3155D01*
X1216D01*
X1214Y3163D01*
X1209Y3171D01*
X1203Y3178D01*
X1195Y3182D01*
X1186Y3185D01*
D02*
G37*
G36*
X1176D02*
X1168Y3182D01*
X1160Y3178D01*
X1153Y3171D01*
X1148Y3163D01*
X1146Y3155D01*
X1176D01*
Y3185D01*
D02*
G37*
G36*
X3065Y3181D02*
X3065D01*
Y3145D01*
X3101D01*
Y3145D01*
X3099Y3156D01*
X3093Y3165D01*
X3085Y3173D01*
X3076Y3179D01*
X3065Y3181D01*
D02*
G37*
G36*
X3055D02*
X3055D01*
X3044Y3179D01*
X3035Y3173D01*
X3027Y3165D01*
X3021Y3156D01*
X3019Y3145D01*
Y3145D01*
X3055D01*
Y3181D01*
D02*
G37*
G36*
X3893Y3145D02*
X3863D01*
Y3115D01*
X3872Y3117D01*
X3880Y3122D01*
X3886Y3128D01*
X3891Y3136D01*
X3893Y3145D01*
D02*
G37*
G36*
X3853D02*
X3823D01*
X3826Y3136D01*
X3830Y3128D01*
X3837Y3122D01*
X3845Y3117D01*
X3853Y3115D01*
Y3145D01*
D02*
G37*
G36*
X3736D02*
X3706D01*
Y3115D01*
X3714Y3117D01*
X3722Y3122D01*
X3729Y3128D01*
X3733Y3136D01*
X3736Y3145D01*
D02*
G37*
G36*
X3696D02*
X3666D01*
X3668Y3136D01*
X3673Y3128D01*
X3679Y3122D01*
X3687Y3117D01*
X3696Y3115D01*
Y3145D01*
D02*
G37*
G36*
X3578D02*
X3548D01*
Y3115D01*
X3557Y3117D01*
X3565Y3122D01*
X3571Y3128D01*
X3576Y3136D01*
X3578Y3145D01*
D02*
G37*
G36*
X3538D02*
X3508D01*
X3511Y3136D01*
X3515Y3128D01*
X3522Y3122D01*
X3530Y3117D01*
X3538Y3115D01*
Y3145D01*
D02*
G37*
G36*
X3421D02*
X3391D01*
Y3115D01*
X3399Y3117D01*
X3407Y3122D01*
X3414Y3128D01*
X3418Y3136D01*
X3421Y3145D01*
D02*
G37*
G36*
X3381D02*
X3351D01*
X3353Y3136D01*
X3358Y3128D01*
X3364Y3122D01*
X3372Y3117D01*
X3381Y3115D01*
Y3145D01*
D02*
G37*
G36*
X2633D02*
X2603D01*
Y3115D01*
X2612Y3117D01*
X2620Y3122D01*
X2626Y3128D01*
X2631Y3136D01*
X2633Y3145D01*
D02*
G37*
G36*
X2593D02*
X2564D01*
X2566Y3136D01*
X2570Y3128D01*
X2577Y3122D01*
X2585Y3117D01*
X2593Y3115D01*
Y3145D01*
D02*
G37*
G36*
X1491D02*
X1461D01*
X1463Y3136D01*
X1468Y3128D01*
X1475Y3122D01*
X1483Y3117D01*
X1491Y3115D01*
Y3145D01*
D02*
G37*
G36*
X1216D02*
X1186D01*
Y3115D01*
X1195Y3117D01*
X1203Y3122D01*
X1209Y3128D01*
X1214Y3136D01*
X1216Y3145D01*
D02*
G37*
G36*
X1176D02*
X1146D01*
X1148Y3136D01*
X1153Y3128D01*
X1160Y3122D01*
X1168Y3117D01*
X1176Y3115D01*
Y3145D01*
D02*
G37*
G36*
X3101Y3135D02*
X3065D01*
Y3099D01*
X3065D01*
X3076Y3101D01*
X3085Y3107D01*
X3093Y3115D01*
X3099Y3124D01*
X3101Y3135D01*
Y3135D01*
D02*
G37*
G36*
X3055D02*
X3019D01*
Y3135D01*
X3021Y3124D01*
X3027Y3115D01*
X3035Y3107D01*
X3044Y3101D01*
X3055Y3099D01*
X3055D01*
Y3135D01*
D02*
G37*
G36*
X1387Y3072D02*
X1378D01*
X1369Y3070D01*
X1361Y3065D01*
X1354Y3058D01*
X1350Y3050D01*
X1347Y3041D01*
Y3032D01*
X1350Y3023D01*
X1354Y3015D01*
X1361Y3009D01*
X1369Y3004D01*
X1378Y3002D01*
X1387D01*
X1396Y3004D01*
X1404Y3009D01*
X1410Y3015D01*
X1415Y3023D01*
X1417Y3032D01*
Y3041D01*
X1415Y3050D01*
X1410Y3058D01*
X1404Y3065D01*
X1396Y3070D01*
X1387Y3072D01*
D02*
G37*
G36*
X3627Y3027D02*
Y2997D01*
X3657D01*
X3655Y3006D01*
X3650Y3014D01*
X3644Y3020D01*
X3636Y3025D01*
X3627Y3027D01*
D02*
G37*
G36*
X3617D02*
X3609Y3025D01*
X3601Y3020D01*
X3594Y3014D01*
X3589Y3006D01*
X3587Y2997D01*
X3617D01*
Y3027D01*
D02*
G37*
G36*
X3470D02*
Y2997D01*
X3499D01*
X3497Y3006D01*
X3493Y3014D01*
X3486Y3020D01*
X3478Y3025D01*
X3470Y3027D01*
D02*
G37*
G36*
X3155D02*
Y2997D01*
X3185D01*
X3182Y3006D01*
X3178Y3014D01*
X3171Y3020D01*
X3163Y3025D01*
X3155Y3027D01*
D02*
G37*
G36*
X3145D02*
X3136Y3025D01*
X3128Y3020D01*
X3122Y3014D01*
X3117Y3006D01*
X3115Y2997D01*
X3145D01*
Y3027D01*
D02*
G37*
G36*
X2997D02*
Y2997D01*
X3027D01*
X3025Y3006D01*
X3020Y3014D01*
X3014Y3020D01*
X3006Y3025D01*
X2997Y3027D01*
D02*
G37*
G36*
X2987D02*
X2979Y3025D01*
X2971Y3020D01*
X2964Y3014D01*
X2960Y3006D01*
X2957Y2997D01*
X2987D01*
Y3027D01*
D02*
G37*
G36*
X2682D02*
Y2997D01*
X2712D01*
X2710Y3006D01*
X2705Y3014D01*
X2699Y3020D01*
X2691Y3025D01*
X2682Y3027D01*
D02*
G37*
G36*
X2672D02*
X2664Y3025D01*
X2656Y3020D01*
X2649Y3014D01*
X2645Y3006D01*
X2642Y2997D01*
X2672D01*
Y3027D01*
D02*
G37*
G36*
X2525D02*
Y2997D01*
X2555D01*
X2552Y3006D01*
X2548Y3014D01*
X2541Y3020D01*
X2533Y3025D01*
X2525Y3027D01*
D02*
G37*
G36*
X2515D02*
X2506Y3025D01*
X2498Y3020D01*
X2492Y3014D01*
X2487Y3006D01*
X2485Y2997D01*
X2515D01*
Y3027D01*
D02*
G37*
G36*
X2367D02*
Y2997D01*
X2397D01*
X2395Y3006D01*
X2390Y3014D01*
X2384Y3020D01*
X2376Y3025D01*
X2367Y3027D01*
D02*
G37*
G36*
X2357D02*
X2349Y3025D01*
X2341Y3020D01*
X2334Y3014D01*
X2330Y3006D01*
X2327Y2997D01*
X2357D01*
Y3027D01*
D02*
G37*
G36*
X1265D02*
Y2997D01*
X1295D01*
X1292Y3006D01*
X1288Y3014D01*
X1281Y3020D01*
X1273Y3025D01*
X1265Y3027D01*
D02*
G37*
G36*
X1255D02*
X1246Y3025D01*
X1238Y3020D01*
X1232Y3014D01*
X1227Y3006D01*
X1225Y2997D01*
X1255D01*
Y3027D01*
D02*
G37*
G36*
X1107D02*
Y2997D01*
X1137D01*
X1135Y3006D01*
X1130Y3014D01*
X1124Y3020D01*
X1116Y3025D01*
X1107Y3027D01*
D02*
G37*
G36*
X1097D02*
X1089Y3025D01*
X1081Y3020D01*
X1074Y3014D01*
X1070Y3006D01*
X1067Y2997D01*
X1097D01*
Y3027D01*
D02*
G37*
G36*
X3657Y2987D02*
X3627D01*
Y2957D01*
X3636Y2960D01*
X3644Y2964D01*
X3650Y2971D01*
X3655Y2979D01*
X3657Y2987D01*
D02*
G37*
G36*
X3617D02*
X3587D01*
X3589Y2979D01*
X3594Y2971D01*
X3601Y2964D01*
X3609Y2960D01*
X3617Y2957D01*
Y2987D01*
D02*
G37*
G36*
X3302D02*
X3272D01*
X3274Y2979D01*
X3279Y2971D01*
X3286Y2964D01*
X3294Y2960D01*
X3302Y2957D01*
Y2987D01*
D02*
G37*
G36*
X3185D02*
X3155D01*
Y2957D01*
X3163Y2960D01*
X3171Y2964D01*
X3178Y2971D01*
X3182Y2979D01*
X3185Y2987D01*
D02*
G37*
G36*
X3145D02*
X3115D01*
X3117Y2979D01*
X3122Y2971D01*
X3128Y2964D01*
X3136Y2960D01*
X3145Y2957D01*
Y2987D01*
D02*
G37*
G36*
X3027D02*
X2997D01*
Y2957D01*
X3006Y2960D01*
X3014Y2964D01*
X3020Y2971D01*
X3025Y2979D01*
X3027Y2987D01*
D02*
G37*
G36*
X2987D02*
X2957D01*
X2960Y2979D01*
X2964Y2971D01*
X2971Y2964D01*
X2979Y2960D01*
X2987Y2957D01*
Y2987D01*
D02*
G37*
G36*
X2712D02*
X2682D01*
Y2957D01*
X2691Y2960D01*
X2699Y2964D01*
X2705Y2971D01*
X2710Y2979D01*
X2712Y2987D01*
D02*
G37*
G36*
X2672D02*
X2642D01*
X2645Y2979D01*
X2649Y2971D01*
X2656Y2964D01*
X2664Y2960D01*
X2672Y2957D01*
Y2987D01*
D02*
G37*
G36*
X2555D02*
X2525D01*
Y2957D01*
X2533Y2960D01*
X2541Y2964D01*
X2548Y2971D01*
X2552Y2979D01*
X2555Y2987D01*
D02*
G37*
G36*
X2515D02*
X2485D01*
X2487Y2979D01*
X2492Y2971D01*
X2498Y2964D01*
X2506Y2960D01*
X2515Y2957D01*
Y2987D01*
D02*
G37*
G36*
X2397D02*
X2367D01*
Y2957D01*
X2376Y2960D01*
X2384Y2964D01*
X2390Y2971D01*
X2395Y2979D01*
X2397Y2987D01*
D02*
G37*
G36*
X2357D02*
X2327D01*
X2330Y2979D01*
X2334Y2971D01*
X2341Y2964D01*
X2349Y2960D01*
X2357Y2957D01*
Y2987D01*
D02*
G37*
G36*
X1295D02*
X1265D01*
Y2957D01*
X1273Y2960D01*
X1281Y2964D01*
X1288Y2971D01*
X1292Y2979D01*
X1295Y2987D01*
D02*
G37*
G36*
X1255D02*
X1225D01*
X1227Y2979D01*
X1232Y2971D01*
X1238Y2964D01*
X1246Y2960D01*
X1255Y2957D01*
Y2987D01*
D02*
G37*
G36*
X1137D02*
X1107D01*
Y2957D01*
X1116Y2960D01*
X1124Y2964D01*
X1130Y2971D01*
X1135Y2979D01*
X1137Y2987D01*
D02*
G37*
G36*
X1097D02*
X1067D01*
X1070Y2979D01*
X1074Y2971D01*
X1081Y2964D01*
X1089Y2960D01*
X1097Y2957D01*
Y2987D01*
D02*
G37*
G36*
X3957Y2888D02*
X3920D01*
Y2851D01*
X3957D01*
Y2888D01*
D02*
G37*
G36*
X3910D02*
X3873D01*
Y2851D01*
X3910D01*
Y2888D01*
D02*
G37*
G36*
X3706Y2870D02*
Y2840D01*
X3736D01*
X3733Y2848D01*
X3729Y2856D01*
X3722Y2863D01*
X3714Y2867D01*
X3706Y2870D01*
D02*
G37*
G36*
X3696D02*
X3687Y2867D01*
X3679Y2863D01*
X3673Y2856D01*
X3668Y2848D01*
X3666Y2840D01*
X3696D01*
Y2870D01*
D02*
G37*
G36*
X3548D02*
Y2840D01*
X3578D01*
X3576Y2848D01*
X3571Y2856D01*
X3565Y2863D01*
X3557Y2867D01*
X3548Y2870D01*
D02*
G37*
G36*
X3538D02*
X3530Y2867D01*
X3522Y2863D01*
X3515Y2856D01*
X3511Y2848D01*
X3508Y2840D01*
X3538D01*
Y2870D01*
D02*
G37*
G36*
X3233D02*
Y2840D01*
X3263D01*
X3261Y2848D01*
X3256Y2856D01*
X3250Y2863D01*
X3242Y2867D01*
X3233Y2870D01*
D02*
G37*
G36*
X3223D02*
X3215Y2867D01*
X3207Y2863D01*
X3200Y2856D01*
X3196Y2848D01*
X3193Y2840D01*
X3223D01*
Y2870D01*
D02*
G37*
G36*
X3076D02*
Y2840D01*
X3106D01*
X3103Y2848D01*
X3099Y2856D01*
X3092Y2863D01*
X3084Y2867D01*
X3076Y2870D01*
D02*
G37*
G36*
X3066D02*
X3057Y2867D01*
X3049Y2863D01*
X3043Y2856D01*
X3038Y2848D01*
X3036Y2840D01*
X3066D01*
Y2870D01*
D02*
G37*
G36*
X2918D02*
Y2840D01*
X2948D01*
X2946Y2848D01*
X2941Y2856D01*
X2935Y2863D01*
X2927Y2867D01*
X2918Y2870D01*
D02*
G37*
G36*
X2908D02*
X2900Y2867D01*
X2892Y2863D01*
X2885Y2856D01*
X2881Y2848D01*
X2878Y2840D01*
X2908D01*
Y2870D01*
D02*
G37*
G36*
X2603D02*
Y2840D01*
X2633D01*
X2631Y2848D01*
X2626Y2856D01*
X2620Y2863D01*
X2612Y2867D01*
X2603Y2870D01*
D02*
G37*
G36*
X2593D02*
X2585Y2867D01*
X2577Y2863D01*
X2570Y2856D01*
X2566Y2848D01*
X2564Y2840D01*
X2593D01*
Y2870D01*
D02*
G37*
G36*
X1964D02*
X1955Y2867D01*
X1947Y2863D01*
X1940Y2856D01*
X1936Y2848D01*
X1934Y2840D01*
X1964D01*
Y2870D01*
D02*
G37*
G36*
X1816D02*
Y2840D01*
X1846D01*
X1844Y2848D01*
X1839Y2856D01*
X1833Y2863D01*
X1825Y2867D01*
X1816Y2870D01*
D02*
G37*
G36*
X1806D02*
X1798Y2867D01*
X1790Y2863D01*
X1783Y2856D01*
X1778Y2848D01*
X1776Y2840D01*
X1806D01*
Y2870D01*
D02*
G37*
G36*
X1186D02*
Y2840D01*
X1216D01*
X1214Y2848D01*
X1209Y2856D01*
X1203Y2863D01*
X1195Y2867D01*
X1186Y2870D01*
D02*
G37*
G36*
X1176D02*
X1168Y2867D01*
X1160Y2863D01*
X1153Y2856D01*
X1148Y2848D01*
X1146Y2840D01*
X1176D01*
Y2870D01*
D02*
G37*
G36*
X2105Y2860D02*
X2104D01*
Y2819D01*
X2145D01*
Y2820D01*
X2142Y2832D01*
X2136Y2842D01*
X2127Y2851D01*
X2117Y2857D01*
X2105Y2860D01*
D02*
G37*
G36*
X2094D02*
X2093D01*
X2081Y2857D01*
X2070Y2851D01*
X2062Y2842D01*
X2056Y2832D01*
X2052Y2820D01*
Y2819D01*
X2094D01*
Y2860D01*
D02*
G37*
G36*
X1707D02*
X1706D01*
Y2819D01*
X1748D01*
Y2820D01*
X1744Y2832D01*
X1738Y2842D01*
X1730Y2851D01*
X1719Y2857D01*
X1707Y2860D01*
D02*
G37*
G36*
X1696D02*
X1695D01*
X1683Y2857D01*
X1673Y2851D01*
X1664Y2842D01*
X1658Y2832D01*
X1655Y2820D01*
Y2819D01*
X1696D01*
Y2860D01*
D02*
G37*
G36*
X3957Y2841D02*
X3920D01*
Y2805D01*
X3957D01*
Y2841D01*
D02*
G37*
G36*
X3910D02*
X3873D01*
Y2805D01*
X3910D01*
Y2841D01*
D02*
G37*
G36*
X3736Y2830D02*
X3706D01*
Y2800D01*
X3714Y2802D01*
X3722Y2807D01*
X3729Y2813D01*
X3733Y2821D01*
X3736Y2830D01*
D02*
G37*
G36*
X3696D02*
X3666D01*
X3668Y2821D01*
X3673Y2813D01*
X3679Y2807D01*
X3687Y2802D01*
X3696Y2800D01*
Y2830D01*
D02*
G37*
G36*
X3578D02*
X3548D01*
Y2800D01*
X3557Y2802D01*
X3565Y2807D01*
X3571Y2813D01*
X3576Y2821D01*
X3578Y2830D01*
D02*
G37*
G36*
X3538D02*
X3508D01*
X3511Y2821D01*
X3515Y2813D01*
X3522Y2807D01*
X3530Y2802D01*
X3538Y2800D01*
Y2830D01*
D02*
G37*
G36*
X3263D02*
X3233D01*
Y2800D01*
X3242Y2802D01*
X3250Y2807D01*
X3256Y2813D01*
X3261Y2821D01*
X3263Y2830D01*
D02*
G37*
G36*
X3223D02*
X3193D01*
X3196Y2821D01*
X3200Y2813D01*
X3207Y2807D01*
X3215Y2802D01*
X3223Y2800D01*
Y2830D01*
D02*
G37*
G36*
X3106D02*
X3076D01*
Y2800D01*
X3084Y2802D01*
X3092Y2807D01*
X3099Y2813D01*
X3103Y2821D01*
X3106Y2830D01*
D02*
G37*
G36*
X3066D02*
X3036D01*
X3038Y2821D01*
X3043Y2813D01*
X3049Y2807D01*
X3057Y2802D01*
X3066Y2800D01*
Y2830D01*
D02*
G37*
G36*
X2948D02*
X2918D01*
Y2800D01*
X2927Y2802D01*
X2935Y2807D01*
X2941Y2813D01*
X2946Y2821D01*
X2948Y2830D01*
D02*
G37*
G36*
X2908D02*
X2878D01*
X2881Y2821D01*
X2885Y2813D01*
X2892Y2807D01*
X2900Y2802D01*
X2908Y2800D01*
Y2830D01*
D02*
G37*
G36*
X2633D02*
X2603D01*
Y2800D01*
X2612Y2802D01*
X2620Y2807D01*
X2626Y2813D01*
X2631Y2821D01*
X2633Y2830D01*
D02*
G37*
G36*
X2593D02*
X2564D01*
X2566Y2821D01*
X2570Y2813D01*
X2577Y2807D01*
X2585Y2802D01*
X2593Y2800D01*
Y2830D01*
D02*
G37*
G36*
X1964D02*
X1934D01*
X1936Y2821D01*
X1940Y2813D01*
X1947Y2807D01*
X1955Y2802D01*
X1964Y2800D01*
Y2830D01*
D02*
G37*
G36*
X1846D02*
X1816D01*
Y2800D01*
X1825Y2802D01*
X1833Y2807D01*
X1839Y2813D01*
X1844Y2821D01*
X1846Y2830D01*
D02*
G37*
G36*
X1806D02*
X1776D01*
X1778Y2821D01*
X1783Y2813D01*
X1790Y2807D01*
X1798Y2802D01*
X1806Y2800D01*
Y2830D01*
D02*
G37*
G36*
X1216D02*
X1186D01*
Y2800D01*
X1195Y2802D01*
X1203Y2807D01*
X1209Y2813D01*
X1214Y2821D01*
X1216Y2830D01*
D02*
G37*
G36*
X1176D02*
X1146D01*
X1148Y2821D01*
X1153Y2813D01*
X1160Y2807D01*
X1168Y2802D01*
X1176Y2800D01*
Y2830D01*
D02*
G37*
G36*
X2145Y2809D02*
X2104D01*
Y2767D01*
X2105D01*
X2117Y2771D01*
X2127Y2777D01*
X2136Y2785D01*
X2142Y2796D01*
X2145Y2808D01*
Y2809D01*
D02*
G37*
G36*
X2094D02*
X2052D01*
Y2808D01*
X2056Y2796D01*
X2062Y2785D01*
X2070Y2777D01*
X2081Y2771D01*
X2093Y2767D01*
X2094D01*
Y2809D01*
D02*
G37*
G36*
X1748D02*
X1706D01*
Y2767D01*
X1707D01*
X1719Y2771D01*
X1730Y2777D01*
X1738Y2785D01*
X1744Y2796D01*
X1748Y2808D01*
Y2809D01*
D02*
G37*
G36*
X1696D02*
X1655D01*
Y2808D01*
X1658Y2796D01*
X1664Y2785D01*
X1673Y2777D01*
X1683Y2771D01*
X1695Y2767D01*
X1696D01*
Y2809D01*
D02*
G37*
G36*
X1382Y2833D02*
X1373D01*
X1364Y2831D01*
X1356Y2826D01*
X1349Y2820D01*
X1345Y2812D01*
X1342Y2803D01*
Y2794D01*
X1345Y2785D01*
X1349Y2777D01*
X1356Y2770D01*
X1364Y2765D01*
X1373Y2763D01*
X1382D01*
X1391Y2765D01*
X1399Y2770D01*
X1405Y2777D01*
X1410Y2785D01*
X1412Y2794D01*
Y2803D01*
X1410Y2812D01*
X1405Y2820D01*
X1399Y2826D01*
X1391Y2831D01*
X1382Y2833D01*
D02*
G37*
G36*
X3775Y2712D02*
X3766Y2710D01*
X3758Y2705D01*
X3752Y2699D01*
X3747Y2691D01*
X3745Y2682D01*
X3775D01*
Y2712D01*
D02*
G37*
G36*
X3627D02*
Y2682D01*
X3657D01*
X3655Y2691D01*
X3650Y2699D01*
X3644Y2705D01*
X3636Y2710D01*
X3627Y2712D01*
D02*
G37*
G36*
X3617D02*
X3609Y2710D01*
X3601Y2705D01*
X3594Y2699D01*
X3589Y2691D01*
X3587Y2682D01*
X3617D01*
Y2712D01*
D02*
G37*
G36*
X3312D02*
Y2682D01*
X3342D01*
X3340Y2691D01*
X3335Y2699D01*
X3329Y2705D01*
X3321Y2710D01*
X3312Y2712D01*
D02*
G37*
G36*
X3302D02*
X3294Y2710D01*
X3286Y2705D01*
X3279Y2699D01*
X3274Y2691D01*
X3272Y2682D01*
X3302D01*
Y2712D01*
D02*
G37*
G36*
X3155D02*
Y2682D01*
X3185D01*
X3182Y2691D01*
X3178Y2699D01*
X3171Y2705D01*
X3163Y2710D01*
X3155Y2712D01*
D02*
G37*
G36*
X3145D02*
X3136Y2710D01*
X3128Y2705D01*
X3122Y2699D01*
X3117Y2691D01*
X3115Y2682D01*
X3145D01*
Y2712D01*
D02*
G37*
G36*
X2997D02*
Y2682D01*
X3027D01*
X3025Y2691D01*
X3020Y2699D01*
X3014Y2705D01*
X3006Y2710D01*
X2997Y2712D01*
D02*
G37*
G36*
X2987D02*
X2979Y2710D01*
X2971Y2705D01*
X2964Y2699D01*
X2960Y2691D01*
X2957Y2682D01*
X2987D01*
Y2712D01*
D02*
G37*
G36*
X2682D02*
Y2682D01*
X2712D01*
X2710Y2691D01*
X2705Y2699D01*
X2699Y2705D01*
X2691Y2710D01*
X2682Y2712D01*
D02*
G37*
G36*
X2672D02*
X2664Y2710D01*
X2656Y2705D01*
X2649Y2699D01*
X2645Y2691D01*
X2642Y2682D01*
X2672D01*
Y2712D01*
D02*
G37*
G36*
X2525D02*
Y2682D01*
X2555D01*
X2552Y2691D01*
X2548Y2699D01*
X2541Y2705D01*
X2533Y2710D01*
X2525Y2712D01*
D02*
G37*
G36*
X2515D02*
X2506Y2710D01*
X2498Y2705D01*
X2492Y2699D01*
X2487Y2691D01*
X2485Y2682D01*
X2515D01*
Y2712D01*
D02*
G37*
G36*
X2367D02*
Y2682D01*
X2397D01*
X2395Y2691D01*
X2390Y2699D01*
X2384Y2705D01*
X2376Y2710D01*
X2367Y2712D01*
D02*
G37*
G36*
X2357D02*
X2349Y2710D01*
X2341Y2705D01*
X2334Y2699D01*
X2330Y2691D01*
X2327Y2682D01*
X2357D01*
Y2712D01*
D02*
G37*
G36*
X2052D02*
Y2682D01*
X2082D01*
X2080Y2691D01*
X2075Y2699D01*
X2069Y2705D01*
X2061Y2710D01*
X2052Y2712D01*
D02*
G37*
G36*
X2042D02*
X2034Y2710D01*
X2026Y2705D01*
X2019Y2699D01*
X2015Y2691D01*
X2012Y2682D01*
X2042D01*
Y2712D01*
D02*
G37*
G36*
X1737D02*
Y2682D01*
X1767D01*
X1765Y2691D01*
X1760Y2699D01*
X1754Y2705D01*
X1746Y2710D01*
X1737Y2712D01*
D02*
G37*
G36*
X1727D02*
X1719Y2710D01*
X1711Y2705D01*
X1704Y2699D01*
X1700Y2691D01*
X1697Y2682D01*
X1727D01*
Y2712D01*
D02*
G37*
G36*
X1580D02*
Y2682D01*
X1610D01*
X1607Y2691D01*
X1603Y2699D01*
X1596Y2705D01*
X1588Y2710D01*
X1580Y2712D01*
D02*
G37*
G36*
X1570D02*
X1561Y2710D01*
X1553Y2705D01*
X1547Y2699D01*
X1542Y2691D01*
X1540Y2682D01*
X1570D01*
Y2712D01*
D02*
G37*
G36*
X1107D02*
Y2682D01*
X1137D01*
X1135Y2691D01*
X1130Y2699D01*
X1124Y2705D01*
X1116Y2710D01*
X1107Y2712D01*
D02*
G37*
G36*
X1097D02*
X1089Y2710D01*
X1081Y2705D01*
X1074Y2699D01*
X1070Y2691D01*
X1067Y2682D01*
X1097D01*
Y2712D01*
D02*
G37*
G36*
X3814Y2672D02*
X3785D01*
Y2642D01*
X3793Y2645D01*
X3801Y2649D01*
X3808Y2656D01*
X3812Y2664D01*
X3814Y2672D01*
D02*
G37*
G36*
X3775D02*
X3745D01*
X3747Y2664D01*
X3752Y2656D01*
X3758Y2649D01*
X3766Y2645D01*
X3775Y2642D01*
Y2672D01*
D02*
G37*
G36*
X3657D02*
X3627D01*
Y2642D01*
X3636Y2645D01*
X3644Y2649D01*
X3650Y2656D01*
X3655Y2664D01*
X3657Y2672D01*
D02*
G37*
G36*
X3617D02*
X3587D01*
X3589Y2664D01*
X3594Y2656D01*
X3601Y2649D01*
X3609Y2645D01*
X3617Y2642D01*
Y2672D01*
D02*
G37*
G36*
X3342D02*
X3312D01*
Y2642D01*
X3321Y2645D01*
X3329Y2649D01*
X3335Y2656D01*
X3340Y2664D01*
X3342Y2672D01*
D02*
G37*
G36*
X3302D02*
X3272D01*
X3274Y2664D01*
X3279Y2656D01*
X3286Y2649D01*
X3294Y2645D01*
X3302Y2642D01*
Y2672D01*
D02*
G37*
G36*
X3185D02*
X3155D01*
Y2642D01*
X3163Y2645D01*
X3171Y2649D01*
X3178Y2656D01*
X3182Y2664D01*
X3185Y2672D01*
D02*
G37*
G36*
X3145D02*
X3115D01*
X3117Y2664D01*
X3122Y2656D01*
X3128Y2649D01*
X3136Y2645D01*
X3145Y2642D01*
Y2672D01*
D02*
G37*
G36*
X3027D02*
X2997D01*
Y2642D01*
X3006Y2645D01*
X3014Y2649D01*
X3020Y2656D01*
X3025Y2664D01*
X3027Y2672D01*
D02*
G37*
G36*
X2987D02*
X2957D01*
X2960Y2664D01*
X2964Y2656D01*
X2971Y2649D01*
X2979Y2645D01*
X2987Y2642D01*
Y2672D01*
D02*
G37*
G36*
X2712D02*
X2682D01*
Y2642D01*
X2691Y2645D01*
X2699Y2649D01*
X2705Y2656D01*
X2710Y2664D01*
X2712Y2672D01*
D02*
G37*
G36*
X2672D02*
X2642D01*
X2645Y2664D01*
X2649Y2656D01*
X2656Y2649D01*
X2664Y2645D01*
X2672Y2642D01*
Y2672D01*
D02*
G37*
G36*
X2555D02*
X2525D01*
Y2642D01*
X2533Y2645D01*
X2541Y2649D01*
X2548Y2656D01*
X2552Y2664D01*
X2555Y2672D01*
D02*
G37*
G36*
X2515D02*
X2485D01*
X2487Y2664D01*
X2492Y2656D01*
X2498Y2649D01*
X2506Y2645D01*
X2515Y2642D01*
Y2672D01*
D02*
G37*
G36*
X2397D02*
X2367D01*
Y2642D01*
X2376Y2645D01*
X2384Y2649D01*
X2390Y2656D01*
X2395Y2664D01*
X2397Y2672D01*
D02*
G37*
G36*
X2357D02*
X2327D01*
X2330Y2664D01*
X2334Y2656D01*
X2341Y2649D01*
X2349Y2645D01*
X2357Y2642D01*
Y2672D01*
D02*
G37*
G36*
X2082D02*
X2052D01*
Y2642D01*
X2061Y2645D01*
X2069Y2649D01*
X2075Y2656D01*
X2080Y2664D01*
X2082Y2672D01*
D02*
G37*
G36*
X2042D02*
X2012D01*
X2015Y2664D01*
X2019Y2656D01*
X2026Y2649D01*
X2034Y2645D01*
X2042Y2642D01*
Y2672D01*
D02*
G37*
G36*
X1767D02*
X1737D01*
Y2642D01*
X1746Y2645D01*
X1754Y2649D01*
X1760Y2656D01*
X1765Y2664D01*
X1767Y2672D01*
D02*
G37*
G36*
X1727D02*
X1697D01*
X1700Y2664D01*
X1704Y2656D01*
X1711Y2649D01*
X1719Y2645D01*
X1727Y2642D01*
Y2672D01*
D02*
G37*
G36*
X1610D02*
X1580D01*
Y2642D01*
X1588Y2645D01*
X1596Y2649D01*
X1603Y2656D01*
X1607Y2664D01*
X1610Y2672D01*
D02*
G37*
G36*
X1570D02*
X1540D01*
X1542Y2664D01*
X1547Y2656D01*
X1553Y2649D01*
X1561Y2645D01*
X1570Y2642D01*
Y2672D01*
D02*
G37*
G36*
X1137D02*
X1107D01*
Y2642D01*
X1116Y2645D01*
X1124Y2649D01*
X1130Y2656D01*
X1135Y2664D01*
X1137Y2672D01*
D02*
G37*
G36*
X1097D02*
X1067D01*
X1070Y2664D01*
X1074Y2656D01*
X1081Y2649D01*
X1089Y2645D01*
X1097Y2642D01*
Y2672D01*
D02*
G37*
G36*
X1305Y2720D02*
X1295D01*
X1285Y2717D01*
X1275Y2712D01*
X1268Y2705D01*
X1263Y2695D01*
X1260Y2685D01*
Y2675D01*
X1263Y2665D01*
X1268Y2655D01*
X1275Y2648D01*
X1285Y2643D01*
X1295Y2640D01*
X1305D01*
X1315Y2643D01*
X1325Y2648D01*
X1332Y2655D01*
X1337Y2665D01*
X1340Y2675D01*
Y2685D01*
X1337Y2695D01*
X1332Y2705D01*
X1325Y2712D01*
X1315Y2717D01*
X1305Y2720D01*
D02*
G37*
G36*
X3706Y2555D02*
Y2525D01*
X3736D01*
X3733Y2533D01*
X3729Y2541D01*
X3722Y2548D01*
X3714Y2552D01*
X3706Y2555D01*
D02*
G37*
G36*
X3696D02*
X3687Y2552D01*
X3679Y2548D01*
X3673Y2541D01*
X3668Y2533D01*
X3666Y2525D01*
X3696D01*
Y2555D01*
D02*
G37*
G36*
X3548D02*
Y2525D01*
X3578D01*
X3576Y2533D01*
X3571Y2541D01*
X3565Y2548D01*
X3557Y2552D01*
X3548Y2555D01*
D02*
G37*
G36*
X3538D02*
X3530Y2552D01*
X3522Y2548D01*
X3515Y2541D01*
X3511Y2533D01*
X3508Y2525D01*
X3538D01*
Y2555D01*
D02*
G37*
G36*
X3233D02*
Y2525D01*
X3263D01*
X3261Y2533D01*
X3256Y2541D01*
X3250Y2548D01*
X3242Y2552D01*
X3233Y2555D01*
D02*
G37*
G36*
X3223D02*
X3215Y2552D01*
X3207Y2548D01*
X3200Y2541D01*
X3196Y2533D01*
X3193Y2525D01*
X3223D01*
Y2555D01*
D02*
G37*
G36*
X3076D02*
Y2525D01*
X3106D01*
X3103Y2533D01*
X3099Y2541D01*
X3092Y2548D01*
X3084Y2552D01*
X3076Y2555D01*
D02*
G37*
G36*
X3066D02*
X3057Y2552D01*
X3049Y2548D01*
X3043Y2541D01*
X3038Y2533D01*
X3036Y2525D01*
X3066D01*
Y2555D01*
D02*
G37*
G36*
X2918D02*
Y2525D01*
X2948D01*
X2946Y2533D01*
X2941Y2541D01*
X2935Y2548D01*
X2927Y2552D01*
X2918Y2555D01*
D02*
G37*
G36*
X2908D02*
X2900Y2552D01*
X2892Y2548D01*
X2885Y2541D01*
X2881Y2533D01*
X2878Y2525D01*
X2908D01*
Y2555D01*
D02*
G37*
G36*
X2603D02*
Y2525D01*
X2633D01*
X2631Y2533D01*
X2626Y2541D01*
X2620Y2548D01*
X2612Y2552D01*
X2603Y2555D01*
D02*
G37*
G36*
X2593D02*
X2585Y2552D01*
X2577Y2548D01*
X2570Y2541D01*
X2566Y2533D01*
X2564Y2525D01*
X2593D01*
Y2555D01*
D02*
G37*
G36*
X2121D02*
X2112Y2552D01*
X2104Y2548D01*
X2098Y2541D01*
X2093Y2533D01*
X2091Y2525D01*
X2121D01*
Y2555D01*
D02*
G37*
G36*
X1974D02*
Y2525D01*
X2003D01*
X2001Y2533D01*
X1997Y2541D01*
X1990Y2548D01*
X1982Y2552D01*
X1974Y2555D01*
D02*
G37*
G36*
X1964D02*
X1955Y2552D01*
X1947Y2548D01*
X1940Y2541D01*
X1936Y2533D01*
X1934Y2525D01*
X1964D01*
Y2555D01*
D02*
G37*
G36*
X1816D02*
Y2525D01*
X1846D01*
X1844Y2533D01*
X1839Y2541D01*
X1833Y2548D01*
X1825Y2552D01*
X1816Y2555D01*
D02*
G37*
G36*
X1806D02*
X1798Y2552D01*
X1790Y2548D01*
X1783Y2541D01*
X1778Y2533D01*
X1776Y2525D01*
X1806D01*
Y2555D01*
D02*
G37*
G36*
X1659D02*
Y2525D01*
X1688D01*
X1686Y2533D01*
X1682Y2541D01*
X1675Y2548D01*
X1667Y2552D01*
X1659Y2555D01*
D02*
G37*
G36*
X1649D02*
X1640Y2552D01*
X1632Y2548D01*
X1626Y2541D01*
X1621Y2533D01*
X1619Y2525D01*
X1649D01*
Y2555D01*
D02*
G37*
G36*
X1501D02*
Y2525D01*
X1531D01*
X1529Y2533D01*
X1524Y2541D01*
X1518Y2548D01*
X1510Y2552D01*
X1501Y2555D01*
D02*
G37*
G36*
X1491D02*
X1483Y2552D01*
X1475Y2548D01*
X1468Y2541D01*
X1463Y2533D01*
X1461Y2525D01*
X1491D01*
Y2555D01*
D02*
G37*
G36*
X1186D02*
Y2525D01*
X1216D01*
X1214Y2533D01*
X1209Y2541D01*
X1203Y2548D01*
X1195Y2552D01*
X1186Y2555D01*
D02*
G37*
G36*
X1176D02*
X1168Y2552D01*
X1160Y2548D01*
X1153Y2541D01*
X1148Y2533D01*
X1146Y2525D01*
X1176D01*
Y2555D01*
D02*
G37*
G36*
X1340Y2602D02*
X1260D01*
Y2522D01*
X1340D01*
Y2602D01*
D02*
G37*
G36*
X3736Y2515D02*
X3706D01*
Y2485D01*
X3714Y2487D01*
X3722Y2492D01*
X3729Y2498D01*
X3733Y2506D01*
X3736Y2515D01*
D02*
G37*
G36*
X3696D02*
X3666D01*
X3668Y2506D01*
X3673Y2498D01*
X3679Y2492D01*
X3687Y2487D01*
X3696Y2485D01*
Y2515D01*
D02*
G37*
G36*
X3578D02*
X3548D01*
Y2485D01*
X3557Y2487D01*
X3565Y2492D01*
X3571Y2498D01*
X3576Y2506D01*
X3578Y2515D01*
D02*
G37*
G36*
X3538D02*
X3508D01*
X3511Y2506D01*
X3515Y2498D01*
X3522Y2492D01*
X3530Y2487D01*
X3538Y2485D01*
Y2515D01*
D02*
G37*
G36*
X3263D02*
X3233D01*
Y2485D01*
X3242Y2487D01*
X3250Y2492D01*
X3256Y2498D01*
X3261Y2506D01*
X3263Y2515D01*
D02*
G37*
G36*
X3223D02*
X3193D01*
X3196Y2506D01*
X3200Y2498D01*
X3207Y2492D01*
X3215Y2487D01*
X3223Y2485D01*
Y2515D01*
D02*
G37*
G36*
X3106D02*
X3076D01*
Y2485D01*
X3084Y2487D01*
X3092Y2492D01*
X3099Y2498D01*
X3103Y2506D01*
X3106Y2515D01*
D02*
G37*
G36*
X3066D02*
X3036D01*
X3038Y2506D01*
X3043Y2498D01*
X3049Y2492D01*
X3057Y2487D01*
X3066Y2485D01*
Y2515D01*
D02*
G37*
G36*
X2948D02*
X2918D01*
Y2485D01*
X2927Y2487D01*
X2935Y2492D01*
X2941Y2498D01*
X2946Y2506D01*
X2948Y2515D01*
D02*
G37*
G36*
X2908D02*
X2878D01*
X2881Y2506D01*
X2885Y2498D01*
X2892Y2492D01*
X2900Y2487D01*
X2908Y2485D01*
Y2515D01*
D02*
G37*
G36*
X2633D02*
X2603D01*
Y2485D01*
X2612Y2487D01*
X2620Y2492D01*
X2626Y2498D01*
X2631Y2506D01*
X2633Y2515D01*
D02*
G37*
G36*
X2593D02*
X2564D01*
X2566Y2506D01*
X2570Y2498D01*
X2577Y2492D01*
X2585Y2487D01*
X2593Y2485D01*
Y2515D01*
D02*
G37*
G36*
X2121D02*
X2091D01*
X2093Y2506D01*
X2098Y2498D01*
X2104Y2492D01*
X2112Y2487D01*
X2121Y2485D01*
Y2515D01*
D02*
G37*
G36*
X2003D02*
X1974D01*
Y2485D01*
X1982Y2487D01*
X1990Y2492D01*
X1997Y2498D01*
X2001Y2506D01*
X2003Y2515D01*
D02*
G37*
G36*
X1964D02*
X1934D01*
X1936Y2506D01*
X1940Y2498D01*
X1947Y2492D01*
X1955Y2487D01*
X1964Y2485D01*
Y2515D01*
D02*
G37*
G36*
X1846D02*
X1816D01*
Y2485D01*
X1825Y2487D01*
X1833Y2492D01*
X1839Y2498D01*
X1844Y2506D01*
X1846Y2515D01*
D02*
G37*
G36*
X1806D02*
X1776D01*
X1778Y2506D01*
X1783Y2498D01*
X1790Y2492D01*
X1798Y2487D01*
X1806Y2485D01*
Y2515D01*
D02*
G37*
G36*
X1688D02*
X1659D01*
Y2485D01*
X1667Y2487D01*
X1675Y2492D01*
X1682Y2498D01*
X1686Y2506D01*
X1688Y2515D01*
D02*
G37*
G36*
X1649D02*
X1619D01*
X1621Y2506D01*
X1626Y2498D01*
X1632Y2492D01*
X1640Y2487D01*
X1649Y2485D01*
Y2515D01*
D02*
G37*
G36*
X1531D02*
X1501D01*
Y2485D01*
X1510Y2487D01*
X1518Y2492D01*
X1524Y2498D01*
X1529Y2506D01*
X1531Y2515D01*
D02*
G37*
G36*
X1491D02*
X1461D01*
X1463Y2506D01*
X1468Y2498D01*
X1475Y2492D01*
X1483Y2487D01*
X1491Y2485D01*
Y2515D01*
D02*
G37*
G36*
X1216D02*
X1186D01*
Y2485D01*
X1195Y2487D01*
X1203Y2492D01*
X1209Y2498D01*
X1214Y2506D01*
X1216Y2515D01*
D02*
G37*
G36*
X1176D02*
X1146D01*
X1148Y2506D01*
X1153Y2498D01*
X1160Y2492D01*
X1168Y2487D01*
X1176Y2485D01*
Y2515D01*
D02*
G37*
G36*
X2105Y2463D02*
X2104D01*
Y2421D01*
X2145D01*
Y2422D01*
X2142Y2434D01*
X2136Y2445D01*
X2127Y2453D01*
X2117Y2459D01*
X2105Y2463D01*
D02*
G37*
G36*
X2094D02*
X2093D01*
X2081Y2459D01*
X2070Y2453D01*
X2062Y2445D01*
X2056Y2434D01*
X2052Y2422D01*
Y2421D01*
X2094D01*
Y2463D01*
D02*
G37*
G36*
X1707D02*
X1706D01*
Y2421D01*
X1748D01*
Y2422D01*
X1744Y2434D01*
X1738Y2445D01*
X1730Y2453D01*
X1719Y2459D01*
X1707Y2463D01*
D02*
G37*
G36*
X1696D02*
X1695D01*
X1683Y2459D01*
X1673Y2453D01*
X1664Y2445D01*
X1658Y2434D01*
X1655Y2422D01*
Y2421D01*
X1696D01*
Y2463D01*
D02*
G37*
G36*
X1382Y2479D02*
X1373D01*
X1364Y2476D01*
X1356Y2472D01*
X1349Y2465D01*
X1345Y2457D01*
X1342Y2448D01*
Y2439D01*
X1345Y2430D01*
X1349Y2422D01*
X1356Y2416D01*
X1364Y2411D01*
X1373Y2409D01*
X1382D01*
X1391Y2411D01*
X1399Y2416D01*
X1405Y2422D01*
X1410Y2430D01*
X1412Y2439D01*
Y2448D01*
X1410Y2457D01*
X1405Y2465D01*
X1399Y2472D01*
X1391Y2476D01*
X1382Y2479D01*
D02*
G37*
G36*
X2145Y2411D02*
X2104D01*
Y2370D01*
X2105D01*
X2117Y2373D01*
X2127Y2379D01*
X2136Y2388D01*
X2142Y2398D01*
X2145Y2410D01*
Y2411D01*
D02*
G37*
G36*
X2094D02*
X2052D01*
Y2410D01*
X2056Y2398D01*
X2062Y2388D01*
X2070Y2379D01*
X2081Y2373D01*
X2093Y2370D01*
X2094D01*
Y2411D01*
D02*
G37*
G36*
X1748D02*
X1706D01*
Y2370D01*
X1707D01*
X1719Y2373D01*
X1730Y2379D01*
X1738Y2388D01*
X1744Y2398D01*
X1748Y2410D01*
Y2411D01*
D02*
G37*
G36*
X1696D02*
X1655D01*
Y2410D01*
X1658Y2398D01*
X1664Y2388D01*
X1673Y2379D01*
X1683Y2373D01*
X1695Y2370D01*
X1696D01*
Y2411D01*
D02*
G37*
G36*
X3785Y2397D02*
Y2367D01*
X3814D01*
X3812Y2376D01*
X3808Y2384D01*
X3801Y2390D01*
X3793Y2395D01*
X3785Y2397D01*
D02*
G37*
G36*
X3775D02*
X3766Y2395D01*
X3758Y2390D01*
X3752Y2384D01*
X3747Y2376D01*
X3745Y2367D01*
X3775D01*
Y2397D01*
D02*
G37*
G36*
X3627D02*
Y2367D01*
X3657D01*
X3655Y2376D01*
X3650Y2384D01*
X3644Y2390D01*
X3636Y2395D01*
X3627Y2397D01*
D02*
G37*
G36*
X3617D02*
X3609Y2395D01*
X3601Y2390D01*
X3594Y2384D01*
X3589Y2376D01*
X3587Y2367D01*
X3617D01*
Y2397D01*
D02*
G37*
G36*
X3312D02*
Y2367D01*
X3342D01*
X3340Y2376D01*
X3335Y2384D01*
X3329Y2390D01*
X3321Y2395D01*
X3312Y2397D01*
D02*
G37*
G36*
X3302D02*
X3294Y2395D01*
X3286Y2390D01*
X3279Y2384D01*
X3274Y2376D01*
X3272Y2367D01*
X3302D01*
Y2397D01*
D02*
G37*
G36*
X3155D02*
Y2367D01*
X3185D01*
X3182Y2376D01*
X3178Y2384D01*
X3171Y2390D01*
X3163Y2395D01*
X3155Y2397D01*
D02*
G37*
G36*
X3145D02*
X3136Y2395D01*
X3128Y2390D01*
X3122Y2384D01*
X3117Y2376D01*
X3115Y2367D01*
X3145D01*
Y2397D01*
D02*
G37*
G36*
X2997D02*
Y2367D01*
X3027D01*
X3025Y2376D01*
X3020Y2384D01*
X3014Y2390D01*
X3006Y2395D01*
X2997Y2397D01*
D02*
G37*
G36*
X2987D02*
X2979Y2395D01*
X2971Y2390D01*
X2964Y2384D01*
X2960Y2376D01*
X2957Y2367D01*
X2987D01*
Y2397D01*
D02*
G37*
G36*
X2682D02*
Y2367D01*
X2712D01*
X2710Y2376D01*
X2705Y2384D01*
X2699Y2390D01*
X2691Y2395D01*
X2682Y2397D01*
D02*
G37*
G36*
X2672D02*
X2664Y2395D01*
X2656Y2390D01*
X2649Y2384D01*
X2645Y2376D01*
X2642Y2367D01*
X2672D01*
Y2397D01*
D02*
G37*
G36*
X2367D02*
Y2367D01*
X2397D01*
X2395Y2376D01*
X2390Y2384D01*
X2384Y2390D01*
X2376Y2395D01*
X2367Y2397D01*
D02*
G37*
G36*
X2357D02*
X2349Y2395D01*
X2341Y2390D01*
X2334Y2384D01*
X2330Y2376D01*
X2327Y2367D01*
X2357D01*
Y2397D01*
D02*
G37*
G36*
X1895D02*
Y2367D01*
X1925D01*
X1922Y2376D01*
X1918Y2384D01*
X1911Y2390D01*
X1903Y2395D01*
X1895Y2397D01*
D02*
G37*
G36*
X1885D02*
X1876Y2395D01*
X1868Y2390D01*
X1862Y2384D01*
X1857Y2376D01*
X1855Y2367D01*
X1885D01*
Y2397D01*
D02*
G37*
G36*
X1580D02*
Y2367D01*
X1610D01*
X1607Y2376D01*
X1603Y2384D01*
X1596Y2390D01*
X1588Y2395D01*
X1580Y2397D01*
D02*
G37*
G36*
X1570D02*
X1561Y2395D01*
X1553Y2390D01*
X1547Y2384D01*
X1542Y2376D01*
X1540Y2367D01*
X1570D01*
Y2397D01*
D02*
G37*
G36*
X1422D02*
Y2367D01*
X1452D01*
X1450Y2376D01*
X1445Y2384D01*
X1439Y2390D01*
X1431Y2395D01*
X1422Y2397D01*
D02*
G37*
G36*
X1412D02*
X1404Y2395D01*
X1396Y2390D01*
X1389Y2384D01*
X1385Y2376D01*
X1382Y2367D01*
X1412D01*
Y2397D01*
D02*
G37*
G36*
X1265D02*
Y2367D01*
X1295D01*
X1292Y2376D01*
X1288Y2384D01*
X1281Y2390D01*
X1273Y2395D01*
X1265Y2397D01*
D02*
G37*
G36*
X1255D02*
X1246Y2395D01*
X1238Y2390D01*
X1232Y2384D01*
X1227Y2376D01*
X1225Y2367D01*
X1255D01*
Y2397D01*
D02*
G37*
G36*
X1107D02*
Y2367D01*
X1137D01*
X1135Y2376D01*
X1130Y2384D01*
X1124Y2390D01*
X1116Y2395D01*
X1107Y2397D01*
D02*
G37*
G36*
X1097D02*
X1089Y2395D01*
X1081Y2390D01*
X1074Y2384D01*
X1070Y2376D01*
X1067Y2367D01*
X1097D01*
Y2397D01*
D02*
G37*
G36*
X3814Y2357D02*
X3785D01*
Y2327D01*
X3793Y2330D01*
X3801Y2334D01*
X3808Y2341D01*
X3812Y2349D01*
X3814Y2357D01*
D02*
G37*
G36*
X3775D02*
X3745D01*
X3747Y2349D01*
X3752Y2341D01*
X3758Y2334D01*
X3766Y2330D01*
X3775Y2327D01*
Y2357D01*
D02*
G37*
G36*
X3657D02*
X3627D01*
Y2327D01*
X3636Y2330D01*
X3644Y2334D01*
X3650Y2341D01*
X3655Y2349D01*
X3657Y2357D01*
D02*
G37*
G36*
X3617D02*
X3587D01*
X3589Y2349D01*
X3594Y2341D01*
X3601Y2334D01*
X3609Y2330D01*
X3617Y2327D01*
Y2357D01*
D02*
G37*
G36*
X3342D02*
X3312D01*
Y2327D01*
X3321Y2330D01*
X3329Y2334D01*
X3335Y2341D01*
X3340Y2349D01*
X3342Y2357D01*
D02*
G37*
G36*
X3302D02*
X3272D01*
X3274Y2349D01*
X3279Y2341D01*
X3286Y2334D01*
X3294Y2330D01*
X3302Y2327D01*
Y2357D01*
D02*
G37*
G36*
X3185D02*
X3155D01*
Y2327D01*
X3163Y2330D01*
X3171Y2334D01*
X3178Y2341D01*
X3182Y2349D01*
X3185Y2357D01*
D02*
G37*
G36*
X3145D02*
X3115D01*
X3117Y2349D01*
X3122Y2341D01*
X3128Y2334D01*
X3136Y2330D01*
X3145Y2327D01*
Y2357D01*
D02*
G37*
G36*
X3027D02*
X2997D01*
Y2327D01*
X3006Y2330D01*
X3014Y2334D01*
X3020Y2341D01*
X3025Y2349D01*
X3027Y2357D01*
D02*
G37*
G36*
X2987D02*
X2957D01*
X2960Y2349D01*
X2964Y2341D01*
X2971Y2334D01*
X2979Y2330D01*
X2987Y2327D01*
Y2357D01*
D02*
G37*
G36*
X2712D02*
X2682D01*
Y2327D01*
X2691Y2330D01*
X2699Y2334D01*
X2705Y2341D01*
X2710Y2349D01*
X2712Y2357D01*
D02*
G37*
G36*
X2672D02*
X2642D01*
X2645Y2349D01*
X2649Y2341D01*
X2656Y2334D01*
X2664Y2330D01*
X2672Y2327D01*
Y2357D01*
D02*
G37*
G36*
X2397D02*
X2367D01*
Y2327D01*
X2376Y2330D01*
X2384Y2334D01*
X2390Y2341D01*
X2395Y2349D01*
X2397Y2357D01*
D02*
G37*
G36*
X2357D02*
X2327D01*
X2330Y2349D01*
X2334Y2341D01*
X2341Y2334D01*
X2349Y2330D01*
X2357Y2327D01*
Y2357D01*
D02*
G37*
G36*
X1925D02*
X1895D01*
Y2327D01*
X1903Y2330D01*
X1911Y2334D01*
X1918Y2341D01*
X1922Y2349D01*
X1925Y2357D01*
D02*
G37*
G36*
X1885D02*
X1855D01*
X1857Y2349D01*
X1862Y2341D01*
X1868Y2334D01*
X1876Y2330D01*
X1885Y2327D01*
Y2357D01*
D02*
G37*
G36*
X1610D02*
X1580D01*
Y2327D01*
X1588Y2330D01*
X1596Y2334D01*
X1603Y2341D01*
X1607Y2349D01*
X1610Y2357D01*
D02*
G37*
G36*
X1570D02*
X1540D01*
X1542Y2349D01*
X1547Y2341D01*
X1553Y2334D01*
X1561Y2330D01*
X1570Y2327D01*
Y2357D01*
D02*
G37*
G36*
X1452D02*
X1422D01*
Y2327D01*
X1431Y2330D01*
X1439Y2334D01*
X1445Y2341D01*
X1450Y2349D01*
X1452Y2357D01*
D02*
G37*
G36*
X1412D02*
X1382D01*
X1385Y2349D01*
X1389Y2341D01*
X1396Y2334D01*
X1404Y2330D01*
X1412Y2327D01*
Y2357D01*
D02*
G37*
G36*
X1295D02*
X1265D01*
Y2327D01*
X1273Y2330D01*
X1281Y2334D01*
X1288Y2341D01*
X1292Y2349D01*
X1295Y2357D01*
D02*
G37*
G36*
X1255D02*
X1225D01*
X1227Y2349D01*
X1232Y2341D01*
X1238Y2334D01*
X1246Y2330D01*
X1255Y2327D01*
Y2357D01*
D02*
G37*
G36*
X1137D02*
X1107D01*
Y2327D01*
X1116Y2330D01*
X1124Y2334D01*
X1130Y2341D01*
X1135Y2349D01*
X1137Y2357D01*
D02*
G37*
G36*
X1097D02*
X1067D01*
X1070Y2349D01*
X1074Y2341D01*
X1081Y2334D01*
X1089Y2330D01*
X1097Y2327D01*
Y2357D01*
D02*
G37*
G36*
X3863Y2240D02*
Y2210D01*
X3893D01*
X3891Y2218D01*
X3886Y2226D01*
X3880Y2233D01*
X3872Y2237D01*
X3863Y2240D01*
D02*
G37*
G36*
X3853D02*
X3845Y2237D01*
X3837Y2233D01*
X3830Y2226D01*
X3826Y2218D01*
X3823Y2210D01*
X3853D01*
Y2240D01*
D02*
G37*
G36*
X3391D02*
Y2210D01*
X3421D01*
X3418Y2218D01*
X3414Y2226D01*
X3407Y2233D01*
X3399Y2237D01*
X3391Y2240D01*
D02*
G37*
G36*
X3381D02*
X3372Y2237D01*
X3364Y2233D01*
X3358Y2226D01*
X3353Y2218D01*
X3351Y2210D01*
X3381D01*
Y2240D01*
D02*
G37*
G36*
X3233D02*
Y2210D01*
X3263D01*
X3261Y2218D01*
X3256Y2226D01*
X3250Y2233D01*
X3242Y2237D01*
X3233Y2240D01*
D02*
G37*
G36*
X3223D02*
X3215Y2237D01*
X3207Y2233D01*
X3200Y2226D01*
X3196Y2218D01*
X3193Y2210D01*
X3223D01*
Y2240D01*
D02*
G37*
G36*
X3076D02*
Y2210D01*
X3106D01*
X3103Y2218D01*
X3099Y2226D01*
X3092Y2233D01*
X3084Y2237D01*
X3076Y2240D01*
D02*
G37*
G36*
X3066D02*
X3057Y2237D01*
X3049Y2233D01*
X3043Y2226D01*
X3038Y2218D01*
X3036Y2210D01*
X3066D01*
Y2240D01*
D02*
G37*
G36*
X2761D02*
Y2210D01*
X2791D01*
X2789Y2218D01*
X2784Y2226D01*
X2777Y2233D01*
X2769Y2237D01*
X2761Y2240D01*
D02*
G37*
G36*
X2751D02*
X2742Y2237D01*
X2734Y2233D01*
X2728Y2226D01*
X2723Y2218D01*
X2721Y2210D01*
X2751D01*
Y2240D01*
D02*
G37*
G36*
X2603D02*
Y2210D01*
X2633D01*
X2631Y2218D01*
X2626Y2226D01*
X2620Y2233D01*
X2612Y2237D01*
X2603Y2240D01*
D02*
G37*
G36*
X2593D02*
X2585Y2237D01*
X2577Y2233D01*
X2570Y2226D01*
X2566Y2218D01*
X2564Y2210D01*
X2593D01*
Y2240D01*
D02*
G37*
G36*
X2446D02*
Y2210D01*
X2476D01*
X2474Y2218D01*
X2469Y2226D01*
X2462Y2233D01*
X2454Y2237D01*
X2446Y2240D01*
D02*
G37*
G36*
X2436D02*
X2427Y2237D01*
X2419Y2233D01*
X2413Y2226D01*
X2408Y2218D01*
X2406Y2210D01*
X2436D01*
Y2240D01*
D02*
G37*
G36*
X2131D02*
Y2210D01*
X2161D01*
X2159Y2218D01*
X2154Y2226D01*
X2147Y2233D01*
X2139Y2237D01*
X2131Y2240D01*
D02*
G37*
G36*
X2121D02*
X2112Y2237D01*
X2104Y2233D01*
X2098Y2226D01*
X2093Y2218D01*
X2091Y2210D01*
X2121D01*
Y2240D01*
D02*
G37*
G36*
X1816D02*
Y2210D01*
X1846D01*
X1844Y2218D01*
X1839Y2226D01*
X1833Y2233D01*
X1825Y2237D01*
X1816Y2240D01*
D02*
G37*
G36*
X1806D02*
X1798Y2237D01*
X1790Y2233D01*
X1783Y2226D01*
X1778Y2218D01*
X1776Y2210D01*
X1806D01*
Y2240D01*
D02*
G37*
G36*
X1659D02*
Y2210D01*
X1688D01*
X1686Y2218D01*
X1682Y2226D01*
X1675Y2233D01*
X1667Y2237D01*
X1659Y2240D01*
D02*
G37*
G36*
X1649D02*
X1640Y2237D01*
X1632Y2233D01*
X1626Y2226D01*
X1621Y2218D01*
X1619Y2210D01*
X1649D01*
Y2240D01*
D02*
G37*
G36*
X1501D02*
Y2210D01*
X1531D01*
X1529Y2218D01*
X1524Y2226D01*
X1518Y2233D01*
X1510Y2237D01*
X1501Y2240D01*
D02*
G37*
G36*
X1491D02*
X1483Y2237D01*
X1475Y2233D01*
X1468Y2226D01*
X1463Y2218D01*
X1461Y2210D01*
X1491D01*
Y2240D01*
D02*
G37*
G36*
X1186D02*
Y2210D01*
X1216D01*
X1214Y2218D01*
X1209Y2226D01*
X1203Y2233D01*
X1195Y2237D01*
X1186Y2240D01*
D02*
G37*
G36*
X1176D02*
X1168Y2237D01*
X1160Y2233D01*
X1153Y2226D01*
X1148Y2218D01*
X1146Y2210D01*
X1176D01*
Y2240D01*
D02*
G37*
G36*
X1377Y2246D02*
X1368D01*
X1359Y2244D01*
X1351Y2239D01*
X1344Y2233D01*
X1340Y2225D01*
X1337Y2216D01*
Y2207D01*
X1340Y2198D01*
X1344Y2190D01*
X1351Y2183D01*
X1359Y2179D01*
X1368Y2176D01*
X1377D01*
X1386Y2179D01*
X1394Y2183D01*
X1400Y2190D01*
X1405Y2198D01*
X1407Y2207D01*
Y2216D01*
X1405Y2225D01*
X1400Y2233D01*
X1394Y2239D01*
X1386Y2244D01*
X1377Y2246D01*
D02*
G37*
G36*
X3893Y2200D02*
X3863D01*
Y2170D01*
X3872Y2172D01*
X3880Y2177D01*
X3886Y2183D01*
X3891Y2191D01*
X3893Y2200D01*
D02*
G37*
G36*
X3853D02*
X3823D01*
X3826Y2191D01*
X3830Y2183D01*
X3837Y2177D01*
X3845Y2172D01*
X3853Y2170D01*
Y2200D01*
D02*
G37*
G36*
X3421D02*
X3391D01*
Y2170D01*
X3399Y2172D01*
X3407Y2177D01*
X3414Y2183D01*
X3418Y2191D01*
X3421Y2200D01*
D02*
G37*
G36*
X3381D02*
X3351D01*
X3353Y2191D01*
X3358Y2183D01*
X3364Y2177D01*
X3372Y2172D01*
X3381Y2170D01*
Y2200D01*
D02*
G37*
G36*
X3263D02*
X3233D01*
Y2170D01*
X3242Y2172D01*
X3250Y2177D01*
X3256Y2183D01*
X3261Y2191D01*
X3263Y2200D01*
D02*
G37*
G36*
X3223D02*
X3193D01*
X3196Y2191D01*
X3200Y2183D01*
X3207Y2177D01*
X3215Y2172D01*
X3223Y2170D01*
Y2200D01*
D02*
G37*
G36*
X3106D02*
X3076D01*
Y2170D01*
X3084Y2172D01*
X3092Y2177D01*
X3099Y2183D01*
X3103Y2191D01*
X3106Y2200D01*
D02*
G37*
G36*
X3066D02*
X3036D01*
X3038Y2191D01*
X3043Y2183D01*
X3049Y2177D01*
X3057Y2172D01*
X3066Y2170D01*
Y2200D01*
D02*
G37*
G36*
X2791D02*
X2761D01*
Y2170D01*
X2769Y2172D01*
X2777Y2177D01*
X2784Y2183D01*
X2789Y2191D01*
X2791Y2200D01*
D02*
G37*
G36*
X2633D02*
X2603D01*
Y2170D01*
X2612Y2172D01*
X2620Y2177D01*
X2626Y2183D01*
X2631Y2191D01*
X2633Y2200D01*
D02*
G37*
G36*
X2593D02*
X2564D01*
X2566Y2191D01*
X2570Y2183D01*
X2577Y2177D01*
X2585Y2172D01*
X2593Y2170D01*
Y2200D01*
D02*
G37*
G36*
X2476D02*
X2446D01*
Y2170D01*
X2454Y2172D01*
X2462Y2177D01*
X2469Y2183D01*
X2474Y2191D01*
X2476Y2200D01*
D02*
G37*
G36*
X2436D02*
X2406D01*
X2408Y2191D01*
X2413Y2183D01*
X2419Y2177D01*
X2427Y2172D01*
X2436Y2170D01*
Y2200D01*
D02*
G37*
G36*
X2161D02*
X2131D01*
Y2170D01*
X2139Y2172D01*
X2147Y2177D01*
X2154Y2183D01*
X2159Y2191D01*
X2161Y2200D01*
D02*
G37*
G36*
X2121D02*
X2091D01*
X2093Y2191D01*
X2098Y2183D01*
X2104Y2177D01*
X2112Y2172D01*
X2121Y2170D01*
Y2200D01*
D02*
G37*
G36*
X1846D02*
X1816D01*
Y2170D01*
X1825Y2172D01*
X1833Y2177D01*
X1839Y2183D01*
X1844Y2191D01*
X1846Y2200D01*
D02*
G37*
G36*
X1806D02*
X1776D01*
X1778Y2191D01*
X1783Y2183D01*
X1790Y2177D01*
X1798Y2172D01*
X1806Y2170D01*
Y2200D01*
D02*
G37*
G36*
X1688D02*
X1659D01*
Y2170D01*
X1667Y2172D01*
X1675Y2177D01*
X1682Y2183D01*
X1686Y2191D01*
X1688Y2200D01*
D02*
G37*
G36*
X1649D02*
X1619D01*
X1621Y2191D01*
X1626Y2183D01*
X1632Y2177D01*
X1640Y2172D01*
X1649Y2170D01*
Y2200D01*
D02*
G37*
G36*
X1531D02*
X1501D01*
Y2170D01*
X1510Y2172D01*
X1518Y2177D01*
X1524Y2183D01*
X1529Y2191D01*
X1531Y2200D01*
D02*
G37*
G36*
X1491D02*
X1461D01*
X1463Y2191D01*
X1468Y2183D01*
X1475Y2177D01*
X1483Y2172D01*
X1491Y2170D01*
Y2200D01*
D02*
G37*
G36*
X1216D02*
X1186D01*
Y2170D01*
X1195Y2172D01*
X1203Y2177D01*
X1209Y2183D01*
X1214Y2191D01*
X1216Y2200D01*
D02*
G37*
G36*
X1176D02*
X1146D01*
X1148Y2191D01*
X1153Y2183D01*
X1160Y2177D01*
X1168Y2172D01*
X1176Y2170D01*
Y2200D01*
D02*
G37*
G36*
X1300Y2133D02*
X1300D01*
Y2098D01*
X1335D01*
Y2098D01*
X1332Y2109D01*
X1327Y2118D01*
X1320Y2125D01*
X1310Y2130D01*
X1300Y2133D01*
D02*
G37*
G36*
X1290D02*
X1290D01*
X1280Y2130D01*
X1270Y2125D01*
X1263Y2118D01*
X1258Y2109D01*
X1255Y2098D01*
Y2098D01*
X1290D01*
Y2133D01*
D02*
G37*
G36*
X3954Y2128D02*
X3918D01*
Y2092D01*
X3954D01*
Y2128D01*
D02*
G37*
G36*
X3908D02*
X3871D01*
Y2092D01*
X3908D01*
Y2128D01*
D02*
G37*
G36*
X1335Y2088D02*
X1300D01*
Y2053D01*
X1300D01*
X1310Y2056D01*
X1320Y2061D01*
X1327Y2069D01*
X1332Y2078D01*
X1335Y2088D01*
Y2088D01*
D02*
G37*
G36*
X1290D02*
X1255D01*
Y2088D01*
X1258Y2078D01*
X1263Y2069D01*
X1270Y2061D01*
X1280Y2056D01*
X1290Y2053D01*
X1290D01*
Y2088D01*
D02*
G37*
G36*
X3627Y2082D02*
Y2052D01*
X3657D01*
X3655Y2061D01*
X3650Y2069D01*
X3644Y2075D01*
X3636Y2080D01*
X3627Y2082D01*
D02*
G37*
G36*
X3617D02*
X3609Y2080D01*
X3601Y2075D01*
X3594Y2069D01*
X3589Y2061D01*
X3587Y2052D01*
X3617D01*
Y2082D01*
D02*
G37*
G36*
X3470D02*
Y2052D01*
X3499D01*
X3497Y2061D01*
X3493Y2069D01*
X3486Y2075D01*
X3478Y2080D01*
X3470Y2082D01*
D02*
G37*
G36*
X3460D02*
X3451Y2080D01*
X3443Y2075D01*
X3437Y2069D01*
X3432Y2061D01*
X3430Y2052D01*
X3460D01*
Y2082D01*
D02*
G37*
G36*
X3312D02*
Y2052D01*
X3342D01*
X3340Y2061D01*
X3335Y2069D01*
X3329Y2075D01*
X3321Y2080D01*
X3312Y2082D01*
D02*
G37*
G36*
X3302D02*
X3294Y2080D01*
X3286Y2075D01*
X3279Y2069D01*
X3274Y2061D01*
X3272Y2052D01*
X3302D01*
Y2082D01*
D02*
G37*
G36*
X3155D02*
Y2052D01*
X3185D01*
X3182Y2061D01*
X3178Y2069D01*
X3171Y2075D01*
X3163Y2080D01*
X3155Y2082D01*
D02*
G37*
G36*
X3145D02*
X3136Y2080D01*
X3128Y2075D01*
X3122Y2069D01*
X3117Y2061D01*
X3115Y2052D01*
X3145D01*
Y2082D01*
D02*
G37*
G36*
X2997D02*
Y2052D01*
X3027D01*
X3025Y2061D01*
X3020Y2069D01*
X3014Y2075D01*
X3006Y2080D01*
X2997Y2082D01*
D02*
G37*
G36*
X2987D02*
X2979Y2080D01*
X2971Y2075D01*
X2964Y2069D01*
X2960Y2061D01*
X2957Y2052D01*
X2987D01*
Y2082D01*
D02*
G37*
G36*
X2682D02*
Y2052D01*
X2712D01*
X2710Y2061D01*
X2705Y2069D01*
X2699Y2075D01*
X2691Y2080D01*
X2682Y2082D01*
D02*
G37*
G36*
X2672D02*
X2664Y2080D01*
X2656Y2075D01*
X2649Y2069D01*
X2645Y2061D01*
X2642Y2052D01*
X2672D01*
Y2082D01*
D02*
G37*
G36*
X2525D02*
Y2052D01*
X2555D01*
X2552Y2061D01*
X2548Y2069D01*
X2541Y2075D01*
X2533Y2080D01*
X2525Y2082D01*
D02*
G37*
G36*
X2515D02*
X2506Y2080D01*
X2498Y2075D01*
X2492Y2069D01*
X2487Y2061D01*
X2485Y2052D01*
X2515D01*
Y2082D01*
D02*
G37*
G36*
X2367D02*
Y2052D01*
X2397D01*
X2395Y2061D01*
X2390Y2069D01*
X2384Y2075D01*
X2376Y2080D01*
X2367Y2082D01*
D02*
G37*
G36*
X2357D02*
X2349Y2080D01*
X2341Y2075D01*
X2334Y2069D01*
X2330Y2061D01*
X2327Y2052D01*
X2357D01*
Y2082D01*
D02*
G37*
G36*
X2052D02*
Y2052D01*
X2082D01*
X2080Y2061D01*
X2075Y2069D01*
X2069Y2075D01*
X2061Y2080D01*
X2052Y2082D01*
D02*
G37*
G36*
X2042D02*
X2034Y2080D01*
X2026Y2075D01*
X2019Y2069D01*
X2015Y2061D01*
X2012Y2052D01*
X2042D01*
Y2082D01*
D02*
G37*
G36*
X1737D02*
Y2052D01*
X1767D01*
X1765Y2061D01*
X1760Y2069D01*
X1754Y2075D01*
X1746Y2080D01*
X1737Y2082D01*
D02*
G37*
G36*
X1727D02*
X1719Y2080D01*
X1711Y2075D01*
X1704Y2069D01*
X1700Y2061D01*
X1697Y2052D01*
X1727D01*
Y2082D01*
D02*
G37*
G36*
X1580D02*
Y2052D01*
X1610D01*
X1607Y2061D01*
X1603Y2069D01*
X1596Y2075D01*
X1588Y2080D01*
X1580Y2082D01*
D02*
G37*
G36*
X1570D02*
X1561Y2080D01*
X1553Y2075D01*
X1547Y2069D01*
X1542Y2061D01*
X1540Y2052D01*
X1570D01*
Y2082D01*
D02*
G37*
G36*
X1422D02*
Y2052D01*
X1452D01*
X1450Y2061D01*
X1445Y2069D01*
X1439Y2075D01*
X1431Y2080D01*
X1422Y2082D01*
D02*
G37*
G36*
X1412D02*
X1404Y2080D01*
X1396Y2075D01*
X1389Y2069D01*
X1385Y2061D01*
X1382Y2052D01*
X1412D01*
Y2082D01*
D02*
G37*
G36*
X1107D02*
Y2052D01*
X1137D01*
X1135Y2061D01*
X1130Y2069D01*
X1124Y2075D01*
X1116Y2080D01*
X1107Y2082D01*
D02*
G37*
G36*
X1097D02*
X1089Y2080D01*
X1081Y2075D01*
X1074Y2069D01*
X1070Y2061D01*
X1067Y2052D01*
X1097D01*
Y2082D01*
D02*
G37*
G36*
X3954Y2082D02*
X3918D01*
Y2045D01*
X3954D01*
Y2082D01*
D02*
G37*
G36*
X3908D02*
X3871D01*
Y2045D01*
X3908D01*
Y2082D01*
D02*
G37*
G36*
X3657Y2042D02*
X3627D01*
Y2012D01*
X3636Y2015D01*
X3644Y2019D01*
X3650Y2026D01*
X3655Y2034D01*
X3657Y2042D01*
D02*
G37*
G36*
X3617D02*
X3587D01*
X3589Y2034D01*
X3594Y2026D01*
X3601Y2019D01*
X3609Y2015D01*
X3617Y2012D01*
Y2042D01*
D02*
G37*
G36*
X3499D02*
X3470D01*
Y2012D01*
X3478Y2015D01*
X3486Y2019D01*
X3493Y2026D01*
X3497Y2034D01*
X3499Y2042D01*
D02*
G37*
G36*
X3460D02*
X3430D01*
X3432Y2034D01*
X3437Y2026D01*
X3443Y2019D01*
X3451Y2015D01*
X3460Y2012D01*
Y2042D01*
D02*
G37*
G36*
X3342D02*
X3312D01*
Y2012D01*
X3321Y2015D01*
X3329Y2019D01*
X3335Y2026D01*
X3340Y2034D01*
X3342Y2042D01*
D02*
G37*
G36*
X3302D02*
X3272D01*
X3274Y2034D01*
X3279Y2026D01*
X3286Y2019D01*
X3294Y2015D01*
X3302Y2012D01*
Y2042D01*
D02*
G37*
G36*
X3185D02*
X3155D01*
Y2012D01*
X3163Y2015D01*
X3171Y2019D01*
X3178Y2026D01*
X3182Y2034D01*
X3185Y2042D01*
D02*
G37*
G36*
X3145D02*
X3115D01*
X3117Y2034D01*
X3122Y2026D01*
X3128Y2019D01*
X3136Y2015D01*
X3145Y2012D01*
Y2042D01*
D02*
G37*
G36*
X3027D02*
X2997D01*
Y2012D01*
X3006Y2015D01*
X3014Y2019D01*
X3020Y2026D01*
X3025Y2034D01*
X3027Y2042D01*
D02*
G37*
G36*
X2987D02*
X2957D01*
X2960Y2034D01*
X2964Y2026D01*
X2971Y2019D01*
X2979Y2015D01*
X2987Y2012D01*
Y2042D01*
D02*
G37*
G36*
X2712D02*
X2682D01*
Y2012D01*
X2691Y2015D01*
X2699Y2019D01*
X2705Y2026D01*
X2710Y2034D01*
X2712Y2042D01*
D02*
G37*
G36*
X2672D02*
X2642D01*
X2645Y2034D01*
X2649Y2026D01*
X2656Y2019D01*
X2664Y2015D01*
X2672Y2012D01*
Y2042D01*
D02*
G37*
G36*
X2555D02*
X2525D01*
Y2012D01*
X2533Y2015D01*
X2541Y2019D01*
X2548Y2026D01*
X2552Y2034D01*
X2555Y2042D01*
D02*
G37*
G36*
X2515D02*
X2485D01*
X2487Y2034D01*
X2492Y2026D01*
X2498Y2019D01*
X2506Y2015D01*
X2515Y2012D01*
Y2042D01*
D02*
G37*
G36*
X2397D02*
X2367D01*
Y2012D01*
X2376Y2015D01*
X2384Y2019D01*
X2390Y2026D01*
X2395Y2034D01*
X2397Y2042D01*
D02*
G37*
G36*
X2357D02*
X2327D01*
X2330Y2034D01*
X2334Y2026D01*
X2341Y2019D01*
X2349Y2015D01*
X2357Y2012D01*
Y2042D01*
D02*
G37*
G36*
X2082D02*
X2052D01*
Y2012D01*
X2061Y2015D01*
X2069Y2019D01*
X2075Y2026D01*
X2080Y2034D01*
X2082Y2042D01*
D02*
G37*
G36*
X2042D02*
X2012D01*
X2015Y2034D01*
X2019Y2026D01*
X2026Y2019D01*
X2034Y2015D01*
X2042Y2012D01*
Y2042D01*
D02*
G37*
G36*
X1767D02*
X1737D01*
Y2012D01*
X1746Y2015D01*
X1754Y2019D01*
X1760Y2026D01*
X1765Y2034D01*
X1767Y2042D01*
D02*
G37*
G36*
X1727D02*
X1697D01*
X1700Y2034D01*
X1704Y2026D01*
X1711Y2019D01*
X1719Y2015D01*
X1727Y2012D01*
Y2042D01*
D02*
G37*
G36*
X1610D02*
X1580D01*
Y2012D01*
X1588Y2015D01*
X1596Y2019D01*
X1603Y2026D01*
X1607Y2034D01*
X1610Y2042D01*
D02*
G37*
G36*
X1570D02*
X1540D01*
X1542Y2034D01*
X1547Y2026D01*
X1553Y2019D01*
X1561Y2015D01*
X1570Y2012D01*
Y2042D01*
D02*
G37*
G36*
X1452D02*
X1422D01*
Y2012D01*
X1431Y2015D01*
X1439Y2019D01*
X1445Y2026D01*
X1450Y2034D01*
X1452Y2042D01*
D02*
G37*
G36*
X1412D02*
X1382D01*
X1385Y2034D01*
X1389Y2026D01*
X1396Y2019D01*
X1404Y2015D01*
X1412Y2012D01*
Y2042D01*
D02*
G37*
G36*
X1137D02*
X1107D01*
Y2012D01*
X1116Y2015D01*
X1124Y2019D01*
X1130Y2026D01*
X1135Y2034D01*
X1137Y2042D01*
D02*
G37*
G36*
X1097D02*
X1067D01*
X1070Y2034D01*
X1074Y2026D01*
X1081Y2019D01*
X1089Y2015D01*
X1097Y2012D01*
Y2042D01*
D02*
G37*
G36*
X3706Y1925D02*
Y1895D01*
X3736D01*
X3733Y1903D01*
X3729Y1911D01*
X3722Y1918D01*
X3714Y1922D01*
X3706Y1925D01*
D02*
G37*
G36*
X3696D02*
X3687Y1922D01*
X3679Y1918D01*
X3673Y1911D01*
X3668Y1903D01*
X3666Y1895D01*
X3696D01*
Y1925D01*
D02*
G37*
G36*
X3548D02*
Y1895D01*
X3578D01*
X3576Y1903D01*
X3571Y1911D01*
X3565Y1918D01*
X3557Y1922D01*
X3548Y1925D01*
D02*
G37*
G36*
X3538D02*
X3530Y1922D01*
X3522Y1918D01*
X3515Y1911D01*
X3511Y1903D01*
X3508Y1895D01*
X3538D01*
Y1925D01*
D02*
G37*
G36*
X3391D02*
Y1895D01*
X3421D01*
X3418Y1903D01*
X3414Y1911D01*
X3407Y1918D01*
X3399Y1922D01*
X3391Y1925D01*
D02*
G37*
G36*
X3381D02*
X3372Y1922D01*
X3364Y1918D01*
X3358Y1911D01*
X3353Y1903D01*
X3351Y1895D01*
X3381D01*
Y1925D01*
D02*
G37*
G36*
X3233D02*
Y1895D01*
X3263D01*
X3261Y1903D01*
X3256Y1911D01*
X3250Y1918D01*
X3242Y1922D01*
X3233Y1925D01*
D02*
G37*
G36*
X3223D02*
X3215Y1922D01*
X3207Y1918D01*
X3200Y1911D01*
X3196Y1903D01*
X3193Y1895D01*
X3223D01*
Y1925D01*
D02*
G37*
G36*
X3076D02*
Y1895D01*
X3106D01*
X3103Y1903D01*
X3099Y1911D01*
X3092Y1918D01*
X3084Y1922D01*
X3076Y1925D01*
D02*
G37*
G36*
X3066D02*
X3057Y1922D01*
X3049Y1918D01*
X3043Y1911D01*
X3038Y1903D01*
X3036Y1895D01*
X3066D01*
Y1925D01*
D02*
G37*
G36*
X2751D02*
X2742Y1922D01*
X2734Y1918D01*
X2728Y1911D01*
X2723Y1903D01*
X2721Y1895D01*
X2751D01*
Y1925D01*
D02*
G37*
G36*
X2603D02*
Y1895D01*
X2633D01*
X2631Y1903D01*
X2626Y1911D01*
X2620Y1918D01*
X2612Y1922D01*
X2603Y1925D01*
D02*
G37*
G36*
X2593D02*
X2585Y1922D01*
X2577Y1918D01*
X2570Y1911D01*
X2566Y1903D01*
X2564Y1895D01*
X2593D01*
Y1925D01*
D02*
G37*
G36*
X2446D02*
Y1895D01*
X2476D01*
X2474Y1903D01*
X2469Y1911D01*
X2462Y1918D01*
X2454Y1922D01*
X2446Y1925D01*
D02*
G37*
G36*
X2436D02*
X2427Y1922D01*
X2419Y1918D01*
X2413Y1911D01*
X2408Y1903D01*
X2406Y1895D01*
X2436D01*
Y1925D01*
D02*
G37*
G36*
X2131D02*
Y1895D01*
X2161D01*
X2159Y1903D01*
X2154Y1911D01*
X2147Y1918D01*
X2139Y1922D01*
X2131Y1925D01*
D02*
G37*
G36*
X2121D02*
X2112Y1922D01*
X2104Y1918D01*
X2098Y1911D01*
X2093Y1903D01*
X2091Y1895D01*
X2121D01*
Y1925D01*
D02*
G37*
G36*
X1974D02*
Y1895D01*
X2003D01*
X2001Y1903D01*
X1997Y1911D01*
X1990Y1918D01*
X1982Y1922D01*
X1974Y1925D01*
D02*
G37*
G36*
X1964D02*
X1955Y1922D01*
X1947Y1918D01*
X1940Y1911D01*
X1936Y1903D01*
X1934Y1895D01*
X1964D01*
Y1925D01*
D02*
G37*
G36*
X1816D02*
Y1895D01*
X1846D01*
X1844Y1903D01*
X1839Y1911D01*
X1833Y1918D01*
X1825Y1922D01*
X1816Y1925D01*
D02*
G37*
G36*
X1806D02*
X1798Y1922D01*
X1790Y1918D01*
X1783Y1911D01*
X1778Y1903D01*
X1776Y1895D01*
X1806D01*
Y1925D01*
D02*
G37*
G36*
X1659D02*
Y1895D01*
X1688D01*
X1686Y1903D01*
X1682Y1911D01*
X1675Y1918D01*
X1667Y1922D01*
X1659Y1925D01*
D02*
G37*
G36*
X1649D02*
X1640Y1922D01*
X1632Y1918D01*
X1626Y1911D01*
X1621Y1903D01*
X1619Y1895D01*
X1649D01*
Y1925D01*
D02*
G37*
G36*
X1501D02*
Y1895D01*
X1531D01*
X1529Y1903D01*
X1524Y1911D01*
X1518Y1918D01*
X1510Y1922D01*
X1501Y1925D01*
D02*
G37*
G36*
X1491D02*
X1483Y1922D01*
X1475Y1918D01*
X1468Y1911D01*
X1463Y1903D01*
X1461Y1895D01*
X1491D01*
Y1925D01*
D02*
G37*
G36*
X1186D02*
Y1895D01*
X1216D01*
X1214Y1903D01*
X1209Y1911D01*
X1203Y1918D01*
X1195Y1922D01*
X1186Y1925D01*
D02*
G37*
G36*
X1176D02*
X1168Y1922D01*
X1160Y1918D01*
X1153Y1911D01*
X1148Y1903D01*
X1146Y1895D01*
X1176D01*
Y1925D01*
D02*
G37*
G36*
X3736Y1885D02*
X3706D01*
Y1855D01*
X3714Y1857D01*
X3722Y1862D01*
X3729Y1868D01*
X3733Y1876D01*
X3736Y1885D01*
D02*
G37*
G36*
X3696D02*
X3666D01*
X3668Y1876D01*
X3673Y1868D01*
X3679Y1862D01*
X3687Y1857D01*
X3696Y1855D01*
Y1885D01*
D02*
G37*
G36*
X3578D02*
X3548D01*
Y1855D01*
X3557Y1857D01*
X3565Y1862D01*
X3571Y1868D01*
X3576Y1876D01*
X3578Y1885D01*
D02*
G37*
G36*
X3538D02*
X3508D01*
X3511Y1876D01*
X3515Y1868D01*
X3522Y1862D01*
X3530Y1857D01*
X3538Y1855D01*
Y1885D01*
D02*
G37*
G36*
X3421D02*
X3391D01*
Y1855D01*
X3399Y1857D01*
X3407Y1862D01*
X3414Y1868D01*
X3418Y1876D01*
X3421Y1885D01*
D02*
G37*
G36*
X3381D02*
X3351D01*
X3353Y1876D01*
X3358Y1868D01*
X3364Y1862D01*
X3372Y1857D01*
X3381Y1855D01*
Y1885D01*
D02*
G37*
G36*
X3263D02*
X3233D01*
Y1855D01*
X3242Y1857D01*
X3250Y1862D01*
X3256Y1868D01*
X3261Y1876D01*
X3263Y1885D01*
D02*
G37*
G36*
X3223D02*
X3193D01*
X3196Y1876D01*
X3200Y1868D01*
X3207Y1862D01*
X3215Y1857D01*
X3223Y1855D01*
Y1885D01*
D02*
G37*
G36*
X3106D02*
X3076D01*
Y1855D01*
X3084Y1857D01*
X3092Y1862D01*
X3099Y1868D01*
X3103Y1876D01*
X3106Y1885D01*
D02*
G37*
G36*
X3066D02*
X3036D01*
X3038Y1876D01*
X3043Y1868D01*
X3049Y1862D01*
X3057Y1857D01*
X3066Y1855D01*
Y1885D01*
D02*
G37*
G36*
X2751D02*
X2721D01*
X2723Y1876D01*
X2728Y1868D01*
X2734Y1862D01*
X2742Y1857D01*
X2751Y1855D01*
Y1885D01*
D02*
G37*
G36*
X2633D02*
X2603D01*
Y1855D01*
X2612Y1857D01*
X2620Y1862D01*
X2626Y1868D01*
X2631Y1876D01*
X2633Y1885D01*
D02*
G37*
G36*
X2593D02*
X2564D01*
X2566Y1876D01*
X2570Y1868D01*
X2577Y1862D01*
X2585Y1857D01*
X2593Y1855D01*
Y1885D01*
D02*
G37*
G36*
X2476D02*
X2446D01*
Y1855D01*
X2454Y1857D01*
X2462Y1862D01*
X2469Y1868D01*
X2474Y1876D01*
X2476Y1885D01*
D02*
G37*
G36*
X2436D02*
X2406D01*
X2408Y1876D01*
X2413Y1868D01*
X2419Y1862D01*
X2427Y1857D01*
X2436Y1855D01*
Y1885D01*
D02*
G37*
G36*
X2161D02*
X2131D01*
Y1855D01*
X2139Y1857D01*
X2147Y1862D01*
X2154Y1868D01*
X2159Y1876D01*
X2161Y1885D01*
D02*
G37*
G36*
X2121D02*
X2091D01*
X2093Y1876D01*
X2098Y1868D01*
X2104Y1862D01*
X2112Y1857D01*
X2121Y1855D01*
Y1885D01*
D02*
G37*
G36*
X2003D02*
X1974D01*
Y1855D01*
X1982Y1857D01*
X1990Y1862D01*
X1997Y1868D01*
X2001Y1876D01*
X2003Y1885D01*
D02*
G37*
G36*
X1964D02*
X1934D01*
X1936Y1876D01*
X1940Y1868D01*
X1947Y1862D01*
X1955Y1857D01*
X1964Y1855D01*
Y1885D01*
D02*
G37*
G36*
X1846D02*
X1816D01*
Y1855D01*
X1825Y1857D01*
X1833Y1862D01*
X1839Y1868D01*
X1844Y1876D01*
X1846Y1885D01*
D02*
G37*
G36*
X1806D02*
X1776D01*
X1778Y1876D01*
X1783Y1868D01*
X1790Y1862D01*
X1798Y1857D01*
X1806Y1855D01*
Y1885D01*
D02*
G37*
G36*
X1688D02*
X1659D01*
Y1855D01*
X1667Y1857D01*
X1675Y1862D01*
X1682Y1868D01*
X1686Y1876D01*
X1688Y1885D01*
D02*
G37*
G36*
X1649D02*
X1619D01*
X1621Y1876D01*
X1626Y1868D01*
X1632Y1862D01*
X1640Y1857D01*
X1649Y1855D01*
Y1885D01*
D02*
G37*
G36*
X1531D02*
X1501D01*
Y1855D01*
X1510Y1857D01*
X1518Y1862D01*
X1524Y1868D01*
X1529Y1876D01*
X1531Y1885D01*
D02*
G37*
G36*
X1491D02*
X1461D01*
X1463Y1876D01*
X1468Y1868D01*
X1475Y1862D01*
X1483Y1857D01*
X1491Y1855D01*
Y1885D01*
D02*
G37*
G36*
X1216D02*
X1186D01*
Y1855D01*
X1195Y1857D01*
X1203Y1862D01*
X1209Y1868D01*
X1214Y1876D01*
X1216Y1885D01*
D02*
G37*
G36*
X1176D02*
X1146D01*
X1148Y1876D01*
X1153Y1868D01*
X1160Y1862D01*
X1168Y1857D01*
X1176Y1855D01*
Y1885D01*
D02*
G37*
G36*
X1377Y1892D02*
X1368D01*
X1359Y1890D01*
X1351Y1885D01*
X1344Y1878D01*
X1340Y1870D01*
X1337Y1861D01*
Y1852D01*
X1340Y1843D01*
X1344Y1835D01*
X1351Y1829D01*
X1359Y1824D01*
X1368Y1822D01*
X1377D01*
X1386Y1824D01*
X1394Y1829D01*
X1400Y1835D01*
X1405Y1843D01*
X1407Y1852D01*
Y1861D01*
X1405Y1870D01*
X1400Y1878D01*
X1394Y1885D01*
X1386Y1890D01*
X1377Y1892D01*
D02*
G37*
G36*
X3785Y1767D02*
Y1737D01*
X3814D01*
X3812Y1746D01*
X3808Y1754D01*
X3801Y1760D01*
X3793Y1765D01*
X3785Y1767D01*
D02*
G37*
G36*
X3775D02*
X3766Y1765D01*
X3758Y1760D01*
X3752Y1754D01*
X3747Y1746D01*
X3745Y1737D01*
X3775D01*
Y1767D01*
D02*
G37*
G36*
X3627D02*
Y1737D01*
X3657D01*
X3655Y1746D01*
X3650Y1754D01*
X3644Y1760D01*
X3636Y1765D01*
X3627Y1767D01*
D02*
G37*
G36*
X3617D02*
X3609Y1765D01*
X3601Y1760D01*
X3594Y1754D01*
X3589Y1746D01*
X3587Y1737D01*
X3617D01*
Y1767D01*
D02*
G37*
G36*
X3470D02*
Y1737D01*
X3499D01*
X3497Y1746D01*
X3493Y1754D01*
X3486Y1760D01*
X3478Y1765D01*
X3470Y1767D01*
D02*
G37*
G36*
X3460D02*
X3451Y1765D01*
X3443Y1760D01*
X3437Y1754D01*
X3432Y1746D01*
X3430Y1737D01*
X3460D01*
Y1767D01*
D02*
G37*
G36*
X3312D02*
Y1737D01*
X3342D01*
X3340Y1746D01*
X3335Y1754D01*
X3329Y1760D01*
X3321Y1765D01*
X3312Y1767D01*
D02*
G37*
G36*
X3302D02*
X3294Y1765D01*
X3286Y1760D01*
X3279Y1754D01*
X3274Y1746D01*
X3272Y1737D01*
X3302D01*
Y1767D01*
D02*
G37*
G36*
X3155D02*
Y1737D01*
X3185D01*
X3182Y1746D01*
X3178Y1754D01*
X3171Y1760D01*
X3163Y1765D01*
X3155Y1767D01*
D02*
G37*
G36*
X3145D02*
X3136Y1765D01*
X3128Y1760D01*
X3122Y1754D01*
X3117Y1746D01*
X3115Y1737D01*
X3145D01*
Y1767D01*
D02*
G37*
G36*
X2997D02*
Y1737D01*
X3027D01*
X3025Y1746D01*
X3020Y1754D01*
X3014Y1760D01*
X3006Y1765D01*
X2997Y1767D01*
D02*
G37*
G36*
X2987D02*
X2979Y1765D01*
X2971Y1760D01*
X2964Y1754D01*
X2960Y1746D01*
X2957Y1737D01*
X2987D01*
Y1767D01*
D02*
G37*
G36*
X2682D02*
Y1737D01*
X2712D01*
X2710Y1746D01*
X2705Y1754D01*
X2699Y1760D01*
X2691Y1765D01*
X2682Y1767D01*
D02*
G37*
G36*
X2672D02*
X2664Y1765D01*
X2656Y1760D01*
X2649Y1754D01*
X2645Y1746D01*
X2642Y1737D01*
X2672D01*
Y1767D01*
D02*
G37*
G36*
X2525D02*
Y1737D01*
X2555D01*
X2552Y1746D01*
X2548Y1754D01*
X2541Y1760D01*
X2533Y1765D01*
X2525Y1767D01*
D02*
G37*
G36*
X2515D02*
X2506Y1765D01*
X2498Y1760D01*
X2492Y1754D01*
X2487Y1746D01*
X2485Y1737D01*
X2515D01*
Y1767D01*
D02*
G37*
G36*
X2367D02*
Y1737D01*
X2397D01*
X2395Y1746D01*
X2390Y1754D01*
X2384Y1760D01*
X2376Y1765D01*
X2367Y1767D01*
D02*
G37*
G36*
X2357D02*
X2349Y1765D01*
X2341Y1760D01*
X2334Y1754D01*
X2330Y1746D01*
X2327Y1737D01*
X2357D01*
Y1767D01*
D02*
G37*
G36*
X2052D02*
Y1737D01*
X2082D01*
X2080Y1746D01*
X2075Y1754D01*
X2069Y1760D01*
X2061Y1765D01*
X2052Y1767D01*
D02*
G37*
G36*
X2042D02*
X2034Y1765D01*
X2026Y1760D01*
X2019Y1754D01*
X2015Y1746D01*
X2012Y1737D01*
X2042D01*
Y1767D01*
D02*
G37*
G36*
X1895D02*
Y1737D01*
X1925D01*
X1922Y1746D01*
X1918Y1754D01*
X1911Y1760D01*
X1903Y1765D01*
X1895Y1767D01*
D02*
G37*
G36*
X1885D02*
X1876Y1765D01*
X1868Y1760D01*
X1862Y1754D01*
X1857Y1746D01*
X1855Y1737D01*
X1885D01*
Y1767D01*
D02*
G37*
G36*
X1737D02*
Y1737D01*
X1767D01*
X1765Y1746D01*
X1760Y1754D01*
X1754Y1760D01*
X1746Y1765D01*
X1737Y1767D01*
D02*
G37*
G36*
X1727D02*
X1719Y1765D01*
X1711Y1760D01*
X1704Y1754D01*
X1700Y1746D01*
X1697Y1737D01*
X1727D01*
Y1767D01*
D02*
G37*
G36*
X1580D02*
Y1737D01*
X1610D01*
X1607Y1746D01*
X1603Y1754D01*
X1596Y1760D01*
X1588Y1765D01*
X1580Y1767D01*
D02*
G37*
G36*
X1570D02*
X1561Y1765D01*
X1553Y1760D01*
X1547Y1754D01*
X1542Y1746D01*
X1540Y1737D01*
X1570D01*
Y1767D01*
D02*
G37*
G36*
X1422D02*
Y1737D01*
X1452D01*
X1450Y1746D01*
X1445Y1754D01*
X1439Y1760D01*
X1431Y1765D01*
X1422Y1767D01*
D02*
G37*
G36*
X1412D02*
X1404Y1765D01*
X1396Y1760D01*
X1389Y1754D01*
X1385Y1746D01*
X1382Y1737D01*
X1412D01*
Y1767D01*
D02*
G37*
G36*
X1265D02*
Y1737D01*
X1295D01*
X1292Y1746D01*
X1288Y1754D01*
X1281Y1760D01*
X1273Y1765D01*
X1265Y1767D01*
D02*
G37*
G36*
X1255D02*
X1246Y1765D01*
X1238Y1760D01*
X1232Y1754D01*
X1227Y1746D01*
X1225Y1737D01*
X1255D01*
Y1767D01*
D02*
G37*
G36*
X1107D02*
Y1737D01*
X1137D01*
X1135Y1746D01*
X1130Y1754D01*
X1124Y1760D01*
X1116Y1765D01*
X1107Y1767D01*
D02*
G37*
G36*
X1097D02*
X1089Y1765D01*
X1081Y1760D01*
X1074Y1754D01*
X1070Y1746D01*
X1067Y1737D01*
X1097D01*
Y1767D01*
D02*
G37*
G36*
X3814Y1727D02*
X3785D01*
Y1697D01*
X3793Y1700D01*
X3801Y1704D01*
X3808Y1711D01*
X3812Y1719D01*
X3814Y1727D01*
D02*
G37*
G36*
X3775D02*
X3745D01*
X3747Y1719D01*
X3752Y1711D01*
X3758Y1704D01*
X3766Y1700D01*
X3775Y1697D01*
Y1727D01*
D02*
G37*
G36*
X3657D02*
X3627D01*
Y1697D01*
X3636Y1700D01*
X3644Y1704D01*
X3650Y1711D01*
X3655Y1719D01*
X3657Y1727D01*
D02*
G37*
G36*
X3617D02*
X3587D01*
X3589Y1719D01*
X3594Y1711D01*
X3601Y1704D01*
X3609Y1700D01*
X3617Y1697D01*
Y1727D01*
D02*
G37*
G36*
X3499D02*
X3470D01*
Y1697D01*
X3478Y1700D01*
X3486Y1704D01*
X3493Y1711D01*
X3497Y1719D01*
X3499Y1727D01*
D02*
G37*
G36*
X3460D02*
X3430D01*
X3432Y1719D01*
X3437Y1711D01*
X3443Y1704D01*
X3451Y1700D01*
X3460Y1697D01*
Y1727D01*
D02*
G37*
G36*
X3342D02*
X3312D01*
Y1697D01*
X3321Y1700D01*
X3329Y1704D01*
X3335Y1711D01*
X3340Y1719D01*
X3342Y1727D01*
D02*
G37*
G36*
X3302D02*
X3272D01*
X3274Y1719D01*
X3279Y1711D01*
X3286Y1704D01*
X3294Y1700D01*
X3302Y1697D01*
Y1727D01*
D02*
G37*
G36*
X3185D02*
X3155D01*
Y1697D01*
X3163Y1700D01*
X3171Y1704D01*
X3178Y1711D01*
X3182Y1719D01*
X3185Y1727D01*
D02*
G37*
G36*
X3145D02*
X3115D01*
X3117Y1719D01*
X3122Y1711D01*
X3128Y1704D01*
X3136Y1700D01*
X3145Y1697D01*
Y1727D01*
D02*
G37*
G36*
X3027D02*
X2997D01*
Y1697D01*
X3006Y1700D01*
X3014Y1704D01*
X3020Y1711D01*
X3025Y1719D01*
X3027Y1727D01*
D02*
G37*
G36*
X2987D02*
X2957D01*
X2960Y1719D01*
X2964Y1711D01*
X2971Y1704D01*
X2979Y1700D01*
X2987Y1697D01*
Y1727D01*
D02*
G37*
G36*
X2712D02*
X2682D01*
Y1697D01*
X2691Y1700D01*
X2699Y1704D01*
X2705Y1711D01*
X2710Y1719D01*
X2712Y1727D01*
D02*
G37*
G36*
X2672D02*
X2642D01*
X2645Y1719D01*
X2649Y1711D01*
X2656Y1704D01*
X2664Y1700D01*
X2672Y1697D01*
Y1727D01*
D02*
G37*
G36*
X2555D02*
X2525D01*
Y1697D01*
X2533Y1700D01*
X2541Y1704D01*
X2548Y1711D01*
X2552Y1719D01*
X2555Y1727D01*
D02*
G37*
G36*
X2515D02*
X2485D01*
X2487Y1719D01*
X2492Y1711D01*
X2498Y1704D01*
X2506Y1700D01*
X2515Y1697D01*
Y1727D01*
D02*
G37*
G36*
X2397D02*
X2367D01*
Y1697D01*
X2376Y1700D01*
X2384Y1704D01*
X2390Y1711D01*
X2395Y1719D01*
X2397Y1727D01*
D02*
G37*
G36*
X2357D02*
X2327D01*
X2330Y1719D01*
X2334Y1711D01*
X2341Y1704D01*
X2349Y1700D01*
X2357Y1697D01*
Y1727D01*
D02*
G37*
G36*
X2082D02*
X2052D01*
Y1697D01*
X2061Y1700D01*
X2069Y1704D01*
X2075Y1711D01*
X2080Y1719D01*
X2082Y1727D01*
D02*
G37*
G36*
X2042D02*
X2012D01*
X2015Y1719D01*
X2019Y1711D01*
X2026Y1704D01*
X2034Y1700D01*
X2042Y1697D01*
Y1727D01*
D02*
G37*
G36*
X1925D02*
X1895D01*
Y1697D01*
X1903Y1700D01*
X1911Y1704D01*
X1918Y1711D01*
X1922Y1719D01*
X1925Y1727D01*
D02*
G37*
G36*
X1885D02*
X1855D01*
X1857Y1719D01*
X1862Y1711D01*
X1868Y1704D01*
X1876Y1700D01*
X1885Y1697D01*
Y1727D01*
D02*
G37*
G36*
X1767D02*
X1737D01*
Y1697D01*
X1746Y1700D01*
X1754Y1704D01*
X1760Y1711D01*
X1765Y1719D01*
X1767Y1727D01*
D02*
G37*
G36*
X1727D02*
X1697D01*
X1700Y1719D01*
X1704Y1711D01*
X1711Y1704D01*
X1719Y1700D01*
X1727Y1697D01*
Y1727D01*
D02*
G37*
G36*
X1610D02*
X1580D01*
Y1697D01*
X1588Y1700D01*
X1596Y1704D01*
X1603Y1711D01*
X1607Y1719D01*
X1610Y1727D01*
D02*
G37*
G36*
X1570D02*
X1540D01*
X1542Y1719D01*
X1547Y1711D01*
X1553Y1704D01*
X1561Y1700D01*
X1570Y1697D01*
Y1727D01*
D02*
G37*
G36*
X1452D02*
X1422D01*
Y1697D01*
X1431Y1700D01*
X1439Y1704D01*
X1445Y1711D01*
X1450Y1719D01*
X1452Y1727D01*
D02*
G37*
G36*
X1412D02*
X1382D01*
X1385Y1719D01*
X1389Y1711D01*
X1396Y1704D01*
X1404Y1700D01*
X1412Y1697D01*
Y1727D01*
D02*
G37*
G36*
X1295D02*
X1265D01*
Y1697D01*
X1273Y1700D01*
X1281Y1704D01*
X1288Y1711D01*
X1292Y1719D01*
X1295Y1727D01*
D02*
G37*
G36*
X1255D02*
X1225D01*
X1227Y1719D01*
X1232Y1711D01*
X1238Y1704D01*
X1246Y1700D01*
X1255Y1697D01*
Y1727D01*
D02*
G37*
G36*
X1137D02*
X1107D01*
Y1697D01*
X1116Y1700D01*
X1124Y1704D01*
X1130Y1711D01*
X1135Y1719D01*
X1137Y1727D01*
D02*
G37*
G36*
X1097D02*
X1067D01*
X1070Y1719D01*
X1074Y1711D01*
X1081Y1704D01*
X1089Y1700D01*
X1097Y1697D01*
Y1727D01*
D02*
G37*
G36*
X3863Y1610D02*
Y1580D01*
X3893D01*
X3891Y1588D01*
X3886Y1596D01*
X3880Y1603D01*
X3872Y1607D01*
X3863Y1610D01*
D02*
G37*
G36*
X3853D02*
X3845Y1607D01*
X3837Y1603D01*
X3830Y1596D01*
X3826Y1588D01*
X3823Y1580D01*
X3853D01*
Y1610D01*
D02*
G37*
G36*
X3706D02*
Y1580D01*
X3736D01*
X3733Y1588D01*
X3729Y1596D01*
X3722Y1603D01*
X3714Y1607D01*
X3706Y1610D01*
D02*
G37*
G36*
X3696D02*
X3687Y1607D01*
X3679Y1603D01*
X3673Y1596D01*
X3668Y1588D01*
X3666Y1580D01*
X3696D01*
Y1610D01*
D02*
G37*
G36*
X3548D02*
Y1580D01*
X3578D01*
X3576Y1588D01*
X3571Y1596D01*
X3565Y1603D01*
X3557Y1607D01*
X3548Y1610D01*
D02*
G37*
G36*
X3538D02*
X3530Y1607D01*
X3522Y1603D01*
X3515Y1596D01*
X3511Y1588D01*
X3508Y1580D01*
X3538D01*
Y1610D01*
D02*
G37*
G36*
X3391D02*
Y1580D01*
X3421D01*
X3418Y1588D01*
X3414Y1596D01*
X3407Y1603D01*
X3399Y1607D01*
X3391Y1610D01*
D02*
G37*
G36*
X3381D02*
X3372Y1607D01*
X3364Y1603D01*
X3358Y1596D01*
X3353Y1588D01*
X3351Y1580D01*
X3381D01*
Y1610D01*
D02*
G37*
G36*
X3233D02*
Y1580D01*
X3263D01*
X3261Y1588D01*
X3256Y1596D01*
X3250Y1603D01*
X3242Y1607D01*
X3233Y1610D01*
D02*
G37*
G36*
X3223D02*
X3215Y1607D01*
X3207Y1603D01*
X3200Y1596D01*
X3196Y1588D01*
X3193Y1580D01*
X3223D01*
Y1610D01*
D02*
G37*
G36*
X3076D02*
Y1580D01*
X3106D01*
X3103Y1588D01*
X3099Y1596D01*
X3092Y1603D01*
X3084Y1607D01*
X3076Y1610D01*
D02*
G37*
G36*
X3066D02*
X3057Y1607D01*
X3049Y1603D01*
X3043Y1596D01*
X3038Y1588D01*
X3036Y1580D01*
X3066D01*
Y1610D01*
D02*
G37*
G36*
X2751D02*
X2742Y1607D01*
X2734Y1603D01*
X2728Y1596D01*
X2723Y1588D01*
X2721Y1580D01*
X2751D01*
Y1610D01*
D02*
G37*
G36*
X2603D02*
Y1580D01*
X2633D01*
X2631Y1588D01*
X2626Y1596D01*
X2620Y1603D01*
X2612Y1607D01*
X2603Y1610D01*
D02*
G37*
G36*
X2593D02*
X2585Y1607D01*
X2577Y1603D01*
X2570Y1596D01*
X2566Y1588D01*
X2564Y1580D01*
X2593D01*
Y1610D01*
D02*
G37*
G36*
X2288D02*
Y1580D01*
X2318D01*
X2316Y1588D01*
X2311Y1596D01*
X2305Y1603D01*
X2297Y1607D01*
X2288Y1610D01*
D02*
G37*
G36*
X2278D02*
X2270Y1607D01*
X2262Y1603D01*
X2255Y1596D01*
X2251Y1588D01*
X2249Y1580D01*
X2278D01*
Y1610D01*
D02*
G37*
G36*
X2131D02*
Y1580D01*
X2161D01*
X2159Y1588D01*
X2154Y1596D01*
X2147Y1603D01*
X2139Y1607D01*
X2131Y1610D01*
D02*
G37*
G36*
X2121D02*
X2112Y1607D01*
X2104Y1603D01*
X2098Y1596D01*
X2093Y1588D01*
X2091Y1580D01*
X2121D01*
Y1610D01*
D02*
G37*
G36*
X1974D02*
Y1580D01*
X2003D01*
X2001Y1588D01*
X1997Y1596D01*
X1990Y1603D01*
X1982Y1607D01*
X1974Y1610D01*
D02*
G37*
G36*
X1964D02*
X1955Y1607D01*
X1947Y1603D01*
X1940Y1596D01*
X1936Y1588D01*
X1934Y1580D01*
X1964D01*
Y1610D01*
D02*
G37*
G36*
X1816D02*
Y1580D01*
X1846D01*
X1844Y1588D01*
X1839Y1596D01*
X1833Y1603D01*
X1825Y1607D01*
X1816Y1610D01*
D02*
G37*
G36*
X1806D02*
X1798Y1607D01*
X1790Y1603D01*
X1783Y1596D01*
X1778Y1588D01*
X1776Y1580D01*
X1806D01*
Y1610D01*
D02*
G37*
G36*
X1659D02*
Y1580D01*
X1688D01*
X1686Y1588D01*
X1682Y1596D01*
X1675Y1603D01*
X1667Y1607D01*
X1659Y1610D01*
D02*
G37*
G36*
X1649D02*
X1640Y1607D01*
X1632Y1603D01*
X1626Y1596D01*
X1621Y1588D01*
X1619Y1580D01*
X1649D01*
Y1610D01*
D02*
G37*
G36*
X1501D02*
Y1580D01*
X1531D01*
X1529Y1588D01*
X1524Y1596D01*
X1518Y1603D01*
X1510Y1607D01*
X1501Y1610D01*
D02*
G37*
G36*
X1491D02*
X1483Y1607D01*
X1475Y1603D01*
X1468Y1596D01*
X1463Y1588D01*
X1461Y1580D01*
X1491D01*
Y1610D01*
D02*
G37*
G36*
X1344D02*
Y1580D01*
X1373D01*
X1371Y1588D01*
X1367Y1596D01*
X1360Y1603D01*
X1352Y1607D01*
X1344Y1610D01*
D02*
G37*
G36*
X1334D02*
X1325Y1607D01*
X1317Y1603D01*
X1311Y1596D01*
X1306Y1588D01*
X1304Y1580D01*
X1334D01*
Y1610D01*
D02*
G37*
G36*
X1186D02*
Y1580D01*
X1216D01*
X1214Y1588D01*
X1209Y1596D01*
X1203Y1603D01*
X1195Y1607D01*
X1186Y1610D01*
D02*
G37*
G36*
X1176D02*
X1168Y1607D01*
X1160Y1603D01*
X1153Y1596D01*
X1148Y1588D01*
X1146Y1580D01*
X1176D01*
Y1610D01*
D02*
G37*
G36*
X3995Y1650D02*
X3985D01*
X3976Y1648D01*
X3968Y1643D01*
X3961Y1637D01*
X3956Y1628D01*
X3954Y1619D01*
Y1610D01*
X3956Y1601D01*
X3961Y1592D01*
X3968Y1586D01*
X3976Y1581D01*
X3985Y1578D01*
X3995D01*
X4004Y1581D01*
X4012Y1586D01*
X4019Y1592D01*
X4024Y1601D01*
X4026Y1610D01*
Y1619D01*
X4024Y1628D01*
X4019Y1637D01*
X4012Y1643D01*
X4004Y1648D01*
X3995Y1650D01*
D02*
G37*
G36*
X3893Y1570D02*
X3863D01*
Y1540D01*
X3872Y1542D01*
X3880Y1547D01*
X3886Y1553D01*
X3891Y1561D01*
X3893Y1570D01*
D02*
G37*
G36*
X3853D02*
X3823D01*
X3826Y1561D01*
X3830Y1553D01*
X3837Y1547D01*
X3845Y1542D01*
X3853Y1540D01*
Y1570D01*
D02*
G37*
G36*
X3736D02*
X3706D01*
Y1540D01*
X3714Y1542D01*
X3722Y1547D01*
X3729Y1553D01*
X3733Y1561D01*
X3736Y1570D01*
D02*
G37*
G36*
X3696D02*
X3666D01*
X3668Y1561D01*
X3673Y1553D01*
X3679Y1547D01*
X3687Y1542D01*
X3696Y1540D01*
Y1570D01*
D02*
G37*
G36*
X3578D02*
X3548D01*
Y1540D01*
X3557Y1542D01*
X3565Y1547D01*
X3571Y1553D01*
X3576Y1561D01*
X3578Y1570D01*
D02*
G37*
G36*
X3538D02*
X3508D01*
X3511Y1561D01*
X3515Y1553D01*
X3522Y1547D01*
X3530Y1542D01*
X3538Y1540D01*
Y1570D01*
D02*
G37*
G36*
X3421D02*
X3391D01*
Y1540D01*
X3399Y1542D01*
X3407Y1547D01*
X3414Y1553D01*
X3418Y1561D01*
X3421Y1570D01*
D02*
G37*
G36*
X3381D02*
X3351D01*
X3353Y1561D01*
X3358Y1553D01*
X3364Y1547D01*
X3372Y1542D01*
X3381Y1540D01*
Y1570D01*
D02*
G37*
G36*
X3263D02*
X3233D01*
Y1540D01*
X3242Y1542D01*
X3250Y1547D01*
X3256Y1553D01*
X3261Y1561D01*
X3263Y1570D01*
D02*
G37*
G36*
X3223D02*
X3193D01*
X3196Y1561D01*
X3200Y1553D01*
X3207Y1547D01*
X3215Y1542D01*
X3223Y1540D01*
Y1570D01*
D02*
G37*
G36*
X3106D02*
X3076D01*
Y1540D01*
X3084Y1542D01*
X3092Y1547D01*
X3099Y1553D01*
X3103Y1561D01*
X3106Y1570D01*
D02*
G37*
G36*
X3066D02*
X3036D01*
X3038Y1561D01*
X3043Y1553D01*
X3049Y1547D01*
X3057Y1542D01*
X3066Y1540D01*
Y1570D01*
D02*
G37*
G36*
X2751D02*
X2721D01*
X2723Y1561D01*
X2728Y1553D01*
X2734Y1547D01*
X2742Y1542D01*
X2751Y1540D01*
Y1570D01*
D02*
G37*
G36*
X2633D02*
X2603D01*
Y1540D01*
X2612Y1542D01*
X2620Y1547D01*
X2626Y1553D01*
X2631Y1561D01*
X2633Y1570D01*
D02*
G37*
G36*
X2593D02*
X2564D01*
X2566Y1561D01*
X2570Y1553D01*
X2577Y1547D01*
X2585Y1542D01*
X2593Y1540D01*
Y1570D01*
D02*
G37*
G36*
X2318D02*
X2288D01*
Y1540D01*
X2297Y1542D01*
X2305Y1547D01*
X2311Y1553D01*
X2316Y1561D01*
X2318Y1570D01*
D02*
G37*
G36*
X2278D02*
X2249D01*
X2251Y1561D01*
X2255Y1553D01*
X2262Y1547D01*
X2270Y1542D01*
X2278Y1540D01*
Y1570D01*
D02*
G37*
G36*
X2161D02*
X2131D01*
Y1540D01*
X2139Y1542D01*
X2147Y1547D01*
X2154Y1553D01*
X2159Y1561D01*
X2161Y1570D01*
D02*
G37*
G36*
X2121D02*
X2091D01*
X2093Y1561D01*
X2098Y1553D01*
X2104Y1547D01*
X2112Y1542D01*
X2121Y1540D01*
Y1570D01*
D02*
G37*
G36*
X2003D02*
X1974D01*
Y1540D01*
X1982Y1542D01*
X1990Y1547D01*
X1997Y1553D01*
X2001Y1561D01*
X2003Y1570D01*
D02*
G37*
G36*
X1964D02*
X1934D01*
X1936Y1561D01*
X1940Y1553D01*
X1947Y1547D01*
X1955Y1542D01*
X1964Y1540D01*
Y1570D01*
D02*
G37*
G36*
X1846D02*
X1816D01*
Y1540D01*
X1825Y1542D01*
X1833Y1547D01*
X1839Y1553D01*
X1844Y1561D01*
X1846Y1570D01*
D02*
G37*
G36*
X1806D02*
X1776D01*
X1778Y1561D01*
X1783Y1553D01*
X1790Y1547D01*
X1798Y1542D01*
X1806Y1540D01*
Y1570D01*
D02*
G37*
G36*
X1688D02*
X1659D01*
Y1540D01*
X1667Y1542D01*
X1675Y1547D01*
X1682Y1553D01*
X1686Y1561D01*
X1688Y1570D01*
D02*
G37*
G36*
X1649D02*
X1619D01*
X1621Y1561D01*
X1626Y1553D01*
X1632Y1547D01*
X1640Y1542D01*
X1649Y1540D01*
Y1570D01*
D02*
G37*
G36*
X1531D02*
X1501D01*
Y1540D01*
X1510Y1542D01*
X1518Y1547D01*
X1524Y1553D01*
X1529Y1561D01*
X1531Y1570D01*
D02*
G37*
G36*
X1491D02*
X1461D01*
X1463Y1561D01*
X1468Y1553D01*
X1475Y1547D01*
X1483Y1542D01*
X1491Y1540D01*
Y1570D01*
D02*
G37*
G36*
X1373D02*
X1344D01*
Y1540D01*
X1352Y1542D01*
X1360Y1547D01*
X1367Y1553D01*
X1371Y1561D01*
X1373Y1570D01*
D02*
G37*
G36*
X1334D02*
X1304D01*
X1306Y1561D01*
X1311Y1553D01*
X1317Y1547D01*
X1325Y1542D01*
X1334Y1540D01*
Y1570D01*
D02*
G37*
G36*
X1216D02*
X1186D01*
Y1540D01*
X1195Y1542D01*
X1203Y1547D01*
X1209Y1553D01*
X1214Y1561D01*
X1216Y1570D01*
D02*
G37*
G36*
X1176D02*
X1146D01*
X1148Y1561D01*
X1153Y1553D01*
X1160Y1547D01*
X1168Y1542D01*
X1176Y1540D01*
Y1570D01*
D02*
G37*
G36*
X3942Y1452D02*
Y1422D01*
X3972D01*
X3970Y1431D01*
X3965Y1439D01*
X3958Y1445D01*
X3951Y1450D01*
X3942Y1452D01*
D02*
G37*
G36*
X3932D02*
X3923Y1450D01*
X3916Y1445D01*
X3909Y1439D01*
X3904Y1431D01*
X3902Y1422D01*
X3932D01*
Y1452D01*
D02*
G37*
G36*
X3627D02*
Y1422D01*
X3657D01*
X3655Y1431D01*
X3650Y1439D01*
X3644Y1445D01*
X3636Y1450D01*
X3627Y1452D01*
D02*
G37*
G36*
X3617D02*
X3609Y1450D01*
X3601Y1445D01*
X3594Y1439D01*
X3589Y1431D01*
X3587Y1422D01*
X3617D01*
Y1452D01*
D02*
G37*
G36*
X3470D02*
Y1422D01*
X3499D01*
X3497Y1431D01*
X3493Y1439D01*
X3486Y1445D01*
X3478Y1450D01*
X3470Y1452D01*
D02*
G37*
G36*
X3460D02*
X3451Y1450D01*
X3443Y1445D01*
X3437Y1439D01*
X3432Y1431D01*
X3430Y1422D01*
X3460D01*
Y1452D01*
D02*
G37*
G36*
X3312D02*
Y1422D01*
X3342D01*
X3340Y1431D01*
X3335Y1439D01*
X3329Y1445D01*
X3321Y1450D01*
X3312Y1452D01*
D02*
G37*
G36*
X3302D02*
X3294Y1450D01*
X3286Y1445D01*
X3279Y1439D01*
X3274Y1431D01*
X3272Y1422D01*
X3302D01*
Y1452D01*
D02*
G37*
G36*
X3155D02*
Y1422D01*
X3185D01*
X3182Y1431D01*
X3178Y1439D01*
X3171Y1445D01*
X3163Y1450D01*
X3155Y1452D01*
D02*
G37*
G36*
X3145D02*
X3136Y1450D01*
X3128Y1445D01*
X3122Y1439D01*
X3117Y1431D01*
X3115Y1422D01*
X3145D01*
Y1452D01*
D02*
G37*
G36*
X2997D02*
Y1422D01*
X3027D01*
X3025Y1431D01*
X3020Y1439D01*
X3014Y1445D01*
X3006Y1450D01*
X2997Y1452D01*
D02*
G37*
G36*
X2987D02*
X2979Y1450D01*
X2971Y1445D01*
X2964Y1439D01*
X2960Y1431D01*
X2957Y1422D01*
X2987D01*
Y1452D01*
D02*
G37*
G36*
X2682D02*
Y1422D01*
X2712D01*
X2710Y1431D01*
X2705Y1439D01*
X2699Y1445D01*
X2691Y1450D01*
X2682Y1452D01*
D02*
G37*
G36*
X2672D02*
X2664Y1450D01*
X2656Y1445D01*
X2649Y1439D01*
X2645Y1431D01*
X2642Y1422D01*
X2672D01*
Y1452D01*
D02*
G37*
G36*
X2367D02*
Y1422D01*
X2397D01*
X2395Y1431D01*
X2390Y1439D01*
X2384Y1445D01*
X2376Y1450D01*
X2367Y1452D01*
D02*
G37*
G36*
X2357D02*
X2349Y1450D01*
X2341Y1445D01*
X2334Y1439D01*
X2330Y1431D01*
X2327Y1422D01*
X2357D01*
Y1452D01*
D02*
G37*
G36*
X2210D02*
Y1422D01*
X2240D01*
X2237Y1431D01*
X2233Y1439D01*
X2226Y1445D01*
X2218Y1450D01*
X2210Y1452D01*
D02*
G37*
G36*
X2200D02*
X2191Y1450D01*
X2183Y1445D01*
X2177Y1439D01*
X2172Y1431D01*
X2170Y1422D01*
X2200D01*
Y1452D01*
D02*
G37*
G36*
X2052D02*
Y1422D01*
X2082D01*
X2080Y1431D01*
X2075Y1439D01*
X2069Y1445D01*
X2061Y1450D01*
X2052Y1452D01*
D02*
G37*
G36*
X2042D02*
X2034Y1450D01*
X2026Y1445D01*
X2019Y1439D01*
X2015Y1431D01*
X2012Y1422D01*
X2042D01*
Y1452D01*
D02*
G37*
G36*
X1737D02*
Y1422D01*
X1767D01*
X1765Y1431D01*
X1760Y1439D01*
X1754Y1445D01*
X1746Y1450D01*
X1737Y1452D01*
D02*
G37*
G36*
X1727D02*
X1719Y1450D01*
X1711Y1445D01*
X1704Y1439D01*
X1700Y1431D01*
X1697Y1422D01*
X1727D01*
Y1452D01*
D02*
G37*
G36*
X1580D02*
Y1422D01*
X1610D01*
X1607Y1431D01*
X1603Y1439D01*
X1596Y1445D01*
X1588Y1450D01*
X1580Y1452D01*
D02*
G37*
G36*
X1570D02*
X1561Y1450D01*
X1553Y1445D01*
X1547Y1439D01*
X1542Y1431D01*
X1540Y1422D01*
X1570D01*
Y1452D01*
D02*
G37*
G36*
X1265D02*
Y1422D01*
X1295D01*
X1292Y1431D01*
X1288Y1439D01*
X1281Y1445D01*
X1273Y1450D01*
X1265Y1452D01*
D02*
G37*
G36*
X1255D02*
X1246Y1450D01*
X1238Y1445D01*
X1232Y1439D01*
X1227Y1431D01*
X1225Y1422D01*
X1255D01*
Y1452D01*
D02*
G37*
G36*
X1107D02*
Y1422D01*
X1137D01*
X1135Y1431D01*
X1130Y1439D01*
X1124Y1445D01*
X1116Y1450D01*
X1107Y1452D01*
D02*
G37*
G36*
X1097D02*
X1089Y1450D01*
X1081Y1445D01*
X1074Y1439D01*
X1070Y1431D01*
X1067Y1422D01*
X1097D01*
Y1452D01*
D02*
G37*
G36*
X3765Y1486D02*
X3761D01*
Y1399D01*
X3849D01*
Y1403D01*
X3845Y1421D01*
X3838Y1438D01*
X3828Y1453D01*
X3815Y1466D01*
X3800Y1476D01*
X3783Y1483D01*
X3765Y1486D01*
D02*
G37*
G36*
X3751D02*
X3747D01*
X3729Y1483D01*
X3712Y1476D01*
X3697Y1466D01*
X3684Y1453D01*
X3674Y1438D01*
X3667Y1421D01*
X3664Y1403D01*
Y1399D01*
X3751D01*
Y1486D01*
D02*
G37*
G36*
X1403D02*
X1399D01*
Y1399D01*
X1486D01*
Y1403D01*
X1483Y1421D01*
X1476Y1438D01*
X1466Y1453D01*
X1453Y1466D01*
X1438Y1476D01*
X1421Y1483D01*
X1403Y1486D01*
D02*
G37*
G36*
X1389D02*
X1385D01*
X1367Y1483D01*
X1350Y1476D01*
X1335Y1466D01*
X1322Y1453D01*
X1312Y1438D01*
X1305Y1421D01*
X1301Y1403D01*
Y1399D01*
X1389D01*
Y1486D01*
D02*
G37*
G36*
X3972Y1412D02*
X3942D01*
Y1382D01*
X3951Y1385D01*
X3958Y1389D01*
X3965Y1396D01*
X3970Y1404D01*
X3972Y1412D01*
D02*
G37*
G36*
X3932D02*
X3902D01*
X3904Y1404D01*
X3909Y1396D01*
X3916Y1389D01*
X3923Y1385D01*
X3932Y1382D01*
Y1412D01*
D02*
G37*
G36*
X3657D02*
X3627D01*
Y1382D01*
X3636Y1385D01*
X3644Y1389D01*
X3650Y1396D01*
X3655Y1404D01*
X3657Y1412D01*
D02*
G37*
G36*
X3617D02*
X3587D01*
X3589Y1404D01*
X3594Y1396D01*
X3601Y1389D01*
X3609Y1385D01*
X3617Y1382D01*
Y1412D01*
D02*
G37*
G36*
X3499D02*
X3470D01*
Y1382D01*
X3478Y1385D01*
X3486Y1389D01*
X3493Y1396D01*
X3497Y1404D01*
X3499Y1412D01*
D02*
G37*
G36*
X3460D02*
X3430D01*
X3432Y1404D01*
X3437Y1396D01*
X3443Y1389D01*
X3451Y1385D01*
X3460Y1382D01*
Y1412D01*
D02*
G37*
G36*
X3342D02*
X3312D01*
Y1382D01*
X3321Y1385D01*
X3329Y1389D01*
X3335Y1396D01*
X3340Y1404D01*
X3342Y1412D01*
D02*
G37*
G36*
X3302D02*
X3272D01*
X3274Y1404D01*
X3279Y1396D01*
X3286Y1389D01*
X3294Y1385D01*
X3302Y1382D01*
Y1412D01*
D02*
G37*
G36*
X3185D02*
X3155D01*
Y1382D01*
X3163Y1385D01*
X3171Y1389D01*
X3178Y1396D01*
X3182Y1404D01*
X3185Y1412D01*
D02*
G37*
G36*
X3145D02*
X3115D01*
X3117Y1404D01*
X3122Y1396D01*
X3128Y1389D01*
X3136Y1385D01*
X3145Y1382D01*
Y1412D01*
D02*
G37*
G36*
X2987D02*
X2957D01*
X2960Y1404D01*
X2964Y1396D01*
X2971Y1389D01*
X2979Y1385D01*
X2987Y1382D01*
Y1412D01*
D02*
G37*
G36*
X2712D02*
X2682D01*
Y1382D01*
X2691Y1385D01*
X2699Y1389D01*
X2705Y1396D01*
X2710Y1404D01*
X2712Y1412D01*
D02*
G37*
G36*
X2672D02*
X2642D01*
X2645Y1404D01*
X2649Y1396D01*
X2656Y1389D01*
X2664Y1385D01*
X2672Y1382D01*
Y1412D01*
D02*
G37*
G36*
X2397D02*
X2367D01*
Y1382D01*
X2376Y1385D01*
X2384Y1389D01*
X2390Y1396D01*
X2395Y1404D01*
X2397Y1412D01*
D02*
G37*
G36*
X2357D02*
X2327D01*
X2330Y1404D01*
X2334Y1396D01*
X2341Y1389D01*
X2349Y1385D01*
X2357Y1382D01*
Y1412D01*
D02*
G37*
G36*
X2240D02*
X2210D01*
Y1382D01*
X2218Y1385D01*
X2226Y1389D01*
X2233Y1396D01*
X2237Y1404D01*
X2240Y1412D01*
D02*
G37*
G36*
X2200D02*
X2170D01*
X2172Y1404D01*
X2177Y1396D01*
X2183Y1389D01*
X2191Y1385D01*
X2200Y1382D01*
Y1412D01*
D02*
G37*
G36*
X2082D02*
X2052D01*
Y1382D01*
X2061Y1385D01*
X2069Y1389D01*
X2075Y1396D01*
X2080Y1404D01*
X2082Y1412D01*
D02*
G37*
G36*
X2042D02*
X2012D01*
X2015Y1404D01*
X2019Y1396D01*
X2026Y1389D01*
X2034Y1385D01*
X2042Y1382D01*
Y1412D01*
D02*
G37*
G36*
X1767D02*
X1737D01*
Y1382D01*
X1746Y1385D01*
X1754Y1389D01*
X1760Y1396D01*
X1765Y1404D01*
X1767Y1412D01*
D02*
G37*
G36*
X1727D02*
X1697D01*
X1700Y1404D01*
X1704Y1396D01*
X1711Y1389D01*
X1719Y1385D01*
X1727Y1382D01*
Y1412D01*
D02*
G37*
G36*
X1610D02*
X1580D01*
Y1382D01*
X1588Y1385D01*
X1596Y1389D01*
X1603Y1396D01*
X1607Y1404D01*
X1610Y1412D01*
D02*
G37*
G36*
X1570D02*
X1540D01*
X1542Y1404D01*
X1547Y1396D01*
X1553Y1389D01*
X1561Y1385D01*
X1570Y1382D01*
Y1412D01*
D02*
G37*
G36*
X1295D02*
X1265D01*
Y1382D01*
X1273Y1385D01*
X1281Y1389D01*
X1288Y1396D01*
X1292Y1404D01*
X1295Y1412D01*
D02*
G37*
G36*
X1255D02*
X1225D01*
X1227Y1404D01*
X1232Y1396D01*
X1238Y1389D01*
X1246Y1385D01*
X1255Y1382D01*
Y1412D01*
D02*
G37*
G36*
X1137D02*
X1107D01*
Y1382D01*
X1116Y1385D01*
X1124Y1389D01*
X1130Y1396D01*
X1135Y1404D01*
X1137Y1412D01*
D02*
G37*
G36*
X1097D02*
X1067D01*
X1070Y1404D01*
X1074Y1396D01*
X1081Y1389D01*
X1089Y1385D01*
X1097Y1382D01*
Y1412D01*
D02*
G37*
G36*
X3027D02*
X2997D01*
Y1382D01*
X2999Y1383D01*
X3002Y1379D01*
X3001Y1376D01*
X2998Y1367D01*
Y1357D01*
X3001Y1348D01*
X3006Y1340D01*
X3012Y1333D01*
X3020Y1329D01*
X3030Y1326D01*
X3039D01*
X3048Y1329D01*
X3056Y1333D01*
X3063Y1340D01*
X3068Y1348D01*
X3070Y1357D01*
Y1367D01*
X3068Y1376D01*
X3063Y1384D01*
X3056Y1391D01*
X3048Y1396D01*
X3039Y1398D01*
X3030D01*
X3027Y1397D01*
X3024Y1402D01*
X3025Y1404D01*
X3027Y1412D01*
D02*
G37*
G36*
X2449Y1398D02*
X2439D01*
X2430Y1396D01*
X2422Y1391D01*
X2415Y1384D01*
X2410Y1376D01*
X2408Y1367D01*
Y1357D01*
X2410Y1348D01*
X2415Y1340D01*
X2422Y1333D01*
X2430Y1329D01*
X2439Y1326D01*
X2449D01*
X2458Y1329D01*
X2466Y1333D01*
X2473Y1340D01*
X2477Y1348D01*
X2480Y1357D01*
Y1367D01*
X2477Y1376D01*
X2473Y1384D01*
X2466Y1391D01*
X2458Y1396D01*
X2449Y1398D01*
D02*
G37*
G36*
X2258Y1387D02*
X2249D01*
X2240Y1385D01*
X2232Y1380D01*
X2225Y1374D01*
X2220Y1366D01*
X2218Y1357D01*
Y1348D01*
X2220Y1339D01*
X2225Y1331D01*
X2232Y1324D01*
X2240Y1320D01*
X2249Y1317D01*
X2258D01*
X2267Y1320D01*
X2275Y1324D01*
X2281Y1331D01*
X2286Y1339D01*
X2288Y1348D01*
Y1357D01*
X2286Y1366D01*
X2281Y1374D01*
X2275Y1380D01*
X2267Y1385D01*
X2258Y1387D01*
D02*
G37*
G36*
X1903D02*
X1894D01*
X1885Y1385D01*
X1877Y1380D01*
X1871Y1374D01*
X1866Y1366D01*
X1864Y1357D01*
Y1348D01*
X1866Y1339D01*
X1871Y1331D01*
X1877Y1324D01*
X1885Y1320D01*
X1894Y1317D01*
X1903D01*
X1912Y1320D01*
X1920Y1324D01*
X1927Y1331D01*
X1931Y1339D01*
X1934Y1348D01*
Y1357D01*
X1931Y1366D01*
X1927Y1374D01*
X1920Y1380D01*
X1912Y1385D01*
X1903Y1387D01*
D02*
G37*
G36*
X3849Y1389D02*
X3761D01*
Y1301D01*
X3765D01*
X3783Y1305D01*
X3800Y1312D01*
X3815Y1322D01*
X3828Y1335D01*
X3838Y1350D01*
X3845Y1367D01*
X3849Y1385D01*
Y1389D01*
D02*
G37*
G36*
X3751D02*
X3664D01*
Y1385D01*
X3667Y1367D01*
X3674Y1350D01*
X3684Y1335D01*
X3697Y1322D01*
X3712Y1312D01*
X3729Y1305D01*
X3747Y1301D01*
X3751D01*
Y1389D01*
D02*
G37*
G36*
X1486D02*
X1399D01*
Y1301D01*
X1403D01*
X1421Y1305D01*
X1438Y1312D01*
X1453Y1322D01*
X1466Y1335D01*
X1476Y1350D01*
X1483Y1367D01*
X1486Y1385D01*
Y1389D01*
D02*
G37*
G36*
X1389D02*
X1301D01*
Y1385D01*
X1305Y1367D01*
X1312Y1350D01*
X1322Y1335D01*
X1335Y1322D01*
X1350Y1312D01*
X1367Y1305D01*
X1385Y1301D01*
X1389D01*
Y1389D01*
D02*
G37*
G36*
X2175Y1315D02*
X2140D01*
Y1280D01*
X2175D01*
Y1315D01*
D02*
G37*
G36*
X2130D02*
X2095D01*
Y1280D01*
X2130D01*
Y1315D01*
D02*
G37*
G36*
X2022D02*
X2022D01*
Y1280D01*
X2057D01*
Y1280D01*
X2054Y1290D01*
X2049Y1300D01*
X2041Y1307D01*
X2032Y1312D01*
X2022Y1315D01*
D02*
G37*
G36*
X2012D02*
X2012D01*
X2001Y1312D01*
X1992Y1307D01*
X1985Y1300D01*
X1980Y1290D01*
X1977Y1280D01*
Y1280D01*
X2012D01*
Y1315D01*
D02*
G37*
G36*
X4021Y1295D02*
Y1265D01*
X4051D01*
X4048Y1273D01*
X4044Y1281D01*
X4037Y1288D01*
X4029Y1292D01*
X4021Y1295D01*
D02*
G37*
G36*
X4011D02*
X4002Y1292D01*
X3994Y1288D01*
X3988Y1281D01*
X3983Y1273D01*
X3981Y1265D01*
X4011D01*
Y1295D01*
D02*
G37*
G36*
X3863D02*
Y1265D01*
X3893D01*
X3891Y1273D01*
X3886Y1281D01*
X3880Y1288D01*
X3872Y1292D01*
X3863Y1295D01*
D02*
G37*
G36*
X3853D02*
X3845Y1292D01*
X3837Y1288D01*
X3830Y1281D01*
X3826Y1273D01*
X3823Y1265D01*
X3853D01*
Y1295D01*
D02*
G37*
G36*
X3706D02*
Y1265D01*
X3736D01*
X3733Y1273D01*
X3729Y1281D01*
X3722Y1288D01*
X3714Y1292D01*
X3706Y1295D01*
D02*
G37*
G36*
X3696D02*
X3687Y1292D01*
X3679Y1288D01*
X3673Y1281D01*
X3668Y1273D01*
X3666Y1265D01*
X3696D01*
Y1295D01*
D02*
G37*
G36*
X3548D02*
Y1265D01*
X3578D01*
X3576Y1273D01*
X3571Y1281D01*
X3565Y1288D01*
X3557Y1292D01*
X3548Y1295D01*
D02*
G37*
G36*
X3538D02*
X3530Y1292D01*
X3522Y1288D01*
X3515Y1281D01*
X3511Y1273D01*
X3508Y1265D01*
X3538D01*
Y1295D01*
D02*
G37*
G36*
X3391D02*
Y1265D01*
X3421D01*
X3418Y1273D01*
X3414Y1281D01*
X3407Y1288D01*
X3399Y1292D01*
X3391Y1295D01*
D02*
G37*
G36*
X3381D02*
X3372Y1292D01*
X3364Y1288D01*
X3358Y1281D01*
X3353Y1273D01*
X3351Y1265D01*
X3381D01*
Y1295D01*
D02*
G37*
G36*
X3233D02*
Y1265D01*
X3263D01*
X3261Y1273D01*
X3256Y1281D01*
X3250Y1288D01*
X3242Y1292D01*
X3233Y1295D01*
D02*
G37*
G36*
X3223D02*
X3215Y1292D01*
X3207Y1288D01*
X3200Y1281D01*
X3196Y1273D01*
X3193Y1265D01*
X3223D01*
Y1295D01*
D02*
G37*
G36*
X3076D02*
Y1265D01*
X3106D01*
X3103Y1273D01*
X3099Y1281D01*
X3092Y1288D01*
X3084Y1292D01*
X3076Y1295D01*
D02*
G37*
G36*
X3066D02*
X3057Y1292D01*
X3049Y1288D01*
X3043Y1281D01*
X3038Y1273D01*
X3036Y1265D01*
X3066D01*
Y1295D01*
D02*
G37*
G36*
X2446D02*
Y1265D01*
X2476D01*
X2474Y1273D01*
X2469Y1281D01*
X2462Y1288D01*
X2454Y1292D01*
X2446Y1295D01*
D02*
G37*
G36*
X2436D02*
X2427Y1292D01*
X2419Y1288D01*
X2413Y1281D01*
X2408Y1273D01*
X2406Y1265D01*
X2436D01*
Y1295D01*
D02*
G37*
G36*
X2288D02*
Y1265D01*
X2318D01*
X2316Y1273D01*
X2311Y1281D01*
X2305Y1288D01*
X2297Y1292D01*
X2288Y1295D01*
D02*
G37*
G36*
X2278D02*
X2270Y1292D01*
X2262Y1288D01*
X2255Y1281D01*
X2251Y1273D01*
X2249Y1265D01*
X2278D01*
Y1295D01*
D02*
G37*
G36*
X1816D02*
Y1265D01*
X1846D01*
X1844Y1273D01*
X1839Y1281D01*
X1833Y1288D01*
X1825Y1292D01*
X1816Y1295D01*
D02*
G37*
G36*
X1806D02*
X1798Y1292D01*
X1790Y1288D01*
X1783Y1281D01*
X1778Y1273D01*
X1776Y1265D01*
X1806D01*
Y1295D01*
D02*
G37*
G36*
X1659D02*
Y1265D01*
X1688D01*
X1686Y1273D01*
X1682Y1281D01*
X1675Y1288D01*
X1667Y1292D01*
X1659Y1295D01*
D02*
G37*
G36*
X1649D02*
X1640Y1292D01*
X1632Y1288D01*
X1626Y1281D01*
X1621Y1273D01*
X1619Y1265D01*
X1649D01*
Y1295D01*
D02*
G37*
G36*
X1501D02*
Y1265D01*
X1531D01*
X1529Y1273D01*
X1524Y1281D01*
X1518Y1288D01*
X1510Y1292D01*
X1501Y1295D01*
D02*
G37*
G36*
X1491D02*
X1483Y1292D01*
X1475Y1288D01*
X1468Y1281D01*
X1463Y1273D01*
X1461Y1265D01*
X1491D01*
Y1295D01*
D02*
G37*
G36*
X1344D02*
Y1265D01*
X1373D01*
X1371Y1273D01*
X1367Y1281D01*
X1360Y1288D01*
X1352Y1292D01*
X1344Y1295D01*
D02*
G37*
G36*
X1334D02*
X1325Y1292D01*
X1317Y1288D01*
X1311Y1281D01*
X1306Y1273D01*
X1304Y1265D01*
X1334D01*
Y1295D01*
D02*
G37*
G36*
X1186D02*
Y1265D01*
X1216D01*
X1214Y1273D01*
X1209Y1281D01*
X1203Y1288D01*
X1195Y1292D01*
X1186Y1295D01*
D02*
G37*
G36*
X1176D02*
X1168Y1292D01*
X1160Y1288D01*
X1153Y1281D01*
X1148Y1273D01*
X1146Y1265D01*
X1176D01*
Y1295D01*
D02*
G37*
G36*
X2862Y3319D02*
X2389D01*
Y3280D01*
Y3240D01*
X2419D01*
Y2459D01*
X2420Y2454D01*
X2423Y2449D01*
X2783Y2089D01*
Y1919D01*
X2778Y1917D01*
X2777Y1918D01*
X2769Y1922D01*
X2761Y1925D01*
Y1890D01*
Y1855D01*
X2769Y1857D01*
X2777Y1862D01*
X2778Y1863D01*
X2783Y1861D01*
Y1604D01*
X2778Y1602D01*
X2777Y1603D01*
X2769Y1607D01*
X2761Y1610D01*
Y1575D01*
Y1540D01*
X2769Y1542D01*
X2777Y1547D01*
X2778Y1548D01*
X2783Y1546D01*
Y1324D01*
X2782Y1324D01*
X2773Y1318D01*
X2765Y1311D01*
X2759Y1301D01*
X2757Y1290D01*
Y1280D01*
X2759Y1269D01*
X2765Y1259D01*
X2773Y1252D01*
X2782Y1246D01*
X2793Y1243D01*
X2804D01*
X2814Y1246D01*
X2824Y1252D01*
X2831Y1259D01*
X2837Y1269D01*
X2840Y1280D01*
Y1290D01*
X2837Y1301D01*
X2831Y1311D01*
X2824Y1318D01*
X2814Y1324D01*
X2813Y1324D01*
Y2095D01*
X2812Y2101D01*
X2809Y2106D01*
X2750Y2165D01*
X2751Y2167D01*
Y2200D01*
X2718D01*
X2717Y2199D01*
X2449Y2466D01*
Y3240D01*
X2781D01*
Y2337D01*
X2782Y2331D01*
X2786Y2326D01*
X2901Y2211D01*
Y1324D01*
X2900Y1324D01*
X2891Y1318D01*
X2883Y1311D01*
X2877Y1301D01*
X2875Y1290D01*
Y1280D01*
X2877Y1269D01*
X2883Y1259D01*
X2891Y1252D01*
X2900Y1246D01*
X2911Y1243D01*
X2922D01*
X2932Y1246D01*
X2942Y1252D01*
X2950Y1259D01*
X2955Y1269D01*
X2958Y1280D01*
Y1290D01*
X2955Y1301D01*
X2950Y1311D01*
X2942Y1318D01*
X2932Y1324D01*
X2932Y1324D01*
Y2218D01*
X2930Y2223D01*
X2927Y2228D01*
X2812Y2344D01*
Y3240D01*
X2862D01*
Y3319D01*
D02*
G37*
G36*
X2175Y1270D02*
X2140D01*
Y1235D01*
X2175D01*
Y1270D01*
D02*
G37*
G36*
X2130D02*
X2095D01*
Y1235D01*
X2130D01*
Y1270D01*
D02*
G37*
G36*
X2057D02*
X2022D01*
Y1235D01*
X2022D01*
X2032Y1238D01*
X2041Y1243D01*
X2049Y1250D01*
X2054Y1260D01*
X2057Y1270D01*
Y1270D01*
D02*
G37*
G36*
X2012D02*
X1977D01*
Y1270D01*
X1980Y1260D01*
X1985Y1250D01*
X1992Y1243D01*
X2001Y1238D01*
X2012Y1235D01*
X2012D01*
Y1270D01*
D02*
G37*
G36*
X4051Y1255D02*
X4021D01*
Y1225D01*
X4029Y1227D01*
X4037Y1232D01*
X4044Y1238D01*
X4048Y1246D01*
X4051Y1255D01*
D02*
G37*
G36*
X4011D02*
X3981D01*
X3983Y1246D01*
X3988Y1238D01*
X3994Y1232D01*
X4002Y1227D01*
X4011Y1225D01*
Y1255D01*
D02*
G37*
G36*
X3893D02*
X3863D01*
Y1225D01*
X3872Y1227D01*
X3880Y1232D01*
X3886Y1238D01*
X3891Y1246D01*
X3893Y1255D01*
D02*
G37*
G36*
X3853D02*
X3823D01*
X3826Y1246D01*
X3830Y1238D01*
X3837Y1232D01*
X3845Y1227D01*
X3853Y1225D01*
Y1255D01*
D02*
G37*
G36*
X3736D02*
X3706D01*
Y1225D01*
X3714Y1227D01*
X3722Y1232D01*
X3729Y1238D01*
X3733Y1246D01*
X3736Y1255D01*
D02*
G37*
G36*
X3696D02*
X3666D01*
X3668Y1246D01*
X3673Y1238D01*
X3679Y1232D01*
X3687Y1227D01*
X3696Y1225D01*
Y1255D01*
D02*
G37*
G36*
X3578D02*
X3548D01*
Y1225D01*
X3557Y1227D01*
X3565Y1232D01*
X3571Y1238D01*
X3576Y1246D01*
X3578Y1255D01*
D02*
G37*
G36*
X3538D02*
X3508D01*
X3511Y1246D01*
X3515Y1238D01*
X3522Y1232D01*
X3530Y1227D01*
X3538Y1225D01*
Y1255D01*
D02*
G37*
G36*
X3421D02*
X3391D01*
Y1225D01*
X3399Y1227D01*
X3407Y1232D01*
X3414Y1238D01*
X3418Y1246D01*
X3421Y1255D01*
D02*
G37*
G36*
X3381D02*
X3351D01*
X3353Y1246D01*
X3358Y1238D01*
X3364Y1232D01*
X3372Y1227D01*
X3381Y1225D01*
Y1255D01*
D02*
G37*
G36*
X3263D02*
X3233D01*
Y1225D01*
X3242Y1227D01*
X3250Y1232D01*
X3256Y1238D01*
X3261Y1246D01*
X3263Y1255D01*
D02*
G37*
G36*
X3223D02*
X3193D01*
X3196Y1246D01*
X3200Y1238D01*
X3207Y1232D01*
X3215Y1227D01*
X3223Y1225D01*
Y1255D01*
D02*
G37*
G36*
X3106D02*
X3076D01*
Y1225D01*
X3084Y1227D01*
X3092Y1232D01*
X3099Y1238D01*
X3103Y1246D01*
X3106Y1255D01*
D02*
G37*
G36*
X3066D02*
X3036D01*
X3038Y1246D01*
X3043Y1238D01*
X3049Y1232D01*
X3057Y1227D01*
X3066Y1225D01*
Y1255D01*
D02*
G37*
G36*
X2476D02*
X2446D01*
Y1225D01*
X2454Y1227D01*
X2462Y1232D01*
X2469Y1238D01*
X2474Y1246D01*
X2476Y1255D01*
D02*
G37*
G36*
X2436D02*
X2406D01*
X2408Y1246D01*
X2413Y1238D01*
X2419Y1232D01*
X2427Y1227D01*
X2436Y1225D01*
Y1255D01*
D02*
G37*
G36*
X2318D02*
X2288D01*
Y1225D01*
X2297Y1227D01*
X2305Y1232D01*
X2311Y1238D01*
X2316Y1246D01*
X2318Y1255D01*
D02*
G37*
G36*
X2278D02*
X2249D01*
X2251Y1246D01*
X2255Y1238D01*
X2262Y1232D01*
X2270Y1227D01*
X2278Y1225D01*
Y1255D01*
D02*
G37*
G36*
X1846D02*
X1816D01*
Y1225D01*
X1825Y1227D01*
X1833Y1232D01*
X1839Y1238D01*
X1844Y1246D01*
X1846Y1255D01*
D02*
G37*
G36*
X1806D02*
X1776D01*
X1778Y1246D01*
X1783Y1238D01*
X1790Y1232D01*
X1798Y1227D01*
X1806Y1225D01*
Y1255D01*
D02*
G37*
G36*
X1688D02*
X1659D01*
Y1225D01*
X1667Y1227D01*
X1675Y1232D01*
X1682Y1238D01*
X1686Y1246D01*
X1688Y1255D01*
D02*
G37*
G36*
X1649D02*
X1619D01*
X1621Y1246D01*
X1626Y1238D01*
X1632Y1232D01*
X1640Y1227D01*
X1649Y1225D01*
Y1255D01*
D02*
G37*
G36*
X1531D02*
X1501D01*
Y1225D01*
X1510Y1227D01*
X1518Y1232D01*
X1524Y1238D01*
X1529Y1246D01*
X1531Y1255D01*
D02*
G37*
G36*
X1491D02*
X1461D01*
X1463Y1246D01*
X1468Y1238D01*
X1475Y1232D01*
X1483Y1227D01*
X1491Y1225D01*
Y1255D01*
D02*
G37*
G36*
X1373D02*
X1344D01*
Y1225D01*
X1352Y1227D01*
X1360Y1232D01*
X1367Y1238D01*
X1371Y1246D01*
X1373Y1255D01*
D02*
G37*
G36*
X1334D02*
X1304D01*
X1306Y1246D01*
X1311Y1238D01*
X1317Y1232D01*
X1325Y1227D01*
X1334Y1225D01*
Y1255D01*
D02*
G37*
G36*
X1216D02*
X1186D01*
Y1225D01*
X1195Y1227D01*
X1203Y1232D01*
X1209Y1238D01*
X1214Y1246D01*
X1216Y1255D01*
D02*
G37*
G36*
X1176D02*
X1146D01*
X1148Y1246D01*
X1153Y1238D01*
X1160Y1232D01*
X1168Y1227D01*
X1176Y1225D01*
Y1255D01*
D02*
G37*
G36*
X3942Y1137D02*
Y1107D01*
X3972D01*
X3970Y1116D01*
X3965Y1124D01*
X3958Y1130D01*
X3951Y1135D01*
X3942Y1137D01*
D02*
G37*
G36*
X3932D02*
X3923Y1135D01*
X3916Y1130D01*
X3909Y1124D01*
X3904Y1116D01*
X3902Y1107D01*
X3932D01*
Y1137D01*
D02*
G37*
G36*
X3785D02*
Y1107D01*
X3814D01*
X3812Y1116D01*
X3808Y1124D01*
X3801Y1130D01*
X3793Y1135D01*
X3785Y1137D01*
D02*
G37*
G36*
X3775D02*
X3766Y1135D01*
X3758Y1130D01*
X3752Y1124D01*
X3747Y1116D01*
X3745Y1107D01*
X3775D01*
Y1137D01*
D02*
G37*
G36*
X3627D02*
Y1107D01*
X3657D01*
X3655Y1116D01*
X3650Y1124D01*
X3644Y1130D01*
X3636Y1135D01*
X3627Y1137D01*
D02*
G37*
G36*
X3617D02*
X3609Y1135D01*
X3601Y1130D01*
X3594Y1124D01*
X3589Y1116D01*
X3587Y1107D01*
X3617D01*
Y1137D01*
D02*
G37*
G36*
X3470D02*
Y1107D01*
X3499D01*
X3497Y1116D01*
X3493Y1124D01*
X3486Y1130D01*
X3478Y1135D01*
X3470Y1137D01*
D02*
G37*
G36*
X3460D02*
X3451Y1135D01*
X3443Y1130D01*
X3437Y1124D01*
X3432Y1116D01*
X3430Y1107D01*
X3460D01*
Y1137D01*
D02*
G37*
G36*
X3312D02*
Y1107D01*
X3342D01*
X3340Y1116D01*
X3335Y1124D01*
X3329Y1130D01*
X3321Y1135D01*
X3312Y1137D01*
D02*
G37*
G36*
X3302D02*
X3294Y1135D01*
X3286Y1130D01*
X3279Y1124D01*
X3274Y1116D01*
X3272Y1107D01*
X3302D01*
Y1137D01*
D02*
G37*
G36*
X3155D02*
Y1107D01*
X3185D01*
X3182Y1116D01*
X3178Y1124D01*
X3171Y1130D01*
X3163Y1135D01*
X3155Y1137D01*
D02*
G37*
G36*
X3145D02*
X3136Y1135D01*
X3128Y1130D01*
X3122Y1124D01*
X3117Y1116D01*
X3115Y1107D01*
X3145D01*
Y1137D01*
D02*
G37*
G36*
X2997D02*
Y1107D01*
X3027D01*
X3025Y1116D01*
X3020Y1124D01*
X3014Y1130D01*
X3006Y1135D01*
X2997Y1137D01*
D02*
G37*
G36*
X2987D02*
X2979Y1135D01*
X2971Y1130D01*
X2964Y1124D01*
X2960Y1116D01*
X2957Y1107D01*
X2987D01*
Y1137D01*
D02*
G37*
G36*
X2840D02*
Y1107D01*
X2870D01*
X2867Y1116D01*
X2863Y1124D01*
X2856Y1130D01*
X2848Y1135D01*
X2840Y1137D01*
D02*
G37*
G36*
X2830D02*
X2821Y1135D01*
X2813Y1130D01*
X2807Y1124D01*
X2802Y1116D01*
X2800Y1107D01*
X2830D01*
Y1137D01*
D02*
G37*
G36*
X2682D02*
Y1107D01*
X2712D01*
X2710Y1116D01*
X2705Y1124D01*
X2699Y1130D01*
X2691Y1135D01*
X2682Y1137D01*
D02*
G37*
G36*
X2672D02*
X2664Y1135D01*
X2656Y1130D01*
X2649Y1124D01*
X2645Y1116D01*
X2642Y1107D01*
X2672D01*
Y1137D01*
D02*
G37*
G36*
X2525D02*
Y1107D01*
X2555D01*
X2552Y1116D01*
X2548Y1124D01*
X2541Y1130D01*
X2533Y1135D01*
X2525Y1137D01*
D02*
G37*
G36*
X2515D02*
X2506Y1135D01*
X2498Y1130D01*
X2492Y1124D01*
X2487Y1116D01*
X2485Y1107D01*
X2515D01*
Y1137D01*
D02*
G37*
G36*
X2367D02*
Y1107D01*
X2397D01*
X2395Y1116D01*
X2390Y1124D01*
X2384Y1130D01*
X2376Y1135D01*
X2367Y1137D01*
D02*
G37*
G36*
X2357D02*
X2349Y1135D01*
X2341Y1130D01*
X2334Y1124D01*
X2330Y1116D01*
X2327Y1107D01*
X2357D01*
Y1137D01*
D02*
G37*
G36*
X2210D02*
Y1107D01*
X2240D01*
X2237Y1116D01*
X2233Y1124D01*
X2226Y1130D01*
X2218Y1135D01*
X2210Y1137D01*
D02*
G37*
G36*
X2200D02*
X2191Y1135D01*
X2183Y1130D01*
X2177Y1124D01*
X2172Y1116D01*
X2170Y1107D01*
X2200D01*
Y1137D01*
D02*
G37*
G36*
X2052D02*
Y1107D01*
X2082D01*
X2080Y1116D01*
X2075Y1124D01*
X2069Y1130D01*
X2061Y1135D01*
X2052Y1137D01*
D02*
G37*
G36*
X2042D02*
X2034Y1135D01*
X2026Y1130D01*
X2019Y1124D01*
X2015Y1116D01*
X2012Y1107D01*
X2042D01*
Y1137D01*
D02*
G37*
G36*
X1895D02*
Y1107D01*
X1925D01*
X1922Y1116D01*
X1918Y1124D01*
X1911Y1130D01*
X1903Y1135D01*
X1895Y1137D01*
D02*
G37*
G36*
X1885D02*
X1876Y1135D01*
X1868Y1130D01*
X1862Y1124D01*
X1857Y1116D01*
X1855Y1107D01*
X1885D01*
Y1137D01*
D02*
G37*
G36*
X1737D02*
Y1107D01*
X1767D01*
X1765Y1116D01*
X1760Y1124D01*
X1754Y1130D01*
X1746Y1135D01*
X1737Y1137D01*
D02*
G37*
G36*
X1727D02*
X1719Y1135D01*
X1711Y1130D01*
X1704Y1124D01*
X1700Y1116D01*
X1697Y1107D01*
X1727D01*
Y1137D01*
D02*
G37*
G36*
X1580D02*
Y1107D01*
X1610D01*
X1607Y1116D01*
X1603Y1124D01*
X1596Y1130D01*
X1588Y1135D01*
X1580Y1137D01*
D02*
G37*
G36*
X1570D02*
X1561Y1135D01*
X1553Y1130D01*
X1547Y1124D01*
X1542Y1116D01*
X1540Y1107D01*
X1570D01*
Y1137D01*
D02*
G37*
G36*
X1422D02*
Y1107D01*
X1452D01*
X1450Y1116D01*
X1445Y1124D01*
X1439Y1130D01*
X1431Y1135D01*
X1422Y1137D01*
D02*
G37*
G36*
X1412D02*
X1404Y1135D01*
X1396Y1130D01*
X1389Y1124D01*
X1385Y1116D01*
X1382Y1107D01*
X1412D01*
Y1137D01*
D02*
G37*
G36*
X1265D02*
Y1107D01*
X1295D01*
X1292Y1116D01*
X1288Y1124D01*
X1281Y1130D01*
X1273Y1135D01*
X1265Y1137D01*
D02*
G37*
G36*
X1255D02*
X1246Y1135D01*
X1238Y1130D01*
X1232Y1124D01*
X1227Y1116D01*
X1225Y1107D01*
X1255D01*
Y1137D01*
D02*
G37*
G36*
X1107D02*
Y1107D01*
X1137D01*
X1135Y1116D01*
X1130Y1124D01*
X1124Y1130D01*
X1116Y1135D01*
X1107Y1137D01*
D02*
G37*
G36*
X1097D02*
X1089Y1135D01*
X1081Y1130D01*
X1074Y1124D01*
X1070Y1116D01*
X1067Y1107D01*
X1097D01*
Y1137D01*
D02*
G37*
G36*
X3972Y1097D02*
X3942D01*
Y1067D01*
X3951Y1070D01*
X3958Y1074D01*
X3965Y1081D01*
X3970Y1089D01*
X3972Y1097D01*
D02*
G37*
G36*
X3932D02*
X3902D01*
X3904Y1089D01*
X3909Y1081D01*
X3916Y1074D01*
X3923Y1070D01*
X3932Y1067D01*
Y1097D01*
D02*
G37*
G36*
X3814D02*
X3785D01*
Y1067D01*
X3793Y1070D01*
X3801Y1074D01*
X3808Y1081D01*
X3812Y1089D01*
X3814Y1097D01*
D02*
G37*
G36*
X3775D02*
X3745D01*
X3747Y1089D01*
X3752Y1081D01*
X3758Y1074D01*
X3766Y1070D01*
X3775Y1067D01*
Y1097D01*
D02*
G37*
G36*
X3657D02*
X3627D01*
Y1067D01*
X3636Y1070D01*
X3644Y1074D01*
X3650Y1081D01*
X3655Y1089D01*
X3657Y1097D01*
D02*
G37*
G36*
X3617D02*
X3587D01*
X3589Y1089D01*
X3594Y1081D01*
X3601Y1074D01*
X3609Y1070D01*
X3617Y1067D01*
Y1097D01*
D02*
G37*
G36*
X3499D02*
X3470D01*
Y1067D01*
X3478Y1070D01*
X3486Y1074D01*
X3493Y1081D01*
X3497Y1089D01*
X3499Y1097D01*
D02*
G37*
G36*
X3460D02*
X3430D01*
X3432Y1089D01*
X3437Y1081D01*
X3443Y1074D01*
X3451Y1070D01*
X3460Y1067D01*
Y1097D01*
D02*
G37*
G36*
X3342D02*
X3312D01*
Y1067D01*
X3321Y1070D01*
X3329Y1074D01*
X3335Y1081D01*
X3340Y1089D01*
X3342Y1097D01*
D02*
G37*
G36*
X3302D02*
X3272D01*
X3274Y1089D01*
X3279Y1081D01*
X3286Y1074D01*
X3294Y1070D01*
X3302Y1067D01*
Y1097D01*
D02*
G37*
G36*
X3185D02*
X3155D01*
Y1067D01*
X3163Y1070D01*
X3171Y1074D01*
X3178Y1081D01*
X3182Y1089D01*
X3185Y1097D01*
D02*
G37*
G36*
X3145D02*
X3115D01*
X3117Y1089D01*
X3122Y1081D01*
X3128Y1074D01*
X3136Y1070D01*
X3145Y1067D01*
Y1097D01*
D02*
G37*
G36*
X3027D02*
X2997D01*
Y1067D01*
X3006Y1070D01*
X3014Y1074D01*
X3020Y1081D01*
X3025Y1089D01*
X3027Y1097D01*
D02*
G37*
G36*
X2987D02*
X2957D01*
X2960Y1089D01*
X2964Y1081D01*
X2971Y1074D01*
X2979Y1070D01*
X2987Y1067D01*
Y1097D01*
D02*
G37*
G36*
X2870D02*
X2840D01*
Y1067D01*
X2848Y1070D01*
X2856Y1074D01*
X2863Y1081D01*
X2867Y1089D01*
X2870Y1097D01*
D02*
G37*
G36*
X2830D02*
X2800D01*
X2802Y1089D01*
X2807Y1081D01*
X2813Y1074D01*
X2821Y1070D01*
X2830Y1067D01*
Y1097D01*
D02*
G37*
G36*
X2712D02*
X2682D01*
Y1067D01*
X2691Y1070D01*
X2699Y1074D01*
X2705Y1081D01*
X2710Y1089D01*
X2712Y1097D01*
D02*
G37*
G36*
X2672D02*
X2642D01*
X2645Y1089D01*
X2649Y1081D01*
X2656Y1074D01*
X2664Y1070D01*
X2672Y1067D01*
Y1097D01*
D02*
G37*
G36*
X2555D02*
X2525D01*
Y1067D01*
X2533Y1070D01*
X2541Y1074D01*
X2548Y1081D01*
X2552Y1089D01*
X2555Y1097D01*
D02*
G37*
G36*
X2515D02*
X2485D01*
X2487Y1089D01*
X2492Y1081D01*
X2498Y1074D01*
X2506Y1070D01*
X2515Y1067D01*
Y1097D01*
D02*
G37*
G36*
X2397D02*
X2367D01*
Y1067D01*
X2376Y1070D01*
X2384Y1074D01*
X2390Y1081D01*
X2395Y1089D01*
X2397Y1097D01*
D02*
G37*
G36*
X2357D02*
X2327D01*
X2330Y1089D01*
X2334Y1081D01*
X2341Y1074D01*
X2349Y1070D01*
X2357Y1067D01*
Y1097D01*
D02*
G37*
G36*
X2240D02*
X2210D01*
Y1067D01*
X2218Y1070D01*
X2226Y1074D01*
X2233Y1081D01*
X2237Y1089D01*
X2240Y1097D01*
D02*
G37*
G36*
X2200D02*
X2170D01*
X2172Y1089D01*
X2177Y1081D01*
X2183Y1074D01*
X2191Y1070D01*
X2200Y1067D01*
Y1097D01*
D02*
G37*
G36*
X2082D02*
X2052D01*
Y1067D01*
X2061Y1070D01*
X2069Y1074D01*
X2075Y1081D01*
X2080Y1089D01*
X2082Y1097D01*
D02*
G37*
G36*
X2042D02*
X2012D01*
X2015Y1089D01*
X2019Y1081D01*
X2026Y1074D01*
X2034Y1070D01*
X2042Y1067D01*
Y1097D01*
D02*
G37*
G36*
X1925D02*
X1895D01*
Y1067D01*
X1903Y1070D01*
X1911Y1074D01*
X1918Y1081D01*
X1922Y1089D01*
X1925Y1097D01*
D02*
G37*
G36*
X1885D02*
X1855D01*
X1857Y1089D01*
X1862Y1081D01*
X1868Y1074D01*
X1876Y1070D01*
X1885Y1067D01*
Y1097D01*
D02*
G37*
G36*
X1767D02*
X1737D01*
Y1067D01*
X1746Y1070D01*
X1754Y1074D01*
X1760Y1081D01*
X1765Y1089D01*
X1767Y1097D01*
D02*
G37*
G36*
X1727D02*
X1697D01*
X1700Y1089D01*
X1704Y1081D01*
X1711Y1074D01*
X1719Y1070D01*
X1727Y1067D01*
Y1097D01*
D02*
G37*
G36*
X1610D02*
X1580D01*
Y1067D01*
X1588Y1070D01*
X1596Y1074D01*
X1603Y1081D01*
X1607Y1089D01*
X1610Y1097D01*
D02*
G37*
G36*
X1570D02*
X1540D01*
X1542Y1089D01*
X1547Y1081D01*
X1553Y1074D01*
X1561Y1070D01*
X1570Y1067D01*
Y1097D01*
D02*
G37*
G36*
X1452D02*
X1422D01*
Y1067D01*
X1431Y1070D01*
X1439Y1074D01*
X1445Y1081D01*
X1450Y1089D01*
X1452Y1097D01*
D02*
G37*
G36*
X1412D02*
X1382D01*
X1385Y1089D01*
X1389Y1081D01*
X1396Y1074D01*
X1404Y1070D01*
X1412Y1067D01*
Y1097D01*
D02*
G37*
G36*
X1295D02*
X1265D01*
Y1067D01*
X1273Y1070D01*
X1281Y1074D01*
X1288Y1081D01*
X1292Y1089D01*
X1295Y1097D01*
D02*
G37*
G36*
X1255D02*
X1225D01*
X1227Y1089D01*
X1232Y1081D01*
X1238Y1074D01*
X1246Y1070D01*
X1255Y1067D01*
Y1097D01*
D02*
G37*
G36*
X1137D02*
X1107D01*
Y1067D01*
X1116Y1070D01*
X1124Y1074D01*
X1130Y1081D01*
X1135Y1089D01*
X1137Y1097D01*
D02*
G37*
G36*
X1097D02*
X1067D01*
X1070Y1089D01*
X1074Y1081D01*
X1081Y1074D01*
X1089Y1070D01*
X1097Y1067D01*
Y1097D01*
D02*
G37*
%LPD*%
G36*
X2134Y3952D02*
X2135Y3952D01*
X2135Y3951D01*
X2136Y3950D01*
X2137Y3950D01*
X2138Y3949D01*
X2139Y3949D01*
X2141Y3949D01*
X2143Y3948D01*
X2144Y3948D01*
Y3938D01*
X2143Y3938D01*
X2141Y3938D01*
X2139Y3938D01*
X2138Y3938D01*
X2137Y3937D01*
X2136Y3937D01*
X2135Y3936D01*
X2135Y3935D01*
X2134Y3934D01*
X2134Y3933D01*
Y3953D01*
X2134Y3952D01*
D02*
G37*
G36*
X2066Y3933D02*
X2065Y3934D01*
X2065Y3935D01*
X2065Y3936D01*
X2064Y3937D01*
X2063Y3937D01*
X2062Y3938D01*
X2061Y3938D01*
X2059Y3938D01*
X2057Y3938D01*
X2056Y3938D01*
Y3948D01*
X2057Y3948D01*
X2059Y3949D01*
X2061Y3949D01*
X2062Y3949D01*
X2063Y3950D01*
X2064Y3950D01*
X2065Y3951D01*
X2065Y3952D01*
X2065Y3952D01*
X2066Y3953D01*
Y3933D01*
D02*
G37*
G36*
X2235Y3940D02*
X2235Y3926D01*
X2235Y3926D01*
X2235Y3927D01*
X2234Y3928D01*
X2234Y3929D01*
X2233Y3929D01*
X2232Y3930D01*
X2230Y3930D01*
X2229Y3930D01*
X2227Y3930D01*
X2225Y3931D01*
Y3941D01*
X2235Y3940D01*
D02*
G37*
G36*
X2983Y3932D02*
X2983Y3931D01*
X2984Y3930D01*
X2984Y3930D01*
X2985Y3929D01*
X2986Y3929D01*
X2988Y3928D01*
X2989Y3928D01*
X2991Y3928D01*
X2993Y3928D01*
Y3918D01*
X2991Y3918D01*
X2989Y3918D01*
X2988Y3918D01*
X2986Y3917D01*
X2985Y3917D01*
X2984Y3916D01*
X2984Y3916D01*
X2983Y3915D01*
X2983Y3914D01*
X2983Y3913D01*
Y3933D01*
X2983Y3932D01*
D02*
G37*
G36*
X2235Y3856D02*
X2225Y3856D01*
Y3866D01*
X2227Y3866D01*
X2229Y3866D01*
X2230Y3866D01*
X2232Y3866D01*
X2233Y3867D01*
X2234Y3867D01*
X2234Y3868D01*
X2235Y3869D01*
X2235Y3870D01*
X2235Y3871D01*
X2235Y3856D01*
D02*
G37*
G36*
X2016Y3874D02*
X2016Y3874D01*
X2017Y3873D01*
X2017Y3872D01*
X2018Y3872D01*
X2019Y3871D01*
X2021Y3871D01*
X2022Y3871D01*
X2024Y3870D01*
X2026Y3870D01*
Y3860D01*
X2024Y3860D01*
X2022Y3860D01*
X2021Y3860D01*
X2019Y3860D01*
X2018Y3859D01*
X2017Y3859D01*
X2017Y3858D01*
X2016Y3857D01*
X2016Y3856D01*
X2016Y3855D01*
Y3875D01*
X2016Y3874D01*
D02*
G37*
G36*
X2009Y3851D02*
X2008Y3850D01*
X2007Y3850D01*
X2007Y3849D01*
X2006Y3848D01*
X2006Y3847D01*
X2005Y3846D01*
X2005Y3844D01*
X2005Y3842D01*
X2005Y3841D01*
X1995D01*
X1995Y3842D01*
X1995Y3844D01*
X1995Y3846D01*
X1994Y3847D01*
X1994Y3848D01*
X1993Y3849D01*
X1993Y3850D01*
X1992Y3850D01*
X1991Y3851D01*
X1990Y3851D01*
X2010D01*
X2009Y3851D01*
D02*
G37*
G36*
X2134Y3844D02*
X2135Y3843D01*
X2135Y3842D01*
X2136Y3842D01*
X2137Y3841D01*
X2138Y3841D01*
X2139Y3840D01*
X2141Y3840D01*
X2143Y3840D01*
X2144Y3840D01*
Y3830D01*
X2143Y3830D01*
X2141Y3830D01*
X2139Y3830D01*
X2138Y3829D01*
X2137Y3829D01*
X2136Y3828D01*
X2135Y3828D01*
X2135Y3827D01*
X2134Y3826D01*
X2134Y3825D01*
Y3845D01*
X2134Y3844D01*
D02*
G37*
G36*
X2983Y3820D02*
X2983Y3819D01*
X2984Y3818D01*
X2984Y3817D01*
X2985Y3817D01*
X2987Y3816D01*
X2988Y3816D01*
X2989Y3816D01*
X2991Y3816D01*
X2993Y3816D01*
Y3806D01*
X2983Y3806D01*
X2983Y3821D01*
X2983Y3820D01*
D02*
G37*
G36*
X3438Y3786D02*
X3438Y3787D01*
X3438Y3788D01*
X3437Y3789D01*
X3436Y3790D01*
X3435Y3790D01*
X3434Y3791D01*
X3433Y3791D01*
X3432Y3791D01*
X3430Y3791D01*
X3428Y3791D01*
Y3801D01*
X3430Y3801D01*
X3432Y3802D01*
X3433Y3802D01*
X3434Y3802D01*
X3435Y3803D01*
X3436Y3803D01*
X3437Y3804D01*
X3438Y3805D01*
X3438Y3805D01*
X3438Y3806D01*
Y3786D01*
D02*
G37*
G36*
X3479Y3769D02*
X3478Y3769D01*
X3477Y3768D01*
X3477Y3767D01*
X3476Y3767D01*
X3476Y3765D01*
X3475Y3764D01*
X3475Y3763D01*
X3475Y3761D01*
X3475Y3759D01*
X3465D01*
X3465Y3761D01*
X3465Y3763D01*
X3465Y3764D01*
X3464Y3765D01*
X3464Y3767D01*
X3463Y3767D01*
X3463Y3768D01*
X3462Y3769D01*
X3461Y3769D01*
X3460Y3769D01*
X3480D01*
X3479Y3769D01*
D02*
G37*
G36*
X2983Y3770D02*
X2983Y3769D01*
X2984Y3768D01*
X2984Y3767D01*
X2985Y3767D01*
X2987Y3766D01*
X2988Y3766D01*
X2989Y3766D01*
X2991Y3766D01*
X2993Y3766D01*
Y3756D01*
X2983Y3756D01*
X2983Y3771D01*
X2983Y3770D01*
D02*
G37*
G36*
X3475Y3729D02*
X3475Y3727D01*
X3475Y3726D01*
X3476Y3724D01*
X3476Y3723D01*
X3477Y3722D01*
X3477Y3722D01*
X3478Y3721D01*
X3479Y3721D01*
X3480Y3721D01*
X3460D01*
X3461Y3721D01*
X3462Y3721D01*
X3463Y3722D01*
X3463Y3722D01*
X3464Y3723D01*
X3464Y3724D01*
X3465Y3726D01*
X3465Y3727D01*
X3465Y3729D01*
X3465Y3731D01*
X3475D01*
X3475Y3729D01*
D02*
G37*
G36*
X2983Y3720D02*
X2983Y3719D01*
X2984Y3718D01*
X2984Y3717D01*
X2985Y3717D01*
X2987Y3716D01*
X2988Y3716D01*
X2989Y3716D01*
X2991Y3716D01*
X2993Y3716D01*
Y3706D01*
X2983Y3706D01*
X2983Y3721D01*
X2983Y3720D01*
D02*
G37*
G36*
X2235Y3640D02*
X2235Y3626D01*
X2235Y3626D01*
X2235Y3627D01*
X2234Y3628D01*
X2234Y3629D01*
X2233Y3629D01*
X2232Y3630D01*
X2230Y3630D01*
X2229Y3630D01*
X2227Y3630D01*
X2225Y3631D01*
Y3641D01*
X2235Y3640D01*
D02*
G37*
G36*
X3377Y3786D02*
X3382Y3782D01*
X3388Y3781D01*
X3428D01*
Y3759D01*
X3455D01*
Y3731D01*
X3445D01*
Y3679D01*
X3523D01*
X3569Y3633D01*
X3567Y3631D01*
X3563Y3625D01*
X3481D01*
X3425Y3681D01*
X3423Y3683D01*
Y3745D01*
X3347D01*
Y3666D01*
X3314D01*
Y3695D01*
X3239D01*
Y3666D01*
X3183D01*
X3095Y3754D01*
X3096Y3759D01*
X3172D01*
Y3834D01*
X3070D01*
Y3786D01*
X3065Y3784D01*
X3027Y3821D01*
X3022Y3825D01*
X3017Y3826D01*
X2993D01*
Y3846D01*
Y3908D01*
X3057D01*
X3062Y3909D01*
X3067Y3912D01*
X3091Y3936D01*
X3172D01*
Y3984D01*
X3177Y3986D01*
X3377Y3786D01*
D02*
G37*
G36*
X2983Y3620D02*
X2983Y3619D01*
X2984Y3618D01*
X2984Y3617D01*
X2985Y3617D01*
X2987Y3616D01*
X2988Y3616D01*
X2989Y3616D01*
X2991Y3616D01*
X2993Y3616D01*
Y3606D01*
X2983Y3606D01*
X2983Y3621D01*
X2983Y3620D01*
D02*
G37*
G36*
X2235Y3575D02*
X2235Y3576D01*
X2235Y3577D01*
X2234Y3578D01*
X2234Y3578D01*
X2233Y3579D01*
X2232Y3579D01*
X2230Y3580D01*
X2229Y3580D01*
X2227Y3580D01*
X2225Y3580D01*
Y3590D01*
X2235Y3590D01*
X2235Y3575D01*
D02*
G37*
G36*
X2983Y3569D02*
X2983Y3569D01*
X2984Y3568D01*
X2984Y3567D01*
X2985Y3567D01*
X2986Y3566D01*
X2988Y3566D01*
X2989Y3566D01*
X2991Y3566D01*
X2993Y3566D01*
Y3556D01*
X2983Y3556D01*
X2983Y3570D01*
X2983Y3569D01*
D02*
G37*
G36*
X1476Y3538D02*
X1474Y3537D01*
X1471Y3533D01*
X1470Y3532D01*
X1469Y3531D01*
X1469Y3529D01*
X1469Y3528D01*
X1469Y3527D01*
X1469Y3527D01*
X1470Y3526D01*
X1456Y3540D01*
X1457Y3539D01*
X1457Y3539D01*
X1458Y3539D01*
X1459Y3539D01*
X1461Y3539D01*
X1462Y3540D01*
X1463Y3541D01*
X1465Y3542D01*
X1467Y3544D01*
X1468Y3546D01*
X1476Y3538D01*
D02*
G37*
G36*
X2235Y3510D02*
X2235Y3511D01*
X2235Y3512D01*
X2234Y3513D01*
X2234Y3513D01*
X2233Y3514D01*
X2232Y3514D01*
X2230Y3515D01*
X2229Y3515D01*
X2227Y3515D01*
X2225Y3515D01*
Y3525D01*
X2227Y3525D01*
X2229Y3525D01*
X2230Y3525D01*
X2232Y3526D01*
X2233Y3526D01*
X2234Y3527D01*
X2234Y3527D01*
X2235Y3528D01*
X2235Y3529D01*
X2235Y3530D01*
Y3510D01*
D02*
G37*
G36*
X2170Y3535D02*
X2175Y3531D01*
X2177Y3530D01*
X2179Y3528D01*
X2182Y3527D01*
X2184Y3526D01*
X2186Y3526D01*
X2188Y3525D01*
X2189Y3525D01*
Y3515D01*
X2188Y3515D01*
X2186Y3514D01*
X2184Y3514D01*
X2182Y3513D01*
X2179Y3512D01*
X2177Y3510D01*
X2175Y3509D01*
X2173Y3507D01*
X2168Y3503D01*
Y3537D01*
X2170Y3535D01*
D02*
G37*
G36*
X3529Y3506D02*
X3528Y3501D01*
X3478D01*
X3349Y3630D01*
X3351Y3635D01*
X3400D01*
X3529Y3506D01*
D02*
G37*
G36*
X1424Y3480D02*
X1423Y3481D01*
X1423Y3481D01*
X1422Y3481D01*
X1421Y3481D01*
X1419Y3481D01*
X1418Y3480D01*
X1417Y3479D01*
X1415Y3478D01*
X1413Y3476D01*
X1412Y3474D01*
X1404Y3482D01*
X1406Y3483D01*
X1409Y3487D01*
X1410Y3488D01*
X1411Y3489D01*
X1411Y3491D01*
X1411Y3492D01*
X1411Y3493D01*
X1411Y3493D01*
X1410Y3494D01*
X1424Y3480D01*
D02*
G37*
G36*
X2235Y3456D02*
X2225Y3456D01*
Y3466D01*
X2227Y3466D01*
X2229Y3466D01*
X2230Y3466D01*
X2232Y3466D01*
X2233Y3467D01*
X2234Y3467D01*
X2234Y3468D01*
X2235Y3469D01*
X2235Y3470D01*
X2235Y3471D01*
X2235Y3456D01*
D02*
G37*
G36*
X3515Y3445D02*
X3515Y3446D01*
X3515Y3447D01*
X3514Y3448D01*
X3513Y3448D01*
X3512Y3449D01*
X3511Y3449D01*
X3510Y3450D01*
X3508Y3450D01*
X3507Y3450D01*
X3505Y3450D01*
Y3460D01*
X3507Y3460D01*
X3508Y3460D01*
X3510Y3460D01*
X3511Y3461D01*
X3512Y3461D01*
X3513Y3462D01*
X3514Y3462D01*
X3515Y3463D01*
X3515Y3464D01*
X3515Y3465D01*
Y3445D01*
D02*
G37*
G36*
X3449Y3464D02*
X3449Y3463D01*
X3450Y3462D01*
X3450Y3462D01*
X3451Y3461D01*
X3452Y3461D01*
X3454Y3460D01*
X3455Y3460D01*
X3457Y3460D01*
X3459Y3460D01*
Y3450D01*
X3457Y3450D01*
X3455Y3450D01*
X3454Y3450D01*
X3452Y3449D01*
X3451Y3449D01*
X3450Y3448D01*
X3450Y3448D01*
X3449Y3447D01*
X3449Y3446D01*
X3449Y3445D01*
Y3465D01*
X3449Y3464D01*
D02*
G37*
G36*
X3294Y3445D02*
X3293Y3446D01*
X3293Y3447D01*
X3293Y3448D01*
X3292Y3448D01*
X3291Y3449D01*
X3290Y3449D01*
X3289Y3450D01*
X3287Y3450D01*
X3285Y3450D01*
X3283Y3450D01*
Y3460D01*
X3285Y3460D01*
X3287Y3460D01*
X3289Y3460D01*
X3290Y3461D01*
X3291Y3461D01*
X3292Y3462D01*
X3293Y3462D01*
X3293Y3463D01*
X3293Y3464D01*
X3294Y3465D01*
Y3445D01*
D02*
G37*
G36*
X2170Y3470D02*
X2175Y3466D01*
X2177Y3464D01*
X2179Y3463D01*
X2182Y3462D01*
X2184Y3461D01*
X2186Y3461D01*
X2188Y3460D01*
X2189Y3460D01*
Y3450D01*
X2188Y3450D01*
X2186Y3450D01*
X2184Y3449D01*
X2182Y3448D01*
X2179Y3447D01*
X2177Y3445D01*
X2175Y3444D01*
X2173Y3442D01*
X2168Y3438D01*
Y3473D01*
X2170Y3470D01*
D02*
G37*
G36*
X2235Y3406D02*
X2225Y3406D01*
Y3416D01*
X2227Y3416D01*
X2229Y3416D01*
X2230Y3416D01*
X2232Y3416D01*
X2233Y3417D01*
X2234Y3417D01*
X2234Y3418D01*
X2235Y3419D01*
X2235Y3420D01*
X2235Y3421D01*
X2235Y3406D01*
D02*
G37*
G36*
X2983Y3370D02*
X2983Y3369D01*
X2984Y3368D01*
X2984Y3367D01*
X2985Y3367D01*
X2987Y3366D01*
X2988Y3366D01*
X2989Y3366D01*
X2991Y3366D01*
X2993Y3366D01*
Y3356D01*
X2983Y3356D01*
X2983Y3371D01*
X2983Y3370D01*
D02*
G37*
G36*
X3294Y3355D02*
X3293Y3356D01*
X3293Y3357D01*
X3293Y3358D01*
X3292Y3358D01*
X3291Y3359D01*
X3290Y3359D01*
X3289Y3360D01*
X3287Y3360D01*
X3285Y3360D01*
X3283Y3360D01*
Y3370D01*
X3285Y3370D01*
X3287Y3370D01*
X3289Y3370D01*
X3290Y3371D01*
X3291Y3371D01*
X3292Y3372D01*
X3293Y3372D01*
X3293Y3373D01*
X3293Y3374D01*
X3294Y3375D01*
Y3355D01*
D02*
G37*
G36*
X2969Y3306D02*
X2968Y3305D01*
X2967Y3305D01*
X2967Y3304D01*
X2966Y3303D01*
X2966Y3302D01*
X2965Y3301D01*
X2965Y3299D01*
X2965Y3298D01*
X2965Y3296D01*
X2955D01*
X2955Y3298D01*
X2955Y3299D01*
X2955Y3301D01*
X2954Y3302D01*
X2954Y3303D01*
X2953Y3304D01*
X2953Y3305D01*
X2952Y3305D01*
X2951Y3306D01*
X2950Y3306D01*
X2970D01*
X2969Y3306D01*
D02*
G37*
G36*
X2274Y3306D02*
X2273Y3305D01*
X2272Y3305D01*
X2271Y3304D01*
X2271Y3303D01*
X2270Y3302D01*
X2270Y3301D01*
X2270Y3299D01*
X2270Y3298D01*
X2270Y3296D01*
X2260D01*
X2260Y3298D01*
X2259Y3299D01*
X2259Y3301D01*
X2259Y3302D01*
X2258Y3303D01*
X2258Y3304D01*
X2257Y3305D01*
X2256Y3305D01*
X2256Y3306D01*
X2255Y3306D01*
X2275D01*
X2274Y3306D01*
D02*
G37*
G36*
X3294Y3265D02*
X3293Y3266D01*
X3293Y3267D01*
X3293Y3268D01*
X3292Y3268D01*
X3291Y3269D01*
X3290Y3269D01*
X3289Y3270D01*
X3287Y3270D01*
X3285Y3270D01*
X3283Y3270D01*
Y3280D01*
X3285Y3280D01*
X3287Y3280D01*
X3289Y3280D01*
X3290Y3281D01*
X3291Y3281D01*
X3292Y3282D01*
X3293Y3282D01*
X3293Y3283D01*
X3293Y3284D01*
X3294Y3285D01*
Y3265D01*
D02*
G37*
G36*
X1594Y3220D02*
X1594Y3221D01*
X1594Y3222D01*
X1593Y3223D01*
X1593Y3223D01*
X1592Y3224D01*
X1590Y3224D01*
X1589Y3225D01*
X1587Y3225D01*
X1586Y3225D01*
X1584Y3225D01*
Y3235D01*
X1586Y3235D01*
X1587Y3235D01*
X1589Y3235D01*
X1590Y3236D01*
X1592Y3236D01*
X1593Y3237D01*
X1593Y3237D01*
X1594Y3238D01*
X1594Y3239D01*
X1594Y3240D01*
Y3220D01*
D02*
G37*
G36*
X1535Y3239D02*
X1535Y3238D01*
X1536Y3237D01*
X1537Y3237D01*
X1537Y3236D01*
X1539Y3236D01*
X1540Y3235D01*
X1541Y3235D01*
X1543Y3235D01*
X1545Y3235D01*
Y3225D01*
X1543Y3225D01*
X1541Y3225D01*
X1540Y3225D01*
X1539Y3224D01*
X1537Y3224D01*
X1537Y3223D01*
X1536Y3223D01*
X1535Y3222D01*
X1535Y3221D01*
X1535Y3220D01*
Y3240D01*
X1535Y3239D01*
D02*
G37*
G36*
X1475Y3220D02*
X1475Y3221D01*
X1475Y3222D01*
X1474Y3223D01*
X1473Y3223D01*
X1473Y3224D01*
X1471Y3224D01*
X1470Y3225D01*
X1469Y3225D01*
X1467Y3225D01*
X1465Y3225D01*
Y3235D01*
X1467Y3235D01*
X1469Y3235D01*
X1470Y3235D01*
X1471Y3236D01*
X1473Y3236D01*
X1473Y3237D01*
X1474Y3237D01*
X1475Y3238D01*
X1475Y3239D01*
X1475Y3240D01*
Y3220D01*
D02*
G37*
G36*
X1285Y3193D02*
X1285Y3191D01*
X1286Y3190D01*
X1286Y3188D01*
X1286Y3187D01*
X1287Y3186D01*
X1288Y3186D01*
X1288Y3185D01*
X1289Y3185D01*
X1290Y3185D01*
X1275Y3185D01*
X1275Y3195D01*
X1285D01*
X1285Y3193D01*
D02*
G37*
G36*
X2965Y3180D02*
X2965Y3178D01*
X2965Y3176D01*
X2966Y3175D01*
X2966Y3174D01*
X2967Y3173D01*
X2967Y3172D01*
X2968Y3172D01*
X2969Y3171D01*
X2970Y3171D01*
X2950D01*
X2951Y3171D01*
X2952Y3172D01*
X2953Y3172D01*
X2953Y3173D01*
X2954Y3174D01*
X2954Y3175D01*
X2955Y3176D01*
X2955Y3178D01*
X2955Y3180D01*
X2955Y3182D01*
X2965D01*
X2965Y3180D01*
D02*
G37*
G36*
X1725Y3116D02*
Y3105D01*
X1708D01*
Y3098D01*
X1651D01*
Y3120D01*
X1599D01*
Y3105D01*
X1570D01*
Y3106D01*
X1561D01*
X1560Y3106D01*
X1560Y3106D01*
X1560D01*
X1559Y3106D01*
X1559Y3106D01*
X1557D01*
X1555Y3111D01*
X1603Y3159D01*
X1612D01*
X1613Y3159D01*
X1641D01*
X1646Y3160D01*
X1650Y3163D01*
X1652Y3166D01*
X1653Y3171D01*
Y3181D01*
X1658Y3183D01*
X1725Y3116D01*
D02*
G37*
G36*
X1745Y3103D02*
X1745Y3101D01*
X1745Y3100D01*
X1746Y3099D01*
X1746Y3097D01*
X1747Y3097D01*
X1747Y3096D01*
X1748Y3095D01*
X1749Y3095D01*
X1750Y3095D01*
X1730D01*
X1731Y3095D01*
X1732Y3095D01*
X1733Y3096D01*
X1733Y3097D01*
X1734Y3097D01*
X1734Y3099D01*
X1735Y3100D01*
X1735Y3101D01*
X1735Y3103D01*
X1735Y3105D01*
X1745D01*
X1745Y3103D01*
D02*
G37*
G36*
X1609Y3080D02*
X1609Y3081D01*
X1609Y3082D01*
X1608Y3082D01*
X1608Y3083D01*
X1607Y3084D01*
X1606Y3084D01*
X1604Y3084D01*
X1603Y3085D01*
X1601Y3085D01*
X1599Y3085D01*
Y3095D01*
X1601Y3095D01*
X1603Y3095D01*
X1604Y3095D01*
X1606Y3096D01*
X1607Y3096D01*
X1608Y3097D01*
X1608Y3097D01*
X1609Y3098D01*
X1609Y3099D01*
X1609Y3100D01*
Y3080D01*
D02*
G37*
G36*
X1560Y3096D02*
X1561Y3095D01*
X1561Y3095D01*
X1562Y3095D01*
X1563Y3095D01*
X1565Y3095D01*
X1570Y3095D01*
Y3085D01*
X1568Y3085D01*
X1566Y3085D01*
X1565Y3084D01*
X1564Y3084D01*
X1563Y3084D01*
X1562Y3083D01*
X1561Y3082D01*
X1560Y3082D01*
X1560Y3081D01*
X1560Y3080D01*
X1560Y3096D01*
X1560Y3096D01*
D02*
G37*
G36*
X1641Y3091D02*
X1641Y3091D01*
X1642Y3090D01*
X1642Y3089D01*
X1643Y3089D01*
X1644Y3088D01*
X1646Y3088D01*
X1647Y3088D01*
X1649Y3087D01*
X1651Y3087D01*
Y3077D01*
X1641Y3080D01*
X1641Y3092D01*
X1641Y3091D01*
D02*
G37*
G36*
X1719Y3072D02*
X1718Y3073D01*
X1718Y3074D01*
X1718Y3075D01*
X1717Y3076D01*
X1716Y3076D01*
X1715Y3077D01*
X1714Y3077D01*
X1712Y3077D01*
X1710Y3077D01*
X1708Y3077D01*
Y3087D01*
X1710Y3087D01*
X1712Y3088D01*
X1714Y3088D01*
X1715Y3088D01*
X1716Y3089D01*
X1717Y3089D01*
X1718Y3090D01*
X1718Y3091D01*
X1718Y3091D01*
X1719Y3092D01*
Y3072D01*
D02*
G37*
G36*
Y2998D02*
X1718Y2999D01*
X1718Y2999D01*
X1718Y3000D01*
X1717Y3001D01*
X1716Y3001D01*
X1715Y3002D01*
X1714Y3002D01*
X1712Y3002D01*
X1710Y3003D01*
X1708Y3003D01*
Y3013D01*
X1710Y3013D01*
X1712Y3013D01*
X1714Y3013D01*
X1715Y3013D01*
X1716Y3014D01*
X1717Y3014D01*
X1718Y3015D01*
X1718Y3016D01*
X1718Y3017D01*
X1719Y3018D01*
Y2998D01*
D02*
G37*
G36*
X2249Y1716D02*
X2245Y1714D01*
X2235Y1723D01*
Y3296D01*
X2249D01*
Y1716D01*
D02*
G37*
G36*
X2567Y1325D02*
X2567Y1323D01*
X2567Y1321D01*
X2568Y1320D01*
X2568Y1319D01*
X2569Y1318D01*
X2569Y1317D01*
X2570Y1317D01*
X2571Y1316D01*
X2572Y1316D01*
X2552D01*
X2553Y1316D01*
X2554Y1317D01*
X2554Y1317D01*
X2555Y1318D01*
X2556Y1319D01*
X2556Y1320D01*
X2556Y1321D01*
X2557Y1323D01*
X2557Y1325D01*
X2557Y1326D01*
X2567D01*
X2567Y1325D01*
D02*
G37*
%LPC*%
G36*
X3233Y3814D02*
Y3785D01*
X3263D01*
X3261Y3793D01*
X3256Y3801D01*
X3250Y3808D01*
X3242Y3812D01*
X3233Y3814D01*
D02*
G37*
G36*
X3223D02*
X3215Y3812D01*
X3207Y3808D01*
X3200Y3801D01*
X3196Y3793D01*
X3193Y3785D01*
X3223D01*
Y3814D01*
D02*
G37*
G36*
Y3775D02*
X3193D01*
X3196Y3766D01*
X3200Y3758D01*
X3207Y3752D01*
X3215Y3747D01*
X3223Y3745D01*
Y3775D01*
D02*
G37*
G36*
X3314Y3745D02*
X3282D01*
Y3705D01*
X3314D01*
Y3745D01*
D02*
G37*
G36*
X3263Y3775D02*
X3233D01*
Y3745D01*
X3234Y3745D01*
X3239Y3741D01*
Y3705D01*
X3272D01*
Y3745D01*
X3248D01*
X3247Y3750D01*
X3250Y3752D01*
X3256Y3758D01*
X3261Y3766D01*
X3263Y3775D01*
D02*
G37*
%LPD*%
G36*
X2559Y3728D02*
X2558Y3727D01*
X2557Y3727D01*
X2557Y3726D01*
X2556Y3725D01*
X2556Y3724D01*
X2555Y3723D01*
X2555Y3721D01*
X2555Y3720D01*
X2555Y3718D01*
X2545D01*
X2545Y3720D01*
X2545Y3721D01*
X2544Y3723D01*
X2544Y3724D01*
X2544Y3725D01*
X2543Y3726D01*
X2542Y3727D01*
X2542Y3727D01*
X2541Y3728D01*
X2540Y3728D01*
X2560D01*
X2559Y3728D01*
D02*
G37*
G36*
X2555Y3716D02*
X2555Y3714D01*
X2555Y3712D01*
X2556Y3711D01*
X2556Y3710D01*
X2557Y3709D01*
X2557Y3708D01*
X2558Y3708D01*
X2559Y3707D01*
X2560Y3707D01*
X2540D01*
X2541Y3707D01*
X2542Y3708D01*
X2542Y3708D01*
X2543Y3709D01*
X2544Y3710D01*
X2544Y3711D01*
X2544Y3712D01*
X2545Y3714D01*
X2545Y3716D01*
X2545Y3717D01*
X2555D01*
X2555Y3716D01*
D02*
G37*
G36*
X2588Y3680D02*
X2588Y3681D01*
X2587Y3682D01*
X2587Y3683D01*
X2586Y3683D01*
X2585Y3684D01*
X2584Y3684D01*
X2583Y3685D01*
X2581Y3685D01*
X2580Y3685D01*
X2578Y3685D01*
Y3695D01*
X2580Y3695D01*
X2581Y3695D01*
X2583Y3696D01*
X2584Y3696D01*
X2585Y3696D01*
X2586Y3697D01*
X2587Y3698D01*
X2587Y3698D01*
X2588Y3699D01*
X2588Y3700D01*
Y3680D01*
D02*
G37*
G36*
X2567Y3699D02*
X2568Y3698D01*
X2568Y3698D01*
X2569Y3697D01*
X2570Y3696D01*
X2571Y3696D01*
X2572Y3696D01*
X2574Y3695D01*
X2575Y3695D01*
X2577Y3695D01*
Y3685D01*
X2575Y3685D01*
X2574Y3685D01*
X2572Y3685D01*
X2571Y3684D01*
X2570Y3684D01*
X2569Y3683D01*
X2568Y3683D01*
X2568Y3682D01*
X2567Y3681D01*
X2567Y3680D01*
Y3700D01*
X2567Y3699D01*
D02*
G37*
G36*
X2533Y3680D02*
X2533Y3681D01*
X2532Y3682D01*
X2532Y3683D01*
X2531Y3683D01*
X2530Y3684D01*
X2529Y3684D01*
X2528Y3685D01*
X2526Y3685D01*
X2524Y3685D01*
X2523Y3685D01*
Y3695D01*
X2524Y3695D01*
X2526Y3695D01*
X2528Y3696D01*
X2529Y3696D01*
X2530Y3696D01*
X2531Y3697D01*
X2532Y3698D01*
X2532Y3698D01*
X2533Y3699D01*
X2533Y3700D01*
Y3680D01*
D02*
G37*
G36*
X2512Y3699D02*
X2512Y3698D01*
X2513Y3698D01*
X2514Y3697D01*
X2515Y3696D01*
X2516Y3696D01*
X2517Y3696D01*
X2519Y3695D01*
X2520Y3695D01*
X2522Y3695D01*
Y3685D01*
X2520Y3685D01*
X2519Y3685D01*
X2517Y3685D01*
X2516Y3684D01*
X2515Y3684D01*
X2514Y3683D01*
X2513Y3683D01*
X2512Y3682D01*
X2512Y3681D01*
X2512Y3680D01*
Y3700D01*
X2512Y3699D01*
D02*
G37*
G36*
X2559Y3673D02*
X2558Y3672D01*
X2557Y3672D01*
X2557Y3671D01*
X2556Y3670D01*
X2556Y3669D01*
X2555Y3668D01*
X2555Y3666D01*
X2555Y3665D01*
X2555Y3663D01*
X2545D01*
X2545Y3665D01*
X2545Y3666D01*
X2544Y3668D01*
X2544Y3669D01*
X2544Y3670D01*
X2543Y3671D01*
X2542Y3672D01*
X2542Y3672D01*
X2541Y3673D01*
X2540Y3673D01*
X2560D01*
X2559Y3673D01*
D02*
G37*
G36*
X2555Y3660D02*
X2555Y3659D01*
X2555Y3657D01*
X2556Y3656D01*
X2556Y3655D01*
X2557Y3654D01*
X2557Y3653D01*
X2558Y3653D01*
X2559Y3652D01*
X2560Y3652D01*
X2540D01*
X2541Y3652D01*
X2542Y3653D01*
X2542Y3653D01*
X2543Y3654D01*
X2544Y3655D01*
X2544Y3656D01*
X2544Y3657D01*
X2545Y3659D01*
X2545Y3660D01*
X2545Y3662D01*
X2555D01*
X2555Y3660D01*
D02*
G37*
G36*
X2024Y3415D02*
X2023Y3414D01*
X2022Y3414D01*
X2022Y3413D01*
X2021Y3412D01*
X2021Y3411D01*
X2020Y3410D01*
X2020Y3408D01*
X2020Y3407D01*
X2020Y3405D01*
X2010D01*
X2010Y3407D01*
X2010Y3408D01*
X2010Y3410D01*
X2009Y3411D01*
X2009Y3412D01*
X2008Y3413D01*
X2008Y3414D01*
X2007Y3414D01*
X2006Y3415D01*
X2005Y3415D01*
X2025D01*
X2024Y3415D01*
D02*
G37*
G36*
X2020Y3386D02*
X2020Y3384D01*
X2020Y3383D01*
X2021Y3381D01*
X2021Y3380D01*
X2022Y3379D01*
X2022Y3379D01*
X2023Y3378D01*
X2024Y3378D01*
X2025Y3378D01*
X2005D01*
X2006Y3378D01*
X2007Y3378D01*
X2008Y3379D01*
X2008Y3379D01*
X2009Y3380D01*
X2009Y3381D01*
X2010Y3383D01*
X2010Y3384D01*
X2010Y3386D01*
X2010Y3388D01*
X2020D01*
X2020Y3386D01*
D02*
G37*
G36*
X1849Y3339D02*
X1849Y3338D01*
X1850Y3337D01*
X1851Y3337D01*
X1852Y3336D01*
X1853Y3336D01*
X1854Y3335D01*
X1856Y3335D01*
X1858Y3335D01*
X1860Y3335D01*
Y3325D01*
X1858Y3325D01*
X1856Y3325D01*
X1854Y3325D01*
X1853Y3324D01*
X1852Y3324D01*
X1851Y3323D01*
X1850Y3323D01*
X1849Y3322D01*
X1849Y3321D01*
X1849Y3320D01*
Y3340D01*
X1849Y3339D01*
D02*
G37*
G36*
X3515Y3355D02*
X3515Y3356D01*
X3515Y3357D01*
X3514Y3358D01*
X3513Y3358D01*
X3512Y3359D01*
X3511Y3359D01*
X3510Y3360D01*
X3508Y3360D01*
X3507Y3360D01*
X3505Y3360D01*
Y3370D01*
X3507Y3370D01*
X3508Y3370D01*
X3510Y3370D01*
X3511Y3371D01*
X3512Y3371D01*
X3513Y3372D01*
X3514Y3372D01*
X3515Y3373D01*
X3515Y3374D01*
X3515Y3375D01*
Y3355D01*
D02*
G37*
G36*
X3449Y3374D02*
X3449Y3373D01*
X3450Y3372D01*
X3450Y3372D01*
X3451Y3371D01*
X3452Y3371D01*
X3454Y3370D01*
X3455Y3370D01*
X3457Y3370D01*
X3459Y3370D01*
Y3360D01*
X3457Y3360D01*
X3455Y3360D01*
X3454Y3360D01*
X3452Y3359D01*
X3451Y3359D01*
X3450Y3358D01*
X3450Y3358D01*
X3449Y3357D01*
X3449Y3356D01*
X3449Y3355D01*
Y3375D01*
X3449Y3374D01*
D02*
G37*
G36*
X1664Y3405D02*
X1663Y3404D01*
X1662Y3404D01*
X1662Y3403D01*
X1661Y3402D01*
X1661Y3401D01*
X1660Y3400D01*
X1660Y3398D01*
X1660Y3397D01*
X1660Y3395D01*
X1650D01*
X1650Y3397D01*
X1650Y3398D01*
X1650Y3400D01*
X1649Y3401D01*
X1649Y3402D01*
X1648Y3403D01*
X1648Y3404D01*
X1647Y3404D01*
X1646Y3405D01*
X1645Y3405D01*
X1665D01*
X1664Y3405D01*
D02*
G37*
G36*
X2024Y3224D02*
X2023Y3224D01*
X2022Y3224D01*
X2022Y3223D01*
X2021Y3222D01*
X2021Y3221D01*
X2020Y3220D01*
X2020Y3218D01*
X2020Y3216D01*
X2020Y3214D01*
X2010D01*
X2010Y3216D01*
X2010Y3218D01*
X2010Y3220D01*
X2009Y3221D01*
X2009Y3222D01*
X2008Y3223D01*
X2008Y3224D01*
X2007Y3224D01*
X2006Y3224D01*
X2005Y3224D01*
X2025D01*
X2024Y3224D01*
D02*
G37*
G36*
X2020Y3204D02*
X2020Y3202D01*
X2020Y3200D01*
X2021Y3199D01*
X2021Y3198D01*
X2022Y3197D01*
X2022Y3196D01*
X2023Y3196D01*
X2024Y3196D01*
X2025Y3196D01*
X2005D01*
X2006Y3196D01*
X2007Y3196D01*
X2008Y3196D01*
X2008Y3197D01*
X2009Y3198D01*
X2009Y3199D01*
X2010Y3200D01*
X2010Y3202D01*
X2010Y3204D01*
X2010Y3206D01*
X2020D01*
X2020Y3204D01*
D02*
G37*
G36*
X2024Y3154D02*
X2023Y3154D01*
X2022Y3154D01*
X2022Y3153D01*
X2021Y3152D01*
X2021Y3151D01*
X2020Y3150D01*
X2020Y3148D01*
X2020Y3146D01*
X2020Y3144D01*
X2010D01*
X2010Y3146D01*
X2010Y3148D01*
X2010Y3150D01*
X2009Y3151D01*
X2009Y3152D01*
X2008Y3153D01*
X2008Y3154D01*
X2007Y3154D01*
X2006Y3154D01*
X2005Y3155D01*
X2025D01*
X2024Y3154D01*
D02*
G37*
G36*
X1992Y3091D02*
X1992Y3090D01*
X1992Y3088D01*
X1992Y3087D01*
X1993Y3086D01*
X1993Y3085D01*
X1994Y3084D01*
X1995Y3084D01*
X1996Y3083D01*
X1997Y3083D01*
X1982D01*
X1982Y3083D01*
X1982Y3084D01*
X1982Y3088D01*
X1982Y3093D01*
X1992D01*
X1992Y3091D01*
D02*
G37*
G36*
X1856Y3091D02*
X1856Y3091D01*
X1857Y3090D01*
X1858Y3089D01*
X1859Y3089D01*
X1860Y3088D01*
X1861Y3088D01*
X1862Y3088D01*
X1864Y3087D01*
X1866Y3087D01*
Y3077D01*
X1864Y3077D01*
X1862Y3077D01*
X1861Y3077D01*
X1860Y3077D01*
X1859Y3076D01*
X1858Y3076D01*
X1857Y3075D01*
X1856Y3074D01*
X1856Y3073D01*
X1856Y3072D01*
Y3092D01*
X1856Y3091D01*
D02*
G37*
G36*
Y3054D02*
X1856Y3053D01*
X1857Y3052D01*
X1858Y3052D01*
X1859Y3051D01*
X1860Y3051D01*
X1861Y3050D01*
X1862Y3050D01*
X1864Y3050D01*
X1866Y3050D01*
Y3040D01*
X1864Y3040D01*
X1862Y3040D01*
X1861Y3040D01*
X1860Y3039D01*
X1859Y3039D01*
X1858Y3038D01*
X1857Y3038D01*
X1856Y3037D01*
X1856Y3036D01*
X1856Y3035D01*
Y3055D01*
X1856Y3054D01*
D02*
G37*
G36*
X2024Y3042D02*
X2023Y3042D01*
X2022Y3041D01*
X2022Y3041D01*
X2021Y3040D01*
X2021Y3039D01*
X2020Y3037D01*
X2020Y3036D01*
X2020Y3034D01*
X2020Y3032D01*
X2010D01*
X2010Y3034D01*
X2010Y3036D01*
X2010Y3037D01*
X2009Y3039D01*
X2009Y3040D01*
X2008Y3041D01*
X2008Y3041D01*
X2007Y3042D01*
X2006Y3042D01*
X2005Y3042D01*
X2025D01*
X2024Y3042D01*
D02*
G37*
G36*
X1897Y3027D02*
X1895Y3030D01*
X1890Y3034D01*
X1888Y3036D01*
X1886Y3037D01*
X1883Y3038D01*
X1881Y3039D01*
X1879Y3039D01*
X1877Y3040D01*
X1876Y3040D01*
Y3050D01*
X1877Y3050D01*
X1879Y3050D01*
X1881Y3051D01*
X1883Y3052D01*
X1886Y3053D01*
X1888Y3055D01*
X1890Y3056D01*
X1892Y3058D01*
X1897Y3062D01*
Y3027D01*
D02*
G37*
G36*
X1856Y3017D02*
X1856Y3016D01*
X1857Y3015D01*
X1858Y3014D01*
X1859Y3014D01*
X1860Y3013D01*
X1861Y3013D01*
X1862Y3013D01*
X1864Y3013D01*
X1866Y3013D01*
Y3003D01*
X1864Y3003D01*
X1862Y3002D01*
X1861Y3002D01*
X1860Y3002D01*
X1859Y3001D01*
X1858Y3001D01*
X1857Y3000D01*
X1856Y2999D01*
X1856Y2999D01*
X1856Y2998D01*
Y3018D01*
X1856Y3017D01*
D02*
G37*
G36*
X1933Y2648D02*
X1918Y2648D01*
X1919Y2648D01*
X1920Y2649D01*
X1921Y2649D01*
X1922Y2650D01*
X1922Y2651D01*
X1923Y2652D01*
X1923Y2653D01*
X1923Y2655D01*
X1923Y2656D01*
X1923Y2658D01*
X1933D01*
X1933Y2648D01*
D02*
G37*
G36*
X1552Y1984D02*
X1552Y1983D01*
X1553Y1982D01*
X1553Y1982D01*
X1554Y1981D01*
X1555Y1981D01*
X1557Y1980D01*
X1558Y1980D01*
X1560Y1980D01*
X1562Y1980D01*
Y1970D01*
X1560Y1970D01*
X1558Y1970D01*
X1557Y1970D01*
X1555Y1969D01*
X1554Y1969D01*
X1553Y1968D01*
X1553Y1968D01*
X1552Y1967D01*
X1552Y1966D01*
X1552Y1965D01*
Y1985D01*
X1552Y1984D01*
D02*
G37*
G36*
X1492Y1965D02*
X1492Y1966D01*
X1492Y1967D01*
X1491Y1968D01*
X1490Y1968D01*
X1490Y1969D01*
X1488Y1969D01*
X1487Y1970D01*
X1486Y1970D01*
X1484Y1970D01*
X1482Y1970D01*
Y1980D01*
X1484Y1980D01*
X1486Y1980D01*
X1487Y1980D01*
X1488Y1981D01*
X1490Y1981D01*
X1490Y1982D01*
X1491Y1982D01*
X1492Y1983D01*
X1492Y1984D01*
X1492Y1985D01*
Y1965D01*
D02*
G37*
G36*
X1325Y1984D02*
X1325Y1983D01*
X1326Y1982D01*
X1326Y1982D01*
X1327Y1981D01*
X1328Y1981D01*
X1330Y1980D01*
X1331Y1980D01*
X1333Y1980D01*
X1335Y1980D01*
Y1970D01*
X1333Y1970D01*
X1331Y1970D01*
X1330Y1970D01*
X1328Y1969D01*
X1327Y1969D01*
X1326Y1968D01*
X1326Y1968D01*
X1325Y1967D01*
X1325Y1966D01*
X1325Y1965D01*
Y1985D01*
X1325Y1984D01*
D02*
G37*
G36*
X3515Y3265D02*
X3515Y3266D01*
X3515Y3267D01*
X3515Y3268D01*
X3514Y3268D01*
X3513Y3269D01*
X3512Y3269D01*
X3510Y3270D01*
X3509Y3270D01*
X3507Y3270D01*
X3505Y3270D01*
Y3280D01*
X3507Y3280D01*
X3509Y3280D01*
X3510Y3280D01*
X3512Y3281D01*
X3513Y3281D01*
X3514Y3282D01*
X3515Y3282D01*
X3515Y3283D01*
X3515Y3284D01*
X3515Y3285D01*
Y3265D01*
D02*
G37*
G36*
X3449Y3284D02*
X3449Y3283D01*
X3450Y3282D01*
X3450Y3282D01*
X3451Y3281D01*
X3452Y3281D01*
X3454Y3280D01*
X3455Y3280D01*
X3457Y3280D01*
X3459Y3280D01*
Y3270D01*
X3457Y3270D01*
X3455Y3270D01*
X3454Y3270D01*
X3452Y3269D01*
X3451Y3269D01*
X3450Y3268D01*
X3450Y3268D01*
X3449Y3267D01*
X3449Y3266D01*
X3449Y3265D01*
Y3285D01*
X3449Y3284D01*
D02*
G37*
G36*
X2801Y3251D02*
X2802Y3241D01*
X2792D01*
X2792Y3242D01*
X2791Y3244D01*
X2791Y3246D01*
X2791Y3247D01*
X2790Y3248D01*
X2790Y3249D01*
X2789Y3250D01*
X2788Y3250D01*
X2788Y3251D01*
X2787Y3251D01*
X2801Y3251D01*
D02*
G37*
G36*
X2443Y3251D02*
X2442Y3250D01*
X2442Y3250D01*
X2441Y3249D01*
X2440Y3248D01*
X2440Y3247D01*
X2440Y3246D01*
X2439Y3244D01*
X2439Y3242D01*
X2439Y3241D01*
X2429D01*
X2429Y3242D01*
X2429Y3244D01*
X2429Y3246D01*
X2428Y3247D01*
X2428Y3248D01*
X2427Y3249D01*
X2427Y3250D01*
X2426Y3250D01*
X2425Y3251D01*
X2424Y3251D01*
X2444D01*
X2443Y3251D01*
D02*
G37*
D10*
X3121Y3796D02*
D03*
X3479D02*
D03*
X3121Y3974D02*
D03*
X3479D02*
D03*
D11*
X2010Y3450D02*
D03*
X1890D02*
D03*
X1775Y3440D02*
D03*
X1655D02*
D03*
D12*
X1522Y1975D02*
D03*
X1505Y3230D02*
D03*
X1440Y3510D02*
D03*
D13*
X2100Y3835D02*
D03*
Y3943D02*
D03*
D14*
X2015Y3357D02*
D03*
Y3245D02*
D03*
Y3063D02*
D03*
Y3175D02*
D03*
D15*
X1740Y3082D02*
D03*
Y3045D02*
D03*
Y3008D02*
D03*
X1834D02*
D03*
Y3045D02*
D03*
Y3082D02*
D03*
D16*
X1825Y3180D02*
D03*
Y3230D02*
D03*
Y3280D02*
D03*
Y3330D02*
D03*
X1618Y3180D02*
D03*
Y3230D02*
D03*
Y3280D02*
D03*
Y3330D02*
D03*
D17*
X1625Y3045D02*
D03*
Y3095D02*
D03*
X2000Y3915D02*
D03*
Y3865D02*
D03*
D18*
X1550Y3085D02*
D03*
Y3055D02*
D03*
D19*
X3277Y3700D02*
D03*
X3385D02*
D03*
D20*
X3470Y3705D02*
D03*
X3519D02*
D03*
D21*
X3590Y3455D02*
D03*
X3530D02*
D03*
X3590Y3365D02*
D03*
X3530D02*
D03*
X3590Y3275D02*
D03*
X3531D02*
D03*
D22*
X3427Y3365D02*
D03*
X3315D02*
D03*
X3427Y3275D02*
D03*
X3315D02*
D03*
X3427Y3455D02*
D03*
X3315D02*
D03*
D23*
X2605Y3635D02*
D03*
X2550D02*
D03*
X2495D02*
D03*
X2605Y3745D02*
D03*
X2550D02*
D03*
X2495D02*
D03*
X2550Y3690D02*
D03*
X2605D02*
D03*
X2495D02*
D03*
D24*
X2954Y3973D02*
D03*
Y3923D02*
D03*
Y3873D02*
D03*
Y3823D02*
D03*
Y3773D02*
D03*
Y3723D02*
D03*
Y3673D02*
D03*
Y3623D02*
D03*
Y3573D02*
D03*
Y3523D02*
D03*
Y3473D02*
D03*
Y3423D02*
D03*
Y3373D02*
D03*
Y3323D02*
D03*
X2265D02*
D03*
Y3373D02*
D03*
Y3423D02*
D03*
Y3473D02*
D03*
Y3523D02*
D03*
Y3573D02*
D03*
Y3623D02*
D03*
Y3673D02*
D03*
Y3723D02*
D03*
Y3773D02*
D03*
Y3823D02*
D03*
Y3873D02*
D03*
Y3923D02*
D03*
Y3973D02*
D03*
D25*
X2834Y3280D02*
D03*
X2784D02*
D03*
X2734D02*
D03*
X2684D02*
D03*
X2634D02*
D03*
X2584D02*
D03*
X2534D02*
D03*
X2484D02*
D03*
X2434D02*
D03*
X2384D02*
D03*
D26*
X1829Y3611D02*
D03*
Y3969D02*
D03*
X1651Y3611D02*
D03*
Y3969D02*
D03*
D27*
X1522Y1975D02*
X1785D01*
X2180Y2370D01*
X1928Y2643D02*
Y2673D01*
X2015Y2760D01*
X1900Y2615D02*
X1928Y2643D01*
X2252Y3361D02*
X2265Y3373D01*
X2234Y3361D02*
X2252D01*
X2220Y3347D02*
X2234Y3361D01*
X2220Y1717D02*
Y3347D01*
X2562Y1285D02*
Y1375D01*
X2220Y1717D02*
X2562Y1375D01*
X2265Y1700D02*
Y3323D01*
Y1700D02*
X2680Y1285D01*
X2434Y2459D02*
X2798Y2095D01*
Y1285D02*
Y2095D01*
X2434Y2459D02*
Y3280D01*
X2784D02*
X2797Y3267D01*
Y2337D02*
Y3267D01*
Y2337D02*
X2916Y2218D01*
Y1285D02*
Y2218D01*
X2966Y3361D02*
X3000D01*
X3415Y2946D01*
X2954Y3373D02*
X2966Y3361D01*
X3415Y2348D02*
Y2946D01*
Y2348D02*
X3913Y1851D01*
X3446Y2436D02*
X3913Y1969D01*
X3446Y2436D02*
Y2949D01*
X2989Y3406D02*
X3446Y2949D01*
X2983Y3406D02*
X2989D01*
X2966Y3423D02*
X2983Y3406D01*
X2954Y3423D02*
X2966D01*
X3278Y3275D02*
X3315D01*
X2993Y3561D02*
X3278Y3275D01*
X2966Y3561D02*
X2993D01*
X2960Y3140D02*
Y3317D01*
X2954Y3323D02*
X2960Y3317D01*
X4033Y1853D02*
Y2610D01*
X3913Y1733D02*
X4033Y1853D01*
X3910Y2487D02*
X3915Y2492D01*
X2167Y3943D02*
X2240Y4016D01*
X3168D01*
X2189Y3936D02*
X2252D01*
X2265Y3923D01*
X2167Y3943D02*
X2181D01*
X2100D02*
X2167D01*
X3168Y4016D02*
X3388Y3796D01*
X2253Y3585D02*
X2265Y3573D01*
X2150Y3585D02*
X2253D01*
X2182Y3636D02*
X2252D01*
X2150Y3660D02*
X2158D01*
X2252Y3636D02*
X2265Y3623D01*
X2158Y3660D02*
X2182Y3636D01*
X2550Y3635D02*
Y3690D01*
X2605D01*
X2495D02*
X2550D01*
Y3745D01*
X1632Y3230D02*
X1740Y3122D01*
Y3082D02*
Y3122D01*
X1618Y3230D02*
X1632D01*
X1348D02*
X1505D01*
X1618D01*
X1440Y3510D02*
X1843Y3913D01*
X1260Y3330D02*
X1440Y3510D01*
X3620Y3506D02*
X3778Y3347D01*
X3169Y3630D02*
X3328D01*
X3472Y3486D01*
X3551Y3506D02*
X3620D01*
X3611Y3486D02*
X3758Y3339D01*
X3472Y3486D02*
X3611D01*
X3406Y3650D02*
X3551Y3506D01*
X3177Y3650D02*
X3406D01*
X3017Y3811D02*
X3177Y3650D01*
X3475Y3610D02*
X3595D01*
X3408Y3670D02*
X3415D01*
X3475Y3610D01*
X3519Y3705D02*
Y3706D01*
X3778Y2865D02*
Y3347D01*
X3385Y3693D02*
Y3700D01*
Y3693D02*
X3408Y3670D01*
X3038Y3761D02*
X3169Y3630D01*
X3519Y3704D02*
X3587Y3636D01*
Y3618D02*
Y3636D01*
Y3618D02*
X3595Y3610D01*
X3519Y3704D02*
Y3705D01*
X3493Y3974D02*
X3566Y3900D01*
X3479Y3974D02*
X3493D01*
X3566Y3900D02*
X3575D01*
X3470Y3705D02*
Y3787D01*
X3479Y3796D01*
X3493D01*
X4033Y3256D01*
Y2610D02*
Y3256D01*
X3915Y2492D02*
X4033Y2610D01*
X3778Y2865D02*
X3915Y2728D01*
X3758Y2767D02*
Y3339D01*
Y2767D02*
X3915Y2610D01*
X2966Y3761D02*
X3038D01*
X2954Y3773D02*
X2966Y3761D01*
X3010Y3711D02*
X3266Y3455D01*
X2954Y3723D02*
X2966Y3711D01*
X3010D01*
X3266Y3455D02*
X3315D01*
X2954Y3823D02*
X2966Y3811D01*
X3017D01*
X3427Y3275D02*
X3531D01*
X3427Y3365D02*
X3530D01*
X3427Y3455D02*
X3530D01*
X2954Y3573D02*
X2966Y3561D01*
X3261Y3365D02*
X3315D01*
X3015Y3611D02*
X3261Y3365D01*
X2966Y3611D02*
X3015D01*
X2954Y3623D02*
X2966Y3611D01*
X3388Y3796D02*
X3479D01*
X3470Y3705D02*
X3470Y3705D01*
X3057Y3923D02*
X3107Y3974D01*
X3121D01*
X2954Y3923D02*
X3057D01*
X2015Y3138D02*
Y3175D01*
X1295Y1975D02*
X1522D01*
X2180Y2370D02*
Y2973D01*
X2015Y3138D02*
X2180Y2973D01*
X1951Y3945D02*
X2022D01*
X2023Y3943D02*
X2100D01*
X1919Y3913D02*
X1951Y3945D01*
X1843Y3913D02*
X1919D01*
X2022Y3945D02*
X2023Y3943D01*
X1260Y3246D02*
Y3330D01*
Y3246D02*
X1280Y3226D01*
Y3180D02*
Y3226D01*
Y3180D02*
X1305Y3155D01*
X2181Y3943D02*
X2189Y3936D01*
X2198Y3861D02*
X2252D01*
X2265Y3873D01*
X2100Y3835D02*
X2172D01*
X2198Y3861D01*
X2000Y3865D02*
X2063D01*
X2093Y3835D01*
X2100D01*
X1829Y3625D02*
X2000Y3796D01*
Y3865D01*
X1829Y3611D02*
Y3625D01*
X2002Y3063D02*
X2015D01*
X1987Y3078D02*
X2002Y3063D01*
X1987Y3078D02*
Y3095D01*
X1927Y3154D02*
X1987Y3095D01*
X1795Y3154D02*
X1927D01*
X1717Y3233D02*
X1795Y3154D01*
X1717Y3233D02*
Y3245D01*
X1632Y3330D02*
X1717Y3245D01*
X1618Y3330D02*
X1632D01*
X1834Y3008D02*
X1886D01*
X1914Y2980D01*
X1915D01*
X1834Y3045D02*
X1915D01*
X1914Y3110D02*
X1915D01*
X1834Y3082D02*
X1886D01*
X1914Y3110D01*
X2150Y3385D02*
X2155D01*
X2252Y3411D02*
X2265Y3423D01*
X2181Y3411D02*
X2252D01*
X2155Y3385D02*
X2181Y3411D01*
X2207Y3461D02*
X2252D01*
X2150Y3455D02*
X2202D01*
X2252Y3461D02*
X2265Y3473D01*
X2202Y3455D02*
X2207Y3461D01*
X2150Y3520D02*
X2262D01*
X2265Y3523D01*
X1825Y3330D02*
X1975D01*
X2002Y3357D01*
X2015D01*
X1305Y3273D02*
X1348Y3230D01*
X1612Y3174D02*
X1618Y3180D01*
X1597Y3174D02*
X1612D01*
X1525Y3102D02*
X1597Y3174D01*
X1525Y3038D02*
Y3102D01*
Y3038D02*
X1555Y3008D01*
X1740D01*
X1638Y3082D02*
X1740D01*
X1626Y3095D02*
X1638Y3082D01*
X1625Y3095D02*
X1626D01*
X1555Y3090D02*
X1620D01*
X1550Y3085D02*
X1555Y3090D01*
X1620D02*
X1625Y3095D01*
X1655Y3353D02*
Y3440D01*
X1632Y3330D02*
X1655Y3353D01*
X2010Y3450D02*
X2015Y3445D01*
Y3357D02*
Y3445D01*
Y3175D02*
Y3245D01*
Y2760D02*
Y3063D01*
D28*
X2099Y2416D02*
D03*
X1701D02*
D03*
X2099Y2814D02*
D03*
X1701D02*
D03*
D29*
X1900Y2615D02*
D03*
D30*
X3913Y2087D02*
D03*
X3915Y2846D02*
D03*
D31*
X3913Y1969D02*
D03*
Y1851D02*
D03*
Y1733D02*
D03*
X3915Y2728D02*
D03*
Y2610D02*
D03*
Y2492D02*
D03*
X2916Y1285D02*
D03*
X2798D02*
D03*
X2680D02*
D03*
D32*
X3990Y1614D02*
D03*
Y2205D02*
D03*
X3992Y2374D02*
D03*
Y2964D02*
D03*
X2444Y1362D02*
D03*
X3034D02*
D03*
D33*
X1377Y2798D02*
D03*
Y2444D02*
D03*
X1899Y1352D02*
D03*
X2253D02*
D03*
X1382Y3391D02*
D03*
Y3037D02*
D03*
X1372Y2211D02*
D03*
Y1857D02*
D03*
D34*
X1300Y2680D02*
D03*
X2017Y1275D02*
D03*
X1305Y3273D02*
D03*
X1295Y2093D02*
D03*
D35*
X1300Y2562D02*
D03*
X1305Y3155D02*
D03*
X1295Y1975D02*
D03*
D36*
X2135Y1275D02*
D03*
D37*
X2562Y1285D02*
D03*
D38*
X3060Y3140D02*
D03*
D39*
X2960D02*
D03*
D40*
X2047Y1417D02*
D03*
X2205D02*
D03*
X2283Y1260D02*
D03*
X2205Y1102D02*
D03*
X2047D02*
D03*
X1890D02*
D03*
X1811Y1260D02*
D03*
X3937Y3937D02*
D03*
X4016Y3780D02*
D03*
X3937Y3622D02*
D03*
X4016Y3465D02*
D03*
X3937Y1417D02*
D03*
X4016Y1260D02*
D03*
X3937Y1102D02*
D03*
X3780Y3937D02*
D03*
Y3622D02*
D03*
X3858Y3150D02*
D03*
X3780Y2677D02*
D03*
Y2362D02*
D03*
X3858Y2205D02*
D03*
X3780Y1732D02*
D03*
X3858Y1575D02*
D03*
Y1260D02*
D03*
X3780Y1102D02*
D03*
X3701Y3150D02*
D03*
X3622Y2992D02*
D03*
X3701Y2835D02*
D03*
X3622Y2677D02*
D03*
X3701Y2520D02*
D03*
X3622Y2362D02*
D03*
Y2047D02*
D03*
X3701Y1890D02*
D03*
X3622Y1732D02*
D03*
X3701Y1575D02*
D03*
X3622Y1417D02*
D03*
X3701Y1260D02*
D03*
X3622Y1102D02*
D03*
X3543Y3150D02*
D03*
X3465Y2992D02*
D03*
X3543Y2835D02*
D03*
Y2520D02*
D03*
X3465Y2047D02*
D03*
X3543Y1890D02*
D03*
X3465Y1732D02*
D03*
X3543Y1575D02*
D03*
X3465Y1417D02*
D03*
X3543Y1260D02*
D03*
X3465Y1102D02*
D03*
X3307Y3937D02*
D03*
X3386Y3150D02*
D03*
X3307Y2992D02*
D03*
Y2677D02*
D03*
Y2362D02*
D03*
X3386Y2205D02*
D03*
X3307Y2047D02*
D03*
X3386Y1890D02*
D03*
X3307Y1732D02*
D03*
X3386Y1575D02*
D03*
X3307Y1417D02*
D03*
X3386Y1260D02*
D03*
X3307Y1102D02*
D03*
X3228Y3780D02*
D03*
X3150Y3307D02*
D03*
Y2992D02*
D03*
X3228Y2835D02*
D03*
X3150Y2677D02*
D03*
X3228Y2520D02*
D03*
X3150Y2362D02*
D03*
X3228Y2205D02*
D03*
X3150Y2047D02*
D03*
X3228Y1890D02*
D03*
X3150Y1732D02*
D03*
X3228Y1575D02*
D03*
X3150Y1417D02*
D03*
X3228Y1260D02*
D03*
X3150Y1102D02*
D03*
X2992Y2992D02*
D03*
X3071Y2835D02*
D03*
X2992Y2677D02*
D03*
X3071Y2520D02*
D03*
X2992Y2362D02*
D03*
X3071Y2205D02*
D03*
X2992Y2047D02*
D03*
X3071Y1890D02*
D03*
X2992Y1732D02*
D03*
X3071Y1575D02*
D03*
X2992Y1417D02*
D03*
X3071Y1260D02*
D03*
X2992Y1102D02*
D03*
X2913Y2835D02*
D03*
Y2520D02*
D03*
X2835Y1102D02*
D03*
X2677Y2992D02*
D03*
Y2677D02*
D03*
Y2362D02*
D03*
X2756Y2205D02*
D03*
X2677Y2047D02*
D03*
X2756Y1890D02*
D03*
X2677Y1732D02*
D03*
X2756Y1575D02*
D03*
X2677Y1417D02*
D03*
Y1102D02*
D03*
X2598Y3150D02*
D03*
X2520Y2992D02*
D03*
X2598Y2835D02*
D03*
X2520Y2677D02*
D03*
X2598Y2520D02*
D03*
Y2205D02*
D03*
X2520Y2047D02*
D03*
X2598Y1890D02*
D03*
X2520Y1732D02*
D03*
X2598Y1575D02*
D03*
X2520Y1102D02*
D03*
X2362Y2992D02*
D03*
Y2677D02*
D03*
Y2362D02*
D03*
X2441Y2205D02*
D03*
X2362Y2047D02*
D03*
X2441Y1890D02*
D03*
X2362Y1732D02*
D03*
Y1417D02*
D03*
X2441Y1260D02*
D03*
X2362Y1102D02*
D03*
X2283Y1575D02*
D03*
X2047Y3622D02*
D03*
Y2677D02*
D03*
X2126Y2520D02*
D03*
Y2205D02*
D03*
X2047Y2047D02*
D03*
X2126Y1890D02*
D03*
X2047Y1732D02*
D03*
X2126Y1575D02*
D03*
X1969Y2835D02*
D03*
Y2520D02*
D03*
X1890Y2362D02*
D03*
X1969Y1890D02*
D03*
X1890Y1732D02*
D03*
X1969Y1575D02*
D03*
X1732Y3937D02*
D03*
X1811Y3780D02*
D03*
X1732Y3622D02*
D03*
Y3307D02*
D03*
X1811Y2835D02*
D03*
X1732Y2677D02*
D03*
X1811Y2520D02*
D03*
Y2205D02*
D03*
X1732Y2047D02*
D03*
X1811Y1890D02*
D03*
X1732Y1732D02*
D03*
X1811Y1575D02*
D03*
X1732Y1417D02*
D03*
Y1102D02*
D03*
X1575Y3937D02*
D03*
Y2677D02*
D03*
X1654Y2520D02*
D03*
X1575Y2362D02*
D03*
X1654Y2205D02*
D03*
X1575Y2047D02*
D03*
X1654Y1890D02*
D03*
X1575Y1732D02*
D03*
X1654Y1575D02*
D03*
X1575Y1417D02*
D03*
X1654Y1260D02*
D03*
X1575Y1102D02*
D03*
X1417Y3937D02*
D03*
Y3622D02*
D03*
Y3307D02*
D03*
X1496Y3150D02*
D03*
Y2520D02*
D03*
X1417Y2362D02*
D03*
X1496Y2205D02*
D03*
X1417Y2047D02*
D03*
X1496Y1890D02*
D03*
X1417Y1732D02*
D03*
X1496Y1575D02*
D03*
Y1260D02*
D03*
X1417Y1102D02*
D03*
X1260Y3937D02*
D03*
Y3622D02*
D03*
Y2992D02*
D03*
Y2362D02*
D03*
Y1732D02*
D03*
X1339Y1575D02*
D03*
X1260Y1417D02*
D03*
X1339Y1260D02*
D03*
X1260Y1102D02*
D03*
X1102Y3937D02*
D03*
X1181Y3780D02*
D03*
X1102Y3622D02*
D03*
X1181Y3465D02*
D03*
X1102Y3307D02*
D03*
X1181Y3150D02*
D03*
X1102Y2992D02*
D03*
X1181Y2835D02*
D03*
X1102Y2677D02*
D03*
X1181Y2520D02*
D03*
X1102Y2362D02*
D03*
X1181Y2205D02*
D03*
X1102Y2047D02*
D03*
X1181Y1890D02*
D03*
X1102Y1732D02*
D03*
X1181Y1575D02*
D03*
X1102Y1417D02*
D03*
X1181Y1260D02*
D03*
X1102Y1102D02*
D03*
X3595Y3610D02*
D03*
X3575Y3900D02*
D03*
X2150Y3660D02*
D03*
Y3585D02*
D03*
Y3385D02*
D03*
Y3455D02*
D03*
Y3520D02*
D03*
X1915Y2980D02*
D03*
Y3045D02*
D03*
Y3110D02*
D03*
D41*
X1394Y1394D02*
D03*
X3756D02*
D03*
Y3756D02*
D03*
X1394D02*
D03*
%TF.MD5,fd40d2c9622a774ba132c99197c29777*%
M02*
