%TF.GenerationSoftware,Altium Limited,Altium Designer,22.9.1 (49)*%
G04 Layer_Color=0*
%FSLAX23Y23*%
%MOIN*%
%TF.SameCoordinates,7E49B892-F471-4493-957F-970E4ADD815D*%
%TF.FilePolarity,Positive*%
%TF.FileFunction,Plated,1,2,PTH,Drill*%
%TF.Part,Single*%
G01*
G75*
%TA.AperFunction,ComponentDrill*%
%ADD78C,0.047*%
%ADD79C,0.043*%
%ADD80C,0.042*%
%ADD81C,0.040*%
%ADD82C,0.040*%
%ADD83C,0.042*%
%TA.AperFunction,ViaDrill,NotFilled*%
%ADD84C,0.028*%
%ADD85C,0.157*%
D78*
X2099Y2416D02*
D03*
X1701D02*
D03*
X2099Y2814D02*
D03*
X1701D02*
D03*
D79*
X1900Y2615D02*
D03*
X3060Y3140D02*
D03*
X2960D02*
D03*
D80*
X3913Y2087D02*
D03*
Y1969D02*
D03*
Y1851D02*
D03*
Y1733D02*
D03*
X3915Y2846D02*
D03*
Y2728D02*
D03*
Y2610D02*
D03*
Y2492D02*
D03*
D81*
X1300Y2680D02*
D03*
Y2562D02*
D03*
X1305Y3273D02*
D03*
Y3155D02*
D03*
X1295Y2093D02*
D03*
Y1975D02*
D03*
D82*
X2017Y1275D02*
D03*
X2135D02*
D03*
D83*
X2916Y1285D02*
D03*
X2798D02*
D03*
X2680D02*
D03*
X2562D02*
D03*
D84*
X2047Y1417D02*
D03*
X2205D02*
D03*
X2283Y1260D02*
D03*
X2205Y1102D02*
D03*
X2047D02*
D03*
X1890D02*
D03*
X1811Y1260D02*
D03*
X3937Y3937D02*
D03*
X4016Y3780D02*
D03*
X3937Y3622D02*
D03*
X4016Y3465D02*
D03*
X3937Y1417D02*
D03*
X4016Y1260D02*
D03*
X3937Y1102D02*
D03*
X3780Y3937D02*
D03*
Y3622D02*
D03*
X3858Y3150D02*
D03*
X3780Y2677D02*
D03*
Y2362D02*
D03*
X3858Y2205D02*
D03*
X3780Y1732D02*
D03*
X3858Y1575D02*
D03*
Y1260D02*
D03*
X3780Y1102D02*
D03*
X3701Y3150D02*
D03*
X3622Y2992D02*
D03*
X3701Y2835D02*
D03*
X3622Y2677D02*
D03*
X3701Y2520D02*
D03*
X3622Y2362D02*
D03*
Y2047D02*
D03*
X3701Y1890D02*
D03*
X3622Y1732D02*
D03*
X3701Y1575D02*
D03*
X3622Y1417D02*
D03*
X3701Y1260D02*
D03*
X3622Y1102D02*
D03*
X3543Y3150D02*
D03*
X3465Y2992D02*
D03*
X3543Y2835D02*
D03*
Y2520D02*
D03*
X3465Y2047D02*
D03*
X3543Y1890D02*
D03*
X3465Y1732D02*
D03*
X3543Y1575D02*
D03*
X3465Y1417D02*
D03*
X3543Y1260D02*
D03*
X3465Y1102D02*
D03*
X3307Y3937D02*
D03*
X3386Y3150D02*
D03*
X3307Y2992D02*
D03*
Y2677D02*
D03*
Y2362D02*
D03*
X3386Y2205D02*
D03*
X3307Y2047D02*
D03*
X3386Y1890D02*
D03*
X3307Y1732D02*
D03*
X3386Y1575D02*
D03*
X3307Y1417D02*
D03*
X3386Y1260D02*
D03*
X3307Y1102D02*
D03*
X3228Y3780D02*
D03*
X3150Y3307D02*
D03*
Y2992D02*
D03*
X3228Y2835D02*
D03*
X3150Y2677D02*
D03*
X3228Y2520D02*
D03*
X3150Y2362D02*
D03*
X3228Y2205D02*
D03*
X3150Y2047D02*
D03*
X3228Y1890D02*
D03*
X3150Y1732D02*
D03*
X3228Y1575D02*
D03*
X3150Y1417D02*
D03*
X3228Y1260D02*
D03*
X3150Y1102D02*
D03*
X2992Y2992D02*
D03*
X3071Y2835D02*
D03*
X2992Y2677D02*
D03*
X3071Y2520D02*
D03*
X2992Y2362D02*
D03*
X3071Y2205D02*
D03*
X2992Y2047D02*
D03*
X3071Y1890D02*
D03*
X2992Y1732D02*
D03*
X3071Y1575D02*
D03*
X2992Y1417D02*
D03*
X3071Y1260D02*
D03*
X2992Y1102D02*
D03*
X2913Y2835D02*
D03*
Y2520D02*
D03*
X2835Y1102D02*
D03*
X2677Y2992D02*
D03*
Y2677D02*
D03*
Y2362D02*
D03*
X2756Y2205D02*
D03*
X2677Y2047D02*
D03*
X2756Y1890D02*
D03*
X2677Y1732D02*
D03*
X2756Y1575D02*
D03*
X2677Y1417D02*
D03*
Y1102D02*
D03*
X2598Y3150D02*
D03*
X2520Y2992D02*
D03*
X2598Y2835D02*
D03*
X2520Y2677D02*
D03*
X2598Y2520D02*
D03*
Y2205D02*
D03*
X2520Y2047D02*
D03*
X2598Y1890D02*
D03*
X2520Y1732D02*
D03*
X2598Y1575D02*
D03*
X2520Y1102D02*
D03*
X2362Y2992D02*
D03*
Y2677D02*
D03*
Y2362D02*
D03*
X2441Y2205D02*
D03*
X2362Y2047D02*
D03*
X2441Y1890D02*
D03*
X2362Y1732D02*
D03*
Y1417D02*
D03*
X2441Y1260D02*
D03*
X2362Y1102D02*
D03*
X2283Y1575D02*
D03*
X2047Y3622D02*
D03*
Y2677D02*
D03*
X2126Y2520D02*
D03*
Y2205D02*
D03*
X2047Y2047D02*
D03*
X2126Y1890D02*
D03*
X2047Y1732D02*
D03*
X2126Y1575D02*
D03*
X1969Y2835D02*
D03*
Y2520D02*
D03*
X1890Y2362D02*
D03*
X1969Y1890D02*
D03*
X1890Y1732D02*
D03*
X1969Y1575D02*
D03*
X1732Y3937D02*
D03*
X1811Y3780D02*
D03*
X1732Y3622D02*
D03*
Y3307D02*
D03*
X1811Y2835D02*
D03*
X1732Y2677D02*
D03*
X1811Y2520D02*
D03*
Y2205D02*
D03*
X1732Y2047D02*
D03*
X1811Y1890D02*
D03*
X1732Y1732D02*
D03*
X1811Y1575D02*
D03*
X1732Y1417D02*
D03*
Y1102D02*
D03*
X1575Y3937D02*
D03*
Y2677D02*
D03*
X1654Y2520D02*
D03*
X1575Y2362D02*
D03*
X1654Y2205D02*
D03*
X1575Y2047D02*
D03*
X1654Y1890D02*
D03*
X1575Y1732D02*
D03*
X1654Y1575D02*
D03*
X1575Y1417D02*
D03*
X1654Y1260D02*
D03*
X1575Y1102D02*
D03*
X1417Y3937D02*
D03*
Y3622D02*
D03*
Y3307D02*
D03*
X1496Y3150D02*
D03*
Y2520D02*
D03*
X1417Y2362D02*
D03*
X1496Y2205D02*
D03*
X1417Y2047D02*
D03*
X1496Y1890D02*
D03*
X1417Y1732D02*
D03*
X1496Y1575D02*
D03*
Y1260D02*
D03*
X1417Y1102D02*
D03*
X1260Y3937D02*
D03*
Y3622D02*
D03*
Y2992D02*
D03*
Y2362D02*
D03*
Y1732D02*
D03*
X1339Y1575D02*
D03*
X1260Y1417D02*
D03*
X1339Y1260D02*
D03*
X1260Y1102D02*
D03*
X1102Y3937D02*
D03*
X1181Y3780D02*
D03*
X1102Y3622D02*
D03*
X1181Y3465D02*
D03*
X1102Y3307D02*
D03*
X1181Y3150D02*
D03*
X1102Y2992D02*
D03*
X1181Y2835D02*
D03*
X1102Y2677D02*
D03*
X1181Y2520D02*
D03*
X1102Y2362D02*
D03*
X1181Y2205D02*
D03*
X1102Y2047D02*
D03*
X1181Y1890D02*
D03*
X1102Y1732D02*
D03*
X1181Y1575D02*
D03*
X1102Y1417D02*
D03*
X1181Y1260D02*
D03*
X1102Y1102D02*
D03*
X3595Y3610D02*
D03*
X3575Y3900D02*
D03*
X2150Y3660D02*
D03*
Y3585D02*
D03*
Y3385D02*
D03*
Y3455D02*
D03*
Y3520D02*
D03*
X1915Y2980D02*
D03*
Y3045D02*
D03*
Y3110D02*
D03*
D85*
X1394Y1394D02*
D03*
X3756D02*
D03*
Y3756D02*
D03*
X1394D02*
D03*
%TF.MD5,aa36355947b6a5ad0305a8122417ed7e*%
M02*
