%TF.GenerationSoftware,Altium Limited,Altium Designer,22.9.1 (49)*%
G04 Layer_Color=128*
%FSLAX23Y23*%
%MOIN*%
%TF.SameCoordinates,7E49B892-F471-4493-957F-970E4ADD815D*%
%TF.FilePolarity,Positive*%
%TF.FileFunction,Drillmap*%
%TF.Part,Single*%
G01*
G75*
%TA.AperFunction,NonConductor*%
%ADD59C,0.005*%
D59*
X2075Y2416D02*
X2122D01*
X2099Y2393D02*
Y2440D01*
X1678Y2416D02*
X1725D01*
X1701Y2393D02*
Y2440D01*
X2075Y2814D02*
X2122D01*
X2099Y2790D02*
Y2837D01*
X1678Y2814D02*
X1725D01*
X1701Y2790D02*
Y2837D01*
X1878Y2615D02*
X1922D01*
X1900Y2593D02*
Y2637D01*
X3892Y2087D02*
X3934D01*
X3913Y2066D02*
Y2108D01*
X3892Y1969D02*
X3934D01*
X3913Y1948D02*
Y1990D01*
X3892Y1851D02*
X3934D01*
X3913Y1830D02*
Y1872D01*
X3892Y1733D02*
X3934D01*
X3913Y1711D02*
Y1754D01*
X3964Y1614D02*
X4016D01*
X3990Y1588D02*
Y1640D01*
X3964Y2205D02*
X4016D01*
X3990Y2179D02*
Y2231D01*
X3894Y2846D02*
X3936D01*
X3915Y2825D02*
Y2867D01*
X3894Y2728D02*
X3936D01*
X3915Y2707D02*
Y2749D01*
X3894Y2610D02*
X3936D01*
X3915Y2589D02*
Y2631D01*
X3894Y2492D02*
X3936D01*
X3915Y2471D02*
Y2513D01*
X3966Y2374D02*
X4018D01*
X3992Y2348D02*
Y2400D01*
X3966Y2964D02*
X4018D01*
X3992Y2938D02*
Y2990D01*
X1352Y2798D02*
X1402D01*
X1377Y2773D02*
Y2823D01*
X1352Y2444D02*
X1402D01*
X1377Y2419D02*
Y2469D01*
X1280Y2680D02*
X1320D01*
X1300Y2660D02*
Y2700D01*
X1280Y2562D02*
X1320D01*
X1300Y2542D02*
Y2582D01*
X1874Y1352D02*
X1924D01*
X1899Y1327D02*
Y1377D01*
X2228Y1352D02*
X2278D01*
X2253Y1327D02*
Y1377D01*
X1997Y1275D02*
X2037D01*
X2017Y1255D02*
Y1295D01*
X2115Y1275D02*
X2155D01*
X2135Y1255D02*
Y1295D01*
X1357Y3391D02*
X1407D01*
X1382Y3366D02*
Y3416D01*
X1357Y3037D02*
X1407D01*
X1382Y3012D02*
Y3062D01*
X1285Y3273D02*
X1325D01*
X1305Y3253D02*
Y3293D01*
X1285Y3155D02*
X1325D01*
X1305Y3135D02*
Y3175D01*
X1347Y2211D02*
X1397D01*
X1372Y2186D02*
Y2236D01*
X1347Y1857D02*
X1397D01*
X1372Y1832D02*
Y1882D01*
X1275Y2093D02*
X1315D01*
X1295Y2073D02*
Y2113D01*
X1275Y1975D02*
X1315D01*
X1295Y1955D02*
Y1995D01*
X2418Y1362D02*
X2470D01*
X2444Y1336D02*
Y1388D01*
X3008Y1362D02*
X3060D01*
X3034Y1336D02*
Y1388D01*
X2895Y1285D02*
X2937D01*
X2916Y1264D02*
Y1306D01*
X2777Y1285D02*
X2819D01*
X2798Y1264D02*
Y1306D01*
X2659Y1285D02*
X2701D01*
X2680Y1264D02*
Y1306D01*
X2541Y1285D02*
X2583D01*
X2562Y1264D02*
Y1306D01*
X3038Y3140D02*
X3082D01*
X3060Y3118D02*
Y3162D01*
X2938Y3140D02*
X2982D01*
X2960Y3118D02*
Y3162D01*
X2033Y1417D02*
X2061D01*
X2047Y1403D02*
Y1431D01*
X2191Y1417D02*
X2219D01*
X2205Y1403D02*
Y1431D01*
X2269Y1260D02*
X2297D01*
X2283Y1246D02*
Y1274D01*
X2191Y1102D02*
X2219D01*
X2205Y1088D02*
Y1116D01*
X2033Y1102D02*
X2061D01*
X2047Y1088D02*
Y1116D01*
X1876Y1102D02*
X1904D01*
X1890Y1088D02*
Y1116D01*
X1797Y1260D02*
X1825D01*
X1811Y1246D02*
Y1274D01*
X3923Y3937D02*
X3951D01*
X3937Y3923D02*
Y3951D01*
X4002Y3780D02*
X4030D01*
X4016Y3766D02*
Y3794D01*
X3923Y3622D02*
X3951D01*
X3937Y3608D02*
Y3636D01*
X4002Y3465D02*
X4030D01*
X4016Y3451D02*
Y3479D01*
X3923Y1417D02*
X3951D01*
X3937Y1403D02*
Y1431D01*
X4002Y1260D02*
X4030D01*
X4016Y1246D02*
Y1274D01*
X3923Y1102D02*
X3951D01*
X3937Y1088D02*
Y1116D01*
X3766Y3937D02*
X3794D01*
X3780Y3923D02*
Y3951D01*
X3766Y3622D02*
X3794D01*
X3780Y3608D02*
Y3636D01*
X3844Y3150D02*
X3872D01*
X3858Y3136D02*
Y3164D01*
X3766Y2677D02*
X3794D01*
X3780Y2663D02*
Y2691D01*
X3766Y2362D02*
X3794D01*
X3780Y2348D02*
Y2376D01*
X3844Y2205D02*
X3872D01*
X3858Y2191D02*
Y2219D01*
X3766Y1732D02*
X3794D01*
X3780Y1718D02*
Y1746D01*
X3844Y1575D02*
X3872D01*
X3858Y1561D02*
Y1589D01*
X3844Y1260D02*
X3872D01*
X3858Y1246D02*
Y1274D01*
X3766Y1102D02*
X3794D01*
X3780Y1088D02*
Y1116D01*
X3687Y3150D02*
X3715D01*
X3701Y3136D02*
Y3164D01*
X3608Y2992D02*
X3636D01*
X3622Y2978D02*
Y3006D01*
X3687Y2835D02*
X3715D01*
X3701Y2821D02*
Y2849D01*
X3608Y2677D02*
X3636D01*
X3622Y2663D02*
Y2691D01*
X3687Y2520D02*
X3715D01*
X3701Y2506D02*
Y2534D01*
X3608Y2362D02*
X3636D01*
X3622Y2348D02*
Y2376D01*
X3608Y2047D02*
X3636D01*
X3622Y2033D02*
Y2061D01*
X3687Y1890D02*
X3715D01*
X3701Y1876D02*
Y1904D01*
X3608Y1732D02*
X3636D01*
X3622Y1718D02*
Y1746D01*
X3687Y1575D02*
X3715D01*
X3701Y1561D02*
Y1589D01*
X3608Y1417D02*
X3636D01*
X3622Y1403D02*
Y1431D01*
X3687Y1260D02*
X3715D01*
X3701Y1246D02*
Y1274D01*
X3608Y1102D02*
X3636D01*
X3622Y1088D02*
Y1116D01*
X3529Y3150D02*
X3557D01*
X3543Y3136D02*
Y3164D01*
X3451Y2992D02*
X3479D01*
X3465Y2978D02*
Y3006D01*
X3529Y2835D02*
X3557D01*
X3543Y2821D02*
Y2849D01*
X3529Y2520D02*
X3557D01*
X3543Y2506D02*
Y2534D01*
X3451Y2047D02*
X3479D01*
X3465Y2033D02*
Y2061D01*
X3529Y1890D02*
X3557D01*
X3543Y1876D02*
Y1904D01*
X3451Y1732D02*
X3479D01*
X3465Y1718D02*
Y1746D01*
X3529Y1575D02*
X3557D01*
X3543Y1561D02*
Y1589D01*
X3451Y1417D02*
X3479D01*
X3465Y1403D02*
Y1431D01*
X3529Y1260D02*
X3557D01*
X3543Y1246D02*
Y1274D01*
X3451Y1102D02*
X3479D01*
X3465Y1088D02*
Y1116D01*
X3293Y3937D02*
X3321D01*
X3307Y3923D02*
Y3951D01*
X3372Y3150D02*
X3400D01*
X3386Y3136D02*
Y3164D01*
X3293Y2992D02*
X3321D01*
X3307Y2978D02*
Y3006D01*
X3293Y2677D02*
X3321D01*
X3307Y2663D02*
Y2691D01*
X3293Y2362D02*
X3321D01*
X3307Y2348D02*
Y2376D01*
X3372Y2205D02*
X3400D01*
X3386Y2191D02*
Y2219D01*
X3293Y2047D02*
X3321D01*
X3307Y2033D02*
Y2061D01*
X3372Y1890D02*
X3400D01*
X3386Y1876D02*
Y1904D01*
X3293Y1732D02*
X3321D01*
X3307Y1718D02*
Y1746D01*
X3372Y1575D02*
X3400D01*
X3386Y1561D02*
Y1589D01*
X3293Y1417D02*
X3321D01*
X3307Y1403D02*
Y1431D01*
X3372Y1260D02*
X3400D01*
X3386Y1246D02*
Y1274D01*
X3293Y1102D02*
X3321D01*
X3307Y1088D02*
Y1116D01*
X3214Y3780D02*
X3242D01*
X3228Y3766D02*
Y3794D01*
X3136Y3307D02*
X3164D01*
X3150Y3293D02*
Y3321D01*
X3136Y2992D02*
X3164D01*
X3150Y2978D02*
Y3006D01*
X3214Y2835D02*
X3242D01*
X3228Y2821D02*
Y2849D01*
X3136Y2677D02*
X3164D01*
X3150Y2663D02*
Y2691D01*
X3214Y2520D02*
X3242D01*
X3228Y2506D02*
Y2534D01*
X3136Y2362D02*
X3164D01*
X3150Y2348D02*
Y2376D01*
X3214Y2205D02*
X3242D01*
X3228Y2191D02*
Y2219D01*
X3136Y2047D02*
X3164D01*
X3150Y2033D02*
Y2061D01*
X3214Y1890D02*
X3242D01*
X3228Y1876D02*
Y1904D01*
X3136Y1732D02*
X3164D01*
X3150Y1718D02*
Y1746D01*
X3214Y1575D02*
X3242D01*
X3228Y1561D02*
Y1589D01*
X3136Y1417D02*
X3164D01*
X3150Y1403D02*
Y1431D01*
X3214Y1260D02*
X3242D01*
X3228Y1246D02*
Y1274D01*
X3136Y1102D02*
X3164D01*
X3150Y1088D02*
Y1116D01*
X2978Y2992D02*
X3006D01*
X2992Y2978D02*
Y3006D01*
X3057Y2835D02*
X3085D01*
X3071Y2821D02*
Y2849D01*
X2978Y2677D02*
X3006D01*
X2992Y2663D02*
Y2691D01*
X3057Y2520D02*
X3085D01*
X3071Y2506D02*
Y2534D01*
X2978Y2362D02*
X3006D01*
X2992Y2348D02*
Y2376D01*
X3057Y2205D02*
X3085D01*
X3071Y2191D02*
Y2219D01*
X2978Y2047D02*
X3006D01*
X2992Y2033D02*
Y2061D01*
X3057Y1890D02*
X3085D01*
X3071Y1876D02*
Y1904D01*
X2978Y1732D02*
X3006D01*
X2992Y1718D02*
Y1746D01*
X3057Y1575D02*
X3085D01*
X3071Y1561D02*
Y1589D01*
X2978Y1417D02*
X3006D01*
X2992Y1403D02*
Y1431D01*
X3057Y1260D02*
X3085D01*
X3071Y1246D02*
Y1274D01*
X2978Y1102D02*
X3006D01*
X2992Y1088D02*
Y1116D01*
X2899Y2835D02*
X2927D01*
X2913Y2821D02*
Y2849D01*
X2899Y2520D02*
X2927D01*
X2913Y2506D02*
Y2534D01*
X2821Y1102D02*
X2849D01*
X2835Y1088D02*
Y1116D01*
X2663Y2992D02*
X2691D01*
X2677Y2978D02*
Y3006D01*
X2663Y2677D02*
X2691D01*
X2677Y2663D02*
Y2691D01*
X2663Y2362D02*
X2691D01*
X2677Y2348D02*
Y2376D01*
X2742Y2205D02*
X2770D01*
X2756Y2191D02*
Y2219D01*
X2663Y2047D02*
X2691D01*
X2677Y2033D02*
Y2061D01*
X2742Y1890D02*
X2770D01*
X2756Y1876D02*
Y1904D01*
X2663Y1732D02*
X2691D01*
X2677Y1718D02*
Y1746D01*
X2742Y1575D02*
X2770D01*
X2756Y1561D02*
Y1589D01*
X2663Y1417D02*
X2691D01*
X2677Y1403D02*
Y1431D01*
X2663Y1102D02*
X2691D01*
X2677Y1088D02*
Y1116D01*
X2584Y3150D02*
X2612D01*
X2598Y3136D02*
Y3164D01*
X2506Y2992D02*
X2534D01*
X2520Y2978D02*
Y3006D01*
X2584Y2835D02*
X2612D01*
X2598Y2821D02*
Y2849D01*
X2506Y2677D02*
X2534D01*
X2520Y2663D02*
Y2691D01*
X2584Y2520D02*
X2612D01*
X2598Y2506D02*
Y2534D01*
X2584Y2205D02*
X2612D01*
X2598Y2191D02*
Y2219D01*
X2506Y2047D02*
X2534D01*
X2520Y2033D02*
Y2061D01*
X2584Y1890D02*
X2612D01*
X2598Y1876D02*
Y1904D01*
X2506Y1732D02*
X2534D01*
X2520Y1718D02*
Y1746D01*
X2584Y1575D02*
X2612D01*
X2598Y1561D02*
Y1589D01*
X2506Y1102D02*
X2534D01*
X2520Y1088D02*
Y1116D01*
X2348Y2992D02*
X2376D01*
X2362Y2978D02*
Y3006D01*
X2348Y2677D02*
X2376D01*
X2362Y2663D02*
Y2691D01*
X2348Y2362D02*
X2376D01*
X2362Y2348D02*
Y2376D01*
X2427Y2205D02*
X2455D01*
X2441Y2191D02*
Y2219D01*
X2348Y2047D02*
X2376D01*
X2362Y2033D02*
Y2061D01*
X2427Y1890D02*
X2455D01*
X2441Y1876D02*
Y1904D01*
X2348Y1732D02*
X2376D01*
X2362Y1718D02*
Y1746D01*
X2348Y1417D02*
X2376D01*
X2362Y1403D02*
Y1431D01*
X2427Y1260D02*
X2455D01*
X2441Y1246D02*
Y1274D01*
X2348Y1102D02*
X2376D01*
X2362Y1088D02*
Y1116D01*
X2269Y1575D02*
X2297D01*
X2283Y1561D02*
Y1589D01*
X2033Y3622D02*
X2061D01*
X2047Y3608D02*
Y3636D01*
X2033Y2677D02*
X2061D01*
X2047Y2663D02*
Y2691D01*
X2112Y2520D02*
X2140D01*
X2126Y2506D02*
Y2534D01*
X2112Y2205D02*
X2140D01*
X2126Y2191D02*
Y2219D01*
X2033Y2047D02*
X2061D01*
X2047Y2033D02*
Y2061D01*
X2112Y1890D02*
X2140D01*
X2126Y1876D02*
Y1904D01*
X2033Y1732D02*
X2061D01*
X2047Y1718D02*
Y1746D01*
X2112Y1575D02*
X2140D01*
X2126Y1561D02*
Y1589D01*
X1955Y2835D02*
X1983D01*
X1969Y2821D02*
Y2849D01*
X1955Y2520D02*
X1983D01*
X1969Y2506D02*
Y2534D01*
X1876Y2362D02*
X1904D01*
X1890Y2348D02*
Y2376D01*
X1955Y1890D02*
X1983D01*
X1969Y1876D02*
Y1904D01*
X1876Y1732D02*
X1904D01*
X1890Y1718D02*
Y1746D01*
X1955Y1575D02*
X1983D01*
X1969Y1561D02*
Y1589D01*
X1718Y3937D02*
X1746D01*
X1732Y3923D02*
Y3951D01*
X1797Y3780D02*
X1825D01*
X1811Y3766D02*
Y3794D01*
X1718Y3622D02*
X1746D01*
X1732Y3608D02*
Y3636D01*
X1718Y3307D02*
X1746D01*
X1732Y3293D02*
Y3321D01*
X1797Y2835D02*
X1825D01*
X1811Y2821D02*
Y2849D01*
X1718Y2677D02*
X1746D01*
X1732Y2663D02*
Y2691D01*
X1797Y2520D02*
X1825D01*
X1811Y2506D02*
Y2534D01*
X1797Y2205D02*
X1825D01*
X1811Y2191D02*
Y2219D01*
X1718Y2047D02*
X1746D01*
X1732Y2033D02*
Y2061D01*
X1797Y1890D02*
X1825D01*
X1811Y1876D02*
Y1904D01*
X1718Y1732D02*
X1746D01*
X1732Y1718D02*
Y1746D01*
X1797Y1575D02*
X1825D01*
X1811Y1561D02*
Y1589D01*
X1718Y1417D02*
X1746D01*
X1732Y1403D02*
Y1431D01*
X1718Y1102D02*
X1746D01*
X1732Y1088D02*
Y1116D01*
X1561Y3937D02*
X1589D01*
X1575Y3923D02*
Y3951D01*
X1561Y2677D02*
X1589D01*
X1575Y2663D02*
Y2691D01*
X1640Y2520D02*
X1668D01*
X1654Y2506D02*
Y2534D01*
X1561Y2362D02*
X1589D01*
X1575Y2348D02*
Y2376D01*
X1640Y2205D02*
X1668D01*
X1654Y2191D02*
Y2219D01*
X1561Y2047D02*
X1589D01*
X1575Y2033D02*
Y2061D01*
X1640Y1890D02*
X1668D01*
X1654Y1876D02*
Y1904D01*
X1561Y1732D02*
X1589D01*
X1575Y1718D02*
Y1746D01*
X1640Y1575D02*
X1668D01*
X1654Y1561D02*
Y1589D01*
X1561Y1417D02*
X1589D01*
X1575Y1403D02*
Y1431D01*
X1640Y1260D02*
X1668D01*
X1654Y1246D02*
Y1274D01*
X1561Y1102D02*
X1589D01*
X1575Y1088D02*
Y1116D01*
X1403Y3937D02*
X1431D01*
X1417Y3923D02*
Y3951D01*
X1403Y3622D02*
X1431D01*
X1417Y3608D02*
Y3636D01*
X1403Y3307D02*
X1431D01*
X1417Y3293D02*
Y3321D01*
X1482Y3150D02*
X1510D01*
X1496Y3136D02*
Y3164D01*
X1482Y2520D02*
X1510D01*
X1496Y2506D02*
Y2534D01*
X1403Y2362D02*
X1431D01*
X1417Y2348D02*
Y2376D01*
X1482Y2205D02*
X1510D01*
X1496Y2191D02*
Y2219D01*
X1403Y2047D02*
X1431D01*
X1417Y2033D02*
Y2061D01*
X1482Y1890D02*
X1510D01*
X1496Y1876D02*
Y1904D01*
X1403Y1732D02*
X1431D01*
X1417Y1718D02*
Y1746D01*
X1482Y1575D02*
X1510D01*
X1496Y1561D02*
Y1589D01*
X1482Y1260D02*
X1510D01*
X1496Y1246D02*
Y1274D01*
X1403Y1102D02*
X1431D01*
X1417Y1088D02*
Y1116D01*
X1246Y3937D02*
X1274D01*
X1260Y3923D02*
Y3951D01*
X1246Y3622D02*
X1274D01*
X1260Y3608D02*
Y3636D01*
X1246Y2992D02*
X1274D01*
X1260Y2978D02*
Y3006D01*
X1246Y2362D02*
X1274D01*
X1260Y2348D02*
Y2376D01*
X1246Y1732D02*
X1274D01*
X1260Y1718D02*
Y1746D01*
X1325Y1575D02*
X1353D01*
X1339Y1561D02*
Y1589D01*
X1246Y1417D02*
X1274D01*
X1260Y1403D02*
Y1431D01*
X1325Y1260D02*
X1353D01*
X1339Y1246D02*
Y1274D01*
X1246Y1102D02*
X1274D01*
X1260Y1088D02*
Y1116D01*
X1088Y3937D02*
X1116D01*
X1102Y3923D02*
Y3951D01*
X1167Y3780D02*
X1195D01*
X1181Y3766D02*
Y3794D01*
X1088Y3622D02*
X1116D01*
X1102Y3608D02*
Y3636D01*
X1167Y3465D02*
X1195D01*
X1181Y3451D02*
Y3479D01*
X1088Y3307D02*
X1116D01*
X1102Y3293D02*
Y3321D01*
X1167Y3150D02*
X1195D01*
X1181Y3136D02*
Y3164D01*
X1088Y2992D02*
X1116D01*
X1102Y2978D02*
Y3006D01*
X1167Y2835D02*
X1195D01*
X1181Y2821D02*
Y2849D01*
X1088Y2677D02*
X1116D01*
X1102Y2663D02*
Y2691D01*
X1167Y2520D02*
X1195D01*
X1181Y2506D02*
Y2534D01*
X1088Y2362D02*
X1116D01*
X1102Y2348D02*
Y2376D01*
X1167Y2205D02*
X1195D01*
X1181Y2191D02*
Y2219D01*
X1088Y2047D02*
X1116D01*
X1102Y2033D02*
Y2061D01*
X1167Y1890D02*
X1195D01*
X1181Y1876D02*
Y1904D01*
X1088Y1732D02*
X1116D01*
X1102Y1718D02*
Y1746D01*
X1167Y1575D02*
X1195D01*
X1181Y1561D02*
Y1589D01*
X1088Y1417D02*
X1116D01*
X1102Y1403D02*
Y1431D01*
X1167Y1260D02*
X1195D01*
X1181Y1246D02*
Y1274D01*
X1088Y1102D02*
X1116D01*
X1102Y1088D02*
Y1116D01*
X3581Y3610D02*
X3609D01*
X3595Y3596D02*
Y3624D01*
X3561Y3900D02*
X3589D01*
X3575Y3886D02*
Y3914D01*
X2136Y3660D02*
X2164D01*
X2150Y3646D02*
Y3674D01*
X2136Y3585D02*
X2164D01*
X2150Y3571D02*
Y3599D01*
X2136Y3385D02*
X2164D01*
X2150Y3371D02*
Y3399D01*
X2136Y3455D02*
X2164D01*
X2150Y3441D02*
Y3469D01*
X2136Y3520D02*
X2164D01*
X2150Y3506D02*
Y3534D01*
X1901Y2980D02*
X1929D01*
X1915Y2966D02*
Y2994D01*
X1901Y3045D02*
X1929D01*
X1915Y3031D02*
Y3059D01*
X1901Y3110D02*
X1929D01*
X1915Y3096D02*
Y3124D01*
X1315Y1394D02*
X1472D01*
X1394Y1315D02*
Y1472D01*
X3678Y1394D02*
X3835D01*
X3756Y1315D02*
Y1472D01*
X3678Y3756D02*
X3835D01*
X3756Y3678D02*
Y3835D01*
X1315Y3756D02*
X1472D01*
X1394Y3678D02*
Y3835D01*
%TF.MD5,703e4f48acb6943a9dafb030aa5f97c9*%
M02*
