%TF.GenerationSoftware,Altium Limited,Altium Designer,22.9.1 (49)*%
G04 Layer_Color=255*
%FSLAX23Y23*%
%MOIN*%
%TF.SameCoordinates,7E49B892-F471-4493-957F-970E4ADD815D*%
%TF.FilePolarity,Positive*%
%TF.FileFunction,Pads,Bot*%
%TF.Part,Single*%
G01*
G75*
%TA.AperFunction,ComponentPad*%
%ADD28C,0.073*%
%ADD29R,0.067X0.067*%
%ADD30R,0.063X0.063*%
%ADD31C,0.063*%
%ADD32C,0.052*%
%ADD33C,0.050*%
%ADD34C,0.060*%
%ADD35R,0.060X0.060*%
%ADD36R,0.060X0.060*%
%ADD37R,0.063X0.063*%
%ADD38C,0.063*%
G04:AMPARAMS|DCode=39|XSize=63mil|YSize=63mil|CornerRadius=16mil|HoleSize=0mil|Usage=FLASHONLY|Rotation=0.000|XOffset=0mil|YOffset=0mil|HoleType=Round|Shape=RoundedRectangle|*
%AMROUNDEDRECTD39*
21,1,0.063,0.031,0,0,0.0*
21,1,0.031,0.063,0,0,0.0*
1,1,0.031,0.016,-0.016*
1,1,0.031,-0.016,-0.016*
1,1,0.031,-0.016,0.016*
1,1,0.031,0.016,0.016*
%
%ADD39ROUNDEDRECTD39*%
D28*
X2099Y2416D02*
D03*
X1701D02*
D03*
X2099Y2814D02*
D03*
X1701D02*
D03*
D29*
X1900Y2615D02*
D03*
D30*
X3913Y2087D02*
D03*
X3915Y2846D02*
D03*
D31*
X3913Y1969D02*
D03*
Y1851D02*
D03*
Y1733D02*
D03*
X3915Y2728D02*
D03*
Y2610D02*
D03*
Y2492D02*
D03*
X2916Y1285D02*
D03*
X2798D02*
D03*
X2680D02*
D03*
D32*
X3990Y1614D02*
D03*
Y2205D02*
D03*
X3992Y2374D02*
D03*
Y2964D02*
D03*
X2444Y1362D02*
D03*
X3034D02*
D03*
D33*
X1377Y2798D02*
D03*
Y2444D02*
D03*
X1899Y1352D02*
D03*
X2253D02*
D03*
X1382Y3391D02*
D03*
Y3037D02*
D03*
X1372Y2211D02*
D03*
Y1857D02*
D03*
D34*
X1300Y2680D02*
D03*
X2017Y1275D02*
D03*
X1305Y3273D02*
D03*
X1295Y2093D02*
D03*
D35*
X1300Y2562D02*
D03*
X1305Y3155D02*
D03*
X1295Y1975D02*
D03*
D36*
X2135Y1275D02*
D03*
D37*
X2562Y1285D02*
D03*
D38*
X3060Y3140D02*
D03*
D39*
X2960D02*
D03*
%TF.MD5,0333eee68961b5b62755a5bb773e6405*%
M02*
